<svg width="163" height="162" viewBox="0 0 163 162" fill="none" xmlns="http://www.w3.org/2000/svg">
<path d="M51.9473 116.483C50.8012 108.509 51.9473 83.4503 80.5994 80.0332C96.6445 80.0332 110.398 91.4237 113.836 108.509C117.274 125.595 104.667 142.681 85.1837 142.681C65.7003 142.681 53.0934 124.456 51.9473 116.483Z" fill="#34CDAA"/>
<path d="M51.1977 46.6591C69.0697 46.6591 96.4033 40.3945 102.711 41.4386M51.1977 60.2324C57.8559 59.1883 72.6441 57.1001 78.5314 57.1001M30.1719 18.4685C30.1719 30.9977 42.7874 148.981 42.7874 153.157C42.7874 157.334 127.942 145.849 132.147 145.849C133.259 145.849 133.122 136.585 132.299 122.878C131.927 116.678 131.415 109.569 130.814 101.996C129.679 87.6816 128.228 71.7118 126.815 57.1001C125.618 44.7275 124.447 33.3287 123.517 24.733C122.551 15.8054 121.843 9.9017 121.634 9.07159C120.583 4.8952 36.4796 18.4685 30.1719 18.4685Z" stroke="#08386F" stroke-width="5.04571" stroke-linecap="round" stroke-linejoin="round"/>
<path d="M55.3857 110.057L110.398 102.836M80.2968 81.1729L87.5625 135.847M70.9552 84.2676C60.5755 98.7099 63.6894 122.436 80.2968 135.847M91.7144 83.236C104.17 93.5519 102.094 124.5 96.9042 133.784M64.7274 127.594C71.9931 122.436 92.7523 114.184 107.284 122.436M60.5755 92.5203C71.9931 97.6783 95.8662 94.5835 101.056 88.394" stroke="#08386F" stroke-width="5.04571" stroke-linecap="round" stroke-linejoin="round"/>
</svg>
