<svg xmlns="http://www.w3.org/2000/svg" width="60" height="51" viewBox="0 0 60 51" fill="none">
    <path d="M10.29 2.26476C9.5794 23.8066 11.0793 42.5546 11.0793 42.5546C11.7175 41.7887 13.377 40.3335 14.9088 40.6399V49.0648L21.0361 49.4478C24.4405 49.6606 29.0694 49.6394 34.8224 49.5638C37.3527 49.5305 39.6559 49.4868 41.3326 49.4478C41.5879 47.916 42.7113 44.546 45.1622 43.3205C44.6516 44.4694 44.0899 47.1501 45.9281 48.6819C46.231 45.6526 49.4095 42.3837 51.6724 40.7707V40.6398C52.3506 21.649 51.8276 5.66112 51.699 2.25014C51.6844 1.86135 51.3917 1.55883 51.0034 1.53404C47.2797 1.29629 28.6407 0.23343 10.9954 1.52728C10.6066 1.55579 10.3028 1.87506 10.29 2.26476Z" fill="white" stroke="white" stroke-width="1.14886" stroke-linecap="round" stroke-linejoin="round"/>
    <path d="M24.6504 49.0941V37.3246C24.6504 33.2136 27.6934 32.3 29.2304 32.3C30.7673 32.3 33.8413 33.6704 33.8413 37.3246V49.1177C32.4036 49.1406 30.8568 49.1532 29.2304 49.1493C27.7615 49.1459 26.2276 49.129 24.6504 49.0941Z" fill="#7FB5F1" stroke="#7FB5F1" stroke-width="1.69266" stroke-linecap="round" stroke-linejoin="round"/>
    <path d="M25.4256 40.5418C25.3919 40.3122 25.4256 39.5906 26.2688 39.4922C26.741 39.4922 27.1457 39.8202 27.2469 40.3122C27.3481 40.8042 26.9771 41.2962 26.4037 41.2962C25.8304 41.2962 25.4594 40.7714 25.4256 40.5418Z" fill="#042040"/>
    <path d="M10.1016 33.4492C10.1016 33.4492 9.35192 23.7028 10.0777 2.35607C10.091 1.96637 10.3949 1.64124 10.7837 1.61273C28.429 0.318879 47.068 1.38174 50.7917 1.61949C51.18 1.64428 51.4727 1.9468 51.4873 2.33559C51.6159 5.74657 52.1389 21.7344 51.4607 40.7253M18.5266 49.5332C21.9311 49.746 28.8577 49.7248 34.6107 49.6492M58.7368 48.7674C57.205 48.1546 56.4391 44.5549 55.6732 41.8741C54.5243 44.9378 53.2478 46.342 51.8436 47.6185C50.9246 43.6358 52.2266 40.853 52.9925 39.9594C51.0777 40.7253 46.0993 44.9378 45.7164 48.7674C43.8782 47.2355 44.4399 44.5549 44.9505 43.406C42.4996 44.6315 41.3762 48.0014 41.1209 49.5332C39.4442 49.5722 37.141 49.616 34.6107 49.6492M25.4198 32.8947C26.6033 31.8475 28.1123 31.5344 29.1005 31.5344C30.9372 31.5344 34.6107 33.157 34.6107 37.4839V49.6492" stroke="#042040" stroke-width="1.69266" stroke-linecap="round" stroke-linejoin="round"/>
    <path d="M3.86291 48.3842C3.75349 46.9867 3.00947 43.8048 0.908691 42.2569C2.00285 42.0419 5.50414 43.2244 6.81713 45.4818C6.16063 42.9019 6.75148 38.1936 9.11485 36.1296C8.67719 38.9245 9.11485 43.8694 9.77135 44.8368C10.4278 44.1919 11.8065 41.2895 14.695 41.2895C13.8197 42.2569 12.3973 44.9013 13.7103 47.7392" stroke="#042040" stroke-width="1.69266" stroke-linecap="round" stroke-linejoin="round"/>
    <path fill-rule="evenodd" clip-rule="evenodd" d="M18.0657 19.0828C17.4924 19.1035 17.0382 19.4241 17.0214 19.8197C16.9708 21.0142 17.0083 24.0401 17.021 24.8141C17.0264 25.143 17.338 25.4322 17.7931 25.5308C18.113 25.6 18.545 25.6145 18.864 25.6202C19.2342 25.6269 19.6587 25.6224 20.0599 25.6141C20.4636 25.6058 20.8576 25.5933 21.1685 25.5831C21.2076 25.5818 21.2452 25.5806 21.2812 25.5794C21.3901 25.5758 21.4847 25.5727 21.5644 25.5703C21.6171 25.5687 21.6603 25.5675 21.6943 25.5667L21.7349 25.5659L21.7467 25.5657L21.7506 25.5657C22.0442 25.5656 22.3256 25.4849 22.5325 25.3412C22.7394 25.1976 22.8547 25.003 22.8528 24.8006C22.8437 23.8369 22.8544 22.9713 22.8637 22.2066C22.8755 21.2496 22.8853 20.4505 22.8521 19.8147C22.8339 19.4654 22.4728 19.1698 21.9768 19.098C21.6801 19.055 21.2638 19.0425 20.8991 19.0377C20.5029 19.0325 20.0548 19.036 19.6396 19.0426C19.2226 19.0493 18.8299 19.0594 18.5421 19.0677C18.3979 19.0718 18.2795 19.0756 18.1969 19.0783L18.1008 19.0815L18.0657 19.0828ZM18.0657 8.94701C17.4924 8.96771 17.0382 9.2883 17.0214 9.68397C16.9708 10.8784 17.0083 13.9043 17.021 14.6784C17.0264 15.0073 17.338 15.2965 17.7931 15.395C18.113 15.4643 18.545 15.4788 18.864 15.4845C19.2342 15.4911 19.6587 15.4866 20.0599 15.4783C20.4636 15.47 20.8576 15.4575 21.1685 15.4473C21.2076 15.4461 21.2451 15.4448 21.281 15.4437C21.39 15.4401 21.4847 15.4369 21.5644 15.4345C21.6171 15.4329 21.6603 15.4317 21.6943 15.4309L21.7349 15.4301L21.7467 15.4299L21.7498 15.4299C22.0433 15.4299 22.3256 15.3491 22.5325 15.2055C22.7394 15.0618 22.8547 14.8672 22.8528 14.6648C22.8437 13.7011 22.8544 12.8356 22.8637 12.0708C22.8755 11.1139 22.8853 10.3148 22.8521 9.67891C22.8339 9.32968 22.4728 9.03399 21.9768 8.96222C21.6801 8.91928 21.2638 8.90672 20.8991 8.90192C20.5029 8.89671 20.0548 8.90023 19.6396 8.90689C19.2226 8.91358 18.8299 8.92359 18.5421 8.9319C18.3979 8.93607 18.2795 8.93982 18.1969 8.94254L18.1008 8.94578L18.0657 8.94701Z" fill="#7FB5F1"/>
    <path d="M28.0441 19.8198C28.0609 19.4241 28.5151 19.1035 29.0884 19.0828L29.1235 19.0816L29.2196 19.0783C29.3022 19.0756 29.4206 19.0718 29.5648 19.0677C29.8526 19.0594 30.2453 19.0494 30.6623 19.0427C31.0775 19.036 31.5256 19.0325 31.9218 19.0377C32.2865 19.0425 32.7028 19.0551 32.9996 19.098C33.4955 19.1698 33.8566 19.4655 33.8748 19.8147C33.908 20.4506 33.8982 21.2496 33.8864 22.2066C33.8771 22.9713 33.8664 23.8369 33.8755 24.8006C33.8774 25.003 33.7622 25.1976 33.5552 25.3412C33.3483 25.4849 33.0669 25.5656 32.7733 25.5657L32.7694 25.5657L32.7576 25.5659L32.717 25.5667C32.683 25.5675 32.6398 25.5687 32.5871 25.5703C32.5079 25.5727 32.4138 25.5758 32.3057 25.5793L32.3039 25.5794L32.1912 25.5831C31.8803 25.5933 31.4863 25.6058 31.0826 25.6141C30.6814 25.6224 30.257 25.6269 29.8867 25.6202C29.5677 25.6145 29.1357 25.6 28.8158 25.5308C28.3607 25.4322 28.0491 25.143 28.0437 24.8141C28.031 24.0401 27.9936 21.0142 28.0441 19.8198Z" fill="#7FB5F1"/>
    <path d="M28.0441 9.68397C28.0609 9.2883 28.5151 8.96771 29.0884 8.94701L29.1235 8.94578L29.2196 8.94254C29.3022 8.93982 29.4206 8.93607 29.5648 8.9319C29.8526 8.92359 30.2453 8.91358 30.6623 8.90689C31.0775 8.90023 31.5256 8.89671 31.9218 8.90192C32.2865 8.90672 32.7028 8.91928 32.9996 8.96222C33.4955 9.03399 33.8566 9.32968 33.8748 9.67891C33.908 10.3148 33.8982 11.1139 33.8864 12.0708L33.8864 12.0708C33.8771 12.8356 33.8664 13.7011 33.8755 14.6648C33.8774 14.8672 33.7622 15.0618 33.5552 15.2055C33.3483 15.3491 33.0669 15.4299 32.7733 15.4299L32.7694 15.4299L32.7576 15.4301L32.717 15.4309C32.683 15.4317 32.6398 15.4329 32.5871 15.4345C32.5074 15.4369 32.4127 15.4401 32.3037 15.4437L32.1912 15.4473C31.8803 15.4575 31.4863 15.47 31.0826 15.4783C30.6814 15.4866 30.2569 15.4911 29.8867 15.4845C29.5677 15.4788 29.1357 15.4643 28.8158 15.395C28.3607 15.2965 28.0491 15.0073 28.0437 14.6784C28.031 13.9043 27.9936 10.8784 28.0441 9.68397Z" fill="#7FB5F1"/>
    <path d="M38.6579 19.8198C38.6746 19.4241 39.1289 19.1035 39.7022 19.0828L39.7373 19.0816L39.8334 19.0783C39.916 19.0756 40.0344 19.0718 40.1785 19.0677C40.4664 19.0594 40.8591 19.0494 41.2761 19.0427C41.6913 19.036 42.1394 19.0325 42.5356 19.0377C42.9003 19.0425 43.3166 19.0551 43.6133 19.098C44.1093 19.1698 44.4704 19.4655 44.4886 19.8147C44.5217 20.4506 44.5119 21.2496 44.5002 22.2066C44.4908 22.9713 44.4802 23.8369 44.4893 24.8006C44.4912 25.003 44.3759 25.1976 44.169 25.3412C43.9621 25.4849 43.6807 25.5656 43.3871 25.5657L43.3832 25.5657L43.3714 25.5659L43.3308 25.5667C43.2968 25.5675 43.2536 25.5687 43.2009 25.5703C43.1216 25.5727 43.0276 25.5758 42.9195 25.5793L42.9176 25.5794L42.805 25.5831C42.4941 25.5933 42.1001 25.6058 41.6964 25.6141C41.2952 25.6224 40.8707 25.6269 40.5005 25.6202C40.1814 25.6145 39.7495 25.6 39.4295 25.5308C38.9745 25.4322 38.6629 25.143 38.6575 24.8141C38.6447 24.0401 38.6073 21.0142 38.6579 19.8198Z" fill="#7FB5F1"/>
    <path d="M38.6579 9.68397C38.6746 9.2883 39.1289 8.96771 39.7022 8.94701L39.7373 8.94578L39.8333 8.94254C39.916 8.93982 40.0344 8.93607 40.1785 8.9319C40.4664 8.92359 40.8591 8.91358 41.276 8.90689C41.6913 8.90023 42.1394 8.89671 42.5356 8.90192C42.9003 8.90672 43.3166 8.91928 43.6133 8.96222C44.1093 9.03399 44.4704 9.32968 44.4886 9.67891C44.5217 10.3148 44.5119 11.1139 44.5002 12.0708L44.5002 12.0708C44.4908 12.8356 44.4802 13.7011 44.4893 14.6648C44.4912 14.8672 44.3759 15.0618 44.169 15.2055C43.9621 15.3491 43.6807 15.4299 43.3871 15.4299L43.3832 15.4299L43.3714 15.4301L43.3308 15.4309C43.2968 15.4317 43.2536 15.4329 43.2009 15.4345C43.1212 15.4369 43.0264 15.4401 42.9175 15.4437L42.805 15.4473C42.4941 15.4575 42.1001 15.47 41.6964 15.4783C41.2952 15.4866 40.8707 15.4911 40.5005 15.4845C40.1814 15.4788 39.7495 15.4643 39.4295 15.395C38.9745 15.2965 38.6629 15.0073 38.6575 14.6784C38.6447 13.9043 38.6073 10.8784 38.6579 9.68397Z" fill="#7FB5F1"/>
</svg>