<svg width="163" height="163" viewBox="0 0 163 163" fill="none" xmlns="http://www.w3.org/2000/svg">
<path d="M151 35.7456C107.578 35.7456 39.3291 33.2293 34.7463 37.4418C29.1172 49.837 16.6537 103.593 10.9998 125.643C40.8526 127 101.811 127.339 127.253 127.339C136.752 100.2 147.042 54.969 151 35.7456Z" stroke="#08386F" stroke-width="3.87512" stroke-linejoin="round"/>
<path d="M99.9639 59.8144C99.4031 60.8084 99.9078 62.5523 100.907 63.1046V63.1046C103.299 64.4276 105.201 60.0452 102.642 59.082C101.632 58.702 100.491 58.8796 99.9639 59.8144Z" fill="#08386F" stroke="#08386F" stroke-width="1.50979"/>
<path d="M110.571 61.9148C113.59 63.4246 131.708 60.4051 133.218 61.9148M110.571 72.4833C112.081 70.9735 125.669 72.4833 127.178 72.4833" stroke="#08386F" stroke-width="3.87512" stroke-linecap="round" stroke-linejoin="round"/>
<path d="M90.9053 90.0102C90.3445 91.0042 90.8492 92.7481 91.848 93.3004V93.3004C94.2406 94.6234 96.1419 90.241 93.5832 89.2778C92.5737 88.8978 91.4328 89.0754 90.9053 90.0102Z" fill="#08386F" stroke="#08386F" stroke-width="1.50979"/>
<path d="M101.513 92.1102C102.99 93.6199 122.617 90.6004 124.159 92.1102M101.513 102.679C101.513 102.679 118.088 101.169 118.12 102.679" stroke="#08386F" stroke-width="3.87512" stroke-linecap="round" stroke-linejoin="round"/>
<path d="M34.1596 86.8836C33.5123 80.6332 35.0947 61.4909 56.2908 58.7492C57.1893 58.633 57.9167 59.4473 57.7313 60.3342C56.8557 64.5223 54.7412 75.1448 54.4161 81.5269C54.3748 82.3363 55.0833 82.9632 55.8886 82.8718C65.3339 81.7994 75.5682 81.5921 79.1712 81.5521C79.9155 81.5438 80.5206 82.1467 80.4762 82.8897C79.7622 94.8227 69.7381 106.413 56.1156 105.886C40.5986 105.285 34.825 93.3084 34.1596 86.8836Z" fill="#4A94E8" stroke="#4A94E8" stroke-width="1.8269" stroke-linejoin="round"/>
<path d="M64.9887 55.2799C76.5943 56.0464 82.547 61.8254 84.8891 74.2151C85.0372 74.9988 84.4622 75.7254 83.6658 75.7711C79.6109 76.0041 68.195 76.6534 61.7727 76.9521C61.0224 76.987 60.3923 76.4016 60.4084 75.6507C60.5507 69.0356 62.851 59.4049 63.6456 56.2594C63.7997 55.6495 64.361 55.2384 64.9887 55.2799Z" fill="#4A94E8" stroke="#4A94E8" stroke-width="1.8269" stroke-linejoin="round"/>
</svg>
