<svg width="64" height="79" viewBox="0 0 64 79" fill="none" xmlns="http://www.w3.org/2000/svg">
<path d="M57.7019 7.49404C58.0204 7.3804 58.4384 7.28207 58.8743 7.33542C59.3089 7.3886 59.6435 7.64129 59.7802 7.74736C59.9716 7.89595 60.1633 8.07892 60.3409 8.26266C60.6999 8.63394 61.0963 9.10748 61.4653 9.57188C62.8172 11.2731 63.2861 13.4484 62.958 15.5246C62.7954 16.5536 62.5764 17.924 62.2846 19.7238C61.6223 23.809 60.7131 29.2575 59.5566 35.8321C57.7031 46.3691 55.5262 58.281 52.4411 73.4337C51.9468 75.8613 49.7741 77.6024 47.2754 77.4913C30.8837 76.7628 13.3348 74.0004 6.68939 72.8731C4.55511 72.5111 2.74063 71.1247 1.8535 69.1377C1.58115 68.5276 1.31256 67.9067 1.13007 67.4363C1.04236 67.2102 0.957618 66.9761 0.906791 66.7836C0.88839 66.714 0.839812 66.5288 0.842896 66.3208L0.842931 66.3184C0.843986 66.2451 0.848772 65.9125 1.0858 65.5928C1.23159 65.3962 1.45339 65.223 1.74174 65.1444C2.01076 65.0711 2.24323 65.1057 2.39053 65.1468L2.43649 65.1581L2.56426 65.1876L2.96864 65.2765L4.12544 65.52C4.98252 65.6971 5.86476 65.8733 6.20193 65.9312C7.04429 66.0761 8.07528 66.2633 9.26932 66.4801L9.27299 66.4808L9.27311 66.4808C16.9314 67.8716 31.3267 70.4858 46.1825 71.045C46.7137 71.065 47.1901 70.6938 47.2999 70.1569L54.6708 31.3083L57.3935 15.2316C57.5013 14.5665 57.1939 13.8366 56.6236 12.9188L56.35 12.4897L56.35 12.4897C56.1596 12.1944 55.9545 11.8764 55.807 11.6134C55.6016 11.2472 55.2594 10.5888 55.3719 9.87022C55.4471 9.39048 55.6943 9.0003 55.9211 8.72653C56.1589 8.43938 56.4484 8.19053 56.7413 7.99006C57.0353 7.78889 57.3651 7.61419 57.7019 7.49404Z" fill="#FF9881"/>
<path d="M57.7049 7.9678C52.3961 6.7327 36.7827 3.64139 16.0198 4.34998C15.0269 4.38387 14.1694 5.05704 13.8688 6.00397C13.2991 7.79867 12.8391 9.03683 12.2624 11.2074C10.8536 16.5092 9.6014 21.7107 8.49399 26.6864C4.3351 45.3729 2.44169 59.7843 1.83198 64.9913C1.69181 66.1884 2.49538 67.2637 3.68319 67.4679C9.88382 68.5341 28.8613 71.591 46.1379 72.2413C47.2625 72.2836 48.2476 71.4994 48.4731 70.3969C51.6979 54.6305 53.9447 42.3476 55.8501 31.5157C57.0056 24.9468 57.914 19.5035 58.5755 15.4232C58.9459 13.1386 59.1988 11.5474 59.3677 10.4689C59.548 9.3178 58.8397 8.23181 57.7049 7.9678Z" fill="white"/>
<path fill-rule="evenodd" clip-rule="evenodd" d="M57.4348 9.13373C52.1957 7.91486 36.6909 4.84232 16.0618 5.54636C15.5938 5.56233 15.164 5.88402 15.0109 6.36614C14.8456 6.88691 14.6919 7.35433 14.5437 7.80523C14.1679 8.94791 13.8271 9.98454 13.4205 11.5148C12.0163 16.7991 10.7679 21.9847 9.66364 26.9465C5.51586 45.583 3.62842 59.9525 3.0221 65.1305C2.95588 65.696 3.32663 66.1917 3.8872 66.2881C10.0778 67.3526 28.9907 70.3978 46.1841 71.0451C46.7152 71.065 47.1916 70.6939 47.3015 70.157C50.5235 54.4043 52.7682 42.1327 54.6723 31.3083C55.8268 24.745 56.7343 19.3071 57.395 15.2316C57.7652 12.9487 58.0177 11.3596 58.1862 10.2836C58.2726 9.73197 57.9391 9.25105 57.4348 9.13373ZM15.9801 3.15358C36.8767 2.44042 52.5988 5.55053 57.9773 6.80184C59.7426 7.21255 60.8257 8.9036 60.5516 10.6541C60.3822 11.7352 60.129 13.3285 59.7584 15.6148C59.0961 19.6999 58.1868 25.1485 57.0303 31.7231C55.1236 42.5624 52.8747 54.8566 49.6471 70.6367C49.3059 72.305 47.812 73.5022 46.094 73.4375C28.7343 72.784 9.69214 69.7156 3.48149 68.6477C1.66645 68.3356 0.430059 66.6807 0.644178 64.8521C1.25727 59.6162 3.15665 45.1627 7.32666 26.4264C8.43716 21.4367 9.69314 16.2193 11.1066 10.9C11.5322 9.29832 11.9021 8.17313 12.2852 7.00798C12.43 6.56758 12.5767 6.12148 12.729 5.64179C13.1771 4.23004 14.4623 3.20538 15.9801 3.15358Z" fill="#042040"/>
<path d="M14.7145 25.4792C15.6432 17.9342 17.1417 12.4086 17.9156 10.0472C26.0279 10.2073 40.9865 11.5542 53.3565 13.6777C52.9695 16.4314 52.0127 22.61 50.1554 29.6285C39.3577 28.8062 23.7391 26.6903 14.7145 25.4792Z" fill="white"/>
<path fill-rule="evenodd" clip-rule="evenodd" d="M18.6432 11.0646C17.8854 13.5438 16.6698 18.309 15.8328 24.6204C24.7404 25.8163 39.0687 27.7361 49.3994 28.5662C50.9201 22.6557 51.7943 17.4276 52.2277 14.501C40.472 12.5415 26.6315 11.2816 18.6432 11.0646ZM17.9357 9.04743C26.1028 9.20854 41.1115 10.561 53.526 12.6922C54.0587 12.7836 54.4223 13.2817 54.3471 13.8169C53.9574 16.5901 52.994 22.8121 51.1224 29.8843C50.9991 30.3505 50.5606 30.6622 50.0798 30.6256C39.5672 29.825 24.5169 27.8043 15.3986 26.58C15.1207 26.5427 14.8484 26.5061 14.5819 26.4704C14.0387 26.3975 13.6554 25.901 13.7224 25.3571C14.6591 17.7465 16.172 12.1575 16.9657 9.73581C17.1026 9.3181 17.4962 9.03876 17.9357 9.04743Z" fill="#042040"/>
<path fill-rule="evenodd" clip-rule="evenodd" d="M33.0926 21.1069C33.1717 20.5138 33.7166 20.0971 34.3096 20.1762C35.2176 20.2973 36.5545 20.4715 38.0938 20.6658C38.6874 20.7408 39.1079 21.2827 39.0329 21.8763C38.958 22.4699 38.416 22.8904 37.8224 22.8154C36.2786 22.6205 34.9367 22.4457 34.0233 22.3239C33.4302 22.2448 33.0136 21.6999 33.0926 21.1069ZM40.6742 22.0789C40.7454 21.4848 41.2848 21.061 41.8788 21.1323C43.9532 21.3811 46.0647 21.622 47.8159 21.7971C48.4113 21.8566 48.8456 22.3875 48.7861 22.9828C48.7266 23.5782 48.1957 24.0125 47.6003 23.953C45.8286 23.7758 43.7011 23.5331 41.6208 23.2835C41.0267 23.2123 40.6029 22.6729 40.6742 22.0789Z" fill="#FF9881"/>
<path fill-rule="evenodd" clip-rule="evenodd" d="M12.4747 32.0266C12.7007 31.1697 13.4857 30.572 14.3844 30.6058C16.0903 30.6698 18.9183 30.912 21.5282 31.5471C22.3953 31.7581 23.0335 32.5701 22.9137 33.5197C22.7529 34.7936 22.3469 36.5074 22.0293 37.7121C21.8036 38.5678 21.019 39.1691 20.1152 39.1289C18.5289 39.0582 15.8529 38.8092 13.027 38.1802C12.1429 37.9835 11.4687 37.164 11.5945 36.1864C11.7579 34.9165 12.1596 33.2217 12.4747 32.0266Z" fill="#FF9881"/>
<path fill-rule="evenodd" clip-rule="evenodd" d="M10.1535 43.9231C10.3795 43.0662 11.1645 42.4685 12.0632 42.5022C13.7691 42.5663 16.5971 42.8085 19.207 43.4436C20.0741 43.6546 20.7123 44.4666 20.5925 45.4162C20.4318 46.6901 20.0257 48.4039 19.7081 49.6086C19.4825 50.4643 18.6979 51.0656 17.794 51.0253C16.2077 50.9547 13.5317 50.7057 10.7058 50.0767C9.82172 49.8799 9.14753 49.0605 9.27331 48.0829C9.43668 46.813 9.83844 45.1181 10.1535 43.9231Z" fill="#FF9881"/>
<path fill-rule="evenodd" clip-rule="evenodd" d="M7.83238 55.5315C8.05833 54.6746 8.84337 54.0769 9.74203 54.1106C11.4479 54.1747 14.2759 54.4169 16.8859 55.0519C17.753 55.2629 18.3911 56.0749 18.2713 57.0245C18.1106 58.2984 17.7046 60.0123 17.3869 61.217C17.1613 62.0726 16.3767 62.674 15.4729 62.6337C13.8865 62.563 11.2105 62.3141 8.38464 61.6851C7.50056 61.4883 6.82637 60.6688 6.95214 59.6912C7.11552 58.4213 7.51728 56.7265 7.83238 55.5315Z" fill="#FF9881"/>
<path fill-rule="evenodd" clip-rule="evenodd" d="M39.1853 35.5332C39.383 34.6693 40.1479 34.0461 41.0472 34.0503C42.7543 34.0582 45.5887 34.2072 48.2182 34.756C49.0917 34.9383 49.7562 35.7289 49.6678 36.6819C49.5491 37.9604 49.1997 39.6867 48.9218 40.9012C48.7245 41.7638 47.9601 42.3907 47.0554 42.3802C45.4676 42.3617 42.7849 42.201 39.9398 41.6653C39.0497 41.4977 38.349 40.7009 38.4425 39.7197C38.564 38.4451 38.9097 36.738 39.1853 35.5332Z" fill="#FF9881"/>
<path fill-rule="evenodd" clip-rule="evenodd" d="M25.7793 33.8314C25.9989 32.9728 26.7795 32.3693 27.6784 32.3964C29.3847 32.4479 32.2144 32.6692 34.829 33.2849C35.6976 33.4895 36.3417 34.2968 36.229 35.2472C36.0777 36.5223 35.6843 38.2391 35.3756 39.4461C35.1563 40.3034 34.3761 40.9105 33.472 40.8769C31.8852 40.818 29.2075 40.5888 26.377 39.9807C25.4915 39.7905 24.8113 38.976 24.9298 37.9975C25.0838 36.7264 25.473 35.0287 25.7793 33.8314Z" fill="#FF9881"/>
<path fill-rule="evenodd" clip-rule="evenodd" d="M23.4644 45.6633C23.6841 44.8048 24.4647 44.2013 25.3635 44.2284C27.0699 44.2798 29.8996 44.5011 32.5142 45.1169C33.3828 45.3215 34.0269 46.1288 33.9141 47.0792C33.7629 48.3543 33.3695 50.071 33.0607 51.2781C32.8415 52.1354 32.0613 52.7425 31.1572 52.7089C29.5704 52.65 26.8927 52.4208 24.0622 51.8127C23.1767 51.6224 22.4964 50.808 22.615 49.8295C22.769 48.5584 23.1582 46.8606 23.4644 45.6633Z" fill="#FF9881"/>
<path fill-rule="evenodd" clip-rule="evenodd" d="M21.1856 57.336C21.4053 56.4774 22.1859 55.8739 23.0847 55.9011C24.7911 55.9525 27.6208 56.1738 30.2353 56.7896C31.104 56.9942 31.7481 57.8014 31.6353 58.7519C31.484 60.0269 31.0907 61.7437 30.7819 62.9507C30.5626 63.808 29.7825 64.4152 28.8784 64.3816C27.2916 64.3226 24.6138 64.0934 21.7834 63.4854C20.8978 63.2951 20.2176 62.4807 20.3362 61.5021C20.4902 60.2311 20.8794 58.5333 21.1856 57.336Z" fill="#FF9881"/>
<path d="M45.9305 47.0819C43.3725 46.548 40.5963 46.4008 38.9193 46.3931C38.401 46.3907 37.9611 46.7436 37.8436 47.2484C37.1329 50.3026 34.9813 59.881 34.4969 63.0075C34.4153 63.5339 34.7651 63.9806 35.2885 64.0791C38.0782 64.6044 40.7131 64.7622 42.2654 64.7802C42.7837 64.7862 43.2226 64.4336 43.3401 63.9288C44.053 60.8648 46.2163 51.2343 46.6914 48.1397C46.7701 47.6274 46.4379 47.1878 45.9305 47.0819Z" fill="white"/>
<path fill-rule="evenodd" clip-rule="evenodd" d="M36.8703 47.0218C37.0919 46.0694 37.9325 45.3885 38.9246 45.3931C40.6393 45.401 43.4883 45.5504 46.1356 46.1031L45.933 47.0733L46.1356 46.1031C47.119 46.3083 47.8466 47.2102 47.6806 48.2914C47.1983 51.4325 45.0243 61.1059 44.3148 64.1555C44.0935 65.1063 43.2534 65.7918 42.2545 65.7802C40.6578 65.7617 37.9631 65.6002 35.1042 65.0619C34.1042 64.8736 33.3371 63.9667 33.5094 62.8544C34.0008 59.6825 36.1629 50.0622 36.8703 47.0218ZM38.8552 47.4125C38.8405 47.4242 38.8256 47.4436 38.8183 47.4751C38.109 50.5232 35.9906 59.9572 35.4952 63.1004C38.2078 63.6094 40.7738 63.7629 42.2777 63.7803C42.3025 63.7806 42.3188 63.7734 42.3312 63.7635C42.3444 63.7531 42.3593 63.7345 42.3668 63.7022C43.078 60.6456 45.2052 51.1722 45.6935 48.0539C43.2339 47.5442 40.5473 47.4006 38.9154 47.3931C38.8883 47.393 38.8695 47.4011 38.8552 47.4125Z" fill="#042040"/>
</svg>
