<svg xmlns="http://www.w3.org/2000/svg" width="64" height="64" viewBox="0 0 64 64" fill="none">
    <path fill-rule="evenodd" clip-rule="evenodd" d="M34.7316 9.54846C37.6641 9.53032 40.391 9.55273 41.4267 9.68219C43.334 9.92061 50.0812 10.1883 53.2438 10.2864C53.6449 10.2988 53.9637 10.6276 53.9637 11.0289C53.9637 12.4464 53.9853 14.5736 54.0341 16.4967C54.0838 18.4541 54.1604 20.1109 54.2569 20.651C54.3216 21.0137 54.3689 21.7122 54.4025 22.5075C54.437 23.3227 54.4589 24.2937 54.4644 25.2347C54.4699 26.1743 54.459 27.0931 54.4269 27.8013C54.4109 28.1534 54.3891 28.4671 54.3593 28.71C54.3447 28.8296 54.3259 28.9501 54.3001 29.0565C54.2873 29.1094 54.2689 29.1749 54.2416 29.2423C54.2202 29.2953 54.1659 29.4209 54.0509 29.5359C53.9524 29.6343 53.8504 29.6812 53.815 29.6969C53.7672 29.7181 53.725 29.7313 53.6978 29.7391C53.643 29.7548 53.5898 29.7649 53.55 29.7716C53.467 29.7857 53.3671 29.7971 53.261 29.8072C53.0451 29.8276 52.7482 29.847 52.3883 29.8656C51.6657 29.9029 50.6551 29.9389 49.4556 29.9722C47.055 30.0391 43.8792 30.0963 40.6958 30.1344C37.5124 30.1725 34.3176 30.1916 31.8789 30.1821C30.6603 30.1773 29.626 30.1654 28.8751 30.1449C28.5007 30.1347 28.1894 30.1222 27.9583 30.1068C27.8438 30.0991 27.7392 30.0902 27.6523 30.079C27.6093 30.0735 27.561 30.0663 27.5131 30.0562C27.4811 30.0495 27.387 30.0296 27.2875 29.9798C27.0398 29.856 26.9337 29.6386 26.9079 29.586L26.9069 29.5838C26.8638 29.4957 26.8346 29.4055 26.8141 29.3331C26.772 29.1842 26.7369 29.0005 26.7059 28.8027C26.6429 28.4011 26.5833 27.8501 26.5263 27.1964C26.4118 25.8842 26.3026 24.1003 26.1997 22.1395C26.0781 19.8226 25.9639 17.2336 25.8595 14.8674C25.7876 13.2372 25.7204 11.7127 25.6586 10.4558C25.6488 10.2556 25.7202 10.06 25.8567 9.91327C25.9932 9.76656 26.1832 9.68123 26.3836 9.67665C28.5192 9.62783 31.7695 9.56678 34.7316 9.54846Z" fill="white"/>
    <path fill-rule="evenodd" clip-rule="evenodd" d="M23.2088 15.1771C23.3912 15.2194 23.5112 15.3177 23.5733 15.3799C23.7858 15.5923 23.8493 15.9118 23.7344 16.1894C23.7302 16.1996 23.7257 16.2096 23.7211 16.2194C23.7148 16.2824 23.7078 16.3714 23.701 16.4898C23.6799 16.8533 23.6646 17.3997 23.6527 18.0801C23.637 18.9799 23.6275 20.0906 23.6174 21.2823C23.6122 21.8899 23.6068 22.5186 23.6004 23.1511C23.5813 25.0175 23.5527 26.9144 23.4902 28.3662C23.4591 29.0897 23.4189 29.7185 23.3651 30.1829C23.3386 30.4118 23.3062 30.6247 23.2634 30.797C23.2425 30.881 23.2125 30.9833 23.1665 31.0821C23.1375 31.1443 23.0298 31.374 22.7707 31.5036C22.7481 31.5149 22.725 31.525 22.7014 31.5339C22.5487 31.5917 22.3886 31.6274 22.2259 31.64C21.2537 31.7459 18.4552 31.7223 15.8871 31.6426C14.5817 31.6021 13.3101 31.5461 12.3259 31.4819C11.8349 31.4499 11.4079 31.4154 11.0812 31.3788C10.9187 31.3606 10.7716 31.3409 10.6497 31.3191C10.5931 31.309 10.5033 31.2925 10.408 31.2631C10.3429 31.2502 10.2797 31.2286 10.22 31.1988C9.97653 31.077 9.86682 30.8667 9.83465 30.8039C9.78609 30.7089 9.75263 30.6102 9.72867 30.5283C9.67967 30.3607 9.63962 30.1542 9.60512 29.9325C9.53514 29.4827 9.47389 28.8753 9.42102 28.176C9.31489 26.7722 9.23827 24.9387 9.20001 23.1211C9.16175 21.3038 9.16154 19.4886 9.20983 18.1219C9.23386 17.4419 9.27045 16.855 9.32339 16.4295C9.34915 16.2225 9.38268 16.0199 9.43149 15.8551C9.45428 15.7782 9.49414 15.6606 9.56656 15.547C9.61924 15.4643 9.83124 15.1623 10.2475 15.1623H22.9556C23.0363 15.1532 23.1216 15.1569 23.2088 15.1771Z" fill="white"/>
    <path d="M40.3961 39.697C40.8064 39.697 41.139 40.0296 41.139 40.4399C41.139 41.3089 41.1237 42.6744 41.0776 43.9481C41.0545 44.5846 41.0236 45.2038 40.9824 45.7293C40.9426 46.2383 40.8898 46.7093 40.812 47.0204C40.7567 47.2419 40.7106 47.6071 40.6445 48.1306L40.6188 48.3338C40.5422 48.9366 40.4439 49.6667 40.2849 50.4219C39.9743 51.8972 39.4013 53.6348 38.1366 54.7188C37.4579 55.3006 36.5261 55.6185 35.5505 55.7995C34.5621 55.9829 33.4439 56.0406 32.3196 56.0406C31.1925 56.0406 30.0313 55.9823 28.9562 55.9252L28.7416 55.9138L28.7415 55.9138C27.7408 55.8605 26.8312 55.812 26.0717 55.812C24.2876 55.812 22.8595 55.4163 21.8139 54.8116C20.7823 54.215 20.078 53.3836 19.8638 52.5014C19.6904 51.7868 19.538 49.9565 19.4624 47.7665C19.3856 45.544 19.3853 42.8616 19.5396 40.3936C19.5651 39.9841 19.9178 39.6729 20.3273 39.6985L40.3961 39.697Z" fill="white"/>
    <path fill-rule="evenodd" clip-rule="evenodd" d="M27.1792 11.1451C27.2313 12.2502 27.2865 13.5021 27.3446 14.8203C27.4485 17.176 27.5617 19.7432 27.6834 22.0616C27.7862 24.0196 27.8942 25.7821 28.0064 27.0672C28.0626 27.712 28.1188 28.2224 28.1737 28.5727C28.1769 28.5933 28.1801 28.613 28.1832 28.6319C28.3731 28.6423 28.6184 28.6516 28.9156 28.6597C29.6492 28.6797 30.6698 28.6916 31.8847 28.6964C34.3128 28.7059 37.4992 28.6868 40.678 28.6488C43.8568 28.6107 47.0242 28.5536 49.4143 28.4871C50.6101 28.4538 51.6068 28.4183 52.3116 28.3818C52.5453 28.3698 52.7433 28.3578 52.9038 28.346C52.9187 28.18 52.9318 27.9744 52.9427 27.7341C52.9732 27.0613 52.9841 26.1705 52.9787 25.2434C52.9733 24.3176 52.9517 23.3648 52.9181 22.5703C52.8837 21.756 52.8384 21.1593 52.7943 20.9123C52.673 20.2333 52.5972 18.437 52.5489 16.5344C52.5075 14.9006 52.4854 13.1224 52.4796 11.7482C49.1251 11.6364 43.0948 11.388 41.2424 11.1564C40.3275 11.0421 37.7209 11.0157 34.7408 11.0341C32.123 11.0503 29.2764 11.1001 27.1792 11.1451ZM34.7316 9.54846C37.6641 9.53032 40.391 9.55273 41.4267 9.68219C43.334 9.92061 50.0812 10.1883 53.2438 10.2864C53.6449 10.2988 53.9637 10.6276 53.9637 11.0289C53.9637 12.4464 53.9853 14.5736 54.0341 16.4967C54.0838 18.4541 54.1604 20.1109 54.2569 20.651C54.3216 21.0137 54.3689 21.7122 54.4025 22.5075C54.437 23.3227 54.4589 24.2937 54.4644 25.2347C54.4699 26.1743 54.459 27.0931 54.4269 27.8013C54.4109 28.1534 54.3891 28.4671 54.3593 28.71C54.3447 28.8296 54.3259 28.9501 54.3001 29.0565C54.2873 29.1094 54.2689 29.1749 54.2416 29.2423C54.2202 29.2953 54.1659 29.4209 54.0509 29.5359C53.9524 29.6343 53.8504 29.6812 53.815 29.6969C53.7672 29.7181 53.725 29.7313 53.6978 29.7391C53.643 29.7548 53.5898 29.7649 53.55 29.7716C53.467 29.7857 53.3671 29.7971 53.261 29.8072C53.0451 29.8276 52.7482 29.847 52.3883 29.8656C51.6657 29.9029 50.6551 29.9389 49.4556 29.9722C47.055 30.0391 43.8792 30.0963 40.6958 30.1344C37.5124 30.1725 34.3176 30.1916 31.8789 30.1821C30.6603 30.1773 29.626 30.1654 28.8751 30.1449C28.5007 30.1347 28.1894 30.1222 27.9583 30.1068C27.8438 30.0991 27.7392 30.0902 27.6523 30.079C27.6093 30.0735 27.561 30.0663 27.5131 30.0562C27.4811 30.0495 27.387 30.0296 27.2875 29.9798C27.0398 29.856 26.9337 29.6386 26.9079 29.586L26.9069 29.5838C26.8638 29.4957 26.8346 29.4055 26.8141 29.3331C26.772 29.1842 26.7369 29.0005 26.7059 28.8027C26.6429 28.4011 26.5833 27.8501 26.5263 27.1964C26.4118 25.8842 26.3026 24.1003 26.1997 22.1395C26.0781 19.8226 25.9639 17.2336 25.8595 14.8674C25.7876 13.2372 25.7204 11.7127 25.6586 10.4558C25.6488 10.2556 25.7202 10.06 25.8567 9.91327C25.9932 9.76656 26.1832 9.68123 26.3836 9.67665C28.5192 9.62783 31.7695 9.56678 34.7316 9.54846Z" fill="#042040"/>
    <path fill-rule="evenodd" clip-rule="evenodd" d="M23.2088 15.1771C23.3912 15.2194 23.5112 15.3177 23.5733 15.3799C23.7858 15.5923 23.8493 15.9118 23.7344 16.1894C23.7302 16.1996 23.7257 16.2096 23.7211 16.2194C23.7148 16.2824 23.7078 16.3714 23.701 16.4898C23.6799 16.8533 23.6646 17.3997 23.6527 18.0801C23.637 18.9799 23.6275 20.0906 23.6174 21.2823C23.6122 21.8899 23.6068 22.5186 23.6004 23.1511C23.5813 25.0175 23.5527 26.9144 23.4902 28.3662C23.4591 29.0897 23.4189 29.7185 23.3651 30.1829C23.3386 30.4118 23.3062 30.6247 23.2634 30.797C23.2425 30.881 23.2125 30.9833 23.1665 31.0821C23.1375 31.1443 23.0298 31.374 22.7707 31.5036C22.7481 31.5149 22.725 31.525 22.7014 31.5339C22.5487 31.5917 22.3886 31.6274 22.2259 31.64C21.2537 31.7459 18.4552 31.7223 15.8871 31.6426C14.5817 31.6021 13.3101 31.5461 12.3259 31.4819C11.8349 31.4499 11.4079 31.4154 11.0812 31.3788C10.9187 31.3606 10.7716 31.3409 10.6497 31.3191C10.5931 31.309 10.5033 31.2925 10.408 31.2631C10.3429 31.2502 10.2797 31.2286 10.22 31.1988C9.97653 31.077 9.86682 30.8667 9.83465 30.8039C9.78609 30.7089 9.75263 30.6102 9.72867 30.5283C9.67967 30.3607 9.63962 30.1542 9.60512 29.9325C9.53514 29.4827 9.47389 28.8753 9.42102 28.176C9.31489 26.7722 9.23827 24.9387 9.20001 23.1211C9.16175 21.3038 9.16154 19.4886 9.20983 18.1219C9.23386 17.4419 9.27045 16.855 9.32339 16.4295C9.34915 16.2225 9.38268 16.0199 9.43149 15.8551C9.45428 15.7782 9.49414 15.6606 9.56656 15.547C9.61924 15.4643 9.83124 15.1623 10.2475 15.1623H22.9556C23.0363 15.1532 23.1216 15.1569 23.2088 15.1771ZM23.7344 16.1189C23.7345 16.1191 23.734 16.1221 23.7327 16.1276C23.7338 16.1214 23.7344 16.1187 23.7344 16.1189ZM22.2054 16.648H10.7935C10.7508 17.0064 10.7175 17.528 10.6946 18.1743C10.6477 19.503 10.6475 21.2879 10.6854 23.0898C10.7233 24.8914 10.7991 26.6962 10.9025 28.064C10.9544 28.7504 11.0122 29.3121 11.0732 29.704C11.0789 29.741 11.0846 29.7757 11.0901 29.8081L21.8723 30.1479C21.8779 30.1063 21.8836 30.0611 21.8893 30.012C21.9367 29.6025 21.9751 29.017 22.0059 28.3023C22.0672 26.8778 22.0957 25.0031 22.1147 23.136C22.1211 22.5105 22.1264 21.8855 22.1316 21.2794C22.1418 20.0829 22.1514 18.9604 22.1672 18.0541C22.1769 17.5019 22.189 17.0212 22.2054 16.648ZM10.8591 16.2675C10.8592 16.2676 10.8586 16.2694 10.8574 16.2726C10.8585 16.2691 10.8591 16.2675 10.8591 16.2675Z" fill="#042040"/>
    <path fill-rule="evenodd" clip-rule="evenodd" d="M37.7142 33.757C38.1598 33.794 38.5502 33.8363 38.772 33.8918C39.4895 34.0711 40.0061 34.603 40.3571 35.1557C40.7144 35.7185 40.9601 36.3937 41.1067 37.0373C41.253 37.6798 41.312 38.3417 41.26 38.892C41.2343 39.1642 41.1778 39.4488 41.0638 39.6992C40.9529 39.9427 40.7395 40.2529 40.3506 40.3825C40.153 40.4484 39.9122 40.4828 39.6828 40.5048C39.4404 40.528 39.1567 40.5417 38.8476 40.549C38.229 40.5638 37.4715 40.5538 36.6693 40.5347C36.124 40.5218 35.5587 40.5046 34.9969 40.4876C33.8869 40.4539 32.7902 40.4207 31.8867 40.4207H20.6101C20.389 40.4207 20.1794 40.3222 20.0383 40.1521C19.8972 39.982 19.8391 39.7578 19.88 39.5406C19.9307 39.2708 19.9618 38.9598 19.9991 38.5878C20.0125 38.4538 20.0267 38.3118 20.0429 38.161C20.1009 37.6207 20.1823 37.0047 20.3531 36.4087C20.5244 35.8109 20.7953 35.1971 21.256 34.6811C21.7256 34.1551 22.3604 33.7673 23.1919 33.5825L23.1931 33.5822C23.4637 33.5226 23.8933 33.488 24.3828 33.4647C24.8917 33.4405 25.5237 33.4264 26.2327 33.4204C27.6519 33.4085 29.4009 33.4293 31.1341 33.4705C32.8676 33.5118 34.5912 33.5737 35.9603 33.6447C36.6443 33.6801 37.2441 33.718 37.7142 33.757Z" fill="#4A94E8"/>
    <path fill-rule="evenodd" clip-rule="evenodd" d="M34.3557 44.1388C34.3023 44.1277 34.1163 44.1177 33.7431 44.3043C32.9521 44.6998 32.7823 45.1074 32.7823 45.3543C32.7823 45.5191 32.8544 45.754 33.0782 46.0305C33.2687 45.901 33.4517 45.775 33.6281 45.6475C34.0367 45.3521 34.2496 45.1571 34.3167 45.0565C34.3938 44.9407 34.4538 44.7742 34.4718 44.5946C34.4901 44.4117 34.4595 44.2742 34.4227 44.2007C34.3959 44.1471 34.3796 44.1437 34.3557 44.1388ZM34.321 46.9779C34.382 46.9351 34.4414 46.8928 34.4985 46.8516C34.8804 46.5755 35.3152 46.2371 35.5529 45.8806C35.7805 45.5392 35.911 45.1342 35.9501 44.7424C35.989 44.3539 35.9434 43.9199 35.7516 43.5363C35.5498 43.1327 35.1851 42.7932 34.6567 42.6839C34.1576 42.5806 33.6198 42.7049 33.0787 42.9755C32.041 43.4943 31.2965 44.3058 31.2965 45.3543C31.2965 45.9065 31.5053 46.4198 31.8576 46.8806C31.5811 47.0874 31.3174 47.3031 31.1049 47.5192C30.9381 47.6889 30.7678 47.8933 30.6541 48.1271C30.5372 48.3674 30.4535 48.6985 30.5727 49.056C30.5775 49.0702 30.5827 49.0843 30.5883 49.0983C30.744 49.4855 31.0018 49.8232 31.3341 50.0756C31.6665 50.328 32.061 50.4857 32.4758 50.5318C32.8906 50.5778 33.3101 50.5107 33.6898 50.3374C34.0649 50.1662 34.3872 49.8977 34.6234 49.56C34.8653 49.234 35.0149 48.8853 35.046 48.521C35.0778 48.1481 34.9802 47.8185 34.8242 47.5502C34.6886 47.3169 34.5088 47.1277 34.321 46.9779ZM32.9786 47.9018C32.6356 48.1469 32.3544 48.3676 32.1643 48.5609C32.1114 48.6147 32.0731 48.659 32.0458 48.6938C32.0964 48.7696 32.1595 48.8368 32.2327 48.8924C32.3512 48.9825 32.4919 49.0387 32.6399 49.0551C32.7878 49.0716 32.9374 49.0476 33.0729 48.9858C33.2083 48.924 33.3244 48.8266 33.4089 48.7041C33.4145 48.696 33.4202 48.688 33.4262 48.6801C33.5449 48.5218 33.5628 48.4279 33.5656 48.3947C33.5681 48.3656 33.5636 48.3379 33.5397 48.2968C33.5116 48.2485 33.4586 48.1877 33.3759 48.1249C33.2943 48.063 33.2047 48.0151 33.1322 47.9858C33.0854 47.9669 33.0408 47.9433 32.9988 47.9153C32.9921 47.9108 32.9853 47.9063 32.9786 47.9018ZM26.4623 43.2043C26.8475 43.2362 27.1439 43.5582 27.1439 43.9447V49.1258C27.1439 49.5361 26.8113 49.8687 26.4011 49.8687C25.9908 49.8687 25.6582 49.5361 25.6582 49.1258C25.6582 48.9252 25.6411 48.6273 25.6167 48.2335C25.6149 48.204 25.6131 48.174 25.6112 48.1437C25.5886 47.7796 25.5624 47.3563 25.5445 46.9078C25.5059 45.944 25.5029 44.8149 25.6683 43.8225C25.7318 43.4413 26.0771 43.1725 26.4623 43.2043Z" fill="#042040"/>
    <path fill-rule="evenodd" clip-rule="evenodd" d="M20.3273 39.6985C20.7368 39.7241 21.048 40.0768 21.0224 40.4862C20.8718 42.8947 20.8716 45.5275 20.9472 47.7151C21.0239 49.9352 21.1763 51.6098 21.3076 52.1509C21.3983 52.5244 21.7607 53.0645 22.5577 53.5255C23.3408 53.9783 24.5033 54.3263 26.0717 54.3263C26.8729 54.3263 27.8213 54.3769 28.8072 54.4295C28.8829 54.4335 28.9589 54.4376 29.035 54.4416C30.1125 54.4988 31.237 54.5548 32.3196 54.5548C33.4049 54.5548 34.4201 54.4982 35.2794 54.3387C36.1515 54.1769 36.7817 53.9233 37.1697 53.5908C38.0384 52.8462 38.5321 51.536 38.8311 50.1159C38.9769 49.4234 39.0691 48.7439 39.1449 48.1467C39.1539 48.0759 39.1628 48.0051 39.1716 47.9349C39.2332 47.4433 39.2919 46.9754 39.3707 46.66C39.4148 46.4835 39.4611 46.1262 39.5013 45.6133C39.5401 45.1168 39.5701 44.5204 39.5928 43.8943C39.6381 42.6429 39.6533 41.2959 39.6533 40.4399C39.6533 40.0296 39.9859 39.697 40.3961 39.697C40.8064 39.697 41.139 40.0296 41.139 40.4399C41.139 41.3089 41.1237 42.6744 41.0776 43.9481C41.0545 44.5846 41.0236 45.2038 40.9824 45.7293C40.9426 46.2383 40.8898 46.7093 40.812 47.0204C40.7567 47.2419 40.7106 47.6071 40.6445 48.1306C40.6362 48.1959 40.6277 48.2636 40.6188 48.3338C40.5422 48.9366 40.4439 49.6667 40.2849 50.4219C39.9743 51.8972 39.4013 53.6348 38.1366 54.7188C37.4579 55.3006 36.5261 55.6185 35.5505 55.7995C34.5621 55.9829 33.4439 56.0406 32.3196 56.0406C31.1925 56.0406 30.0313 55.9823 28.9562 55.9252C28.8842 55.9214 28.8127 55.9176 28.7416 55.9138C27.7408 55.8605 26.8313 55.812 26.0717 55.812C24.2876 55.812 22.8595 55.4163 21.8139 54.8116C20.7823 54.215 20.078 53.3836 19.8638 52.5014C19.6904 51.7868 19.538 49.9565 19.4624 47.7665C19.3856 45.544 19.3853 42.8616 19.5396 40.3936C19.5651 39.9841 19.9178 39.6729 20.3273 39.6985Z" fill="#042040"/>
    <path fill-rule="evenodd" clip-rule="evenodd" d="M43.2634 18.1138C43.562 17.8325 44.0322 17.8466 44.3134 18.1453L54.0663 28.5016C54.3475 28.8003 54.3334 29.2704 54.0347 29.5517C53.7361 29.8329 53.2659 29.8188 52.9847 29.5202L43.2318 19.1639C42.9506 18.8652 42.9647 18.3951 43.2634 18.1138Z" fill="#042040"/>
    <path fill-rule="evenodd" clip-rule="evenodd" d="M37.8946 18.9122C38.1865 19.2005 38.1895 19.6708 37.9012 19.9627L28.1483 29.8375C27.86 30.1294 27.3897 30.1323 27.0978 29.844C26.8059 29.5557 26.803 29.0854 27.0913 28.7934L36.8441 18.9187C37.1324 18.6268 37.6027 18.6239 37.8946 18.9122Z" fill="#042040"/>
    <path fill-rule="evenodd" clip-rule="evenodd" d="M25.8268 9.9537C26.0874 9.6368 26.5555 9.59113 26.8724 9.85169L40.1015 20.729C40.9703 19.9782 42.158 18.9839 43.305 18.0773C44.29 17.2589 45.3401 16.5221 46.4447 15.8741C46.459 15.8658 46.4735 15.8579 46.4883 15.8505C47.1163 15.5365 48.2621 14.6172 49.5045 13.5137C50.718 12.4359 51.9416 11.2577 52.6956 10.5037C52.9857 10.2136 53.456 10.2136 53.7461 10.5037C54.0362 10.7938 54.0362 11.2641 53.7461 11.5542C52.9762 12.3241 51.7311 13.5232 50.4911 14.6245C49.2915 15.69 48.012 16.7419 47.1764 17.1674C46.1461 17.7731 45.1667 18.4615 44.2478 19.2256L44.2334 19.2373C42.8795 20.3071 41.4632 21.5055 40.6063 22.2598C40.3328 22.5005 39.9251 22.5074 39.6437 22.276L25.9288 10.9993C25.6119 10.7387 25.5662 10.2706 25.8268 9.9537Z" fill="#042040"/>
    <path d="M16.8504 20.2989C16.6559 20.0472 16.4503 19.9496 16.1432 19.9932C15.7792 20.0453 15.5471 20.1896 15.381 20.3857C15.2022 20.5968 15.0597 20.9168 14.9788 21.3695C14.8146 22.289 14.9409 23.5442 15.2394 24.8874C15.3133 25.2202 15.1513 25.5606 14.8464 25.713C13.8534 26.2096 12.4296 27.5454 11.2503 30.7884C11.1101 31.174 10.6838 31.3729 10.2983 31.2327C9.91271 31.0925 9.7138 30.6662 9.85401 30.2807C10.9683 27.2164 12.3685 25.5232 13.6776 24.6736C13.4391 23.437 13.327 22.1682 13.5163 21.1083C13.6259 20.4943 13.8453 19.8999 14.2474 19.4253C14.6623 18.9357 15.2307 18.6228 15.9333 18.5224C16.8452 18.3925 17.5538 18.7795 18.026 19.3904C18.4661 19.96 18.7042 20.7178 18.8276 21.4407C18.9535 22.1779 18.9733 22.9577 18.9218 23.6369C18.8875 24.0881 18.8186 24.5383 18.7077 24.9174C18.8534 25.0602 19.0559 25.2115 19.3315 25.391C19.4373 25.46 19.5562 25.5343 19.6833 25.6138C20.032 25.8317 20.4429 26.0885 20.8176 26.3801C21.3529 26.7968 21.8852 27.3314 22.275 28.0804C22.6657 28.831 22.8898 29.7519 22.8764 30.9089C22.8717 31.3191 22.5352 31.6478 22.125 31.6431C21.7148 31.6383 21.386 31.3019 21.3908 30.8917C21.4018 29.9426 21.219 29.2695 20.9571 28.7662C20.6943 28.2612 20.3282 27.8819 19.9051 27.5526C19.5944 27.3109 19.2872 27.1189 18.9618 26.9157C18.8189 26.8263 18.6724 26.7348 18.5206 26.6359C18.0675 26.3408 17.5532 25.9698 17.2298 25.4308C17.0991 25.213 17.0887 24.9435 17.2023 24.7164C17.289 24.543 17.3948 24.1238 17.4403 23.5244C17.484 22.9492 17.4658 22.2924 17.3631 21.6908C17.2579 21.075 17.0769 20.592 16.8504 20.2989Z" fill="#042040"/>
</svg>