<svg width="163" height="163" viewBox="0 0 163 163" fill="none"
    xmlns="http://www.w3.org/2000/svg">
    <path fill-rule="evenodd" clip-rule="evenodd" d="M66.2024 16.3151C66.363 19.7207 66.5331 23.5787 66.7122 27.6407C67.0323 34.9004 67.381 42.8116 67.7561 49.9561C68.0729 55.9898 68.4058 61.4212 68.7514 65.3815C68.9249 67.3687 69.0978 68.9414 69.267 70.0209C69.277 70.0843 69.2868 70.1451 69.2964 70.2034C69.8815 70.2354 70.6376 70.2641 71.5533 70.2891C73.8141 70.3507 76.9594 70.3874 80.7031 70.402C88.1858 70.4313 98.0052 70.3727 107.801 70.2554C117.597 70.1381 127.358 69.9622 134.723 69.7572C138.409 69.6546 141.48 69.5451 143.652 69.4328C144.372 69.3956 144.982 69.3586 145.477 69.3223C145.523 68.8109 145.563 68.1771 145.597 67.4366C145.691 65.3635 145.724 62.6183 145.708 59.7611C145.691 56.9082 145.625 53.9719 145.521 51.5236C145.415 49.0142 145.275 47.1753 145.14 46.4143C144.766 44.3218 144.532 38.7862 144.383 32.9231C144.256 27.8883 144.188 22.4085 144.17 18.1737C133.832 17.829 115.249 17.0636 109.541 16.3501C106.721 15.9976 98.6883 15.9164 89.5046 15.9732C81.4376 16.0231 72.6653 16.1764 66.2024 16.3151ZM89.4763 11.3949C98.5134 11.339 106.917 11.408 110.108 11.807C115.986 12.5417 136.779 13.3666 146.525 13.6688C147.761 13.7071 148.743 14.7203 148.743 15.9569C148.743 20.3254 148.81 26.8804 148.96 32.807C149.113 38.839 149.349 43.9447 149.647 45.6091C149.846 46.7266 149.992 48.8794 150.095 51.3302C150.202 53.8422 150.269 56.8347 150.286 59.7344C150.303 62.6298 150.27 65.4612 150.171 67.6439C150.121 68.7289 150.054 69.6956 149.962 70.444C149.917 70.8125 149.86 71.1838 149.78 71.512C149.74 71.6748 149.684 71.8768 149.6 72.0846C149.534 72.2476 149.366 72.6347 149.012 72.9892C148.708 73.2925 148.394 73.437 148.285 73.4853C148.138 73.5506 148.008 73.5914 147.924 73.6153C147.755 73.6637 147.591 73.6949 147.468 73.7157C147.213 73.7589 146.905 73.7943 146.578 73.8252C145.912 73.8881 144.997 73.9478 143.888 74.0052C141.661 74.1203 138.547 74.231 134.851 74.3339C127.453 74.5398 117.666 74.716 107.856 74.8335C98.046 74.951 88.2005 75.0098 80.6851 74.9804C76.9298 74.9657 73.7427 74.929 71.4285 74.8659C70.2747 74.8344 69.3156 74.7958 68.6033 74.7484C68.2505 74.7249 67.9282 74.6972 67.6604 74.6629C67.5279 74.6459 67.3788 74.6236 67.2312 74.5926C67.1327 74.5719 66.8426 74.5105 66.536 74.3572C65.7728 73.9756 65.4457 73.3058 65.3665 73.1436L65.3631 73.1367C65.2303 72.8654 65.1403 72.5873 65.0773 72.3643C64.9476 71.9053 64.8393 71.3393 64.7438 70.7299C64.5498 69.4921 64.3661 67.7942 64.1903 65.7795C63.8374 61.7359 63.5011 56.2384 63.1839 50.1962C62.8091 43.0561 62.4572 35.0778 62.1356 27.786C61.9141 22.7622 61.7069 18.0643 61.5164 14.1909C61.4861 13.5741 61.7063 12.9712 62.127 12.5191C62.5477 12.067 63.1332 11.804 63.7506 11.7899C70.3318 11.6395 80.3483 11.4513 89.4763 11.3949Z" fill="#08386F"/>
    <path d="M15.0383 76.0671C16.7852 76.9499 45.2246 77.814 50.7284 77.1941M14.9631 76.0671C13.0847 75.1279 12.1455 30.9849 14.0239 30.9849H53.4709C52.5317 30.0457 53.4709 76.0671 51.5925 77.0063C51.3153 77.1112 51.0241 77.1745 50.7284 77.1941L14.9631 76.0671Z" stroke="#08386F" stroke-width="4.57846" stroke-linecap="round" stroke-linejoin="round"/>
    <path d="M80.7085 104.244H45.9575C46.8967 99.2477 45.9575 89.5738 54.4105 87.6954C59.3507 86.6059 97.6144 87.6954 101.371 88.6346C107.007 90.0434 108.885 103.305 106.067 104.244C103.25 105.183 89.1614 104.244 80.7085 104.244Z" fill="#8753DD" stroke="#8753DD" stroke-width="4.57846" stroke-linecap="round" stroke-linejoin="round"/>
    <path d="M63.8027 117.391C62.8635 123.026 63.8027 130.54 63.8027 133.357V117.391ZM85.4046 127.722C79.7693 123.965 79.7693 119.269 85.4046 116.452C91.0399 113.634 91.9792 119.269 90.1007 122.087C88.2223 124.904 77.8909 129.6 78.8301 132.418C79.1557 133.228 79.6945 133.934 80.3893 134.461C81.084 134.989 81.9088 135.318 82.7758 135.415C83.6429 135.511 84.5199 135.371 85.3135 135.008C86.1071 134.646 86.7878 134.076 87.2831 133.357C89.5372 130.352 86.9825 128.361 85.4046 127.722Z" stroke="#08386F" stroke-width="4.57846" stroke-linecap="round" stroke-linejoin="round"/>
    <path d="M44.9432 106.592C44.004 121.619 44.9432 139.352 45.8825 143.221C46.8217 147.091 52.457 151.674 62.7883 151.674C73.1197 151.674 91.904 154.492 98.4785 148.856C105.053 143.221 105.053 130.072 105.992 126.315C106.744 123.31 106.931 111.908 106.931 106.592" stroke="#08386F" stroke-width="4.57846" stroke-linecap="round" stroke-linejoin="round"/>
    <path d="M147.392 71.3724L117.337 39.458" stroke="#08386F" stroke-width="4.57846" stroke-linecap="round" stroke-linejoin="round"/>
    <path d="M67.5586 72.3094L97.6135 41.8789" stroke="#08386F" stroke-width="4.57846" stroke-linecap="round" stroke-linejoin="round"/>
    <path d="M146.453 15.9583C141.757 20.6543 131.237 30.61 126.729 32.8641C123.424 34.8025 120.283 37.0076 117.337 39.4574C113.129 42.7822 108.734 46.5015 106.066 48.8495L97.6135 41.8993L63.8018 14.0986" stroke="#08386F" stroke-width="4.57846" stroke-linecap="round" stroke-linejoin="round"/>
    <path d="M14.9629 76.0676C18.7198 65.7362 23.4158 61.0402 27.1727 59.1617C25.2943 50.7088 25.2943 42.2559 31.8688 41.3167C39.3825 40.246 39.3825 55.4049 37.5041 59.1617C40.3217 63.8578 50.8033 64.2147 50.6531 77.1946" stroke="#08386F" stroke-width="4.57846" stroke-linecap="round" stroke-linejoin="round"/>
</svg>
