<svg width="163" height="163" viewBox="0 0 163 163" fill="none" xmlns="http://www.w3.org/2000/svg">
<path d="M49.2891 110.738C52.3226 123.883 59.4007 150.375 63.4453 151.184C68.5012 152.196 106.925 151.184 109.959 151.184C112.386 151.184 113.666 124.22 114.003 110.738M85.6909 44.001C80.5641 56.6542 78.8373 81.2893 82.6574 82.4252M82.6574 70.2912C92.7691 71.3024 109.959 68.2689 109.959 57.1461C102.881 52.0903 87.7132 59.1684 82.6574 70.2912Z" stroke="#08386F" stroke-width="4.45172" stroke-linecap="round" stroke-linejoin="round"/>
<path d="M94.5029 19.0172C100.977 28.9605 100.869 42.7488 90.6218 48.6519C86.4753 51.0407 80.9805 50.1184 78.051 46.3345C72.2668 38.863 74.1522 28.0553 78.116 20.1246C81.5023 13.3494 90.3698 12.6699 94.5029 19.0172Z" fill="#FFB067"/>
<path d="M84.6802 12.6553C97.8253 15.6888 92.7695 36.9232 88.7248 44.0014" stroke="#08386F" stroke-width="4.45172" stroke-linecap="round" stroke-linejoin="round"/>
<path d="M44.2333 83.4357C47.9864 83.4357 81.8296 82.8785 102.33 83.005C111.155 83.0595 118.483 89.1872 119.54 97.9497C120.183 103.281 120.306 107.884 119.059 108.715C117.113 110.012 85.5557 109.662 60.79 109.125C51.0965 108.915 42.4971 101.986 42.0532 92.3007C41.8251 87.3249 42.2903 83.4357 44.2333 83.4357Z" stroke="#08386F" stroke-width="4.45172" stroke-linecap="round" stroke-linejoin="round"/>
</svg>
