<svg width="61" height="60" viewBox="0 0 61 60" fill="none" xmlns="http://www.w3.org/2000/svg">
<path fill-rule="evenodd" clip-rule="evenodd" d="M32.6834 17.242C31.5794 19.4139 29.7784 21.1734 28.0232 21.7401C26.3176 22.2909 23.9567 22.1658 21.8305 21.147C19.676 20.1146 17.7422 18.1549 16.9515 15.0317C16.2702 12.3408 16.9134 10.3109 18.1395 8.8444C19.3326 7.41731 21.0246 6.58397 22.3709 6.11499C23.6936 5.65421 25.7057 5.11797 27.7342 5.39549C29.8196 5.6808 31.8719 6.82293 33.1748 9.58931L33.1827 9.60597L33.1897 9.62299C34.2815 12.2763 33.8 15.0452 32.6834 17.242ZM31.8296 10.2024C32.7063 12.3497 32.3413 14.6527 31.3656 16.5722C30.3748 18.5215 28.8321 19.9256 27.5689 20.3334C26.2562 20.7573 24.2861 20.6845 22.4693 19.8139C20.6809 18.957 19.0598 17.3362 18.3845 14.6689C17.8169 12.4272 18.3585 10.8871 19.2736 9.79253C20.2217 8.65847 21.6271 7.93944 22.8572 7.51093C24.1108 7.0742 25.8552 6.63041 27.5338 6.86007C29.1517 7.0814 30.7534 7.93004 31.8296 10.2024Z" fill="#FF8777"/>
<path d="M28.1523 18.0185C34.5315 17.3671 44.2272 19.0859 46.8673 32.1631C48.7259 44.4441 38.1709 51.4431 30.7397 52.0274C23.3085 52.6118 12.9896 48.7817 12.8432 34.4944C12.7185 22.3237 21.7731 18.6698 28.1523 18.0185Z" fill="#FF8777"/>
<path fill-rule="evenodd" clip-rule="evenodd" d="M38.8615 43.7436C36.4883 45.9221 33.3054 47.034 30.6522 47.2422C28.0015 47.4502 24.8032 46.8773 22.2361 44.936C19.6386 42.9718 17.7824 39.6777 17.7304 34.6504C17.6856 30.3235 19.2869 27.429 21.5325 25.5761C23.7465 23.7492 26.5179 22.9895 28.7644 22.7606C31.0306 22.5297 34.2239 22.8183 36.9412 24.4251C39.699 26.0558 41.8863 29.0004 42.1472 33.8819C42.8016 38.2737 41.2592 41.5428 38.8615 43.7436Z" fill="white"/>
<path d="M37.2541 29.7329C36.0694 30.5508 32.0569 33.464 30.9176 34.2536" stroke="#042040" stroke-width="1.58936" stroke-linecap="round" stroke-linejoin="round"/>
<path d="M27.8093 33.8493C28.0685 32.8617 28.8675 31.1835 30.9639 31.8487C32.8989 32.2576 33.353 34.2224 33.0251 35.3631C32.6971 36.5039 31.5496 37.8286 29.411 37.0524C27.5892 36.3911 27.5501 34.8369 27.8093 33.8493Z" fill="#042040"/>
<path d="M30.8231 33.0961C30.8321 33.099 30.8413 33.1014 30.8506 33.1033C31.3845 33.216 31.6697 33.5195 31.8106 33.8679C31.9575 34.2312 31.9506 34.6564 31.858 34.9784C31.7651 35.3013 31.5586 35.6381 31.2423 35.8386C30.9381 36.0313 30.4957 36.1218 29.8686 35.8943C29.3503 35.7062 29.1131 35.406 29.009 35.1034C28.8998 34.7861 28.9261 34.4321 29.0023 34.1418C29.0767 33.8589 29.2546 33.4997 29.5473 33.2639C29.8235 33.0412 30.2265 32.9069 30.8231 33.0961Z" fill="white" stroke="#042040" stroke-width="0.574045" stroke-linecap="round" stroke-linejoin="round"/>
<path fill-rule="evenodd" clip-rule="evenodd" d="M25.7555 13.3038C26.4384 13.1899 27.0754 13.6772 27.1443 14.3661L27.3843 16.7663C27.4471 17.3943 27.0119 17.9633 26.3893 18.067L23.4952 18.5494C22.859 18.6554 22.253 18.2387 22.1245 17.6066L21.6444 15.2464C21.5092 14.5818 21.9523 13.9376 22.6213 13.8261L25.7555 13.3038Z" fill="#FF8777"/>
<path fill-rule="evenodd" clip-rule="evenodd" d="M27.7114 9.2728C27.9583 9.3537 28.3595 9.52154 28.5529 9.90843C28.7338 10.2701 28.8082 10.758 28.826 11.2418C28.8447 11.7477 28.8039 12.3324 28.6978 12.9377C28.6063 13.4602 28.2326 13.8855 27.7309 14.047C25.5531 14.748 22.1465 15.1118 20.6457 15.2121C20.3689 15.2319 20.1487 15.1207 20.0128 15.0268C19.872 14.9295 19.7566 14.8067 19.6653 14.6932C19.4816 14.4645 19.3164 14.1718 19.1776 13.8783C18.9012 13.2935 18.6625 12.5596 18.5917 11.9915C18.5485 11.6444 18.6494 11.281 18.8998 11.0043C19.4229 10.4266 20.2692 10.0251 21.1364 9.74319C22.028 9.45333 23.0469 9.25696 24.0167 9.14835C24.9851 9.0399 25.9342 9.01564 26.6884 9.08372C27.0624 9.11748 27.417 9.17635 27.7114 9.2728Z" fill="white"/>
<path fill-rule="evenodd" clip-rule="evenodd" d="M27.7114 9.2728C27.9583 9.3537 28.3595 9.52154 28.5529 9.90843C28.7338 10.2701 28.8082 10.758 28.826 11.2418C28.8447 11.7477 28.8039 12.3324 28.6978 12.9377C28.6063 13.4602 28.2326 13.8855 27.7309 14.047C25.5531 14.748 22.1465 15.1118 20.6457 15.2121C20.3689 15.2319 20.1487 15.1207 20.0128 15.0268C19.872 14.9295 19.7566 14.8067 19.6653 14.6932C19.4816 14.4645 19.3164 14.1718 19.1776 13.8783C18.9012 13.2935 18.6625 12.5596 18.5917 11.9915C18.5485 11.6444 18.6494 11.281 18.8998 11.0043C19.4229 10.4266 20.2692 10.0251 21.1364 9.74319C22.028 9.45333 23.0469 9.25696 24.0167 9.14835C24.9851 9.0399 25.9342 9.01564 26.6884 9.08372C27.0624 9.11748 27.417 9.17635 27.7114 9.2728ZM19.9925 11.8892C20.0522 12.2704 20.2266 12.818 20.4447 13.2793C20.5548 13.5123 20.6607 13.69 20.7458 13.8C22.3052 13.6845 25.3807 13.3312 27.3015 12.7129C27.3113 12.7097 27.3161 12.7026 27.3173 12.6959C27.4083 12.1766 27.4401 11.6906 27.4255 11.2935C27.4136 10.9727 27.373 10.7526 27.3339 10.6258C27.3181 10.6195 27.2986 10.6124 27.275 10.6046C27.1216 10.5544 26.8836 10.5086 26.5624 10.4796C25.9262 10.4221 25.075 10.4401 24.1727 10.5412C23.2719 10.6421 22.3498 10.8224 21.5697 11.076C20.8152 11.3213 20.2792 11.6081 19.9925 11.8892ZM27.3935 10.6542C27.3934 10.6542 27.3918 10.6532 27.3889 10.6512C27.3922 10.6531 27.3936 10.6541 27.3935 10.6542Z" fill="#042040"/>
<path fill-rule="evenodd" clip-rule="evenodd" d="M36.5097 16.7471C36.888 16.8893 37.0673 17.3218 36.9006 17.69L36.3199 18.9728C36.1679 19.3084 35.7816 19.4686 35.4368 19.3389L33.8336 18.7362C33.4811 18.6037 33.2969 18.2159 33.4168 17.859L33.8646 16.5262C33.9907 16.1509 34.4029 15.955 34.7735 16.0944L36.5097 16.7471Z" fill="#FF8777"/>
<path fill-rule="evenodd" clip-rule="evenodd" d="M38.6682 15.2851C38.7771 15.4894 38.8514 15.7521 38.78 16.0345C38.6329 16.6171 38.3649 17.1977 38.1161 17.553C37.9255 17.8252 37.5869 17.9795 37.2325 17.8983C36.8609 17.8131 36.2479 17.584 35.6291 17.3338C34.9968 17.0781 34.3169 16.783 33.7913 16.5479C33.4406 16.391 33.1258 16.012 33.1929 15.5231C33.2339 15.2246 33.3264 14.9056 33.4464 14.6221C33.5629 14.3467 33.7245 14.0593 33.9279 13.8569C34.3118 13.4748 34.8892 13.4344 35.3583 13.4817C35.8594 13.5322 36.4082 13.699 36.9039 13.9184C37.3988 14.1375 37.877 14.4251 38.2257 14.742C38.3994 14.8998 38.56 15.0821 38.6682 15.2851Z" fill="white"/>
<path fill-rule="evenodd" clip-rule="evenodd" d="M38.6673 15.2851C38.7762 15.4894 38.8504 15.7521 38.779 16.0345C38.6319 16.6171 38.3639 17.1977 38.1151 17.553C37.9245 17.8252 37.586 17.9795 37.2315 17.8983C36.8599 17.8131 36.247 17.584 35.6282 17.3338C34.9959 17.0781 34.3159 16.783 33.7903 16.5479C33.4396 16.391 33.1248 16.012 33.1919 15.5231C33.2329 15.2246 33.3254 14.9056 33.4454 14.6221C33.562 14.3467 33.7235 14.0593 33.9269 13.8569C34.3109 13.4748 34.8882 13.4344 35.3573 13.4817C35.8585 13.5322 36.4072 13.699 36.9029 13.9184C37.3978 14.1375 37.8761 14.4251 38.2247 14.742C38.3984 14.8998 38.559 15.0821 38.6673 15.2851ZM35.2544 14.5021C34.8571 14.462 34.6921 14.5422 34.6503 14.5838C34.5811 14.6527 34.4824 14.8031 34.3899 15.0218C34.3078 15.2157 34.2458 15.4273 34.2152 15.6145C34.7327 15.8459 35.3978 16.1344 36.0126 16.383C36.5612 16.6048 37.0399 16.7825 37.3388 16.8671C37.4932 16.6152 37.6725 16.2166 37.7792 15.805C37.7766 15.7973 37.7716 15.785 37.7622 15.7675C37.7284 15.7041 37.6577 15.6125 37.535 15.5009C37.2906 15.2789 36.9151 15.0454 36.4878 14.8562C36.0614 14.6675 35.6196 14.5389 35.2544 14.5021ZM37.7818 15.8149L37.7815 15.8131L37.7818 15.8149Z" fill="#042040"/>
<path fill-rule="evenodd" clip-rule="evenodd" d="M13.8218 21.0034C13.5312 21.2843 13.5387 21.7524 13.838 22.024L14.881 22.9701C15.1538 23.2176 15.572 23.2109 15.8368 22.9548L17.0682 21.7643C17.3388 21.5025 17.3537 21.0735 17.1017 20.7937L16.1609 19.7488C15.896 19.4546 15.4398 19.4389 15.1552 19.7141L13.8218 21.0034Z" fill="#FF8777"/>
<path fill-rule="evenodd" clip-rule="evenodd" d="M11.2606 20.5201C11.2419 20.7508 11.2782 21.0214 11.456 21.2521C11.8227 21.7282 12.2994 22.1543 12.669 22.3814C12.9522 22.5554 13.3241 22.5623 13.617 22.3468C13.9241 22.1209 14.3954 21.6669 14.8637 21.1913C15.3422 20.7052 15.8487 20.1642 16.2375 19.7394C16.4969 19.456 16.635 18.9831 16.379 18.5612C16.2227 18.3036 16.011 18.0477 15.7882 17.8353C15.5717 17.6289 15.3092 17.4294 15.0421 17.3246C14.5378 17.1267 13.992 17.3192 13.5804 17.5491C13.1407 17.7948 12.7035 18.166 12.3359 18.5645C11.969 18.9623 11.6445 19.4164 11.4506 19.8457C11.354 20.0597 11.2791 20.2907 11.2606 20.5201Z" fill="white"/>
<path fill-rule="evenodd" clip-rule="evenodd" d="M11.2606 20.5201C11.2419 20.7508 11.2782 21.0214 11.456 21.2521C11.8227 21.7282 12.2994 22.1543 12.669 22.3814C12.9522 22.5554 13.3241 22.5623 13.617 22.3468C13.9241 22.1209 14.3954 21.6669 14.8637 21.1913C15.3422 20.7052 15.8487 20.1642 16.2375 19.7394C16.4969 19.456 16.635 18.9831 16.379 18.5612C16.2227 18.3036 16.011 18.0477 15.7882 17.8353C15.5717 17.6289 15.3092 17.4294 15.0421 17.3246C14.5378 17.1267 13.992 17.3192 13.5804 17.5491C13.1407 17.7948 12.7035 18.166 12.3359 18.5645C11.969 18.9623 11.6445 19.4164 11.4506 19.8457C11.354 20.0597 11.2791 20.2907 11.2606 20.5201ZM14.0806 18.4445C14.4292 18.2497 14.6125 18.2577 14.6674 18.2793C14.7583 18.3149 14.9086 18.4137 15.0805 18.5776C15.2329 18.7228 15.3739 18.8923 15.4764 19.0519C15.0936 19.4701 14.5981 19.9992 14.1328 20.4718C13.7177 20.8935 13.3492 21.2468 13.1085 21.4433C12.8667 21.2736 12.5437 20.9792 12.2821 20.6439C12.2815 20.6358 12.2812 20.6226 12.2828 20.6028C12.2886 20.5312 12.317 20.419 12.3853 20.2678C12.5212 19.9669 12.7729 19.6033 13.0897 19.2599C13.4059 18.9171 13.7601 18.6235 14.0806 18.4445ZM12.2836 20.6541L12.2832 20.6523L12.2836 20.6541Z" fill="#042040"/>
<path d="M25.8803 20.8971L26.4311 23.3828M30.9949 43.9787L30.5228 41.8481M16.6738 35.1012L18.7197 34.617M39.1784 29.7747L37.1326 30.2589M18.0377 25.8685L19.7426 26.9338M38.4965 38.6522L37.1326 37.8M22.1295 43.2685L23.1698 41.493M34.4047 22.3175L33.1564 24.4481" stroke="#042040" stroke-width="1.40152" stroke-linecap="round" stroke-linejoin="round"/>
</svg>
