<svg xmlns="http://www.w3.org/2000/svg" width="35" height="46" viewBox="0 0 35 46" fill="none">
    <path d="M5.35789 1.11598C7.88979 1.72116 14.7158 2.90974 21.7648 2.82267C23.5361 2.8008 24.3056 2.83341 25.4832 2.86767L27.4795 5.05715C30.8787 5.18286 34.9096 5.61819 33.9106 5.78548C33.7537 6.82233 33.6066 8.03923 33.3957 9.60822C32.6446 15.1955 31.3537 23.4333 31.1432 29.4818C30.8735 37.2288 30.3819 43.1167 30.2439 44.4429C23.9216 44.0086 8.85241 42.9359 3.57529 42.1188C3.60266 41.7133 3.63222 40.5161 3.6639 39.72C2.92774 39.6283 2.26957 39.5384 1.70861 39.4512C2.13171 33.2147 3.06216 23.1855 4.20601 15.443C4.85459 11.0529 5.37615 4.19411 5.35789 1.11598Z" fill="white"/>
    <path d="M25.4832 2.86767C24.3056 2.8334 23.5361 2.8008 21.7648 2.82267C14.7158 2.90974 7.88979 1.72116 5.35789 1.11598C5.37615 4.19411 4.85459 11.0529 4.20601 15.443C3.06216 23.1855 2.13171 33.2147 1.70861 39.4512C2.26957 39.5384 2.92774 39.6283 3.66389 39.72M25.4832 2.86767C25.0077 4.18541 24.7208 6.94322 24.5856 8.24314C25.7017 8.47318 29.4002 8.94906 30.6478 8.53195M25.4832 2.86767L27.4795 5.05715M30.6478 8.53195C29.8835 14.2307 28.5175 21.693 28.2986 27.8614C28.0183 35.7621 27.6668 40.4425 27.5261 41.795C21.8129 41.4046 9.92132 40.4992 3.66389 39.72M30.6478 8.53195L27.4795 5.05715M27.4795 5.05715C30.8787 5.18286 34.9096 5.61819 33.9106 5.78548C33.7537 6.82233 33.6066 8.03923 33.3957 9.60822C32.6446 15.1955 31.3537 23.4333 31.1432 29.4818C30.8735 37.2288 30.3819 43.1167 30.2439 44.4429C23.9216 44.0086 8.85241 42.9359 3.57529 42.1188C3.60266 41.7133 3.63222 40.5161 3.66389 39.72" stroke="#042040" stroke-width="1.46667" stroke-linejoin="round"/>
    <path d="M7.68701 7.71912L14.3179 8.40888M7.37662 10.703L25.9431 12.6344M7.06622 13.6869L21.9857 15.2389M6.41095 19.9863L17.6835 21.1589M6.10055 22.9702L23.0093 24.7291M5.82465 25.6225L11.4609 26.2088" stroke="#042040" stroke-width="1.46667" stroke-linecap="round" stroke-linejoin="round"/>
    <path d="M16.1363 35.6886C17.4095 35.2625 19.1877 34.0623 18.9055 31.62C18.5528 28.5671 14.3055 37.1803 16.2948 37.3873C17.8862 37.5528 19.8287 35.6324 20.2522 34.7827C19.6837 35.9524 18.8257 38.1867 19.9418 37.7666C21.0579 37.3465 22.382 35.7863 22.9045 35.0586C22.557 36.2513 22.1411 38.5316 23.2572 38.1115C24.6524 37.5864 24.1272 36.1912 25.1219 36.2947" stroke="#4A94E8" stroke-width="1.46667" stroke-linecap="round" stroke-linejoin="round"/>
</svg>