<svg width="80" height="80" viewBox="0 0 80 80" fill="none" xmlns="http://www.w3.org/2000/svg">
<path d="M23.3048 16.113C13.9789 19.6999 16.131 16.8304 13.9789 16.113C12.2572 15.5391 11.3485 19.6999 11.1094 21.852C11.1094 25.9172 11.2529 35.0518 11.8268 39.0692C12.4007 43.0865 16.3702 46.0038 18.2832 46.9604L19.0006 47.6777L19.7179 51.982C21.8701 54.8515 32.3917 52.2145 36.9351 50.1786C37.8878 51.8856 39.4937 52.9761 40.522 53.4168V66.3296C49.8479 71.3513 53.4348 69.1991 54.8696 68.4818V64.1775H57.0217C57.7391 64.1775 62.7608 55.5689 64.1955 54.1342C65.6303 52.6994 66.3477 39.0692 64.1955 36.1996C62.4738 33.904 49.6088 35.2431 43.3915 36.1996C42.6741 33.8084 40.8089 28.7389 39.0872 27.5911C37.3655 26.4433 34.5438 28.0693 33.3482 29.0258C32.8699 26.3954 32.2004 20.8477 33.3482 19.6999C34.7829 18.2651 32.6308 12.5261 23.3048 16.113Z" fill="white"/>
<path fill-rule="evenodd" clip-rule="evenodd" d="M19.7019 26.2545C20.187 26.4208 20.4455 26.9489 20.2792 27.434C19.8798 28.5992 19.456 30.3383 19.3455 31.7321C19.2888 32.4471 19.3246 32.9626 19.4167 33.2515C19.4209 33.2647 19.425 33.2766 19.4289 33.2874C20.8559 33.1159 21.5458 32.4931 21.8077 32.2326C22.1713 31.871 22.7592 31.8726 23.1209 32.2362C23.4825 32.5998 23.4809 33.1877 23.1173 33.5494C22.6442 34.0199 21.5474 34.9442 19.493 35.1485C19.0457 35.193 18.611 35.0776 18.2586 34.782C17.933 34.5088 17.7523 34.1446 17.6475 33.8161C17.4422 33.1725 17.4326 32.3608 17.4942 31.5853C17.6201 29.998 18.0868 28.1028 18.5224 26.8318C18.6887 26.3467 19.2168 26.0882 19.7019 26.2545Z" fill="#042040"/>
<path fill-rule="evenodd" clip-rule="evenodd" d="M35.725 29.3797L36.9385 28.634C37.0381 28.5728 37.1252 28.4934 37.1952 28.4C37.501 27.9924 37.6927 27.3947 37.821 26.765C37.9562 26.1014 38.0443 25.278 38.072 24.324C38.1275 22.4136 37.9423 19.9201 37.3629 17.0233C36.5593 13.005 33.3743 10.7461 29.7217 9.8383C26.0801 8.93328 21.8044 9.30903 18.3806 10.6692C16.1682 11.5481 14.3865 13.2225 13.108 14.9434C11.8345 16.6576 10.9909 18.5119 10.7212 19.86C10.6343 20.2947 10.8668 20.7303 11.2764 20.9C11.6861 21.0696 12.1585 20.9261 12.4044 20.5572C12.7094 20.0997 12.9304 19.5337 13.1072 19.0475C13.1604 18.9014 13.2097 18.7619 13.257 18.6286C13.3812 18.2778 13.4906 17.9687 13.615 17.6889C13.6971 17.5042 13.7708 17.3683 13.8367 17.2728L13.8388 17.2697C14.2221 17.9064 14.6916 18.4315 15.318 18.7747C16.0576 19.1799 16.8912 19.2636 17.8028 19.1609C18.7027 19.0595 19.7506 18.7679 20.9792 18.346C22.1984 17.9273 23.6493 17.361 25.3778 16.6781C28.3609 16.031 30.514 16.5714 31.6405 17.4162C32.2034 17.8384 32.4885 18.3139 32.5703 18.7503C32.6497 19.1738 32.5588 19.6674 32.1637 20.1941C30.8631 21.9284 30.9174 24.0323 31.1905 25.8531C31.292 26.5299 31.4329 27.217 31.564 27.8566C31.6101 28.0811 31.6549 28.2998 31.6964 28.5102C31.8622 29.3502 31.978 30.0695 31.978 30.6795C31.978 31.0312 32.1767 31.3527 32.4913 31.51C32.8936 31.7112 33.2512 31.8408 33.5739 31.8946C33.8984 31.9487 34.2454 31.9347 34.5629 31.776C34.8947 31.61 35.0764 31.3453 35.1649 31.1241C35.2 31.0364 35.2207 30.9558 35.2332 30.8892L35.725 29.3797Z" fill="#B4D5FA"/>
<path fill-rule="evenodd" clip-rule="evenodd" d="M26.2638 28.8642C25.9187 28.8722 25.3683 29.1346 24.6545 30.1327C24.3562 30.5499 23.7762 30.6462 23.3591 30.3479C22.9419 30.0495 22.8456 29.4696 23.1439 29.0524C23.9569 27.9156 24.9748 27.0365 26.2206 27.0076C27.4864 26.9781 28.5437 27.8318 29.411 29.0557C29.7075 29.4741 29.6087 30.0537 29.1903 30.3502C28.7718 30.6467 28.1923 30.5479 27.8958 30.1295C27.1453 29.0705 26.5889 28.8567 26.2638 28.8642ZM14.3276 28.0181C15.3898 27.8083 16.2779 28.2868 16.9661 28.8986C17.3494 29.2393 17.3839 29.8262 17.0432 30.2095C16.7025 30.5928 16.1156 30.6273 15.7323 30.2866C15.2506 29.8584 14.9359 29.791 14.6875 29.8401C14.3785 29.9011 13.8476 30.1999 13.0911 31.2299C12.7875 31.6432 12.2063 31.7321 11.793 31.4286C11.3797 31.125 11.2907 30.5438 11.5943 30.1305C12.4387 28.9809 13.3261 28.216 14.3276 28.0181Z" fill="#042040"/>
<path fill-rule="evenodd" clip-rule="evenodd" d="M11.7174 20.5361C11.2066 20.4897 10.755 20.8661 10.7085 21.3768C10.466 24.0444 10.5123 28.311 10.7064 32.1712C10.8038 34.1081 10.9393 35.9594 11.0972 37.4763C11.2517 38.9598 11.4357 40.2116 11.6514 40.8897C12.7896 44.4668 15.5677 46.9938 18.6993 48.1438V51.9547C18.6993 52.4676 19.1151 52.8833 19.6279 52.8833C20.1407 52.8833 20.5565 52.4676 20.5565 51.9547V48.6557C24.1971 49.336 28.1013 48.2122 30.3422 44.6482C30.6152 44.2141 30.4845 43.6409 30.0504 43.3679C29.6162 43.0949 29.043 43.2256 28.77 43.6597C26.8297 46.7457 23.2512 47.5968 19.8957 46.5862C17.0154 45.7188 14.4317 43.5028 13.4211 40.3266C13.272 39.8579 13.1015 38.7929 12.9444 37.2839C12.7908 35.8082 12.6574 33.9912 12.5612 32.0779C12.3681 28.2381 12.3278 24.0778 12.5581 21.5449C12.6045 21.0342 12.2281 20.5825 11.7174 20.5361ZM39.3989 31.6003C39.3608 32.411 39.1329 33.1467 38.7415 33.6686C37.8071 34.9145 36.9111 35.3457 36.2654 35.5609C36.0945 35.6179 35.9345 35.6618 35.7768 35.7035C35.7577 35.7086 35.7379 35.7138 35.7176 35.7192C35.5858 35.7539 35.4329 35.7941 35.3013 35.838C35.16 35.8851 34.923 35.9728 34.7167 36.1515C34.4601 36.374 34.3007 36.6925 34.3007 37.0624C34.3007 37.666 34.7769 45.8938 35.0115 49.8818C35.0416 50.3937 35.481 50.7843 35.993 50.7542C36.5049 50.7241 36.8956 50.2847 36.8654 49.7727C36.6543 46.1828 36.2614 39.3851 36.175 37.5192C36.1789 37.5182 36.183 37.5171 36.187 37.5161C36.2077 37.5106 36.2294 37.5049 36.2525 37.4987C36.4189 37.4546 36.6246 37.3988 36.8526 37.3228C37.8026 37.0062 39.0341 36.3736 40.2272 34.7829C40.8995 33.8865 41.2035 32.7606 41.254 31.6876C41.3046 30.6126 41.1055 29.5064 40.6791 28.6003C40.2621 27.7141 39.5465 26.8668 38.4842 26.6366C37.3872 26.3989 36.2843 26.8933 35.2818 27.8958C34.9191 28.2584 34.9191 28.8464 35.2817 29.209C35.6443 29.5717 36.2323 29.5717 36.5949 29.2091C37.3654 28.4387 37.8582 28.4012 38.091 28.4516C38.3584 28.5096 38.7066 28.7703 38.9987 29.3911C39.2815 29.992 39.437 30.7916 39.3989 31.6003ZM35.841 37.6176C35.841 37.6177 35.8423 37.6171 35.8447 37.616C35.8421 37.617 35.8409 37.6176 35.841 37.6176Z" fill="#042040"/>
<path fill-rule="evenodd" clip-rule="evenodd" d="M26.5062 36.443C26.7183 36.6806 26.7938 37.0103 26.7063 37.3165C26.4497 38.2148 25.9155 39.556 25.1214 40.695C24.3547 41.7948 23.167 42.9541 21.5585 42.9541C20.0821 42.9541 18.9121 42.1838 18.0928 41.3444C17.2734 40.5048 16.7154 39.5096 16.4414 38.8246C16.337 38.5636 16.3565 38.2693 16.4943 38.0243C16.6322 37.7793 16.8736 37.61 17.1509 37.5638L25.6608 36.1455C25.975 36.0931 26.2941 36.2054 26.5062 36.443ZM18.7289 39.1835C18.9229 39.4751 19.1552 39.774 19.4219 40.0473C20.0446 40.6853 20.7657 41.0969 21.5585 41.0969C22.2194 41.0969 22.9227 40.6015 23.598 39.6329C23.9031 39.1953 24.1663 38.7106 24.3819 38.2414L18.7289 39.1835Z" fill="#042040"/>
<path fill-rule="evenodd" clip-rule="evenodd" d="M26.0133 23.8579C25.5973 23.7676 25.1066 23.7873 24.3142 24.0075C23.8201 24.1448 23.3082 23.8556 23.1709 23.3614C23.0336 22.8673 23.3229 22.3555 23.817 22.2182C24.7688 21.9537 25.5873 21.865 26.4073 22.043C27.2113 22.2176 27.9164 22.6283 28.6704 23.1596C29.0896 23.455 29.19 24.0343 28.8946 24.4535C28.5993 24.8727 28.02 24.9731 27.6007 24.6777C26.903 24.1861 26.4453 23.9517 26.0133 23.8579ZM17.3048 23.46C17.3356 23.9719 16.9455 24.4119 16.4336 24.4427C15.7921 24.4812 15.3576 24.5655 14.9153 24.7662C14.4549 24.975 13.9268 25.337 13.1491 26.0245C12.7649 26.3642 12.178 26.3281 11.8384 25.9439C11.4987 25.5596 11.5348 24.9728 11.919 24.6331C12.7505 23.898 13.4406 23.3958 14.1481 23.0749C14.8736 22.7458 15.5563 22.6349 16.3222 22.5889C16.8341 22.5581 17.274 22.9481 17.3048 23.46Z" fill="#042040"/>
<path fill-rule="evenodd" clip-rule="evenodd" d="M57.1375 44.272C56.6512 44.4349 56.389 44.9611 56.5519 45.4474C56.883 46.4359 57.3474 47.8275 57.5644 48.9473C57.6397 49.3359 57.6738 49.6384 57.678 49.8545C57.2161 49.8009 56.9079 49.7503 56.6933 49.6959C56.514 49.6505 56.4473 49.6135 56.4303 49.602C56.0707 49.2384 55.4844 49.2339 55.1194 49.5926C54.7535 49.9521 54.7484 50.54 55.1078 50.9058C55.4205 51.2241 55.8117 51.3884 56.2371 51.4961C56.6531 51.6016 57.1945 51.6747 57.8925 51.7457C58.2923 51.7864 58.7161 51.6828 59.0434 51.3577C59.3336 51.0696 59.4459 50.7059 59.4939 50.4275C59.5888 49.8773 59.506 49.2047 59.3876 48.594C59.1447 47.3408 58.6424 45.8413 58.3208 44.8811C58.3181 44.8732 58.3155 44.8653 58.3129 44.8575C58.15 44.3712 57.6237 44.1091 57.1375 44.272Z" fill="#042040"/>
<path fill-rule="evenodd" clip-rule="evenodd" d="M50.7992 41.8764C51.2152 41.7861 51.7059 41.8059 52.4983 42.0261C52.9924 42.1634 53.5043 41.8741 53.6416 41.38C53.7789 40.8859 53.4896 40.374 52.9955 40.2367C52.0437 39.9723 51.2252 39.8835 50.4052 40.0616C49.6012 40.2361 48.8961 40.6469 48.1421 41.1781C47.7229 41.4735 47.6225 42.0528 47.9179 42.472C48.2132 42.8913 48.7925 42.9917 49.2118 42.6963C49.9095 42.2047 50.3672 41.9702 50.7992 41.8764ZM59.5077 41.4786C59.4769 41.9905 59.867 42.4304 60.3789 42.4612C61.0204 42.4998 61.4549 42.5841 61.8972 42.7847C62.3576 42.9935 62.8857 43.3555 63.6634 44.0431C64.0476 44.3827 64.6345 44.3466 64.9741 43.9624C65.3138 43.5782 65.2777 42.9914 64.8935 42.6517C64.062 41.9166 63.3719 41.4144 62.6644 41.0934C61.9389 40.7644 61.2562 40.6535 60.4903 40.6074C59.9784 40.5766 59.5385 40.9667 59.5077 41.4786ZM50.938 44.0304C50.4252 44.0304 50.0094 44.4461 50.0094 44.959V46.3691C50.0094 46.882 50.4252 47.2977 50.938 47.2977C51.4509 47.2977 51.8666 46.882 51.8666 46.3691V44.959C51.8666 44.4461 51.4509 44.0304 50.938 44.0304ZM61.7913 44.6348C61.2784 44.6348 60.8627 45.0505 60.8627 45.5634V46.5706C60.8627 47.0834 61.2784 47.4992 61.7913 47.4992C62.3041 47.4992 62.7198 47.0834 62.7198 46.5706V45.5634C62.7198 45.0505 62.3041 44.6348 61.7913 44.6348Z" fill="#042040"/>
<path fill-rule="evenodd" clip-rule="evenodd" d="M57.9935 24.5077C58.8706 24.8804 59.5177 25.0764 60.0237 25.0764L60.0684 25.0764C61.4771 25.0762 64.2958 25.076 66.6915 26.1301C67.9243 26.6725 69.0903 27.5121 69.8893 28.8088C70.6909 30.1097 71.0683 31.7822 70.8767 33.8898C70.7226 35.5849 70.1964 36.85 69.2861 37.6549C68.3672 38.4673 67.2154 38.6716 66.1148 38.5781C64.3212 38.4258 62.3923 37.4666 60.9535 36.5145C59.7309 38.0955 58.4074 38.9045 56.7686 38.8894C55.8842 38.8812 54.9867 38.6304 54.0678 38.2539C53.4347 37.9945 52.7647 37.6639 52.0537 37.2856C51.4901 38.2725 50.274 39.2556 48.1501 39.6803C46.4632 40.0177 45.1058 39.4204 44.1282 38.5675C44.1894 40.813 44.0442 42.2575 43.7109 43.2628C43.2651 44.6074 42.4555 45.174 41.7798 45.647C41.6598 45.731 41.544 45.8121 41.4352 45.894C41.0489 46.1849 40.5041 46.1307 40.1827 45.7694C40.0722 45.6451 39.9731 45.5319 39.8809 45.4263C39.7301 45.254 39.5974 45.1022 39.4617 44.9563C39.2489 44.7275 39.0942 44.5867 38.9692 44.5028C38.8555 44.4264 38.8064 44.4242 38.7933 44.4239C38.778 44.4235 38.6964 44.4236 38.5154 44.5315C38.4549 44.5676 38.3906 44.5966 38.3235 44.6181C38.3145 44.621 38.182 44.6679 37.999 45.0826C37.8226 45.4823 37.6789 46.043 37.5309 46.7586C37.5195 46.8139 37.503 46.868 37.4818 46.9203C37.1678 47.6927 37.162 48.1632 37.263 48.5736C37.3796 49.047 37.6484 49.5148 38.106 50.311L38.1235 50.3414C38.6767 51.1939 39.1695 51.7385 39.7326 52.186C40.315 52.6489 41.0044 53.0344 42.0064 53.5435C42.3452 53.7157 42.5449 54.0769 42.5105 54.4554C42.4207 55.443 42.1989 56.8147 41.9608 58.2869C41.876 58.8115 41.7891 59.3489 41.7054 59.8862C41.3797 61.9767 41.0959 64.0971 41.0959 65.7179C41.0959 65.9188 41.0308 66.1143 40.9102 66.275C38.6074 69.3455 35.4391 70.6037 32.5579 70.0892C29.6684 69.5732 27.2775 67.309 26.4959 63.7918C25.6807 60.1232 27.562 57.5043 29.51 55.6491C30.2383 54.9554 31.0182 54.3296 31.6884 53.7919C31.9047 53.6183 32.1096 53.4539 32.2977 53.2994C32.6968 52.9714 33.0169 52.6912 33.2536 52.4415C33.5005 52.1812 33.5888 52.023 33.613 51.9502C33.9631 50.9002 34.2745 49.957 34.2745 48.5208C34.2745 47.0619 33.9503 45.0395 32.9039 41.9001C32.3198 40.1479 32.3041 38.63 32.6677 37.3051C33.0282 35.992 33.7424 34.9377 34.5091 34.0752C35.121 33.3868 35.8022 32.7844 36.3743 32.2783C36.5075 32.1606 36.6347 32.0481 36.7537 31.9409C37.0818 31.6457 37.3451 31.3949 37.5437 31.1662C37.7461 30.9333 37.8348 30.7751 37.868 30.6754C38.6285 28.394 40.9271 23.7941 47.0336 22.2674C50.1571 21.4866 52.8648 22.282 55.0621 23.1976C55.6111 23.4263 56.1344 23.6653 56.6223 23.8899C56.6698 23.9118 56.717 23.9335 56.7637 23.955C57.2022 24.1569 57.6071 24.3435 57.9935 24.5077Z" fill="#B4D5FA"/>
<path fill-rule="evenodd" clip-rule="evenodd" d="M64.1428 54.871C64.4918 54.8203 64.8393 54.9715 65.04 55.2614C66.147 56.8603 67.7544 59.7817 68.6562 62.6956C69.1067 64.1513 69.3999 65.664 69.3327 67.0378C69.265 68.4195 68.8241 69.7561 67.7077 70.6865C65.6668 72.3872 62.6952 72.3751 60.2377 71.8568C58.9767 71.5908 57.7751 71.177 56.7733 70.7174C55.7917 70.267 54.9287 69.7392 54.4009 69.2114C54.2267 69.0373 54.1289 68.8011 54.1289 68.5548V64.2998C54.1289 64.0174 54.2575 63.7502 54.4783 63.574C54.6991 63.3978 54.9881 63.3317 55.2636 63.3944C55.7148 63.4971 56.3284 63.436 57.0771 63.1306C57.8182 62.8283 58.6316 62.3099 59.4399 61.5943C61.0579 60.1618 62.5709 58.0143 63.3941 55.5009C63.5039 55.1658 63.7939 54.9218 64.1428 54.871Z" fill="#B4D5FA"/>
<path fill-rule="evenodd" clip-rule="evenodd" d="M50.944 52.6333C50.5405 52.9498 50.47 53.5335 50.7865 53.937C51.5761 54.9438 52.2731 55.6482 53.0589 56.1413C53.8537 56.6401 54.6729 56.8808 55.6285 57.0644C56.1322 57.1612 56.6189 56.8313 56.7156 56.3277C56.8124 55.8241 56.4825 55.3374 55.9789 55.2406C55.1264 55.0768 54.5624 54.8923 54.0461 54.5683C53.5206 54.2385 52.9784 53.7224 52.2477 52.7909C51.9312 52.3874 51.3475 52.3168 50.944 52.6333Z" fill="#042040"/>
<path fill-rule="evenodd" clip-rule="evenodd" d="M64.9052 38.5547C65.4159 38.5082 65.8676 38.8846 65.914 39.3953C66.1554 42.0505 66.1599 45.0695 66.0129 47.7126C65.8675 50.3268 65.5688 52.6757 65.1652 53.9442C64.5575 55.8543 62.927 58.4414 61.3034 60.5645C60.4814 61.6394 59.6349 62.6297 58.88 63.3905C58.5032 63.7703 58.1377 64.1045 57.8005 64.3662C57.4827 64.6129 57.1172 64.8534 56.7474 64.9647C52.543 66.2309 48.1056 63.5528 45.765 59.8302C45.492 59.396 45.6226 58.8228 46.0568 58.5498C46.4909 58.2768 47.0642 58.4075 47.3371 58.8416C49.4257 62.1633 53.1082 64.1212 56.2118 63.1865C56.2116 63.1866 56.2234 63.1829 56.2483 63.1713C56.2729 63.1599 56.3056 63.1428 56.347 63.1183C56.4309 63.0686 56.5359 62.9968 56.662 62.899C56.9148 62.7028 57.2188 62.4281 57.5617 62.0825C58.2463 61.3925 59.0405 60.4664 59.8282 59.4363C61.424 57.3495 62.8892 54.9724 63.3955 53.3811C63.7217 52.3559 64.0138 50.2134 64.1587 47.6095C64.3019 45.0346 64.2959 42.1088 64.0645 39.5635C64.0181 39.0528 64.3945 38.6011 64.9052 38.5547ZM37.4175 48.2005C37.4556 49.0112 37.6835 49.7469 38.0749 50.2688C39.0093 51.5147 39.9053 51.9459 40.551 52.1612C40.7219 52.2181 40.8819 52.262 41.0396 52.3038C41.0587 52.3089 41.0785 52.3141 41.0988 52.3194C41.2306 52.3541 41.3835 52.3943 41.5151 52.4382C41.6564 52.4853 41.8934 52.573 42.0997 52.7518C42.3563 52.9742 42.5157 53.2928 42.5157 53.6626C42.5157 54.2662 42.0395 62.494 41.8049 66.482C41.7748 66.994 41.3354 67.3846 40.8234 67.3545C40.3115 67.3244 39.9209 66.8849 39.951 66.373C40.1621 62.7831 40.555 55.9853 40.6414 54.1195C40.6374 54.1184 40.6334 54.1174 40.6293 54.1163C40.6087 54.1108 40.587 54.1051 40.5639 54.099C40.3975 54.0549 40.1918 53.999 39.9638 53.923C39.0139 53.6064 37.7823 52.9739 36.5892 51.3831C35.9169 50.4867 35.6129 49.3608 35.5624 48.2878C35.5118 47.2129 35.7109 46.1066 36.1373 45.2005C36.5544 44.3143 37.2699 43.467 38.3322 43.2368C39.4292 42.9992 40.5321 43.4936 41.5346 44.4961C41.8973 44.8587 41.8973 45.4466 41.5347 45.8093C41.1721 46.1719 40.5841 46.1719 40.2215 45.8093C39.451 45.0389 38.9582 45.0014 38.7254 45.0519C38.458 45.1098 38.1098 45.3706 37.8177 45.9913C37.5349 46.5922 37.3794 47.3918 37.4175 48.2005ZM40.9754 54.2179C40.9754 54.2179 40.9741 54.2173 40.9717 54.2162C40.9743 54.2173 40.9755 54.2179 40.9754 54.2179Z" fill="#042040"/>
</svg>
