<svg width="46" height="46" viewBox="0 0 46 46" fill="none" xmlns="http://www.w3.org/2000/svg">
<path d="M32.7934 10.4151C33.2811 9.50882 34.3733 7.27326 34.8414 5.58148M34.8414 12.8319C36.3042 11.5228 39.4054 8.84419 40.1075 8.60251M9.09588 9.20671L13.1918 13.7383M5 13.134C6.17025 13.3355 9.15439 14.0404 11.7289 15.2488" stroke="#042040" stroke-width="1.14749" stroke-linecap="round" stroke-linejoin="round"/>
<path d="M14.162 37.2258C14.2765 34.7462 14.6525 27.6951 15.6058 17.6454C15.6168 17.5301 15.6424 17.4163 15.7071 17.3202C16.3817 16.3172 20.1371 13.1716 24.1882 11.0354C24.5725 10.8327 25.0391 10.8776 25.378 11.1495C28.6522 13.7769 31.7365 17.2992 32.6644 18.3892C32.8476 18.6044 32.9396 18.8822 32.9262 19.1645C32.5041 28.0365 31.7889 35.8979 31.5362 38.5275C31.4841 39.0706 31.0538 39.4926 30.5087 39.5169C28.3665 39.6124 22.6983 39.6824 15.0908 38.3773C14.533 38.2817 14.1359 37.7912 14.162 37.2258Z" fill="white" stroke="#042040" stroke-width="1.14749" stroke-linejoin="round"/>
<path fill-rule="evenodd" clip-rule="evenodd" d="M17.9089 19.3291C19.0607 29.6803 20.1541 36.8812 20.5555 39.4075C20.6469 39.9829 21.1409 40.3946 21.7122 40.3749C29.3684 40.1116 34.862 38.8689 36.9371 38.326C37.4702 38.1865 37.8074 37.671 37.746 37.1131C37.4482 34.4075 36.5173 26.3146 35.0914 17.2618C35.0466 16.9773 34.9005 16.7185 34.6784 16.5399C33.5525 15.6347 29.8278 12.7243 26.0994 10.7507C25.7038 10.5412 25.2253 10.5946 24.8848 10.8865C21.3857 13.8858 18.3855 17.8363 17.9397 18.9848C17.8973 19.0941 17.8959 19.2123 17.9089 19.3291ZM26.1564 14.6843C25.4968 14.7209 25.0707 14.9644 24.8195 15.3246C24.5713 15.6805 24.5054 16.134 24.5295 16.5701C24.5783 17.4502 25.1896 18.1724 26.1935 18.205C26.6925 18.2212 27.1838 18.0409 27.5267 17.6941C27.8718 17.3451 28.0606 16.8331 27.9607 16.2025C27.8613 15.5754 27.5656 15.1834 27.2119 14.9548C26.8617 14.7286 26.4623 14.6673 26.1564 14.6843Z" fill="#A890F5" stroke="#A890F5" stroke-width="1.14749" stroke-linejoin="round"/>
<path d="M26.1721 14.9724C25.6204 15.003 25.2641 15.2066 25.054 15.5079C24.8464 15.8055 24.7913 16.1847 24.8115 16.5494C24.8523 17.2855 25.3635 17.8894 26.2031 17.9167C26.6204 17.9302 27.0313 17.7794 27.318 17.4894C27.6066 17.1976 27.7645 16.7694 27.6809 16.242C27.5978 15.7176 27.3505 15.3897 27.0548 15.1986C26.7619 15.0094 26.4279 14.9582 26.1721 14.9724Z" stroke="white" stroke-width="0.742494" stroke-linejoin="round"/>
<path d="M25.6434 15.6841C26.6926 16.6153 27.7881 12.4825 27.0052 8.58452C26.0475 3.81598 19.9653 3.91131 20.9696 10.7449" stroke="#042040" stroke-width="1.14749" stroke-linecap="round" stroke-linejoin="round"/>
<path d="M24.7988 34.2013L31.7348 21.8402" stroke="white" stroke-width="1.14749" stroke-linecap="round" stroke-linejoin="round"/>
<path d="M24.9824 24.3923C24.4293 24.423 24.0719 24.6236 23.861 24.9201C23.6526 25.2131 23.5969 25.5861 23.6168 25.9448C23.6569 26.6687 24.1687 27.2622 25.0104 27.2881C25.4287 27.301 25.8408 27.1522 26.1285 26.8667C26.4181 26.5793 26.5769 26.158 26.4937 25.6395C26.4109 25.1238 26.1634 24.8015 25.8671 24.6139C25.5737 24.4281 25.2389 24.3781 24.9824 24.3923Z" stroke="white" stroke-width="1.14749" stroke-linejoin="round"/>
<path d="M31.7519 28.7097C31.1989 28.7404 30.8415 28.9411 30.6305 29.2376C30.4221 29.5305 30.3664 29.9036 30.3863 30.2622C30.4265 30.9861 30.9383 31.5796 31.7799 31.6055C32.1982 31.6184 32.6103 31.4697 32.8981 31.1841C33.1877 30.8968 33.3464 30.4754 33.2632 29.9569C33.1804 29.4412 32.9329 29.119 32.6366 28.9313C32.3432 28.7455 32.0084 28.6955 31.7519 28.7097Z" stroke="white" stroke-width="1.14749" stroke-linejoin="round"/>
</svg>
