<svg width="80" height="80" viewBox="0 0 80 80" fill="none" xmlns="http://www.w3.org/2000/svg">
<rect width="80" height="80" fill="#F8FAFD"/>
<path d="M17.5165 68.5135V70H12.0083V61.6858H17.5165V63.1724H13.7483V65.1141H17.3033V66.4911H13.7483V68.5135H17.5165ZM20.8475 70L23.5036 65.8112L20.8647 61.6858H22.9102L24.6444 64.5955H24.7481L26.4997 61.6858H28.4472L25.7104 65.84L28.4068 70H26.4248L24.6387 67.1825H24.535L22.7258 70H20.8475ZM31.9567 61.6858H35.4253C37.1365 61.6858 38.3062 62.8324 38.3062 64.5609C38.3062 66.2722 37.0904 67.4187 35.3389 67.4187H33.6968V70H31.9567V61.6858ZM33.6968 63.1147V66.0071H34.9586C35.9554 66.0071 36.5373 65.5001 36.5373 64.5667C36.5373 63.6218 35.9669 63.1147 34.9644 63.1147H33.6968ZM47.4161 68.5135V70H41.9079V61.6858H47.4161V63.1724H43.648V65.1141H47.2029V66.4911H43.648V68.5135H47.4161ZM52.9884 63.0917V65.6499H54.5152C55.391 65.6499 55.9038 65.1774 55.9038 64.3766C55.9038 63.5872 55.3622 63.0917 54.498 63.0917H52.9884ZM52.9884 66.9866V70H51.2483V61.6858H54.7399C56.5664 61.6858 57.6899 62.6999 57.6899 64.3535C57.6899 65.4137 57.1368 66.3355 56.1804 66.7158L57.9319 70H55.9614L54.4115 66.9866H52.9884ZM65.1981 70H63.4581V63.1724H60.9633V61.6858H67.693V63.1724H65.1981V70Z" fill="#65778C"/>
<g clip-path="url(#clip0_4182_108076)">
<rect x="12" y="6" width="17" height="45" rx="2" fill="#ABBBCC"/>
<path d="M25.6588 33C25.6056 33.5454 25.5657 34.0776 25.5391 34.5964C25.5258 35.1019 25.5191 35.4877 25.5191 35.7537C25.5191 36.0065 25.5258 36.2526 25.5391 36.4921C25.5524 36.7182 25.5657 36.9111 25.579 37.0708H25.12C25.0136 36.1528 24.8407 35.4345 24.6012 34.9156C24.3618 34.3835 24.0358 34.011 23.6235 33.7982C23.2244 33.572 22.6989 33.459 22.0471 33.459H20.9496C20.5505 33.459 20.2445 33.4922 20.0317 33.5587C19.8188 33.6252 19.6725 33.7649 19.5927 33.9778C19.5262 34.1906 19.4929 34.5166 19.4929 34.9556V45.1724C19.4929 45.5981 19.5262 45.924 19.5927 46.1501C19.6725 46.363 19.8188 46.5027 20.0317 46.5692C20.2445 46.6357 20.5505 46.669 20.9496 46.669H22.087C22.7654 46.669 23.3308 46.5426 23.7831 46.2898C24.2487 46.0371 24.6212 45.6247 24.9005 45.0526C25.1799 44.4673 25.3861 43.6691 25.5191 42.6581H25.9781C25.9382 43.0705 25.9182 43.6026 25.9182 44.2544C25.9182 44.5338 25.9249 44.9396 25.9382 45.4717C25.9648 46.0038 26.0047 46.5559 26.0579 47.1279C25.3794 47.1013 24.6145 47.088 23.7631 47.088C22.9117 47.0747 22.1535 47.0681 21.4883 47.0681C21.1824 47.0681 20.7766 47.0681 20.2711 47.0681C19.7789 47.0681 19.2401 47.0747 18.6548 47.088C18.0828 47.088 17.4975 47.0947 16.8988 47.108C16.3135 47.108 15.7548 47.1146 15.2227 47.1279V46.7288C15.6617 46.7022 15.9876 46.649 16.2004 46.5692C16.4266 46.4894 16.5729 46.3297 16.6394 46.0903C16.7192 45.8508 16.7591 45.4916 16.7591 45.0127V35.1152C16.7591 34.623 16.7192 34.2638 16.6394 34.0376C16.5729 33.7982 16.4266 33.6385 16.2004 33.5587C15.9876 33.4656 15.6617 33.4124 15.2227 33.3991V33C15.7548 33.0133 16.3135 33.0266 16.8988 33.0399C17.4975 33.0399 18.0828 33.0466 18.6548 33.0599C19.2401 33.0599 19.7789 33.0599 20.2711 33.0599C20.7766 33.0599 21.1824 33.0599 21.4883 33.0599C22.1003 33.0599 22.792 33.0599 23.5636 33.0599C24.3485 33.0466 25.0469 33.0266 25.6588 33ZM22.4461 39.8245C22.4461 39.8245 22.4461 39.891 22.4461 40.024C22.4461 40.1571 22.4461 40.2236 22.4461 40.2236H18.8943C18.8943 40.2236 18.8943 40.1571 18.8943 40.024C18.8943 39.891 18.8943 39.8245 18.8943 39.8245H22.4461ZM23.0248 37.1905C22.9716 37.9488 22.945 38.5274 22.945 38.9265C22.9583 39.3256 22.965 39.6915 22.965 40.024C22.965 40.3566 22.9716 40.7225 22.9849 41.1216C22.9982 41.5207 23.0315 42.0993 23.0847 42.8576H22.6257C22.5592 42.4053 22.4528 41.9796 22.3065 41.5805C22.1734 41.1681 21.9539 40.8422 21.648 40.6027C21.3553 40.35 20.9296 40.2236 20.3709 40.2236V39.8245C20.7833 39.8245 21.1159 39.738 21.3686 39.5651C21.6347 39.3922 21.8475 39.1726 22.0072 38.9066C22.1668 38.6272 22.2865 38.3412 22.3663 38.0485C22.4595 37.7426 22.526 37.4565 22.5659 37.1905H23.0248Z" fill="white"/>
<path fill-rule="evenodd" clip-rule="evenodd" d="M12.0946 9.5C12.0319 9.86711 12 10.2384 12 10.6133C12 18.0346 24.5135 24.0508 39.9496 24.0508C55.3857 24.0508 67.8992 18.0346 67.8992 10.6133C67.8992 10.2384 67.8672 9.86711 67.8046 9.5H12.0946Z" fill="white"/>
<rect x="12" y="7.5" width="1" height="2" fill="white"/>
<path fill-rule="evenodd" clip-rule="evenodd" d="M12.3558 5.46387C12.1217 6.16392 12 6.88207 12 7.61387C12 15.0352 24.5135 21.0514 39.9496 21.0514C55.3857 21.0514 67.8992 15.0352 67.8992 7.61387C67.8992 6.88207 67.7775 6.16392 67.5433 5.46387H12.3558Z" fill="#768699"/>
</g>
<g clip-path="url(#clip1_4182_108076)">
<rect x="31.3398" y="6" width="17" height="45" rx="2" fill="#ABBBCC"/>
<path d="M38.7913 33V33.419C38.1661 33.419 37.7736 33.4789 37.614 33.5986C37.4544 33.7184 37.4677 33.9246 37.6539 34.2172L45.4162 45.7111C45.6689 46.0969 45.8751 46.3563 46.0347 46.4894C46.2077 46.6091 46.4338 46.6823 46.7132 46.7089V47.1279C46.4737 47.1146 46.1279 47.1013 45.6756 47.088C45.2366 47.0614 44.7843 47.0481 44.3187 47.0481C43.7333 47.0481 43.148 47.0614 42.5627 47.088C41.9774 47.1013 41.5384 47.1146 41.2457 47.1279V46.7089C41.8576 46.7089 42.2567 46.669 42.443 46.5891C42.6292 46.496 42.6292 46.3098 42.443 46.0304L34.6408 34.4168C34.3747 34.031 34.1619 33.7716 34.0022 33.6385C33.8559 33.5055 33.6364 33.4324 33.3438 33.419V33C33.5832 33.0133 33.9357 33.0333 34.4013 33.0599C34.8669 33.0732 35.3392 33.0798 35.8181 33.0798C36.3901 33.0798 36.9422 33.0732 37.4743 33.0599C38.0064 33.0333 38.4454 33.0133 38.7913 33ZM39.2702 39.9642C39.2702 39.9642 39.2835 40.0107 39.3101 40.1039C39.3367 40.1837 39.3633 40.2702 39.3899 40.3633C39.4298 40.4431 39.4498 40.483 39.4498 40.483L37.2748 43.5361C36.7693 44.2411 36.4899 44.8265 36.4367 45.2921C36.3835 45.7577 36.5098 46.1102 36.8158 46.3497C37.1351 46.5758 37.5807 46.7022 38.1528 46.7288V47.1279C37.9665 47.1146 37.7337 47.108 37.4544 47.108C37.1883 47.0947 36.9089 47.088 36.6163 47.088C36.3369 47.0747 36.0642 47.0681 35.7981 47.0681C35.5321 47.0681 35.3192 47.0681 35.1596 47.0681C34.7871 47.0681 34.4479 47.0747 34.1419 47.088C33.836 47.088 33.5766 47.1013 33.3637 47.1279V46.7288C33.816 46.6091 34.2617 46.363 34.7006 45.9905C35.1396 45.618 35.5853 45.1191 36.0376 44.4939L39.2702 39.9642ZM45.9749 33V33.3991C45.5492 33.5055 45.1301 33.7383 44.7178 34.0975C44.3054 34.4567 43.9129 34.889 43.5404 35.3946L40.3078 39.8644C40.3078 39.8644 40.2812 39.7846 40.228 39.625C40.1881 39.452 40.1682 39.3655 40.1682 39.3655L42.3033 36.3923C42.7955 35.7138 43.0881 35.1618 43.1813 34.7361C43.2744 34.2971 43.1946 33.9711 42.9418 33.7583C42.6891 33.5454 42.29 33.4257 41.7445 33.3991V33C41.9973 33.0133 42.27 33.0266 42.5627 33.0399C42.8553 33.0399 43.1414 33.0466 43.4207 33.0599C43.7001 33.0599 43.9528 33.0599 44.179 33.0599C44.5515 33.0599 44.8907 33.0532 45.1967 33.0399C45.5026 33.0266 45.762 33.0133 45.9749 33Z" fill="white"/>
<path fill-rule="evenodd" clip-rule="evenodd" d="M12.348 8.46289C12.1139 9.16295 11.9922 9.88109 11.9922 10.6129C11.9922 18.0342 24.5056 24.0504 39.9418 24.0504C55.3779 24.0504 67.8914 18.0342 67.8914 10.6129C67.8914 9.88109 67.7697 9.16295 67.5355 8.46289H12.348Z" fill="white"/>
<path fill-rule="evenodd" clip-rule="evenodd" d="M12.348 5.46387C12.1139 6.16392 11.9922 6.88207 11.9922 7.61387C11.9922 15.0352 24.5056 21.0514 39.9418 21.0514C55.3779 21.0514 67.8914 15.0352 67.8914 7.61387C67.8914 6.88207 67.7697 6.16392 67.5355 5.46387H12.348Z" fill="#768699"/>
</g>
<g clip-path="url(#clip2_4182_108076)">
<rect x="50.7031" y="6" width="17" height="45" rx="2" fill="#ABBBCC"/>
<path d="M60.0275 33C60.9055 33 61.6239 33.133 62.1826 33.3991C62.7546 33.6519 63.2601 33.9512 63.6991 34.2971C63.9652 34.4966 64.1647 34.5232 64.2978 34.3769C64.4441 34.2172 64.5439 33.8514 64.5971 33.2794H65.056C65.0294 33.7849 65.0095 34.4035 64.9962 35.1352C64.9829 35.8668 64.9762 36.8313 64.9762 38.0286H64.5173C64.4375 37.4299 64.351 36.9311 64.2579 36.532C64.1647 36.1196 64.0317 35.7671 63.8588 35.4744C63.6991 35.1817 63.473 34.9023 63.1803 34.6363C62.8211 34.2372 62.3888 33.9445 61.8833 33.7583C61.3911 33.5587 60.8723 33.459 60.3268 33.459C59.6351 33.459 59.0298 33.6452 58.511 34.0177C58.0055 34.3769 57.5798 34.8757 57.2339 35.5143C56.9013 36.1395 56.6486 36.8712 56.4756 37.7093C56.316 38.5474 56.2362 39.4387 56.2362 40.3832C56.2362 41.3544 56.3227 42.259 56.4956 43.0971C56.6818 43.9219 56.9479 44.6469 57.2938 45.2721C57.653 45.8841 58.092 46.363 58.6108 46.7089C59.1429 47.0548 59.7548 47.2277 60.4466 47.2277C60.9388 47.2277 61.4443 47.1346 61.9631 46.9483C62.4819 46.7621 62.9076 46.4761 63.2402 46.0903C63.6792 45.6912 63.9785 45.2189 64.1381 44.6735C64.2978 44.1148 64.4241 43.3764 64.5173 42.4585H64.9762C64.9762 43.709 64.9829 44.7201 64.9962 45.4916C65.0095 46.2499 65.0294 46.8885 65.056 47.4073H64.5971C64.5439 46.8353 64.4508 46.4761 64.3177 46.3297C64.198 46.1834 63.9918 46.2034 63.6991 46.3896C63.2069 46.7355 62.6815 47.0414 62.1227 47.3075C61.5773 47.5603 60.8723 47.6867 60.0076 47.6867C58.6507 47.6867 57.4601 47.4006 56.4357 46.8286C55.4114 46.2566 54.6132 45.4318 54.0412 44.3542C53.4825 43.2767 53.2031 41.9796 53.2031 40.4631C53.2031 38.9731 53.4958 37.6694 54.0811 36.5519C54.6664 35.4345 55.4713 34.5631 56.4956 33.9379C57.5199 33.3126 58.6972 33 60.0275 33Z" fill="white"/>
<path fill-rule="evenodd" clip-rule="evenodd" d="M12.3597 8.46289C12.1256 9.16295 12.0039 9.88109 12.0039 10.6129C12.0039 18.0342 24.5174 24.0504 39.9535 24.0504C55.3896 24.0504 67.9031 18.0342 67.9031 10.6129C67.9031 9.88109 67.7814 9.16295 67.5473 8.46289H12.3597Z" fill="white"/>
<path fill-rule="evenodd" clip-rule="evenodd" d="M12.3597 5.46289C12.1256 6.16295 12.0039 6.88109 12.0039 7.6129C12.0039 15.0342 24.5174 21.0504 39.9535 21.0504C55.3896 21.0504 67.9031 15.0342 67.9031 7.6129C67.9031 6.88109 67.7814 6.16295 67.5473 5.46289H12.3597Z" fill="#768699"/>
</g>
<defs>
<clipPath id="clip0_4182_108076">
<rect x="12" y="6" width="17" height="45" rx="2.14998" fill="white"/>
</clipPath>
<clipPath id="clip1_4182_108076">
<rect x="31.3438" y="6" width="17" height="45" rx="2.14998" fill="white"/>
</clipPath>
<clipPath id="clip2_4182_108076">
<rect x="50.7031" y="6" width="17" height="45" rx="2.14998" fill="white"/>
</clipPath>
</defs>
</svg>
