<svg width="163" height="163" viewBox="0 0 163 163" fill="none" xmlns="http://www.w3.org/2000/svg">
<path d="M91.5716 19.1182C78.9752 59.1587 57.0281 145.57 78.3111 145.57C104.764 145.57 104.185 62.7608 124.024 62.7608C140.084 62.7608 111.377 145.57 130.271 145.57C142.553 145.57 152 116.083 152 103.046" stroke="#08386F" stroke-width="4.92666" stroke-linecap="round" stroke-linejoin="round"/>
<path d="M129.447 145.571H18.2409C-2.92817 145.571 28.9025 20.6727 30.4567 18.8224C32.0109 16.972 90.9208 18.8224 90.9208 18.8224M122.87 62.3054C104.564 61.7862 94.8821 61.7053 79.6447 62.3054M151.999 103.013C141.123 103.859 136.935 104.026 127.38 103.013" stroke="#08386F" stroke-width="4.92666" stroke-linecap="round" stroke-linejoin="round"/>
<path d="M40.2353 42.4686C41.1661 33.74 44.8891 26.9512 54.1969 26.9512C64.4353 26.9512 65.3661 35.6797 64.4353 42.4686C63.5046 49.2574 57.9199 56.0463 50.4738 56.0463C43.0276 56.0463 39.3045 51.1971 40.2353 42.4686Z" fill="#F2796E"/>
<path d="M28.9048 64.998H53.5237" stroke="#08386F" stroke-width="4.92666" stroke-linecap="round" stroke-linejoin="round"/>
<path d="M26.666 76.1895H64.7135" stroke="#08386F" stroke-width="4.92666" stroke-linecap="round" stroke-linejoin="round"/>
<path d="M24.4282 94.0938H42.3329" stroke="#08386F" stroke-width="4.92666" stroke-linecap="round" stroke-linejoin="round"/>
<path d="M22.1904 111.999H40.0951" stroke="#08386F" stroke-width="4.92666" stroke-linecap="round" stroke-linejoin="round"/>
<path d="M22.1904 129.903H35.6189" stroke="#08386F" stroke-width="4.92666" stroke-linecap="round" stroke-linejoin="round"/>
<path d="M53.5234 94.0938H62.4758" stroke="#08386F" stroke-width="4.92666" stroke-linecap="round" stroke-linejoin="round"/>
<path d="M51.2852 111.999H60.2375" stroke="#08386F" stroke-width="4.92666" stroke-linecap="round" stroke-linejoin="round"/>
<path d="M49.0474 129.903H57.9997" stroke="#08386F" stroke-width="4.92666" stroke-linecap="round" stroke-linejoin="round"/>
<path d="M98.2852 127.665H109.476" stroke="#08386F" stroke-width="4.92666" stroke-linecap="round" stroke-linejoin="round"/>
<path d="M102.762 109.761H111.714" stroke="#08386F" stroke-width="4.92666" stroke-linecap="round" stroke-linejoin="round"/>
<path d="M109.476 91.8564H118.428" stroke="#08386F" stroke-width="4.92666" stroke-linecap="round" stroke-linejoin="round"/>
</svg>
