<svg xmlns="http://www.w3.org/2000/svg" width="48" height="47" viewBox="0 0 48 47" fill="none">
    <path d="M35.2623 7.7083C32.9003 7.3473 20.2475 7.0408 15.2623 7.33336C11.5756 7.54971 10.8594 9.65869 8.59569 29.7083C8.03116 34.7083 7.52384 41.3877 5.5957 42.0416C4.59571 41.8731 2.5957 41.6956 0.92903 40.375C0.262393 42.0416 1.52551 43.7083 1.92904 44.0416C4.94676 46.5343 22.9554 46.375 25.9554 45.7083C27.3477 45.7083 29.5957 45.375 30.6803 38.7083C30.8386 36.8876 30.9289 34.7894 30.9289 32.375C30.9289 17.7083 32.5956 7.62889 35.2623 7.7083Z" fill="#FFF0CF"/>
    <path fill-rule="evenodd" clip-rule="evenodd" d="M3.91448 44.1483C3.15333 43.9231 2.65899 43.6868 2.39944 43.4724C2.30223 43.3921 1.95139 42.9945 1.70758 42.4199C1.59948 42.1652 1.52153 41.8976 1.49108 41.6259C2.87024 42.3757 4.28841 42.5894 5.13633 42.7172C5.26176 42.7361 5.37471 42.7531 5.47321 42.7697C7.43465 43.1003 15.5948 44.1684 23.8122 43.2233C23.7992 43.6258 23.8138 44.0825 23.8973 44.516C23.9396 44.7359 24.0031 44.9696 24.1005 45.1965C23.3451 45.2567 22.4075 45.3072 21.3364 45.3418C19.1956 45.411 16.5857 45.4155 13.9755 45.3219C11.3625 45.2282 8.76547 45.0367 6.64452 44.7174C5.58335 44.5576 4.65703 44.3681 3.91448 44.1483ZM26.0349 46.4463C25.1771 46.6215 23.4645 46.7504 21.3841 46.8177C19.2102 46.8879 16.5668 46.8924 13.9226 46.7976C11.2813 46.7029 8.62281 46.5085 6.42466 46.1775C5.32627 46.0121 4.32714 45.8104 3.4955 45.5643C2.68248 45.3237 1.95392 45.0197 1.45904 44.6109C1.15272 44.3579 0.670234 43.7555 0.348262 42.9967C0.019684 42.2224 -0.18653 41.1765 0.243715 40.1008C0.330299 39.8843 0.514041 39.7215 0.739341 39.6615C0.964642 39.6016 1.20503 39.6515 1.38776 39.7963C2.71133 40.8451 4.26641 41.0866 5.34557 41.2542C5.39065 41.2612 5.4349 41.268 5.47827 41.2748C5.63843 41.1528 5.86735 40.8652 6.11588 40.261C6.41418 39.5358 6.66502 38.5426 6.88118 37.3708C7.22349 35.5152 7.46006 33.3251 7.68535 31.2393C7.74452 30.6915 7.80291 30.1509 7.86223 29.6255C8.99077 19.6301 9.74188 14.0102 10.6887 10.8702C11.1634 9.2959 11.72 8.2237 12.4986 7.54479C13.3014 6.84482 14.2341 6.65416 15.2192 6.59635C17.7435 6.44821 22.1785 6.45241 26.2616 6.53763C30.3249 6.62243 34.1344 6.78903 35.374 6.97849C35.7599 7.03746 36.0331 7.38653 35.9978 7.77522C35.9624 8.16392 35.6306 8.45795 35.2405 8.44633C35.1657 8.4441 35.0326 8.4688 34.8291 8.66954C34.6176 8.87819 34.3786 9.2333 34.132 9.77329C33.6399 10.8504 33.1945 12.4881 32.8234 14.6375C32.0835 18.9223 31.6675 25.062 31.6675 32.375C31.6675 34.8075 31.5765 36.9273 31.416 38.7723C31.4144 38.7906 31.4122 38.8088 31.4092 38.8269C30.8585 42.2119 29.9931 44.1395 28.9685 45.2171C27.9304 46.3089 26.8167 46.4389 26.0349 46.4463ZM7.1448 41.5211C7.27326 41.2964 7.38428 41.0591 7.48151 40.8227C7.83827 39.9553 8.11106 38.8435 8.33332 37.6387C8.68676 35.7228 8.9313 33.4573 9.15704 31.366C9.21528 30.8264 9.27227 30.2985 9.32955 29.7912C10.4647 19.7369 11.2036 14.2776 12.1025 11.2965C12.5506 9.81041 13.0058 9.06169 13.4691 8.65777C13.9082 8.27491 14.4475 8.12081 15.3057 8.07045C17.7666 7.92603 22.1507 7.9288 26.2308 8.01395C28.9736 8.07119 31.5366 8.16494 33.2688 8.2721C33.0954 8.53853 32.9362 8.83719 32.7888 9.15973C32.2184 10.4085 31.7471 12.1925 31.3683 14.3863C30.6082 18.788 30.1908 25.0213 30.1908 32.375C30.1908 34.7591 30.1021 36.8268 29.9473 38.6169C29.4134 41.8801 28.615 43.4459 27.8984 44.1996C27.2289 44.9037 26.5634 44.97 25.9556 44.97C25.7454 44.97 25.6521 44.9046 25.5849 44.8276C25.4933 44.7225 25.4043 44.533 25.3473 44.2368C25.2325 43.6405 25.2997 42.9108 25.3549 42.4704C25.3833 42.2432 25.3047 42.0157 25.1422 41.8545C24.9796 41.6933 24.7514 41.6166 24.5245 41.6469C17.5507 42.5784 10.4181 41.9446 7.1448 41.5211Z" fill="#E7AF2E"/>
    <path d="M35.2623 7.70814C32.9004 7.34715 20.2475 7.04064 15.2623 7.3332C11.5757 7.54955 10.8595 9.65853 8.59574 29.7081C8.47133 30.8101 8.34969 32.1231 8.21501 33.5077C14.7705 33.7657 24.5867 34.3046 30.9099 34.2509C30.9225 33.6478 30.929 33.0227 30.929 32.3748C30.929 17.7082 32.5957 7.62873 35.2623 7.70814Z" fill="white"/>
    <path fill-rule="evenodd" clip-rule="evenodd" d="M7.65772 33.9931C7.79129 34.1462 7.98206 34.2375 8.1851 34.2455C9.73395 34.3064 11.4695 34.3833 13.3007 34.4645C19.192 34.7255 26.0735 35.0304 30.9153 34.9893C31.3146 34.9859 31.6389 34.6656 31.6472 34.2664C31.6599 33.658 31.6664 33.0277 31.6664 32.3749C31.6664 25.0619 32.0824 18.9221 32.8223 14.6374C33.1935 12.4879 33.6389 10.8503 34.1309 9.77314C34.3776 9.23316 34.6165 8.87805 34.8281 8.66939C35.0316 8.46866 35.1646 8.44396 35.2395 8.44618C35.6296 8.4578 35.9614 8.16377 35.9967 7.77508C36.0321 7.38639 35.7588 7.03732 35.373 6.97835C34.1334 6.78889 30.3239 6.62228 26.2606 6.53748C22.1775 6.45227 17.7425 6.44806 15.2182 6.5962C14.2331 6.65401 13.3004 6.84468 12.4976 7.54464C11.719 8.22356 11.1624 9.29575 10.6877 10.8701C9.74086 14.0101 8.98974 19.63 7.86121 29.6254C7.7622 30.5023 7.66489 31.5124 7.56222 32.5782C7.53499 32.8608 7.50739 33.1473 7.47928 33.4363C7.45961 33.6385 7.52416 33.8399 7.65772 33.9931ZM9.02419 32.8014C9.02705 32.7717 9.02991 32.7421 9.03276 32.7125C9.13526 31.6485 9.23101 30.6547 9.32852 29.791C10.4637 19.7368 11.2025 14.2774 12.1014 11.2964C12.5496 9.81026 13.0048 9.06155 13.468 8.65763C13.9071 8.27476 14.4465 8.12067 15.3047 8.0703C17.7656 7.92589 22.1497 7.92865 26.2298 8.0138C28.9726 8.07104 31.5356 8.1648 33.2677 8.27195C33.0943 8.53839 32.9352 8.83705 32.7878 9.15958C32.2173 10.4084 31.7461 12.1923 31.3672 14.3861C30.6071 18.7879 30.1898 25.0212 30.1898 32.3749C30.1898 32.7637 30.1874 33.1441 30.1828 33.5163C25.438 33.5239 18.9976 33.2386 13.4016 32.9907C11.8608 32.9225 10.384 32.8571 9.02419 32.8014Z" fill="#042040"/>
    <path d="M36.9285 8.37533C36.1274 7.69026 32.3828 5.04302 32.1048 17.5105C32.7805 17.6291 35.3948 17.8004 35.3948 17.8004C35.3948 17.8004 38.3439 18.0491 39.0615 17.8004C39.2786 15.0511 38.9285 10.0854 36.9285 8.37533Z" fill="#FFDC89"/>
    <path fill-rule="evenodd" clip-rule="evenodd" d="M31.3672 17.4939C31.3591 17.8586 31.6185 18.1745 31.9777 18.2376C32.3588 18.3044 33.2232 18.3794 33.9462 18.4358C34.3178 18.4649 34.6678 18.4901 34.9247 18.5081C35.0532 18.5171 35.1586 18.5243 35.232 18.5293L35.3405 18.5365L35.343 18.5367L35.3692 18.5389C35.3918 18.5407 35.4248 18.5433 35.4668 18.5466C35.5509 18.553 35.6712 18.562 35.8176 18.5718C36.11 18.5916 36.5088 18.6154 36.9319 18.6313C37.353 18.6471 37.8077 18.6555 38.2092 18.6431C38.5772 18.6317 39.0037 18.6018 39.3038 18.4978C39.5809 18.4018 39.7749 18.1507 39.798 17.8583C39.9108 16.4304 39.8766 14.4394 39.5545 12.5725C39.3933 11.6379 39.1565 10.7144 38.8186 9.89979C38.4831 9.09094 38.0294 8.34462 37.4089 7.81402C37.1821 7.62006 36.7087 7.25133 36.1014 7.05707C35.464 6.8532 34.6474 6.83734 33.8753 7.42194C33.1489 7.97201 32.5709 8.97556 32.1508 10.5348C31.7265 12.1092 31.4374 14.347 31.3672 17.4939ZM35.4436 17.0635L35.3314 17.056C35.2592 17.0511 35.155 17.044 35.0279 17.0351C34.7735 17.0173 34.4277 16.9923 34.0612 16.9637C33.6402 16.9308 33.2106 16.8944 32.8622 16.8597C32.9546 14.133 33.2236 12.229 33.5765 10.919C33.9617 9.48957 34.4221 8.86009 34.7667 8.59917C35.0657 8.37278 35.3528 8.36795 35.6515 8.46351C35.9803 8.56867 36.2755 8.78775 36.4493 8.93632C36.8287 9.26077 37.1688 9.77645 37.4546 10.4656C37.7381 11.1489 37.9503 11.9593 38.0994 12.8236C38.3563 14.3127 38.4161 15.9023 38.3613 17.1587C38.2995 17.1622 38.2334 17.165 38.1636 17.1672C37.8103 17.1781 37.3932 17.1709 36.9873 17.1557C36.5834 17.1405 36.2001 17.1177 35.9171 17.0986C35.7759 17.089 35.6602 17.0804 35.5801 17.0743C35.5401 17.0712 35.509 17.0687 35.4882 17.067L35.4647 17.0651L35.4576 17.0645L35.4436 17.0635Z" fill="#042040"/>
    <path fill-rule="evenodd" clip-rule="evenodd" d="M13.1898 19.6999C13.1799 20.1075 13.5024 20.4418 13.9101 20.4466L21.6137 20.5363C22.0214 20.5411 22.36 20.2145 22.3699 19.8068C22.3798 19.3992 22.0573 19.0649 21.6496 19.0601L13.946 18.9704C13.5383 18.9656 13.1997 19.2922 13.1898 19.6999Z" fill="#042040"/>
    <path fill-rule="evenodd" clip-rule="evenodd" d="M12.6339 24.3959C12.624 24.8036 12.9465 25.1379 13.3542 25.1426L21.0578 25.2324C21.4655 25.2371 21.8041 24.9105 21.814 24.5029C21.8239 24.0952 21.5014 23.7609 21.0937 23.7562L13.3901 23.6664C12.9824 23.6617 12.6438 23.9883 12.6339 24.3959Z" fill="#042040"/>
    <path fill-rule="evenodd" clip-rule="evenodd" d="M23.8925 19.8416C23.8857 20.2493 24.2106 20.5854 24.6183 20.5923L27.2846 20.6371C27.6923 20.644 28.0284 20.319 28.0353 19.9113C28.0421 19.5036 27.7172 19.1676 27.3095 19.1607L24.6432 19.1158C24.2355 19.109 23.8994 19.4339 23.8925 19.8416Z" fill="#042040"/>
    <path fill-rule="evenodd" clip-rule="evenodd" d="M13.8567 15.0418C13.8567 14.634 14.1872 14.3035 14.595 14.3035H18.595C19.0028 14.3035 19.3333 14.634 19.3333 15.0418C19.3333 15.4495 19.0028 15.7801 18.595 15.7801H14.595C14.1872 15.7801 13.8567 15.4495 13.8567 15.0418Z" fill="#042040"/>
    <path fill-rule="evenodd" clip-rule="evenodd" d="M23.3354 24.5379C23.3286 24.9456 23.6535 25.2817 24.0612 25.2885L26.7275 25.3334C27.1352 25.3403 27.4713 25.0153 27.4781 24.6076C27.485 24.1999 27.1601 23.8638 26.7523 23.857L24.0861 23.8121C23.6784 23.8053 23.3423 24.1302 23.3354 24.5379Z" fill="#042040"/>
    <path fill-rule="evenodd" clip-rule="evenodd" d="M46.2672 9.72098C46.6709 9.75394 47.0248 9.45343 47.0578 9.04977C47.3026 6.05197 47.4464 3.77949 47.281 2.40744C47.2347 2.02295 46.8974 1.74076 46.5108 1.76304C44.7878 1.86234 42.3794 1.66552 40.5214 1.51368C40.4819 1.51046 40.4427 1.50725 40.4038 1.50407C40.0001 1.47111 39.6462 1.77162 39.6132 2.17529C39.5803 2.57895 39.8808 2.93291 40.2844 2.96588C40.3403 2.97043 40.3968 2.97506 40.454 2.97974C42.0455 3.10992 44.1499 3.28207 45.8751 3.25309C45.924 4.49992 45.8039 6.38446 45.596 8.93039C45.563 9.33406 45.8635 9.68802 46.2672 9.72098ZM11.2216 1.5175C11.2546 1.11383 10.9541 0.759876 10.5504 0.726912C8.61458 0.568826 6.98824 0.755368 5.67234 0.906304C5.25506 0.954167 4.86899 0.998449 4.51417 1.02703C4.15593 1.05588 3.8714 1.3401 3.84214 1.69831C3.81381 2.0453 3.74885 2.47611 3.67088 2.98271L3.66144 3.04405C3.58748 3.52438 3.50524 4.05847 3.44571 4.59651C3.32558 5.68232 3.27483 6.94521 3.67713 7.9227C3.83127 8.29723 4.25985 8.47589 4.63437 8.32174C5.0089 8.1676 5.18756 7.73902 5.03342 7.3645C4.78711 6.76602 4.78347 5.84256 4.90348 4.75779C4.9595 4.25147 5.0375 3.74482 5.11253 3.25747L5.12049 3.2058C5.161 2.94254 5.20106 2.68112 5.23469 2.43225C5.46492 2.40809 5.69815 2.38142 5.93576 2.35425C7.22955 2.20632 8.65325 2.04353 10.4311 2.18871C10.8347 2.22168 11.1887 1.92116 11.2216 1.5175Z" fill="#042040"/>
    <path fill-rule="evenodd" clip-rule="evenodd" d="M19.0955 33.2403C25.5056 33.4985 31.86 33.6682 34.9613 33.3418C35.3641 33.2994 35.7249 33.5915 35.7673 33.9943C35.8097 34.3971 35.5176 34.758 35.1148 34.8004C31.8828 35.1406 25.4038 34.9622 19.0365 34.7057C17.0841 34.6271 15.1397 34.541 13.2936 34.4592C9.07637 34.2723 5.37273 34.1083 3.26153 34.1082C2.85652 34.1082 2.5282 33.7799 2.5282 33.3749C2.5282 32.9699 2.85653 32.6416 3.26154 32.6416C5.40678 32.6416 9.16838 32.8082 13.4085 32.9961C15.2452 33.0774 17.1717 33.1628 19.0955 33.2403Z" fill="#042040"/>
</svg>