<svg width="61" height="60" viewBox="0 0 61 60" fill="none" xmlns="http://www.w3.org/2000/svg">
<path d="M28.0459 11.1196C31.3189 10.652 40.3899 9.99737 50.4895 11.1196C49.5544 13.7691 47.4035 21.5933 48.1516 29.8226C49.0867 40.1093 48.6026 47.0327 45.8137 47.5905C45.7048 47.6122 45.5992 47.6269 45.497 47.635C35.1488 49.0691 25.7995 48.2076 22.3906 47.5905C20.8162 47.2306 20.3014 45.1071 20.5646 44.3174C21.4837 44.7499 23.0704 45.2425 25.235 45.5764C26.3204 42.7396 26.3722 37.1296 25.708 29.8226C24.9598 21.5933 27.1107 13.7691 28.0459 11.1196Z" fill="white"/>
<path fill-rule="evenodd" clip-rule="evenodd" d="M28.5244 11.7021C27.5531 14.6092 25.6424 22.0143 26.347 29.7645C26.6804 33.4315 26.8355 36.6874 26.7691 39.3916C26.7133 41.6634 26.5007 43.5872 26.0845 45.0483C30.063 45.559 35.8147 45.5111 42.8479 43.6961C43.0755 43.6374 43.317 43.7078 43.4774 43.8797C43.6378 44.0515 43.6913 44.2973 43.617 44.5204C43.5875 44.6089 43.5639 44.8245 43.6119 45.1381C43.6577 45.4375 43.7605 45.7689 43.9218 46.0684C44.2396 46.6583 44.7258 47.0455 45.429 46.9967C45.5204 46.984 45.6118 46.9711 45.7033 46.958C46.1167 46.8693 46.5338 46.5349 46.9077 45.7496C47.2865 44.9543 47.5686 43.7959 47.7417 42.282C48.0868 39.262 47.979 35.0119 47.5126 29.8807C46.8153 22.2109 48.5946 14.9062 49.6276 11.6728C40.2815 10.7143 31.9435 11.2601 28.5244 11.7021ZM45.5675 48.2731C45.6896 48.2626 45.8136 48.2449 45.9395 48.2197C46.9156 48.0245 47.5991 47.2828 48.0664 46.3014C48.5336 45.3202 48.837 44.0003 49.0167 42.4277C49.377 39.2749 49.2593 34.92 48.7906 29.7645C48.0539 21.6611 50.1763 13.935 51.0946 11.3331C51.1598 11.1485 51.1371 10.9443 51.033 10.7785C50.929 10.6127 50.7549 10.5034 50.5604 10.4818C40.4027 9.35318 31.2772 10.0098 27.9551 10.4843C27.7185 10.5181 27.5203 10.6806 27.4408 10.906C26.4888 13.6033 24.3094 21.5254 25.0689 29.8807C25.3999 33.5207 25.5509 36.7233 25.4861 39.3601C25.4286 41.7007 25.2015 43.5506 24.8036 44.8554C22.9531 44.5334 21.6124 44.1014 20.8379 43.7368C20.672 43.6588 20.4806 43.6554 20.3121 43.7276C20.1435 43.7998 20.0139 43.9406 19.9559 44.1145C19.8495 44.4338 19.8384 44.818 19.8799 45.1838C19.9228 45.5614 20.0278 45.9738 20.1998 46.3705C20.5383 47.1508 21.1883 47.9739 22.2477 48.216C22.2572 48.2182 22.2667 48.2201 22.2763 48.2219C25.7438 48.8496 35.153 49.7139 45.5675 48.2731ZM43.1947 47.2738C43.0369 47.0854 42.9028 46.8828 42.792 46.677C42.5554 46.2379 42.4095 45.7646 42.3434 45.3324C42.3342 45.2723 42.3263 45.2117 42.32 45.1509C35.0515 46.9095 29.144 46.8288 25.1372 46.2106C23.5032 45.9585 22.1733 45.6151 21.1906 45.2642C21.2294 45.4572 21.2911 45.6613 21.3772 45.8598C21.6219 46.4239 22.0119 46.8402 22.5206 46.9619C25.6385 47.524 33.837 48.2987 43.1947 47.2738Z" fill="#042040"/>
<path d="M31.1838 19.9583C31.4437 17.5208 32.4834 15.625 35.0827 15.625C37.9418 15.625 38.2018 18.0625 37.9418 19.9583C37.6819 21.8541 36.1224 23.75 34.043 23.75C31.9636 23.75 30.9239 22.3958 31.1838 19.9583Z" fill="#4A94E8"/>
<path fill-rule="evenodd" clip-rule="evenodd" d="M29.2906 26.555C29.1004 28.2969 29.1706 31.1483 29.2712 33.9955C29.2848 34.3817 29.299 34.767 29.313 35.1482C29.3549 36.2899 29.3954 37.3945 29.417 38.3722C29.4382 39.3335 29.4421 40.1997 29.4074 40.872C30.0875 40.951 31.0219 40.9957 32.1224 41.0159C33.5532 41.0422 35.2154 41.0267 36.8678 41.0041C37.2439 40.9989 37.6196 40.9934 37.9919 40.988C38.517 40.9803 39.0352 40.9727 39.5378 40.9663C39.7588 38.4706 39.6906 36.0905 39.589 33.6789C39.5771 33.3964 39.5647 33.1133 39.5523 32.8296C39.4603 30.7242 39.3666 28.5799 39.4502 26.3396C38.6647 26.3233 37.8371 26.313 36.998 26.3096C34.0297 26.2975 31.0069 26.3719 29.2906 26.555ZM40.7332 26.3728C40.6507 28.5601 40.7422 30.6576 40.8345 32.7743C40.8469 33.0574 40.8592 33.3408 40.8712 33.6249C40.9713 36.002 41.0428 38.4126 40.827 40.9534C41.0674 40.9518 41.3017 40.9508 41.5285 40.9506C42.5051 40.9497 43.3766 40.9627 44.0279 41.0073C44.3155 38.6636 44.229 36.3605 44.0948 33.9814C44.0785 33.6918 44.0614 33.4009 44.0443 33.1087C43.9205 30.9974 43.7927 28.817 43.904 26.5441C43.1541 26.4724 42.0388 26.4137 40.7332 26.3728ZM40.1372 42.2428C40.6238 42.2377 41.0906 42.2344 41.5297 42.2339C42.9088 42.2326 43.9557 42.2611 44.4817 42.3424C44.6503 42.3685 44.8223 42.3263 44.9598 42.2253C45.0973 42.1242 45.1888 41.9726 45.2142 41.8039C45.6205 39.1076 45.5221 36.4974 45.3761 33.9091C45.3596 33.6168 45.3426 33.3249 45.3255 33.0332C45.1905 30.7263 45.0562 28.4291 45.2199 26.0223C45.2425 25.6899 45.007 25.3955 44.6778 25.3446C43.4529 25.1553 40.2567 25.0395 37.0032 25.0262C33.745 25.013 30.3191 25.1022 28.6293 25.3436C28.3509 25.3833 28.1309 25.5996 28.0864 25.8772C27.7954 27.6935 27.8802 30.9714 27.9887 34.0408C28.0025 34.4318 28.0167 34.8203 28.0308 35.2034C28.0726 36.3422 28.1126 37.4331 28.134 38.4005C28.1628 39.7052 28.156 40.7359 28.083 41.3396C28.0427 41.6728 28.266 41.9808 28.5952 42.046C29.3941 42.2044 30.6608 42.2727 32.0989 42.299C33.5523 42.3257 35.2329 42.3099 36.8853 42.2873C37.2652 42.2821 37.6434 42.2766 38.0171 42.2711C38.7414 42.2604 39.4489 42.2501 40.1193 42.243C40.1253 42.243 40.1313 42.243 40.1372 42.2428Z" fill="#042040"/>
<path fill-rule="evenodd" clip-rule="evenodd" d="M43.3885 18.1052C42.4121 18.0711 41.493 18.0389 39.3516 18.1409C38.9976 18.1577 38.6969 17.8844 38.6801 17.5305C38.6632 17.1765 38.9365 16.8759 39.2905 16.859C41.4776 16.7549 42.4795 16.7892 43.4869 16.8237C43.9915 16.8409 44.4974 16.8583 45.1544 16.8583C45.5087 16.8583 45.796 17.1456 45.796 17.4999C45.796 17.8543 45.5087 18.1416 45.1544 18.1416C44.4273 18.1416 43.9 18.1231 43.3885 18.1052ZM43.0103 21.9543C41.186 21.9184 38.9982 21.8752 36.7266 21.9834C36.3726 22.0003 36.0719 21.727 36.0551 21.373C36.0382 21.019 36.3115 20.7184 36.6655 20.7015C38.9814 20.5912 41.2545 20.6359 43.0934 20.6719C43.8669 20.6871 44.5636 20.7008 45.1544 20.7008C45.5087 20.7008 45.796 20.9881 45.796 21.3425C45.796 21.6968 45.5087 21.9841 45.1544 21.9841C44.5231 21.9841 43.8008 21.9699 43.0103 21.9543Z" fill="#042040"/>
<path d="M20.7121 29.7412C18.9038 28.1429 16.3349 26.4393 15.2765 25.7874C12.4583 30.2452 8.33302 32.1725 6.62266 32.5789C8.53189 34.8165 10.9362 35.0968 11.9525 35.4824C14.5601 35.3985 18.914 31.9701 20.7121 29.7412Z" fill="white"/>
<path fill-rule="evenodd" clip-rule="evenodd" d="M15.4359 26.5165C12.9488 30.1981 9.61141 32.1077 7.60321 32.8351C8.88337 34.0264 10.2741 34.4261 11.3159 34.7256C11.58 34.8015 11.8217 34.871 12.0335 34.9453C12.5672 34.9087 13.2187 34.713 13.9465 34.3794C14.7127 34.0282 15.5294 33.5402 16.3307 32.9798C17.7471 31.9894 19.0789 30.7991 19.9647 29.7996C18.4515 28.5237 16.5457 27.2264 15.4359 26.5165ZM15.5557 25.334C16.6245 25.9924 19.223 27.7144 21.0647 29.3422C21.278 29.5308 21.3053 29.8539 21.1265 30.0755C20.1897 31.2367 18.6121 32.684 16.9409 33.8525C16.1031 34.4384 15.2301 34.9625 14.3902 35.3474C13.5573 35.7292 12.7222 35.9904 11.9696 36.0146C11.8994 36.0169 11.8294 36.0052 11.7636 35.9803C11.605 35.9201 11.3898 35.8596 11.1315 35.787C9.95305 35.4556 7.87994 34.8728 6.21761 32.9245C6.09726 32.7835 6.05896 32.5899 6.1165 32.4137C6.17405 32.2374 6.31916 32.1038 6.49956 32.0609C8.09104 31.6827 12.0911 29.8296 14.8264 25.5028C14.9823 25.2563 15.3074 25.1811 15.5557 25.334Z" fill="#042040"/>
<path d="M9.93382 33.1021C11.4004 32.4024 13.8267 30.7112 15.4857 28.3386C16.1528 28.7674 17.1252 29.4326 17.9865 30.1473C17.3442 30.8405 16.3596 31.6998 15.333 32.4224C14.7717 32.8175 14.2085 33.1641 13.6928 33.4177C13.1938 33.6631 12.7744 33.8038 12.4604 33.8389C12.2603 33.7818 12.0318 33.752 11.8311 33.7258L11.8233 33.7248L11.8007 33.7218C11.5754 33.6925 11.3487 33.6629 11.1103 33.6105C10.7268 33.5263 10.3247 33.3851 9.93382 33.1021Z" stroke="#042040" stroke-width="1.06488" stroke-linecap="round" stroke-linejoin="round"/>
<path d="M19.2997 18.2267C19.8783 15.8837 20.1977 12.8179 20.2851 11.5779C15.0289 11.1458 11.4096 8.383 10.257 7.05559C9.15865 9.78425 9.1424 12.6251 9.27158 13.7045C10.5541 15.9764 16.4914 17.666 19.2997 18.2267Z" fill="white"/>
<path fill-rule="evenodd" clip-rule="evenodd" d="M19.7128 12.057C15.2835 11.557 12.0383 9.47235 10.469 8.02917C9.72112 10.3145 9.69229 12.5524 9.7883 13.531C10.0595 13.9568 10.5618 14.3998 11.2662 14.8388C12.009 15.3017 12.9261 15.7296 13.9065 16.1111C15.6423 16.7864 17.531 17.2988 18.9 17.5989C19.3305 15.6652 19.5978 13.371 19.7128 12.057ZM20.8162 11.6153C20.728 12.8675 20.4059 15.9681 19.8166 18.3544C19.7483 18.6308 19.4747 18.8046 19.1954 18.7489C17.7687 18.464 15.5513 17.8937 13.5204 17.1035C12.5051 16.7084 11.5219 16.2529 10.703 15.7425C9.89455 15.2387 9.19362 14.6495 8.80791 13.9662C8.77336 13.905 8.75127 13.8375 8.74291 13.7677C8.60554 12.6199 8.62438 9.68564 9.76308 6.85677C9.83232 6.68476 9.98607 6.56115 10.1689 6.53048C10.3518 6.49981 10.5375 6.56649 10.659 6.7065C11.7315 7.94164 15.227 10.6279 20.3287 11.0472C20.6194 11.0711 20.8368 11.3244 20.8162 11.6153Z" fill="#042040"/>
<path fill-rule="evenodd" clip-rule="evenodd" d="M17.8101 16.5861C17.9591 16.6181 18.104 16.5248 18.1383 16.3763C18.4422 15.0612 18.6036 13.5967 18.6719 12.7507C18.6844 12.5951 18.5679 12.4604 18.4127 12.4434C15.3287 12.1056 12.4943 10.5312 11.3742 9.59011C11.2129 9.45458 10.9527 9.50564 10.8849 9.70513C10.3499 11.2789 10.47 12.6943 10.5542 13.3715C10.559 13.4098 10.5706 13.4454 10.5914 13.4777C11.4996 14.8885 15.7865 16.1514 17.8101 16.5861ZM17.5414 13.3965C15.1718 12.9955 13.0149 11.9823 11.6343 11.0919C11.5077 11.8745 11.5394 12.5579 11.5863 13.0224C11.7188 13.1596 11.9595 13.3499 12.3498 13.575C12.8437 13.8597 13.4707 14.1404 14.1607 14.4025C15.2127 14.8022 16.3496 15.1358 17.2601 15.364C17.3876 14.6721 17.4792 13.9768 17.5414 13.3965Z" fill="#042040"/>
</svg>
