<svg width="60" height="60" viewBox="0 0 60 60" fill="none" xmlns="http://www.w3.org/2000/svg">
<path d="M37.5593 12.4999C27.7208 12.7658 18.1704 13.497 14.625 13.8294C14.7326 15.7923 14.8584 18.3296 14.9797 21.1418H11.966C11.7001 23.0031 12.0768 39.6443 12.2983 47.7322H42.545C44.4285 48.1754 48.1245 44.4084 48.1245 31.1132C47.0173 31.1558 45.9284 31.1876 44.8717 31.2105L45.2041 20.1446L37.2269 20.3108L37.5593 16.8208V12.4999Z" fill="white"/>
<path fill-rule="evenodd" clip-rule="evenodd" d="M38.0388 12.0072C38.1718 12.1366 38.2468 12.3143 38.2468 12.4999V16.8208C38.2468 17.2005 37.939 17.5083 37.5593 17.5083C37.1796 17.5083 36.8718 17.2005 36.8718 16.8208V13.207C27.8595 13.4711 19.2043 14.1103 15.3473 14.4538C15.4466 16.3138 15.5584 18.6039 15.6666 21.1121C15.9857 28.5098 16.2873 37.6263 16.1282 43.3454C17.4646 40.3823 18.5909 35.3428 18.5909 27.1246C18.5909 26.9331 18.6707 26.7503 18.8113 26.6202C18.9518 26.4901 19.1402 26.4245 19.3311 26.4391C21.244 26.5863 24.8825 26.7728 28.2615 26.7223L28.5631 20.444C28.5804 20.0831 28.8742 19.7972 29.2355 19.7897L45.1897 19.4573C45.3781 19.4534 45.5598 19.5269 45.6924 19.6607C45.825 19.7946 45.8969 19.977 45.8912 20.1653L45.5806 30.5061C46.4048 30.4853 47.2461 30.459 48.0981 30.4262C48.2849 30.419 48.4665 30.4882 48.6012 30.6178C48.7359 30.7474 48.812 30.9263 48.812 31.1132C48.812 37.812 47.8828 42.1869 46.6668 44.8593C46.0591 46.195 45.3644 47.1389 44.6459 47.7249C43.9577 48.2861 43.1938 48.5556 42.4738 48.4197H13.0386C12.7243 48.4731 12.4217 48.4675 12.1409 48.4014C11.8372 48.33 11.6197 48.0629 11.6111 47.751C11.5003 43.7055 11.3506 37.5206 11.2619 32.1133C11.2176 29.41 11.1885 26.8985 11.1871 24.9449C11.1857 23.0228 11.2101 21.5712 11.2854 21.0445C11.3338 20.7058 11.6238 20.4543 11.966 20.4543H14.2616C14.1502 17.9309 14.0368 15.6589 13.9386 13.867C13.9184 13.4982 14.1931 13.1794 14.5609 13.1449C18.1185 12.8114 27.6843 12.079 37.5407 11.8126C37.7262 11.8076 37.9059 11.8778 38.0388 12.0072ZM14.321 21.8293H12.6032C12.5748 22.4809 12.5611 23.5513 12.5621 24.9439C12.5634 26.8868 12.5925 29.3901 12.6368 32.0907C12.7205 37.1946 12.8586 42.9941 12.967 47.0281C13.1893 46.9661 13.4633 46.8409 13.7792 46.6112C14.0473 46.4162 14.337 46.151 14.6367 45.8001C14.9996 40.8477 14.6834 30.3815 14.321 21.8293ZM15.8357 46.5081C15.6788 46.7029 15.5209 46.8815 15.3627 47.0447H42.545C42.598 47.0447 42.6509 47.0509 42.7025 47.063C42.8992 47.1093 43.2699 47.0728 43.7769 46.6593C44.2811 46.2481 44.8636 45.5024 45.4153 44.2899C46.478 41.9543 47.3696 38.011 47.4334 31.8264C46.5689 31.8563 45.7178 31.8798 44.8866 31.8978C39.33 32.0182 34.6567 31.8938 32.8698 31.7997C32.5047 31.7805 32.2185 31.4788 32.2185 31.1132V27.8965C31.2135 27.9977 30.0912 28.0561 28.9342 28.0844C25.7149 28.1631 22.1584 28.0096 19.9628 27.8629C19.8935 36.2534 18.642 41.4241 17.1094 44.4837C16.7069 45.2871 16.2816 45.9518 15.8481 46.4927C15.8441 46.4979 15.8399 46.503 15.8357 46.5081ZM44.2041 30.5362L44.4951 20.847L29.9057 21.151L29.6398 26.6872C30.8038 26.6441 31.8909 26.5664 32.8151 26.4432C33.0116 26.417 33.2097 26.4768 33.3588 26.6074C33.508 26.7379 33.5935 26.9264 33.5935 27.1246V30.4567C35.5921 30.5385 39.5453 30.6224 44.2041 30.5362Z" fill="#042040"/>
<path fill-rule="evenodd" clip-rule="evenodd" d="M17.9306 16.3563C18.0608 16.2142 18.2447 16.1334 18.4374 16.1334H39.8863C40.266 16.1334 40.5738 16.4412 40.5738 16.8209V20.2555C40.5738 20.6296 40.2747 20.935 39.9006 20.9428L29.906 21.151L29.6045 27.4301C29.5872 27.7901 29.2948 28.0756 28.9345 28.0844C25.7087 28.1633 22.1443 28.009 19.9498 27.862C19.9011 29.6033 19.7686 32.0704 19.5083 34.5665C19.2112 37.4148 18.7409 40.3724 18.01 42.323C17.8917 42.6388 17.5618 42.8221 17.2311 42.7559C16.9005 42.6896 16.6667 42.3933 16.6792 42.0563C16.7493 40.162 16.9356 37.5444 17.1402 34.6702C17.2598 32.9893 17.3857 31.2205 17.4982 29.4574C17.8054 24.6452 18.0131 19.8779 17.7525 16.8804C17.7358 16.6885 17.8004 16.4983 17.9306 16.3563Z" fill="#FFC746"/>
<path fill-rule="evenodd" clip-rule="evenodd" d="M34.937 34.9999C34.937 34.6202 35.2448 34.3124 35.6245 34.3124H43.7495C43.9318 34.3124 44.1067 34.3848 44.2356 34.5137C44.3646 34.6427 44.437 34.8175 44.437 34.9999L44.437 37.4999C44.437 37.8796 44.1292 38.1874 43.7495 38.1874H35.6245C35.2448 38.1874 34.937 37.8796 34.937 37.4999V34.9999Z" fill="#FFC746"/>
<path fill-rule="evenodd" clip-rule="evenodd" d="M45.8914 20.1303C45.8993 20.5099 45.598 20.824 45.2184 20.8319L29.9057 21.151L29.6398 26.6872C30.8038 26.644 31.8909 26.5663 32.8151 26.4431C33.1915 26.3929 33.5373 26.6574 33.5875 27.0337C33.6377 27.4101 33.3732 27.7559 32.9969 27.8061C31.8105 27.9642 30.4002 28.0485 28.9342 28.0844C25.7149 28.1631 22.1585 28.0095 19.9629 27.8628C19.8935 36.2534 18.642 41.424 17.1094 44.4836C16.5575 45.5854 15.9627 46.4262 15.3627 47.0447H42.545C42.5981 47.0447 42.6509 47.0508 42.7025 47.063C42.8993 47.1093 43.2699 47.0728 43.7769 46.6593C44.2811 46.2481 44.8636 45.5024 45.4153 44.2898C46.478 41.9543 47.3697 38.011 47.4334 31.8264C46.569 31.8563 45.7178 31.8798 44.8866 31.8978C39.3301 32.0182 34.6567 31.8937 32.8699 31.7997C32.4907 31.7797 32.1995 31.4562 32.2195 31.077C32.2394 30.6979 32.563 30.4066 32.9421 30.4266C34.6912 30.5187 39.3303 30.6428 44.8568 30.5231C45.91 30.5003 46.9951 30.4686 48.0981 30.4262C48.2849 30.419 48.4666 30.4882 48.6013 30.6178C48.7359 30.7474 48.812 30.9262 48.812 31.1132C48.812 37.8119 47.8828 42.1869 46.6669 44.8593C46.0591 46.195 45.3645 47.1389 44.6459 47.7249C43.9578 48.2861 43.1938 48.5556 42.4738 48.4197H13.0387C12.7244 48.473 12.4217 48.4675 12.1409 48.4014C11.8012 48.3215 11.5752 47.9996 11.6155 47.6529C11.6557 47.3062 11.9494 47.0447 12.2984 47.0447H12.9022C13.1352 46.99 13.432 46.8637 13.7792 46.6111C14.41 46.1524 15.16 45.3052 15.88 43.8678C17.3221 40.989 18.5909 35.8472 18.5909 27.1246C18.5909 26.9331 18.6708 26.7503 18.8113 26.6202C18.9518 26.49 19.1402 26.4244 19.3311 26.4391C21.244 26.5863 24.8826 26.7728 28.2616 26.7223L28.5631 20.444C28.5804 20.0831 28.8742 19.7972 29.2355 19.7896L45.1898 19.4572C45.5694 19.4493 45.8835 19.7507 45.8914 20.1303Z" fill="#042040"/>
</svg>
