<svg width="96" height="96" viewBox="0 0 96 96" fill="none" xmlns="http://www.w3.org/2000/svg">
<path fill-rule="evenodd" clip-rule="evenodd" d="M68.9072 50.7851C69.213 50.6527 69.5623 50.666 69.8571 50.8214C74.8902 53.4741 81.2461 59.2175 83.7752 61.7269C84.0189 61.9688 84.1357 62.3105 84.091 62.6509C84.0464 62.9913 83.8454 63.2913 83.5475 63.4621C81.9427 64.3822 79.6663 65.2143 77.5332 65.8753C75.7854 66.4168 74.08 66.8595 72.8182 67.1535C72.7825 67.4448 72.7355 67.7666 72.6827 68.1011C72.561 68.8728 72.3937 69.7999 72.2094 70.7628C71.8407 72.6899 71.399 74.7889 71.1044 76.1346C71.0261 76.4924 70.7748 76.7877 70.4342 76.9224C70.0936 77.057 69.7083 77.0133 69.4065 76.8057C66.2302 74.6212 59.5609 68.973 56.6524 66.4494C56.3695 66.204 56.231 65.8315 56.2846 65.4609C56.3383 65.0903 56.5768 64.7725 56.9176 64.6173C62.2956 62.1699 66.5774 57.7012 68.2837 51.5026C68.3721 51.1813 68.6014 50.9174 68.9072 50.7851ZM27.9261 58.1953C28.2843 58.1768 28.629 58.3343 28.8497 58.617C32.276 63.0073 37.5995 66.0597 44.6372 66.6696C44.8134 66.6848 44.9896 66.6982 45.1657 66.7098C45.5338 66.734 45.8652 66.941 46.0484 67.2612C46.2316 67.5814 46.2421 67.972 46.0764 68.3016C43.4693 73.4867 38.5101 80.6132 36.3686 83.516C36.1556 83.8048 35.8152 83.9715 35.4564 83.9627C35.0977 83.9539 34.7658 83.7706 34.5673 83.4718C33.6457 82.0849 32.6317 79.8498 31.7549 77.693C31.0638 75.9928 30.436 74.2861 29.979 72.9725C24.8997 74.4546 21.3043 74.8567 20.0004 74.8567C19.6398 74.8567 19.3022 74.68 19.0966 74.3838C18.8911 74.0875 18.8438 73.7094 18.97 73.3716C19.6457 71.5638 21.1528 68.7241 22.718 65.9686C24.2967 63.1892 25.9803 60.4168 27.0505 58.7095C27.2411 58.4056 27.5678 58.2137 27.9261 58.1953Z" fill="#FFC746"/>
<path fill-rule="evenodd" clip-rule="evenodd" d="M47.9271 20.1019C48.2802 19.719 48.6954 19.3559 49.1689 19.0747C49.7826 18.7102 50.5995 18.4254 51.5215 18.565C52.4364 18.7036 53.1308 19.2092 53.6113 19.734C54.0907 20.2575 54.4385 20.8832 54.6845 21.4827C54.7292 21.5916 54.7717 21.7028 54.8121 21.8158C55.3655 21.4916 56.0126 21.2078 56.701 21.0793C57.3919 20.9504 58.2419 20.9595 59.0501 21.3852C60.4774 22.137 60.8851 23.6873 60.9887 24.7185C62.0098 24.5279 63.5849 24.4848 64.7132 25.5893C65.8646 26.7164 65.8153 28.3267 65.6261 29.3445C66.6657 29.447 68.1958 29.8511 68.9664 31.242C69.6314 32.4422 69.3614 33.7314 69.0139 34.5972C69.069 34.6202 69.1237 34.644 69.1779 34.6684C70.0707 35.0714 71.2653 35.8735 71.5871 37.3129C71.788 38.2118 71.5653 39.0374 71.2493 39.6698C71.0214 40.1257 70.7194 40.537 70.3925 40.8967C70.4064 40.906 70.4203 40.9153 70.4341 40.9246C70.9672 41.285 71.5071 41.7489 71.9209 42.3184C72.3345 42.8878 72.6943 43.6685 72.6387 44.5927C72.5412 46.2138 71.2726 47.2474 70.3691 47.7781C70.974 48.6323 71.6486 50.0272 71.1279 51.5039C70.5219 53.2222 68.7502 53.8237 67.6442 54.0251C67.6279 54.0281 67.6116 54.031 67.5952 54.0339C67.786 54.5394 67.929 55.0971 67.9627 55.6703C68.0042 56.3772 67.8825 57.2256 67.3397 57.9739C66.5098 59.1179 65.1744 59.4099 64.2091 59.4503C64.2124 59.4954 64.2153 59.5405 64.2178 59.5856C64.2734 60.6109 64.1068 62.162 62.8663 63.1364C61.6181 64.1168 60.0623 63.8972 59.083 63.595C59.0769 63.5931 59.0707 63.5911 59.0645 63.5892C58.8201 64.556 58.2282 65.9172 56.826 66.4836C55.9654 66.8313 55.1082 66.7408 54.4339 66.5308C53.9636 66.3843 53.5227 66.1632 53.1249 65.9101C53.0733 66.038 53.0189 66.1635 52.9619 66.2858C52.6902 66.8689 52.316 67.4754 51.8152 67.9741C51.3132 68.4739 50.5958 68.9477 49.673 69.0392C48.7512 69.1305 47.9549 68.808 47.3635 68.4162C46.8349 68.066 46.3893 67.6106 46.0282 67.1459C45.6289 67.5762 45.1472 67.9893 44.5924 68.2915C43.9693 68.6309 43.1503 68.8828 42.2423 68.7162C40.6001 68.4149 39.7286 66.9851 39.3205 66.0058C38.4058 66.4839 36.97 66.9521 35.5983 66.2655C34.0566 65.4938 33.6337 63.7929 33.5327 62.6914C32.4986 62.9013 30.9977 62.9428 29.8765 61.9047C28.8329 60.9385 28.7102 59.5719 28.79 58.6155C28.739 58.6123 28.6882 58.6085 28.6376 58.6042C27.6304 58.5178 26.1633 58.1477 25.3669 56.8388C24.8823 56.0422 24.8327 55.1795 24.9365 54.4728C25.0326 53.8188 25.2713 53.1977 25.5544 52.6567C25.0262 52.481 24.4863 52.2317 24.0073 51.8827C23.431 51.4627 22.8538 50.8287 22.6181 49.9367C22.2405 48.5074 22.9339 47.242 23.5421 46.471C23.5481 46.4634 23.554 46.4559 23.56 46.4484C23.5353 46.4297 23.5107 46.411 23.4863 46.392C22.6976 45.7805 21.6929 44.6949 21.7274 43.1893C21.7487 42.2617 22.1685 41.5093 22.6337 40.9688C23.0399 40.4969 23.537 40.1165 24.0355 39.8177C23.6684 39.3769 23.3297 38.862 23.1034 38.2918C22.8407 37.6294 22.6901 36.7822 22.9722 35.8988C23.4606 34.3691 24.9026 33.6691 25.9243 33.364C25.5175 32.3753 25.1459 30.7923 26.05 29.4397C26.942 28.1051 28.5232 27.8359 29.5608 27.8223L29.5659 27.8222C29.4764 26.7864 29.5957 25.2274 30.7972 24.2075C32.0242 23.1659 33.6061 23.3395 34.6508 23.6371C34.825 22.5398 35.3536 20.9363 36.8909 20.2597C37.7457 19.8835 38.6102 19.9459 39.2985 20.1379C39.8936 20.3039 40.4451 20.5883 40.9244 20.9075C41.1711 20.3573 41.5052 19.7938 41.949 19.3176C42.4338 18.7973 43.1351 18.2946 44.0564 18.1673C44.9764 18.0401 45.7874 18.3316 46.3973 18.703C47.005 19.0731 47.5136 19.5794 47.9165 20.0885C47.9201 20.0929 47.9236 20.0974 47.9271 20.1019Z" fill="white"/>
<path fill-rule="evenodd" clip-rule="evenodd" d="M43.9062 17.0776C45.1513 16.9055 46.2175 17.3054 46.9698 17.7635C47.3488 17.9944 47.69 18.2636 47.9938 18.548C48.1861 18.3989 48.3907 18.2577 48.6076 18.1289C49.364 17.6797 50.4381 17.2884 51.6866 17.4774C52.9237 17.6648 53.8309 18.3445 54.423 18.9911C54.8062 19.4095 55.1129 19.871 55.3573 20.3292C55.716 20.1888 56.0989 20.0728 56.4996 19.998C57.3487 19.8396 58.4697 19.836 59.5631 20.412C60.971 21.1536 61.6038 22.438 61.8881 23.517C62.9907 23.4844 64.3751 23.7186 65.483 24.8032C66.6177 25.9139 66.8589 27.3278 66.8272 28.4428C67.9017 28.7223 69.1714 29.3415 69.929 30.7089C70.5797 31.8834 70.5531 33.0864 70.3388 34.0364C71.2612 34.5917 72.3184 35.5405 72.661 37.0729C72.9336 38.2927 72.6235 39.3814 72.2336 40.1615C72.1403 40.3484 72.0378 40.5274 71.9287 40.6983C72.243 40.9823 72.5455 41.3061 72.8112 41.6719C73.3205 42.3729 73.8128 43.4011 73.7371 44.6588C73.6408 46.2599 72.7125 47.382 71.8371 48.0956C72.3237 49.0818 72.6762 50.422 72.1657 51.8697C71.5628 53.5793 70.1377 54.4112 68.9606 54.8161C69.0102 55.0717 69.0453 55.3357 69.0612 55.6058C69.1125 56.4789 68.967 57.6046 68.2305 58.6198C67.4232 59.7326 66.2887 60.2185 65.3091 60.421C65.2275 61.5451 64.8395 62.9856 63.5462 64.0014C62.304 64.9771 60.8808 65.0459 59.7866 64.8817C59.3697 65.8521 58.6121 66.9486 57.2385 67.5036C56.0699 67.9757 54.9371 67.8395 54.1072 67.581C53.9398 67.5289 53.7767 67.4696 53.6184 67.4045C53.3483 67.8686 53.0107 68.3364 52.5917 68.7536C51.9725 69.3701 51.0325 70.0099 49.7819 70.1338C48.533 70.2576 47.486 69.8166 46.7564 69.3333C46.467 69.1415 46.2019 68.9273 45.9605 68.7019C45.7021 68.9039 45.4215 69.0927 45.119 69.2575C44.3505 69.6761 43.2732 70.0236 42.0442 69.7981C40.4189 69.4999 39.4064 68.4009 38.8072 67.4174C37.785 67.758 36.4455 67.9195 35.1063 67.2491C33.5725 66.4814 32.9096 65.069 32.6234 63.9064C31.5419 63.9468 30.2214 63.7228 29.1296 62.7118C28.1113 61.769 27.7684 60.5739 27.69 59.5745C26.6081 59.346 25.2622 58.7822 24.4276 57.4105C23.77 56.3297 23.7204 55.186 23.8486 54.313C23.9037 53.9378 23.9956 53.5773 24.1106 53.2371C23.8554 53.1029 23.6029 52.9488 23.3599 52.7717C22.6489 52.2535 21.8742 51.426 21.555 50.2176C21.18 48.7982 21.5933 47.5436 22.1087 46.6352C21.3554 45.8648 20.5929 44.7019 20.6281 43.1641C20.657 41.9058 21.2266 40.9179 21.8004 40.2512C22.0208 39.9952 22.2594 39.7646 22.506 39.5575C22.3468 39.2888 22.2021 39.0016 22.0814 38.6974C21.7571 37.8801 21.5423 36.7619 21.9247 35.5642C22.4049 34.0604 23.5447 33.1994 24.56 32.7133C24.2959 31.6085 24.2456 30.1603 25.1359 28.8284C26.0165 27.5108 27.3586 27.0025 28.4596 26.8183C28.536 25.7186 28.9066 24.3699 30.0857 23.3689C31.2903 22.3464 32.7053 22.2201 33.8288 22.3523C34.1895 21.2323 34.9283 19.9219 36.4481 19.2529C37.6058 18.7434 38.7468 18.8419 39.5945 19.0783C39.9083 19.1658 40.2078 19.2786 40.4908 19.4076C40.6798 19.1181 40.8966 18.834 41.1447 18.5677C41.7416 17.9271 42.6587 17.2501 43.9062 17.0776ZM29.5749 28.9222C28.6323 28.9347 27.5424 29.1869 26.9649 30.0509C26.3791 30.9274 26.5715 32.0453 26.9419 32.9455C27.0602 33.233 27.0513 33.5571 26.9175 33.8377C26.7836 34.1183 26.5373 34.3291 26.2394 34.418C25.3121 34.695 24.3368 35.2426 24.0204 36.2334C23.8388 36.8024 23.925 37.3787 24.1263 37.8861C24.2989 38.3212 24.5674 38.737 24.8812 39.1138C25.0868 39.3606 25.1741 39.6851 25.1204 40.0018C25.0666 40.3185 24.8771 40.5959 24.6015 40.7611C24.1748 41.0169 23.7779 41.3261 23.4679 41.6864C23.1112 42.1007 22.8412 42.6177 22.8276 43.2145C22.8052 44.188 23.4605 44.9799 24.1607 45.5227C24.181 45.5384 24.2014 45.554 24.222 45.5696C24.4592 45.7481 24.6142 46.015 24.6517 46.3095C24.6891 46.6041 24.606 46.9013 24.421 47.1335L24.4062 47.1522C23.8702 47.8317 23.4383 48.7332 23.682 49.6557C23.8341 50.2313 24.214 50.6719 24.6556 50.9937C25.0209 51.2599 25.4521 51.4633 25.902 51.6129C26.2081 51.7147 26.454 51.9458 26.5748 52.2449C26.6956 52.5439 26.679 52.881 26.5294 53.1668C26.2859 53.6321 26.0985 54.1338 26.0253 54.6326C25.9459 55.173 25.9954 55.7547 26.3071 56.267C26.8237 57.1162 27.8316 57.431 28.732 57.5082C28.7743 57.5118 28.8168 57.515 28.8594 57.5176C29.1545 57.5362 29.4296 57.6727 29.6229 57.8965C29.8161 58.1202 29.9112 58.4123 29.8866 58.7069C29.8173 59.5371 29.9513 60.4744 30.6242 61.0975C31.3491 61.7686 32.3914 61.8007 33.3143 61.6133C33.6206 61.5512 33.9389 61.6222 34.1897 61.8088C34.4404 61.9953 34.6 62.2797 34.6285 62.591C34.7224 63.6145 35.0924 64.782 36.0911 65.2818C36.9785 65.7261 37.9939 65.4582 38.8114 65.0309C39.0846 64.8881 39.4053 64.8665 39.6952 64.9714C39.9852 65.0763 40.2178 65.2981 40.3363 65.5827C40.7106 66.4811 41.377 67.439 42.4412 67.6342C43.0282 67.7419 43.589 67.5856 44.0666 67.3255C44.4904 67.0947 44.8805 66.766 45.2222 66.3977C45.4417 66.1611 45.7541 66.0328 46.0766 66.0469C46.3991 66.061 46.6991 66.216 46.8972 66.4709C47.2065 66.8689 47.5678 67.2318 47.9714 67.4992C48.4246 67.7994 48.9702 68.0035 49.5649 67.9445C50.16 67.8856 50.6546 67.5778 51.0395 67.1946C51.4228 66.8129 51.7302 66.3257 51.9653 65.8211C52.0138 65.717 52.0605 65.6094 52.1049 65.4991C52.2271 65.1958 52.4778 64.9626 52.789 64.8627C53.1003 64.7628 53.4399 64.8065 53.7157 64.982C54.0502 65.1948 54.4029 65.3689 54.7614 65.4806C55.2802 65.6421 55.8617 65.687 56.4144 65.4637C57.3186 65.0985 57.7809 64.1802 57.9985 63.3196C58.0725 63.0266 58.2639 62.7771 58.5275 62.6294C58.7911 62.4818 59.1039 62.4491 59.3924 62.5391L59.4077 62.5438C60.2894 62.816 61.3788 62.9063 62.1872 62.2714C62.9923 61.6389 63.1698 60.5659 63.1198 59.6451C63.1178 59.6077 63.1153 59.5699 63.1125 59.5319C63.0904 59.2348 63.1897 58.9414 63.3878 58.7189C63.5859 58.4963 63.8658 58.3637 64.1635 58.3512C65.003 58.3161 65.9143 58.066 66.4497 57.328C66.7989 56.8466 66.8968 56.2755 66.865 55.7348C66.8394 55.2986 66.7286 54.8517 66.5665 54.4224C66.4507 54.1158 66.4777 53.7736 66.6401 53.4889C66.8024 53.2043 67.0832 53.0068 67.406 52.9503L67.4475 52.9429C68.4884 52.7534 69.6976 52.2535 70.0909 51.1381C70.4288 50.1797 70.0148 49.1806 69.4718 48.4137C69.2938 48.1624 69.2294 47.8479 69.2941 47.5468C69.3588 47.2457 69.5468 46.9856 69.8124 46.8296C70.6404 46.3432 71.4782 45.5712 71.5411 44.5267C71.5766 43.9359 71.3494 43.4027 71.0313 42.965C70.7142 42.5285 70.2808 42.1484 69.8185 41.8359L69.7829 41.8121C69.5163 41.6344 69.3404 41.3493 69.3012 41.0313C69.262 40.7133 69.3633 40.394 69.5788 40.1569C69.8539 39.8542 70.0923 39.525 70.2657 39.1781C70.5079 38.6934 70.6432 38.1309 70.514 37.5529C70.3065 36.6249 69.5115 36.0256 68.7258 35.6711M68.7258 35.6711C68.6812 35.6509 68.6358 35.6312 68.5899 35.612C68.0352 35.38 67.7695 34.7455 67.9935 34.1875C68.2918 33.4442 68.4328 32.548 68.0047 31.7751C67.5063 30.8757 66.4594 30.5319 65.5186 30.4392C65.212 30.409 64.9321 30.2516 64.7471 30.0053C64.562 29.759 64.4887 29.4464 64.545 29.1435C64.7177 28.2146 64.684 27.0996 63.9441 26.3753C63.2149 25.6615 62.1172 25.6269 61.191 25.7998C60.8884 25.8563 60.5759 25.7833 60.3295 25.5987C60.0832 25.4141 59.9255 25.1348 59.8947 24.8284C59.8006 23.8924 59.4544 22.8413 58.5378 22.3584C58.015 22.083 57.4359 22.0613 56.9031 22.1607C56.3739 22.2594 55.8472 22.4845 55.3686 22.7649C55.086 22.9305 54.7442 22.9615 54.4364 22.8495C54.1285 22.7375 53.8866 22.4941 53.7765 22.1856C53.7418 22.0882 53.7053 21.993 53.6672 21.9003C53.4545 21.3818 53.1681 20.8783 52.8005 20.4768C52.4315 20.0739 51.95 19.7424 51.3572 19.6526C50.7617 19.5624 50.2021 19.7407 49.731 20.0205C49.3698 20.235 49.0354 20.5232 48.7362 20.8476C48.5178 21.0844 48.2066 21.2136 47.8848 21.201C47.5629 21.1885 47.2628 21.0356 47.0634 20.7826L47.0545 20.7712C46.7059 20.3309 46.2907 19.9258 45.8255 19.6425C45.3582 19.3579 44.8022 19.1747 44.2075 19.2569C43.6123 19.3392 43.1268 19.6676 42.7542 20.0675C42.4143 20.4322 42.1407 20.8843 41.9286 21.3575C41.7962 21.6527 41.5406 21.8747 41.2297 21.9644C40.9189 22.0541 40.5843 22.0024 40.315 21.823C39.9045 21.5496 39.4587 21.3244 39.0034 21.1974C38.4743 21.0499 37.8864 21.0235 37.3344 21.2665C36.3359 21.706 35.8976 22.8022 35.7376 23.8096C35.6883 24.1204 35.5082 24.3952 35.2429 24.5645C34.9776 24.7338 34.6525 24.7813 34.3498 24.695C33.4053 24.4259 32.3025 24.3729 31.5095 25.0461C30.7268 25.7105 30.5818 26.7963 30.6623 27.7275C30.6886 28.0322 30.5869 28.3341 30.3816 28.5607C30.1763 28.7874 29.8859 28.9183 29.5801 28.9221L29.5749 28.9222" fill="#042040"/>
<path fill-rule="evenodd" clip-rule="evenodd" d="M32.8942 31.138C35.647 27.7806 40.0943 25.6671 46.7531 25.6671C49.8454 25.6671 53.8418 26.4692 57.2541 28.8408C60.7058 31.2397 63.4807 35.1934 64.1346 41.3075C64.7929 47.4626 62.5894 52.3211 58.8989 55.512C55.2373 58.6779 50.1775 60.1499 45.1581 59.7277C35.0565 58.8781 29.2558 51.5841 29.2559 43.0252C29.2559 38.8091 30.1748 34.4547 32.8942 31.138ZM34.5955 32.5329C32.3227 35.3048 31.4559 39.0795 31.4559 43.0252C31.4558 50.4728 36.4123 56.7844 45.3424 57.5354C49.8389 57.9136 54.2949 56.5844 57.46 53.8478C60.596 51.1364 62.5299 46.9912 61.9471 41.5415C61.3598 36.0509 58.9172 32.6758 55.9985 30.6473C53.0404 28.5913 49.5135 27.8671 46.7531 27.8671C40.5862 27.8671 36.8349 29.8017 34.5955 32.5329Z" fill="#042040"/>
<path fill-rule="evenodd" clip-rule="evenodd" d="M45.0287 31.9508C45.413 31.6419 45.9559 31.6265 46.3571 31.9131C47.2208 32.5301 48.9178 34.2095 50.0184 36.706C51.4233 36.4321 53.6127 36.1709 55.5499 36.4675C55.8732 36.517 56.1578 36.7078 56.3263 36.9882C56.4948 37.2686 56.5298 37.6094 56.4217 37.9182C56.0384 39.0132 54.9556 41.5072 53.438 43.3719C53.7523 44.148 54.1322 45.1427 54.4627 46.1256C54.6778 46.7654 54.8764 47.4132 55.0224 48C55.1633 48.5661 55.2752 49.1518 55.2752 49.637C55.2752 50.2445 54.7827 50.737 54.1752 50.737C53.0764 50.737 50.535 50.4321 48.0107 49.2765C47.0352 50.3405 45.3363 51.8856 43.3575 52.7942C43.0629 52.9295 42.7235 52.9279 42.4301 52.7898C42.1367 52.6517 41.9192 52.3913 41.8357 52.078C41.5696 51.0801 41.2166 48.7419 41.6376 46.3677C40.2152 45.6001 38.0424 44.0425 36.359 41.6377C36.185 41.3891 36.1214 41.0796 36.1833 40.7826C36.2451 40.4855 36.427 40.2272 36.6858 40.0687C37.6145 39.5001 39.8762 38.447 42.3722 38.2233C42.5344 37.4015 42.7721 36.4052 43.0797 35.4488C43.2951 34.7793 43.5526 34.1044 43.8547 33.5132C44.1467 32.9416 44.5274 32.3535 45.0287 31.9508Z" fill="#FFC746"/>
</svg>
