<svg width="24" height="24" viewBox="0 0 24 24" fill="none" xmlns="http://www.w3.org/2000/svg">
<path fill-rule="evenodd" clip-rule="evenodd" d="M22.62 12.2514C22.62 11.4672 22.5497 10.7125 22.4189 9.98877H12V14.268H17.9536C17.6972 15.6508 16.9177 16.8222 15.7463 17.6069V20.3824H19.3214C21.4134 18.4563 22.62 15.6203 22.62 12.2514Z" fill="#4285F4"/>
<path fill-rule="evenodd" clip-rule="evenodd" d="M12 23.0627C14.9868 23.0627 17.4909 22.0722 19.3214 20.3824L15.7462 17.6069C14.7557 18.2706 13.4882 18.663 12 18.663C9.11854 18.663 6.68011 16.7172 5.81011 14.1021H2.11401V16.9685C3.93417 20.5839 7.67526 23.0627 12 23.0627Z" fill="#34A853"/>
<path fill-rule="evenodd" clip-rule="evenodd" d="M5.81016 14.1019C5.58891 13.4381 5.46328 12.7289 5.46328 12C5.46328 11.2711 5.58891 10.5619 5.81016 9.89814V7.03174H2.11406C1.365 8.52518 0.9375 10.215 0.9375 12C0.9375 13.785 1.365 15.4749 2.11406 16.9683L5.81016 14.1019Z" fill="#FBBC05"/>
<path fill-rule="evenodd" clip-rule="evenodd" d="M12 5.33719C13.6242 5.33719 15.0824 5.89547 16.229 6.99141L19.402 3.81844C17.4857 2.03391 14.9817 0.9375 12 0.9375C7.67573 0.9375 3.93417 3.41672 2.11401 7.03172L5.81011 9.89812C6.68011 7.28344 9.11901 5.33719 12 5.33719Z" fill="#EA4335"/>
</svg>
