<svg xmlns="http://www.w3.org/2000/svg" width="34" height="46" viewBox="0 0 34 46" fill="none">
    <path fill-rule="evenodd" clip-rule="evenodd" d="M16.4168 22.3166C17.6995 22.2316 19.3758 22.2242 20.7578 22.5903C21.1035 22.6819 21.3323 23.01 21.2987 23.3661C20.9865 26.6743 20.898 31.9966 20.8888 36.5171C20.8842 38.7719 20.8993 40.8183 20.9155 42.301C20.9237 43.0423 20.9321 43.6425 20.9384 44.0572C20.9416 44.2646 20.9443 44.4256 20.9462 44.5346L20.9491 44.6998C20.9529 44.8961 20.8775 45.0863 20.7399 45.2265C20.6024 45.3667 20.4142 45.4457 20.2179 45.4457H13.9018C13.5245 45.4457 13.2091 45.1586 13.1737 44.783C12.9162 42.0543 12.9538 37.1582 13.0786 32.7303C13.2036 28.2986 13.4185 24.2566 13.5271 23.2211C13.5611 22.8966 13.806 22.6338 14.1273 22.5771L14.1317 22.5763L14.1415 22.5746L14.1772 22.5686C14.2079 22.5635 14.2523 22.5562 14.3092 22.5473C14.4228 22.5295 14.5864 22.5051 14.7901 22.4782C15.1968 22.4243 15.7658 22.3597 16.4168 22.3166Z" fill="#4A94E8"/>
    <path fill-rule="evenodd" clip-rule="evenodd" d="M28.8286 16.6005C30.1599 16.5186 31.8923 16.5122 33.3168 16.8626C33.6563 16.9461 33.8892 17.2582 33.8727 17.6074C33.5837 23.7249 33.5835 30.4933 33.6559 35.7378C33.6921 38.3588 33.7464 40.5968 33.7916 42.1791C33.8142 42.9703 33.8346 43.5975 33.8492 44.0266C33.8566 44.2412 33.8625 44.4062 33.8666 44.5175L33.8729 44.6852C33.8831 44.9459 33.7536 45.1928 33.5331 45.3323C33.3127 45.4718 33.0346 45.4833 32.8033 45.3625C32.6384 45.2764 32.3138 45.2009 31.7992 45.1719C31.3061 45.1441 30.7222 45.1621 30.0979 45.2019C29.6585 45.2299 29.1865 45.2704 28.7206 45.3103C27.9231 45.3788 27.1434 45.4457 26.575 45.4457C26.1997 45.4457 25.8853 45.1616 25.8473 44.7882C25.5798 42.1555 25.5263 35.8104 25.5645 29.9271C25.6027 24.0524 25.7332 18.509 25.8482 17.4908C25.885 17.1654 26.1335 16.9041 26.4566 16.8511L26.461 16.8504L26.4711 16.8488L26.5078 16.843C26.5395 16.8381 26.5854 16.8311 26.6442 16.8226C26.7619 16.8055 26.9314 16.782 27.1424 16.7561C27.5641 16.7042 28.1538 16.642 28.8286 16.6005Z" fill="#4A94E8"/>
    <path fill-rule="evenodd" clip-rule="evenodd" d="M31.2854 0.693227C31.4753 0.830788 31.5878 1.0511 31.5878 1.28563V4.33326C31.5878 4.73722 31.2603 5.06469 30.8563 5.06469C30.4524 5.06469 30.1249 4.73722 30.1249 4.33326V3.42993C28.954 4.89413 27.1967 7.03256 25.3313 9.27939C22.3977 12.8128 19.1497 16.6699 17.3614 18.743C17.1889 18.9429 16.9877 19.1349 16.7543 19.2554C16.5009 19.3861 16.1441 19.4592 15.79 19.2731C15.4835 19.112 15.3313 18.8311 15.2531 18.6371C15.1687 18.4275 15.119 18.1898 15.0875 17.9554C14.9639 17.0381 15.0485 15.5849 15.1949 14.0772C15.3355 12.6302 15.5421 11.0537 15.7194 9.70083C15.7299 9.62074 15.7403 9.54144 15.7506 9.46299C15.8775 8.4934 15.9811 7.68532 16.0352 7.13C15.9234 7.24195 15.8013 7.37155 15.6692 7.51884C14.6778 8.62443 13.3017 10.5256 11.8094 12.7177C10.3238 14.8998 8.74648 17.3348 7.35583 19.4885C7.2503 19.652 7.14579 19.8139 7.04243 19.974C5.78936 21.9151 4.70576 23.5938 4.02674 24.5626C3.79488 24.8934 3.33877 24.9736 3.00797 24.7417C2.67718 24.5099 2.59697 24.0538 2.82882 23.723C3.49083 22.7785 4.55952 21.123 5.82308 19.1656C5.92317 19.0106 6.02448 18.8536 6.1269 18.695C7.51675 16.5426 9.10318 14.0933 10.6002 11.8944C12.0904 9.70549 13.5157 7.72916 14.5801 6.54222C14.8481 6.24331 15.1041 5.98213 15.3414 5.77589C15.5663 5.58033 15.8243 5.38939 16.0954 5.28803C16.2358 5.23552 16.4241 5.19006 16.6355 5.21612C16.8663 5.24456 17.0767 5.353 17.2345 5.52957C17.5048 5.83193 17.539 6.23816 17.539 6.51012C17.539 7.06144 17.381 8.27844 17.2011 9.65292C17.191 9.72942 17.1809 9.80663 17.1707 9.88448C16.9927 11.2429 16.789 12.797 16.6509 14.2186C16.5195 15.5719 16.4551 16.7378 16.5099 17.4899C18.3326 15.3691 21.4102 11.7121 24.2058 8.34494C26.0072 6.17526 27.6741 4.14637 28.8148 2.72585L27.8941 3.02818C27.5103 3.15421 27.097 2.94524 26.971 2.56145C26.845 2.17765 27.0539 1.76436 27.4377 1.63834L30.6282 0.59071C30.851 0.517541 31.0954 0.555666 31.2854 0.693227Z" fill="#042040"/>
    <path fill-rule="evenodd" clip-rule="evenodd" d="M4.65021 31.7404C5.84186 31.7066 7.16206 31.751 8.1769 32.0048C8.52467 32.0917 8.75817 32.4179 8.72841 32.7751C8.53915 35.0461 8.2772 40.5902 8.72646 44.6335C8.74943 44.8403 8.68326 45.0471 8.54451 45.2021C8.40576 45.3571 8.20755 45.4457 7.9995 45.4457H1.71379C1.37097 45.4457 1.07415 45.2076 0.999778 44.873C0.599548 43.072 0.0617924 38.1772 0.992312 32.5941C1.04472 32.2796 1.29476 32.0353 1.61035 31.9903C2.30208 31.8914 3.44406 31.7745 4.65021 31.7404Z" fill="#4A94E8"/>
</svg>