<svg width="163" height="163" viewBox="0 0 163 163" fill="none" xmlns="http://www.w3.org/2000/svg">
<path d="M78.4781 63.7538C78.4781 63.7538 79.0262 75.3085 79.7265 78.5054C81.1535 79.0697 82.6186 79.5327 84.1108 79.8908C88.5409 77.3332 98.4361 76.2219 107.859 76.0849C112.51 73.207 116.329 69.1638 118.936 64.356C121.543 59.5482 122.849 54.1426 122.725 48.6747C122.6 43.2068 121.049 37.8664 118.225 33.1826C115.401 28.4987 111.402 24.634 106.624 21.9713C101.847 19.3086 96.4569 17.9403 90.9879 18.002C85.519 18.0637 80.1611 19.5532 75.445 22.323C70.7289 25.0928 66.8183 29.0467 64.1007 33.793C61.383 38.5394 59.9526 43.9134 59.9512 49.3827C59.9512 56.9945 62.4478 61.1049 65.0815 63.5102L78.4781 63.7538Z" fill="#B4D5FA"/>
<path d="M81.5234 104.507C97.1427 119.564 114.421 113.368 117.542 100.199C120.663 87.0308 100.279 90.7606 104.876 103.076C109.474 115.392 126.448 116.275 130.756 106.882" stroke="#002B5C" stroke-width="4.37872" stroke-linecap="round" stroke-linejoin="round"/>
<path d="M91.7542 128.317C57.5775 120.127 51.8839 82.2655 100.584 76.0239C155.51 68.9754 176.701 135.183 106.46 131.514C102.182 143.282 85.1472 145.108 85.1472 145.108C85.1472 145.108 93.2308 134.315 91.7542 128.317Z" stroke="#002B5C" stroke-width="4.37872" stroke-linecap="round" stroke-linejoin="round"/>
<path d="M112.412 44.2676L81.5234 50.7071C81.5234 50.7071 87.2931 63.3731 100.857 61.1201C114.421 58.867 112.412 44.2676 112.412 44.2676Z" stroke="#002B5C" stroke-width="4.37872" stroke-linecap="round" stroke-linejoin="round"/>
<path d="M78.4787 80.7586C78.4787 80.7586 78.4787 66.5093 78.4787 63.7539C78.4787 60.9984 18.0262 65.3067 11.8607 67.2096C8.81603 68.1383 14.7989 108.557 15.1642 110.764C15.5296 112.972 32.8082 111.723 35.381 111.967C37.9538 112.21 47.5598 125.668 48.7929 127.297C50.026 128.926 50.8176 115.118 51.0003 113.139C51.183 111.16 67.7461 111.86 67.7461 111.86" stroke="#002B5C" stroke-width="4.37872" stroke-linecap="round" stroke-linejoin="round"/>
<path d="M24.9097 96.0275C30.7859 70.0104 58.4927 81.8543 52.3119 92.2672C44.7002 105.207 25.8078 67.7725 63.7904 77.0437" stroke="#002B5C" stroke-width="4.37872" stroke-linecap="round" stroke-linejoin="round"/>
<path d="M83.5651 35.3315C82.7279 36.4885 81.4339 40.675 86.7316 40.5989C92.0294 40.5228 86.8991 30.7492 83.5651 35.3315Z" fill="#002B5C"/>
<path d="M100.735 31.1452C95.5435 32.1804 98.7709 38.2089 103.049 37.3564C105.134 36.9453 105.88 30.11 100.735 31.1452Z" fill="#002B5C"/>
</svg>
