<svg width="163" height="164" viewBox="0 0 163 164" fill="none" xmlns="http://www.w3.org/2000/svg">
<path d="M42.2053 86.457L33.4731 119.93C37.0448 127.026 40.0877 129.669 46.5714 133.029L66.9464 121.386C52.947 110.289 49.6309 102.981 42.2053 86.457Z" fill="#F5C13F" stroke="#F5C13F" stroke-width="3.78393" stroke-linecap="round" stroke-linejoin="round"/>
<path d="M104.785 98.0997C97.5082 105.376 32.0172 143.216 29.1064 140.305C32.0172 122.841 46.5707 63.171 49.4814 57.3496" stroke="#002B5C" stroke-width="3.78393" stroke-linecap="round" stroke-linejoin="round"/>
<path d="M107.697 95.1879C103.16 102.401 88.4746 96.8216 72.1451 86.5516C55.8157 76.2815 44.9459 64.5618 49.4824 57.3486C54.019 50.1354 69.5368 52.9 85.8663 63.17C102.196 73.44 112.234 87.9747 107.697 95.1879Z" stroke="#002B5C" stroke-width="3.78393" stroke-linecap="round" stroke-linejoin="round"/>
<path d="M42.2053 85.002C49.2602 102.243 53.8073 111.343 68.4017 121.386M33.4731 119.931C36.3839 127.207 39.163 129.424 46.5714 133.029M97.5089 87.9128C98.6731 87.9128 107.696 83.0616 112.062 80.636M90.2321 82.0913L122.25 58.8056M97.5089 54.4395C97.5089 53.2752 111.092 35.5198 117.884 26.7877M69.8571 23.877C77.1339 26.7877 75.6785 47.1627 65.491 47.1627C55.3035 47.1627 58.2142 38.4305 65.491 38.4305C72.7678 38.4305 77.1339 57.3502 68.4017 64.627M85.866 45.7073C84.4106 44.252 81.4999 45.7073 81.4999 48.6181C81.4999 51.5288 82.9553 52.9841 84.4106 52.9841C85.866 52.9841 87.3214 51.5288 87.3214 50.0734C87.3214 48.9091 87.3214 47.1627 85.866 45.7073ZM129.527 47.1627C132.166 45.2586 132.437 42.7966 130.982 41.3413C129.527 39.8859 127.764 40.0396 125.161 41.3413C122.25 42.7966 123.502 51.5094 129.527 47.1627Z" stroke="#002B5C" stroke-width="3.78393" stroke-linecap="round" stroke-linejoin="round"/>
</svg>
