<svg width="166" height="166" viewBox="0 0 166 166" fill="none" xmlns="http://www.w3.org/2000/svg">
<path d="M112.429 62.7093C109.603 54.4983 101.368 49.8533 94.7607 47.9093C88.6099 46.0825 78.409 45.9564 72.121 50.7378C65.8331 55.5192 59.9358 65.8194 60.9484 76.8188C61.1378 82.5488 63.1903 87.5429 64.4625 91.1534C66.491 97.6991 68.7436 103.908 68.5592 105.922C73.8528 110.391 84.754 117.436 96.4913 108.011C97.0543 106.116 102.07 100.869 106.959 94.3609C109.374 90.8605 112.579 84.683 113.304 80.3138C114.788 73.5884 113.762 66.5815 112.429 62.7093Z" fill="white" stroke="#042040" stroke-width="3.27657"/>
<path d="M96.1522 109.152C85.8394 117.433 72.0692 109.51 67.418 105.584C65.0064 102.686 65.8484 115.049 67.7911 116.867C74.2121 120.956 86.5257 123.709 94.9213 117.476C95.8198 117.167 100.35 106.036 96.1522 109.152Z" stroke="#042040" stroke-width="3.27657"/>
<path d="M70.6597 123.926C70.096 122.886 70.5354 120.165 69.1406 117.776C75.2934 121.031 84.5695 123.218 92.0685 119.557C92.2557 119.613 90.3908 125.502 89.9288 125.925C85.4333 130.043 71.9218 126.255 70.6597 123.926Z" stroke="#042040" stroke-width="3.27657"/>
<path d="M73.2753 125.974C77.084 127.454 83.1674 128.598 87.1983 127.927C84.9866 135.374 73.9184 133.715 73.2753 125.974Z" stroke="#042040" stroke-width="3.27657"/>
<path d="M76.8836 107.152C79.3082 104.562 83.99 96.6007 83.3211 85.4775C82.4849 71.5736 72.8053 74.9059 76.1375 84.5854C79.4698 94.265 86.4389 100.059 94.0513 91.1472C101.664 82.2354 95.3724 74.1598 90.0415 83.7492C85.7767 91.4208 87.7755 102.525 89.3079 107.118" stroke="#FFC746" stroke-width="3.0465" stroke-linecap="round" stroke-linejoin="round"/>
<path d="M55.8047 27.6498L66.4449 41.9826M74.2718 28.1688L75.3225 37.1708M44.341 45.3491L59.1712 49.7537" stroke="#042040" stroke-width="3.27657" stroke-linecap="round" stroke-linejoin="round"/>
</svg>
