<svg width="163" height="163" viewBox="0 0 163 163" fill="none" xmlns="http://www.w3.org/2000/svg">
<path d="M148.402 30.8476C126.576 30.8477 49.6651 26.6903 11.2098 30.8477C10.5169 55.792 11.6255 115.866 13.2884 131.664C62.1371 134.782 135.514 134.99 150.48 131.664C150.48 128.546 152.559 59.9493 148.402 30.8476Z" stroke="#08386F" stroke-width="4.57309" stroke-linecap="round" stroke-linejoin="round"/>
<path d="M70.4503 45.8055C63.1749 45.4591 43.3141 45.0618 26.6848 45.8933C25.9919 51.09 25.0142 61.2395 26.6772 72.8801C29.9163 74.4997 66.4065 72.7923 70.4426 72.7923C71.1355 67.5956 70.4503 57.8185 70.4503 45.8055Z" fill="#4A94E8" stroke="#4A94E8" stroke-width="4.57309" stroke-linecap="round" stroke-linejoin="round"/>
<path d="M33.4763 118.324C34.9793 118.581 36.877 113.189 39.271 109.837C51.0766 110.962 63.2305 110.883 72.0066 110.499M33.4763 118.324C28.4541 117.466 27.8384 99.9529 27.8384 89.107C44.4677 88.2756 63.1757 88.7606 70.451 89.107C70.451 96.355 70.451 104.333 72.0066 110.499M33.4763 118.324C43.7225 119.588 66.7094 121.303 76.687 118.055C78.0833 117.793 80.8443 115.034 81.8837 109.837C79.6395 110.062 76.2106 110.315 72.0066 110.499" stroke="#08386F" stroke-width="4.57309" stroke-linecap="round" stroke-linejoin="round"/>
<path d="M131.771 44.818C124.495 44.4715 104.748 43.9865 88.1187 44.818C87.4258 50.0147 89.158 106.139 89.158 117.572C106.619 119.235 124.842 118.265 131.771 117.572C132.464 112.375 133.434 56.4586 131.771 44.818Z" stroke="#08386F" stroke-width="4.57309" stroke-linecap="round" stroke-linejoin="round"/>
<path d="M100.403 54.7521L96.4346 36.0439H107.017L110.985 54.7521H100.403Z" fill="#4A94E8" stroke="#4A94E8" stroke-width="2.6607" stroke-linecap="round" stroke-linejoin="round"/>
<path d="M126.145 96.4502L144.644 95.458L141.956 85.5072L123.458 86.4994L126.145 96.4502Z" fill="#4A94E8" stroke="#4A94E8" stroke-width="2.6607" stroke-linecap="round" stroke-linejoin="round"/>
<path d="M63.076 92.8052C58.8959 94.8376 47.515 90.853 36.06 92.8049L36.1521 84.4907C47.6071 82.5388 58.988 86.5234 63.1681 84.4909L63.076 92.8052Z" fill="#4A94E8" stroke="#4A94E8" stroke-width="2.6607" stroke-linecap="round" stroke-linejoin="round"/>
</svg>
