<svg width="64" height="64" viewBox="0 0 64 64" fill="none" xmlns="http://www.w3.org/2000/svg">
<path d="M53.9992 15C46.9992 15.0001 22.3325 13.6667 9.99916 15.0001C9.77694 23.0001 10.1325 42.2667 10.6658 47.3334C26.3325 48.3334 49.8658 48.4001 54.6658 47.3334C54.6658 46.3334 55.3325 24.3334 53.9992 15Z" fill="white"/>
<path fill-rule="evenodd" clip-rule="evenodd" d="M10.7161 15.6636C10.536 23.6785 10.8545 40.983 11.3371 46.6406C19.0444 47.1143 28.5349 47.3669 36.7416 47.375C40.9562 47.3792 44.8265 47.3188 47.9389 47.1913C50.6197 47.0814 52.6943 46.9229 53.9435 46.7228C53.9461 46.5981 53.9492 46.4565 53.9527 46.2991C53.9688 45.5629 53.9925 44.4808 54.0159 43.1589C54.0576 40.8126 54.0992 37.6818 54.0992 34.2917C54.0992 27.7925 53.9458 20.3941 53.3573 15.7302C51.5055 15.7133 48.7453 15.6309 45.4611 15.5329C42.0562 15.4313 38.088 15.3129 33.9849 15.2332C25.6914 15.0722 16.821 15.0682 10.7161 15.6636ZM45.5436 14.068C49.2005 14.1774 52.1874 14.2667 53.9992 14.2667C54.3641 14.2667 54.6735 14.535 54.7251 14.8963C55.4003 19.6225 55.5658 27.5067 55.5658 34.2917C55.5658 37.6932 55.5241 40.8332 55.4824 43.1849C55.4581 44.556 55.434 45.6495 55.418 46.374C55.4065 46.9 55.3992 47.2314 55.3992 47.3333C55.3992 47.6771 55.1604 47.9747 54.8249 48.0492C53.5511 48.3323 51.1157 48.5289 47.999 48.6567C44.8593 48.7854 40.9672 48.8459 36.7401 48.8417C28.2865 48.8333 18.4708 48.5664 10.6191 48.0652C10.2623 48.0424 9.97395 47.7657 9.93652 47.4101C9.39814 42.2955 9.04357 22.9911 9.26611 14.9797C9.27629 14.6131 9.55573 14.3104 9.92034 14.2709C16.1398 13.5986 25.434 13.6002 34.0134 13.7668C38.1655 13.8475 42.1441 13.9664 45.5436 14.068Z" fill="#042040"/>
<path fill-rule="evenodd" clip-rule="evenodd" d="M14.9257 19.0931C20.2884 18.8249 26.6828 18.9529 29.0336 19.0648C29.4246 19.0835 29.7321 19.4059 29.7321 19.7973C29.7321 21.1972 29.7612 22.4975 29.7876 23.6756C29.7973 24.1112 29.8067 24.5301 29.8141 24.9311C29.841 26.3939 29.843 27.6513 29.7232 28.5493C29.6746 28.9137 29.3639 29.1858 28.9963 29.1858C28.7179 29.1858 27.9574 29.2113 26.9197 29.2463C25.5662 29.2918 23.7411 29.3532 21.8986 29.3944C20.2874 29.4305 18.675 29.4505 17.3967 29.4285C16.7588 29.4176 16.1932 29.396 15.748 29.3594C15.526 29.3411 15.3231 29.3182 15.1507 29.2887C14.9978 29.2625 14.7999 29.2205 14.6319 29.1365C14.4167 29.0289 14.268 28.8225 14.2339 28.5843C13.6872 24.7574 14.0089 21.4279 14.2354 19.7286C14.2822 19.378 14.5725 19.1107 14.9257 19.0931Z" fill="#FFC746"/>
<path fill-rule="evenodd" clip-rule="evenodd" d="M16.0678 34.3848C16.0812 35.9928 16.1464 37.8887 16.3585 39.4739C16.4812 40.3905 16.6474 41.1577 16.8597 41.6944C16.9479 41.9174 17.0286 42.0632 17.0944 42.1582C17.1595 42.0562 17.2343 41.9283 17.3205 41.7728C17.3857 41.6552 17.4565 41.5229 17.532 41.3818C17.7813 40.9161 18.082 40.3545 18.4015 39.9071C18.5536 39.6943 18.8074 39.5785 19.0678 39.6033C22.4365 39.9242 25.903 39.9361 28.5999 39.8462C28.3008 38.1483 28.2687 36.1891 28.2653 34.3873C25.721 34.2878 20.7123 34.1858 16.0678 34.3848ZM30.0794 39.7837C29.7354 38.0015 29.7316 35.8011 29.7316 33.6848C29.7316 33.2933 29.4242 32.9709 29.0331 32.9523C26.6857 32.8405 20.6602 32.6841 15.295 32.9524C14.9047 32.9719 14.5983 33.294 14.5983 33.6848C14.5983 35.4291 14.6473 37.7439 14.9048 39.6684C15.0329 40.6253 15.218 41.5313 15.4958 42.2338C15.7482 42.8722 16.1934 43.6374 17.0162 43.7781C17.0384 43.7819 17.0603 43.7848 17.0819 43.787C18.7475 43.9912 21.4199 44.2295 24.0853 44.2877C26.7166 44.3452 29.4553 44.2315 31.1894 43.6776C31.4438 43.6173 31.673 43.477 31.8585 43.3289C32.0691 43.1606 32.2765 42.9395 32.4682 42.675C32.853 42.1443 33.198 41.4074 33.384 40.4772C33.4296 40.2491 33.3644 40.013 33.2082 39.8407C33.052 39.6685 32.8233 39.5805 32.592 39.6037C31.9996 39.6629 31.1362 39.7293 30.0794 39.7837ZM18.6057 42.4794C20.1582 42.6336 22.1419 42.7783 24.1173 42.8214C26.7756 42.8795 29.3033 42.7493 30.7713 42.2714C30.7936 42.2642 30.8163 42.258 30.8392 42.2529C30.8475 42.2487 30.8826 42.2313 30.943 42.183C31.0347 42.1097 31.1535 41.9897 31.2808 41.8141C31.4061 41.6414 31.534 41.4223 31.6492 41.1559C31.0458 41.2003 30.3301 41.2432 29.5292 41.2782C26.8025 41.3973 23.059 41.4261 19.3682 41.1035C19.1954 41.3844 19.0306 41.6919 18.8627 42.0051C18.7783 42.1626 18.6931 42.3216 18.6057 42.4794Z" fill="#042040"/>
<path fill-rule="evenodd" clip-rule="evenodd" d="M35.3598 20.1823C35.3551 20.3594 35.3514 20.5713 35.3491 20.8179C35.3431 21.4697 35.3465 22.3183 35.3569 23.306C35.3777 25.2809 35.4263 27.7983 35.4818 30.3813C35.5125 31.8078 35.5453 33.2555 35.5768 34.6426C35.6475 37.7579 35.7113 40.5672 35.7278 42.1426C40.6073 42.5492 45.5652 42.3389 47.9842 42.1391C48.0226 41.4824 48.0638 40.3787 48.101 38.9705C48.1529 37.0016 48.1959 34.4916 48.2153 31.9166C48.2507 27.2222 48.2064 22.3925 48.007 20.1861C45.4386 20.0853 40.0892 19.9787 35.3598 20.1823ZM34.6287 18.748C39.9937 18.4798 46.3525 18.6361 48.7002 18.7479C49.0515 18.7647 49.3415 19.0285 49.3913 19.3767C49.6676 21.3113 49.7207 26.7952 49.682 31.9276C49.6625 34.5109 49.6194 37.0301 49.5671 39.0092C49.5156 40.9623 49.4543 42.4453 49.3922 42.9107C49.3473 43.2477 49.0766 43.5096 48.7383 43.5435C46.4829 43.769 40.5889 44.0828 34.9291 43.5438C34.5528 43.508 34.2653 43.1919 34.2653 42.8138C34.2653 41.498 34.1932 38.3181 34.1111 34.7034C34.0795 33.3106 34.0465 31.8531 34.0155 30.4129C33.9599 27.8292 33.9112 25.305 33.8904 23.3215C33.8799 22.3301 33.8764 21.4704 33.8825 20.8044C33.8885 20.1588 33.9034 19.6459 33.9384 19.3835C33.9852 19.0329 34.2755 18.7657 34.6287 18.748Z" fill="#042040"/>
<path fill-rule="evenodd" clip-rule="evenodd" d="M37.0001 16.3981C37.0811 16.2981 37.2029 16.24 37.3316 16.24H40.7255C40.927 16.24 41.1011 16.381 41.1429 16.5781L42.4156 22.5781C42.4423 22.704 42.4108 22.8352 42.3298 22.9352C42.2488 23.0352 42.1269 23.0933 41.9982 23.0933H38.6043C38.4028 23.0933 38.2287 22.9523 38.1869 22.7552L36.9142 16.7552C36.8875 16.6293 36.919 16.4981 37.0001 16.3981Z" fill="#FFC746"/>
<path fill-rule="evenodd" clip-rule="evenodd" d="M53.1391 35.9715C53.2146 35.8672 53.239 35.7344 53.2054 35.6101L52.3435 32.4187C52.291 32.2243 52.1098 32.0931 51.9087 32.1039L45.976 32.4221C45.8474 32.429 45.7288 32.4936 45.6533 32.5979C45.5778 32.7022 45.5534 32.8351 45.587 32.9594L46.4489 36.1508C46.5014 36.3451 46.6826 36.4764 46.8837 36.4656L52.8163 36.1474C52.9449 36.1405 53.0635 36.0759 53.1391 35.9715Z" fill="#FFC746"/>
<path fill-rule="evenodd" clip-rule="evenodd" d="M25.2761 31.9647C25.857 31.9828 26.2446 31.9345 26.479 31.8205C26.612 31.7558 26.769 31.7647 26.8939 31.8438C27.0188 31.9229 27.0939 32.0611 27.0922 32.2089L27.0627 34.8755C27.0609 35.0371 26.968 35.1838 26.8226 35.2544C26.3868 35.4664 25.8154 35.5027 25.22 35.4841C24.6866 35.4675 24.0688 35.4027 23.4117 35.3337C23.3201 35.3241 23.2277 35.3144 23.1347 35.3048C21.5945 35.1449 19.8163 34.9891 18.0432 35.2912C17.9185 35.3125 17.7908 35.2773 17.6945 35.1952C17.5983 35.113 17.5435 34.9924 17.5449 34.8659L17.5744 32.1994C17.5767 31.9932 17.7261 31.8182 17.9294 31.7835C19.8301 31.4597 21.7139 31.6298 23.2523 31.7895C23.3466 31.7993 23.4394 31.809 23.5307 31.8186C24.1936 31.888 24.7765 31.9491 25.2761 31.9647Z" fill="#FFC746"/>
</svg>
