<svg width="129" height="128" viewBox="0 0 129 128" fill="none" xmlns="http://www.w3.org/2000/svg">
<path fill-rule="evenodd" clip-rule="evenodd" d="M64.6055 128C29.26 128 0.605469 99.3454 0.605469 64C0.605469 28.6545 29.26 0 64.6055 0C99.9509 0 128.605 28.6545 128.605 64C128.605 99.3454 99.9509 128 64.6055 128ZM63.7327 86.7636V74.0364C63.7327 73.6727 64.0236 73.3091 64.3873 73.3091H64.46H79.3691C90.2055 72.8727 98.5691 63.7818 98.1327 52.9455C97.6964 42.6909 89.4782 34.5455 79.2964 34.1818H42.7873C41.9873 34.1818 41.3327 34.8364 41.3327 35.6364V86.9818C41.3327 93.1636 46.3509 98.1818 52.5327 98.1818C58.7146 98.1818 63.7327 93.1636 63.7327 86.9818C63.8055 86.8364 63.8055 86.7636 63.7327 86.7636ZM64.46 56.5818H78.5691C80.1691 56.5818 81.4782 55.2727 81.4782 53.6727C81.4782 52.0727 80.1691 50.7636 78.5691 50.7636H59.4418C58.6418 50.7636 57.9873 51.4182 57.9873 52.2182V86.9091C57.9873 89.8909 55.5146 92.3636 52.5327 92.3636C49.5509 92.3636 47.0782 89.8909 47.0782 86.9091V40.6545C47.0782 40.2909 47.3691 39.9273 47.7327 39.9273H47.8055H78.5691C86.2055 39.7818 92.5327 45.8909 92.6055 53.4545C92.7509 61.0909 86.6418 67.4182 79.0782 67.4909H64.46C64.0964 67.4909 63.7327 67.2 63.7327 66.8364V66.7636V57.3091C63.7327 56.9455 64.0236 56.6545 64.46 56.5818Z" fill="#0F6FDE"/>
</svg>
