<svg width="415" height="128" viewBox="0 0 415 128" fill="none" xmlns="http://www.w3.org/2000/svg">
<path d="M306.57 47.7818H300.679C300.024 47.7818 299.443 48.2182 299.297 48.8C299.006 49.6727 298.788 50.2546 298.715 50.6182C296.388 57.7455 292.824 68.5091 288.17 82.8364C288.097 83.0546 287.806 83.8546 287.224 85.1637C287.079 85.5273 286.643 85.6728 286.279 85.5273C286.133 85.4546 285.988 85.3091 285.915 85.1637C285.406 84 285.115 83.2727 284.97 82.8364C280.17 68.0727 276.606 57.0182 274.279 49.6C274.206 49.3818 274.133 49.0909 274.061 48.8727C273.843 48.2909 273.333 47.8546 272.679 47.8546H266.861C266.061 47.8546 265.406 48.5091 265.406 49.3091C265.406 49.4546 265.406 49.6 265.479 49.7455C265.552 49.9637 265.624 50.1091 265.697 50.3273C269.333 60.6546 274.788 76.0727 282.061 96.6546C282.061 96.7273 282.061 96.7273 282.133 96.8C282.206 97.0909 282.206 97.3818 282.133 97.6727C282.133 97.7455 282.133 97.7455 282.061 97.8182C281.988 98.1091 281.843 98.4727 281.77 98.7637C280.752 101.6 278.061 103.564 275.006 103.564H268.897C268.097 103.564 267.443 104.218 267.443 105.018V109.891C267.443 110.691 268.097 111.345 268.897 111.345H275.006C280.97 111.345 286.279 107.855 288.679 102.4C288.752 102.182 288.824 101.964 288.97 101.745C289.043 101.527 293.333 89.3818 307.661 49.3091C307.879 48.8 307.588 48.1455 307.079 47.9273C307.079 47.9273 307.079 47.9273 307.006 47.9273C306.788 47.8546 306.715 47.7818 306.57 47.7818ZM229.043 89.1637C230.424 89.6 231.879 89.8182 233.333 89.8182C237.624 89.7455 241.77 88.0727 244.897 85.0182C247.152 82.7637 248.388 79.6364 248.315 76.4364V72.6546C248.315 72.2909 248.024 72 247.661 72C247.588 72 247.588 72 247.515 72C246.788 72.0727 246.424 72.0728 246.424 72.0728L241.843 72.6546L232.752 74.0364C227.879 74.8364 224.897 76.8 223.952 79.8546C223.733 80.5818 223.588 81.3091 223.588 82.1091C223.661 85.3818 225.915 88.2182 229.043 89.1637ZM256.461 92.3637V95.2727C256.461 96.0727 255.806 96.7273 255.006 96.7273H250.279C249.479 96.7273 248.824 96.0727 248.824 95.2727L248.752 90.4727C248.752 90.4 248.679 90.3273 248.679 90.2546C248.533 90.1091 248.315 90.1091 248.17 90.2546C247.879 90.4728 247.588 90.7637 247.37 91.0546C243.588 94.8364 238.424 96.7273 231.733 96.7273C226.933 96.7273 223.006 95.4182 219.952 92.8727C216.897 90.3273 215.443 86.7637 215.443 82.2546C215.37 80.0728 215.806 77.9637 216.752 76C217.552 74.3273 218.715 72.9455 220.243 71.9273C221.552 70.9818 222.933 70.2546 224.461 69.7455C225.843 69.2364 227.224 68.8727 228.606 68.6546C235.661 67.6364 239.443 67.1273 240.17 66.9818C240.752 66.9091 243.079 66.6182 247.079 66.0364C247.37 65.9637 247.588 65.9637 247.879 65.9637C248.243 65.8909 248.533 65.6 248.533 65.2364V63.2C248.533 60.1455 247.733 57.7455 246.133 56.0727C244.533 54.4 241.552 53.5273 237.261 53.5273C235.297 53.5273 233.333 53.7455 231.443 54.3273C229.988 54.7637 228.752 55.5637 227.733 56.7273C227.079 57.6 226.497 58.4728 226.133 59.4909C226.061 59.7091 225.988 59.9273 225.915 60.2182C225.915 60.2909 225.915 60.3637 225.843 60.4364C225.697 61.0909 225.115 61.6 224.388 61.6H218.933C218.133 61.5273 217.552 60.8727 217.552 60.0727V59.7818C217.624 59.2 217.697 58.7637 217.77 58.4C218.133 57.0182 218.715 55.6364 219.443 54.4C220.315 53.0182 221.406 51.7818 222.715 50.7637C224.461 49.6 226.352 48.7273 228.388 48.1455C231.152 47.4182 234.061 47.1273 236.897 47.1273C250.061 47.1273 256.461 52.3637 256.461 62.9818V92.3637ZM364.315 48.8727V95.1273C364.315 95.9273 364.97 96.5818 365.77 96.5818H371.661C372.461 96.5818 373.115 95.9273 373.115 95.1273V48.8727C373.115 48.0727 372.461 47.4182 371.661 47.4182H365.77C364.97 47.4182 364.315 48.0727 364.315 48.8727ZM364.315 34.1818V40.0727C364.315 40.8727 364.97 41.5273 365.77 41.5273H371.661C372.461 41.5273 373.115 40.8727 373.115 40.0727V34.1818C373.115 33.3818 372.461 32.7273 371.661 32.7273H365.77C364.97 32.7273 364.315 33.3818 364.315 34.1818ZM400.606 55.1273H413.043C413.843 55.1273 414.497 54.4728 414.497 53.6728V48.8C414.497 48 413.843 47.3455 413.043 47.3455H400.606C400.243 47.3455 399.879 47.0546 399.879 46.6909V46.6182V34.1818C399.879 33.3818 399.224 32.7273 398.424 32.7273H392.533C391.733 32.7273 391.079 33.3818 391.079 34.1818V46.6909C391.079 47.0546 390.788 47.4182 390.424 47.4182H390.352H384.97C384.17 47.4182 383.515 48.0727 383.515 48.8727V53.7455C383.515 54.5455 384.17 55.2 384.97 55.2H390.352C390.715 55.2 391.079 55.4909 391.079 55.8546V55.9273V82.1818C391.37 90.1818 397.915 96.5818 405.915 96.5818H412.533C413.333 96.5818 413.988 95.9273 413.988 95.1273V90.2546C413.988 89.4546 413.333 88.8 412.533 88.8H405.915C402.57 88.8 399.806 86.1091 399.806 82.6909V55.8546C399.879 55.4182 400.17 55.1273 400.606 55.1273ZM208.752 52.5818C208.752 41.7455 200.097 32.9455 189.333 32.7273H161.333C160.533 32.7273 159.879 33.3818 159.879 34.1818V95.1273C159.879 95.9273 160.533 96.5818 161.333 96.5818H167.224C168.024 96.5818 168.679 95.9273 168.679 95.1273V73.2364C168.679 72.8727 168.97 72.5091 169.333 72.5091H169.406H189.333C200.17 72.2182 208.752 63.4182 208.752 52.5818ZM201.043 52.5818C201.043 59.2728 195.661 64.6546 188.97 64.6546H169.479C169.115 64.6546 168.752 64.3637 168.752 64V63.9273V41.2364C168.752 40.8727 169.043 40.5091 169.406 40.5091H169.479H188.97C195.661 40.5091 201.043 45.8909 201.043 52.5818ZM325.843 72.2909H347.952C348.752 72.2909 349.406 71.6364 349.406 70.8364V65.9637C349.406 65.1637 348.752 64.5091 347.952 64.5091H325.843C325.479 64.5091 325.115 64.2182 325.115 63.8546V63.7818V41.2364C325.115 40.8727 325.406 40.5091 325.77 40.5091H325.843H352.97C353.77 40.5091 354.424 39.8546 354.424 39.0546V34.1818C354.424 33.3818 353.77 32.7273 352.97 32.7273H317.77C316.97 32.7273 316.315 33.3818 316.315 34.1818V95.1273C316.315 95.9273 316.97 96.5818 317.77 96.5818H323.661C324.461 96.5818 325.115 95.9273 325.115 95.1273V73.0182C325.115 72.5818 325.406 72.2909 325.843 72.2909Z" fill="#0F6FDE"/>
<path fill-rule="evenodd" clip-rule="evenodd" d="M64.6055 128C29.26 128 0.605469 99.3454 0.605469 64C0.605469 28.6545 29.26 0 64.6055 0C99.9509 0 128.605 28.6545 128.605 64C128.605 99.3454 99.9509 128 64.6055 128ZM63.7327 86.7636V74.0364C63.7327 73.6727 64.0236 73.3091 64.3873 73.3091H64.46H79.3691C90.2055 72.8727 98.5691 63.7818 98.1327 52.9455C97.6964 42.6909 89.4782 34.5455 79.2964 34.1818H42.7873C41.9873 34.1818 41.3327 34.8364 41.3327 35.6364V86.9818C41.3327 93.1636 46.3509 98.1818 52.5327 98.1818C58.7146 98.1818 63.7327 93.1636 63.7327 86.9818C63.8055 86.8364 63.8055 86.7636 63.7327 86.7636ZM64.46 56.5818H78.5691C80.1691 56.5818 81.4782 55.2727 81.4782 53.6727C81.4782 52.0727 80.1691 50.7636 78.5691 50.7636H59.4418C58.6418 50.7636 57.9873 51.4182 57.9873 52.2182V86.9091C57.9873 89.8909 55.5146 92.3636 52.5327 92.3636C49.5509 92.3636 47.0782 89.8909 47.0782 86.9091V40.6545C47.0782 40.2909 47.3691 39.9273 47.7327 39.9273H47.8055H78.5691C86.2055 39.7818 92.5327 45.8909 92.6055 53.4545C92.7509 61.0909 86.6418 67.4182 79.0782 67.4909H64.46C64.0964 67.4909 63.7327 67.2 63.7327 66.8364V66.7636V57.3091C63.7327 56.9455 64.0236 56.6545 64.46 56.5818Z" fill="#0F6FDE"/>
</svg>
