<svg width="163" height="164" viewBox="0 0 163 164" fill="none" xmlns="http://www.w3.org/2000/svg">
<path d="M88.0107 37.0587C74.4312 37.5188 61.2457 41.7382 49.9218 49.2472C32.4009 61.4357 29.3538 79.7185 30.1156 91.907C30.8773 104.096 39.2569 110.19 39.2569 113.237C37.7333 117.046 27.8302 127.711 28.592 129.234C29.3538 130.758 43.0658 139.899 45.3511 138.376L57.5396 122.378C59.0631 122.683 61.1504 123.033 63.6338 123.369C69.9387 124.281 76.3226 124.521 82.6782 124.085C83.1963 124.085 83.7143 123.978 84.2018 123.902C92.0938 122.782 99.639 119.926 106.293 115.538C110.102 117.823 113.149 129.25 116.196 129.25C119.244 129.25 129.147 120.87 129.147 119.346C129.147 117.823 120.767 107.158 120.767 105.634C122.638 104.416 124.419 103.067 126.1 101.597C130.022 98.4461 133.657 94.9536 136.963 91.1605C137.161 90.9015 137.359 90.6577 137.526 90.3987C137.763 90.0805 138.018 89.7753 138.288 89.4846C142.432 85.1576 150.476 85.7366 150.476 84.3044C150.476 82.8723 152 66.7834 152 63.7363C152 60.6892 151.238 57.6421 143.62 58.4038C136.003 59.1656 126.861 53.0714 120.767 46.9771C118.739 45.0271 116.361 43.4765 113.759 42.4064C109.005 40.3648 104.511 39.8621 104.008 39.3593C103.309 38.1251 102.679 36.8536 102.119 35.5504C99.8335 30.7816 96.0246 23.5142 93.3431 25.6472C90.6617 27.7802 89.3362 30.9644 88.5896 37.0739M88.0107 49.2472C87.9612 45.1765 88.1545 41.1064 88.5896 37.0587L88.0107 49.2472Z" stroke="#08386F" stroke-width="4.47172" stroke-linecap="round" stroke-linejoin="round"/>
<path d="M116.791 64.9078C117.888 68.1987 121.179 67.1018 122.276 66.0048C127.075 61.1903 113.775 55.8122 116.791 64.9078Z" fill="#08386F"/>
<path d="M96.3921 78.9717C96.3921 74.4011 97.9156 71.3539 104.772 69.0686C112.389 66.0214 118.484 71.3539 118.484 76.6864C118.491 79.3878 117.472 81.9911 115.634 83.9706C113.796 85.9502 111.275 87.1584 108.581 87.3514C102.486 88.1131 96.3921 83.5424 96.3921 78.9717Z" fill="#17C7EE"/>
<path d="M63.6347 123.368C63.6347 130.757 62.1112 138.375 62.873 139.899C63.6347 141.422 81.1556 142.946 82.6792 140.661C83.898 138.832 83.1972 128.853 82.6792 124.084" stroke="#08386F" stroke-width="4.47172" stroke-linecap="round" stroke-linejoin="round"/>
<path d="M126.465 101.581C131.036 104.857 137.892 108.666 140.177 110.951C142.462 113.236 149.318 101.048 150.08 98.7625C150.689 96.9342 142.721 91.815 138.653 89.4688" stroke="#08386F" stroke-width="4.46693" stroke-linecap="round" stroke-linejoin="round"/>
<path d="M102.576 33.9032C104.465 29.3325 109.036 23.9848 110.559 24C112.966 24 114.779 35.2287 114.216 40.7592" stroke="#08386F" stroke-width="4.47172" stroke-linecap="round" stroke-linejoin="round"/>
<path d="M15.64 56.1162C11.0693 65.2576 8.02222 81.255 15.64 85.8257C23.2578 90.3964 26.3049 78.2079 25.5431 72.1136C24.7813 66.0194 20.2107 66.7812 19.4489 74.399C18.7633 81.2703 22.496 86.7551 29.352 88.1111" stroke="#08386F" stroke-width="4.47172" stroke-linecap="round" stroke-linejoin="round"/>
<path d="M150.476 59.9102C145.144 60.6719 139.811 65.9282 139.232 71.3369C138.288 80.3716 146.667 82.0018 149.715 82.7636" stroke="#08386F" stroke-width="4.47172" stroke-linecap="round" stroke-linejoin="round"/>
<path d="M128.386 82.0166C128.98 86.5873 133.841 91.2494 136.964 91.158" stroke="#08386F" stroke-width="4.47172" stroke-linecap="round" stroke-linejoin="round"/>
<path d="M63.6348 50.0219C67.9995 47.7545 72.597 45.9666 77.3468 44.6895" stroke="#08386F" stroke-width="4.47172" stroke-linecap="round" stroke-linejoin="round"/>
</svg>
