<svg width="96" height="96" viewBox="0 0 96 96" fill="none" xmlns="http://www.w3.org/2000/svg">
<path d="M62.887 56.84C62.887 57.7049 63.6077 70.1741 63.9681 76.3005C51.3707 84.541 42.1418 81.8963 39.1021 79.5439V73.4999C33.0015 69.4999 28.6125 63.8381 26.914 58.4999C25.8014 55.0031 26.1933 40.9833 26.914 33.0549C27.4664 27.1795 30.9141 15.7713 40.2863 17.1428C52.0015 18.857 58.562 15.7327 63.9679 43.8663C69.3741 38.4606 72.6173 48.1909 69.3739 52.5154C66.1305 56.84 62.887 55.7589 62.887 56.84Z" fill="white"/>
<path d="M37.4985 42.4998C37.4984 46.4998 33.8771 52.5857 35.9985 53.9998C37.4988 54.9998 38.9327 54.0625 39.4985 53.4998" stroke="#042040" stroke-width="2.12346" stroke-linecap="round" stroke-linejoin="round"/>
<path d="M25.5007 47.1097C22.6674 42.5731 18.7007 31.2998 25.5007 22.4998C30.6524 15.833 35.7466 14.9625 39.0007 15.693C41.973 13.2414 50.826 10.2543 62.4592 17.919C77.0007 27.4998 66.0007 57.9998 72.0007 67.4998C78.0007 76.9998 76.5007 79.4998 75.5007 80.4998C74.5007 81.4998 63.5007 84.9998 60.0007 81.4998C57.4798 78.9789 61.2842 73.4661 61.4255 62.4998C60.9506 54.4998 58.9007 38.0998 54.5007 36.4998C40.5007 31.4715 36.6674 22.3902 36.5007 18.4781C31.0897 21.2792 27.5844 27.5356 26.913 30.8926L25.5007 47.1097C25.9915 48.7736 26.121 54.1979 26.0074 59.9998C31.6127 69.5998 36.6718 72.9998 38.5007 73.4998L39.0007 77.9998C39.5007 79.9998 38.6481 84.0998 31.2375 84.4998C21.9743 84.9998 24.0007 81.4998 25.0007 75.4998C25.5099 72.4447 25.8895 66.019 26.0074 59.9998C26.121 54.1979 25.9915 48.7736 25.5007 47.1097Z" fill="#B4D5FA"/>
<path d="M25.5007 47.1097C22.6674 42.5731 18.7007 31.2998 25.5007 22.4998C30.6524 15.833 35.7466 14.9625 39.0007 15.693C41.973 13.2414 50.826 10.2543 62.4592 17.919C77.0007 27.4998 66.0007 57.9998 72.0007 67.4998C78.0007 76.9998 76.5007 79.4998 75.5007 80.4998C74.5007 81.4998 63.5007 84.9998 60.0007 81.4998C57.4798 78.9789 61.2842 73.4661 61.4255 62.4998C60.9505 54.4998 58.9007 38.0998 54.5007 36.4998C40.5007 31.4715 36.6674 22.3902 36.5007 18.4781C31.0897 21.2792 27.5844 27.5356 26.913 30.8926L25.5007 47.1097ZM25.5007 47.1097C25.9915 48.7736 26.121 54.1979 26.0074 59.9998M26.0074 59.9998C25.8895 66.019 25.5099 72.4447 25.0007 75.4998C24.0007 81.4998 21.9743 84.9998 31.2375 84.4998C38.6481 84.0998 39.5007 79.9998 39.0007 77.9998L38.5007 73.4998C36.6718 72.9998 31.6127 69.5998 26.0074 59.9998Z" stroke="#B4D5FA" stroke-width="2.12346" stroke-linecap="round" stroke-linejoin="round"/>
<path d="M43.5021 46.4035C46.0102 43.2856 49.2365 42.7892 51.5021 46.4035M32.5021 46.4035C30.8111 44.7198 28.9346 44.5341 26.31 47.7134" stroke="#042040" stroke-width="2.12346" stroke-linecap="round" stroke-linejoin="round"/>
<path d="M63.9681 76.3005C63.6077 70.174 62.887 57.7049 62.887 56.84C62.887 55.7589 66.1305 56.84 69.3739 52.5154C72.6173 48.1909 69.3741 38.4606 63.9679 43.8663M26.914 33.0549C26.1933 40.9833 25.8014 55.0031 26.914 58.4999C28.6125 63.8381 33.0015 69.4999 39.1021 73.4999M52.0015 69.4999C48.0015 73.9999 42.5015 75.7288 39.1021 73.4999M39.1021 73.4999V79.5439" stroke="#042040" stroke-width="2.12346" stroke-linecap="round" stroke-linejoin="round"/>
<path d="M45.939 60.9998C46.3795 59.5341 46.584 58.0435 46.6347 56.9998L34.4944 62.06C35.3762 63.3209 37.4865 65.4578 40.002 65.8963" stroke="#042040" stroke-width="2.12346" stroke-linecap="round" stroke-linejoin="round"/>
<path d="M43.002 37.9999C46.502 35.4999 49.502 36.4999 51.502 38.4999M33.502 38.4999C31.502 36.8023 28.002 37.4999 26.502 38.9999" stroke="#042040" stroke-width="2.12346" stroke-linecap="round" stroke-linejoin="round"/>
<path d="M64.3177 41.9999C63.4303 32.41 60.8707 23.6597 54.998 19.4999C53.4673 18.4156 51.9284 17.5943 50.4032 16.9946C45.14 14.925 40.04 15.4936 35.998 16.9946C32.8981 18.1458 30.0664 20.8559 28.498 22.9407" stroke="#042040" stroke-width="2.12" stroke-linecap="round" stroke-linejoin="round"/>
<path d="M35.998 16.9946C40.04 15.4936 45.14 14.925 50.4032 16.9946" stroke="#4A94E8" stroke-width="4.12" stroke-linecap="round" stroke-linejoin="round"/>
<path d="M71.7864 50.5451C72.6262 47.9078 71.0482 39.1829 66.0099 40.0619C60.9715 40.0619 59.4225 43.9486 58.5828 45.7067C57.743 47.4649 56.8163 56.5204 63.5341 57.3994C70.252 58.2785 70.9467 53.1823 71.7864 50.5451Z" fill="#4A94E8" stroke="#4A94E8" stroke-width="1.13751" stroke-linecap="round" stroke-linejoin="round"/>
<path d="M50 64.5C52 63.6667 56.4 61.1 58 57.5" stroke="#042040" stroke-width="2.12" stroke-linecap="round" stroke-linejoin="round"/>
<path d="M46.7586 68.9983C47.962 68.8401 51.1314 66.5876 49.8434 64.7513C48.9043 62.7513 47.0728 62.8608 46.2184 62.8551C45.3639 62.8495 41.5965 64.1694 42.4996 66.9999C43.4027 69.8305 45.5552 69.1565 46.7586 68.9983Z" fill="#4A94E8" stroke="#4A94E8" stroke-width="0.498842" stroke-linecap="round" stroke-linejoin="round"/>
</svg>
