<svg width="64" height="64" viewBox="0 0 64 64" fill="none" xmlns="http://www.w3.org/2000/svg">
<path d="M41.9242 37.8933C41.9242 38.4699 42.4048 46.7827 42.645 50.867C36.9896 54.9892 29.237 54.0261 26.0676 53.0292V48.4766C22.878 47.516 19.9924 45.0559 18.86 41.4971C18.1183 39.1659 17.4618 27.3222 17.9423 22.0366C18.6282 19.072 21.0285 13.3713 25.1428 14.2856C30.2857 15.4285 39.6408 13.1427 41.1428 19.9999C42.3445 25.4856 42.6449 28.4485 42.6449 29.2442C46.249 25.6404 48.4111 32.1272 46.2489 35.0103C44.0866 37.8933 41.9242 37.1725 41.9242 37.8933Z" fill="white"/>
<path d="M25.8378 27.8027C24.9891 30.2787 24.0276 35.1904 25.8381 35.0103C27.6486 34.8303 28.5724 34.0301 28.9496 33.655" stroke="#042040" stroke-width="1.23868" stroke-linecap="round" stroke-linejoin="round"/>
<path d="M39.5638 31.4065C41.0053 32.1272 41.0053 31.4065 41.0053 31.4065L41.6385 29.463L43.1676 28.5234C43.8884 27.5624 44.3208 23.4781 43.1676 17.712C41.7261 10.5044 31.7664 9.31699 25.1486 11.9459C21.0793 13.5625 18.4215 18.1925 17.941 20.5951C18.9021 19.1535 19.0943 15.838 20.8241 16.9913C22.3302 19.8414 24.4694 19.1024 31.6355 16.2705C38.1223 14.829 41.7266 18.4321 39.5638 21.3158C37.4016 24.1989 39.5638 28.5234 39.5638 31.4065Z" fill="#B4D5FA"/>
<path d="M41.7261 29.2442L41.6385 29.463M41.6385 29.463L41.0053 31.4065C41.0053 31.4065 41.0053 32.1272 39.5638 31.4065C39.5638 28.5234 37.4016 24.1989 39.5638 21.3158C41.7266 18.4321 38.1223 14.829 31.6355 16.2705C24.4694 19.1024 22.3302 19.8414 20.8241 16.9913C19.0943 15.838 18.9021 19.1535 17.941 20.5951C18.4215 18.1925 21.0793 13.5625 25.1486 11.9459C31.7664 9.31699 41.7261 10.5044 43.1676 17.712C44.3208 23.4781 43.8884 27.5624 43.1676 28.5234L41.6385 29.463Z" stroke="#B4D5FA" stroke-width="1.23868" stroke-linecap="round" stroke-linejoin="round"/>
<path d="M30.4079 30.3014C31.9597 28.1316 33.5956 27.9812 35.2398 30.3014M22.7344 30.3014C21.5454 29.2445 20.2894 29.1917 18.6624 31.4068" stroke="#042040" stroke-width="1.23868" stroke-linecap="round" stroke-linejoin="round"/>
<path d="M42.6435 50.867C42.4033 46.7827 41.9228 38.4699 41.9228 37.8933C41.9228 37.1726 44.0851 37.8933 46.2474 35.0103C48.4097 32.1273 46.2475 25.6404 42.6434 29.2442M17.9408 22.0366C17.4603 27.3222 18.1168 39.1659 18.8586 41.4971C19.9909 45.0559 22.8765 47.516 26.0662 48.4766M36.1568 45.1009C33.906 48.6807 29.78 49.5951 26.0662 48.4766M26.0662 48.4766V53.0293" stroke="#042040" stroke-width="1.23868" stroke-linecap="round" stroke-linejoin="round"/>
<path d="M27.1888 42.8293C25.3508 42.3465 24.1264 40.3832 23.707 39.3348L32.3561 37.8933C32.1195 38.7217 31.6263 39.9582 30.911 40.9997" stroke="#042040" stroke-width="1.23868" stroke-linecap="round" stroke-linejoin="round"/>
<path d="M30.5796 23.7159C32.3523 23.2234 33.2406 23.4953 34.7161 24.5349M22.7661 24.1254C21.3357 24.2114 20.4949 24.5222 18.8594 25.9681" stroke="#042040" stroke-width="1.23868" stroke-linecap="round" stroke-linejoin="round"/>
<path d="M42.8794 27.9999C42.2878 21.6066 40.5814 15.7731 36.6663 12.9999C35.6458 12.277 34.6199 11.7295 33.6031 11.3297C30.0943 9.9499 26.6943 10.329 23.9996 11.3297C21.933 12.0971 20.0452 13.9039 18.9996 15.2937" stroke="#042040" stroke-width="1.23667" stroke-linecap="round" stroke-linejoin="round"/>
<path d="M23.9996 11.3297C26.6943 10.329 30.0943 9.9499 33.6031 11.3297" stroke="#4A94E8" stroke-width="2.40333" stroke-linecap="round" stroke-linejoin="round"/>
<path d="M47.8576 33.6966C48.4174 31.9384 47.3655 26.1217 44.0066 26.7078C40.6476 26.7078 39.615 29.2989 39.0552 30.471C38.4954 31.6431 37.8775 37.6801 42.3561 38.2661C46.8347 38.8522 47.2978 35.4547 47.8576 33.6966Z" fill="#4A94E8" stroke="#4A94E8" stroke-width="0.663545" stroke-linecap="round" stroke-linejoin="round"/>
<path d="M33.3328 42.9999C34.6661 42.4444 37.5994 40.7333 38.6661 38.3333" stroke="#042040" stroke-width="1.23667" stroke-linecap="round" stroke-linejoin="round"/>
<path d="M31.1718 45.9989C31.9741 45.8934 34.087 44.3917 33.2284 43.1676C32.6023 41.8342 31.3813 41.9072 30.8117 41.9034C30.2421 41.8997 27.7304 42.7796 28.3325 44.6666C28.9346 46.5537 30.3696 46.1043 31.1718 45.9989Z" fill="#4A94E8" stroke="#4A94E8" stroke-width="0.290991" stroke-linecap="round" stroke-linejoin="round"/>
</svg>
