<svg width="61" height="60" viewBox="0 0 61 60" fill="none" xmlns="http://www.w3.org/2000/svg">
<path d="M18.0118 12.3214C11.0475 15 12.6547 12.8571 11.0475 12.3214C9.76181 11.8929 9.08323 15 8.90466 16.6071C8.90466 19.6429 9.01181 26.4643 9.44038 29.4643C9.86895 32.4643 12.8332 34.6429 14.2618 35.3571L14.7975 35.8929L15.3332 39.1071C16.9404 41.25 24.7975 39.2807 28.1904 37.7604C28.9018 39.0351 30.101 39.8495 30.8689 40.1786V49.8214C37.8332 53.5714 40.5118 51.9643 41.5832 51.4286V48.2143H43.1904C43.7261 48.2143 47.4761 41.7857 48.5475 40.7143C49.6189 39.6429 50.1547 29.4643 48.5475 27.3214C47.2618 25.6071 37.6547 26.6071 33.0118 27.3214C32.4761 25.5357 31.0832 21.75 29.7975 20.8929C28.5118 20.0357 26.4047 21.25 25.5118 21.9643C25.1547 20 24.6547 15.8571 25.5118 15C26.5832 13.9286 24.9761 9.64284 18.0118 12.3214Z" fill="white"/>
<path fill-rule="evenodd" clip-rule="evenodd" d="M15.1097 19.6915C15.4735 19.8162 15.6674 20.2123 15.5427 20.5761C15.2431 21.45 14.9253 22.7544 14.8424 23.7997C14.7998 24.336 14.8267 24.7226 14.8958 24.9393C14.899 24.9491 14.902 24.9581 14.905 24.9662C15.9752 24.8375 16.4926 24.3705 16.689 24.1751C16.9617 23.9039 17.4027 23.9051 17.6739 24.1778C17.9451 24.4505 17.944 24.8914 17.6712 25.1627C17.3164 25.5156 16.4938 26.2088 14.953 26.362C14.6175 26.3954 14.2915 26.3088 14.0272 26.0871C13.783 25.8823 13.6475 25.6091 13.5689 25.3627C13.4149 24.88 13.4077 24.2713 13.4539 23.6896C13.5483 22.4991 13.8983 21.0777 14.2251 20.1245C14.3498 19.7607 14.7458 19.5668 15.1097 19.6915Z" fill="#042040"/>
<path fill-rule="evenodd" clip-rule="evenodd" d="M27.1265 22.0349L28.0367 21.4756C28.1113 21.4297 28.1766 21.3702 28.2292 21.3001C28.4585 20.9944 28.6023 20.5461 28.6985 20.0738C28.7999 19.5762 28.866 18.9586 28.8868 18.2431C28.9284 16.8103 28.7895 14.9402 28.355 12.7676C27.7522 9.75386 25.3635 8.05965 22.624 7.37882C19.8929 6.70005 16.6861 6.98187 14.1182 8.00199C12.4589 8.66114 11.1226 9.917 10.1638 11.2076C9.20865 12.4933 8.57591 13.884 8.3737 14.8951C8.30849 15.2211 8.48288 15.5478 8.79009 15.6751C9.0973 15.8023 9.45162 15.6946 9.63607 15.418C9.86478 15.0749 10.0306 14.6503 10.1632 14.2857C10.203 14.1761 10.2401 14.0716 10.2755 13.9715C10.3686 13.7085 10.4507 13.4766 10.544 13.2668C10.6056 13.1283 10.6609 13.0263 10.7103 12.9547L10.7119 12.9524C10.9993 13.4299 11.3514 13.8237 11.8213 14.0811C12.3759 14.385 13.0012 14.4478 13.6849 14.3708C14.3598 14.2947 15.1457 14.076 16.0672 13.7596C16.9815 13.4456 18.0697 13.0208 19.3661 12.5087C21.6034 12.0234 23.2182 12.4287 24.0631 13.0623C24.4853 13.3789 24.6991 13.7355 24.7605 14.0628C24.82 14.3804 24.7518 14.7506 24.4556 15.1457C23.4801 16.4464 23.5208 18.0243 23.7256 19.3899C23.8018 19.8976 23.9074 20.4129 24.0058 20.8925C24.0403 21.0609 24.0739 21.225 24.1051 21.3827C24.2294 22.0128 24.3163 22.5522 24.3163 23.0097C24.3163 23.2735 24.4653 23.5146 24.7013 23.6326C25.003 23.7835 25.2711 23.8807 25.5132 23.921C25.7566 23.9616 26.0168 23.9511 26.2549 23.8321C26.5038 23.7076 26.6401 23.5091 26.7064 23.3431C26.7327 23.2774 26.7483 23.217 26.7576 23.167L27.1265 22.0349Z" fill="#B4D5FA"/>
<path fill-rule="evenodd" clip-rule="evenodd" d="M20.0294 21.6478C19.7705 21.6538 19.3578 21.8506 18.8224 22.5992C18.5987 22.912 18.1637 22.9842 17.8508 22.7605C17.538 22.5368 17.4657 22.1018 17.6895 21.7889C18.2992 20.9363 19.0626 20.277 19.997 20.2553C20.9464 20.2332 21.7393 20.8735 22.3898 21.7914C22.6122 22.1052 22.5381 22.5399 22.2242 22.7623C21.9104 22.9846 21.4757 22.9105 21.2534 22.5967C20.6905 21.8024 20.2732 21.6421 20.0294 21.6478ZM11.0773 21.0132C11.8739 20.8558 12.54 21.2147 13.0561 21.6735C13.3436 21.929 13.3695 22.3692 13.114 22.6567C12.8584 22.9442 12.4182 22.9701 12.1308 22.7146C11.7695 22.3934 11.5335 22.3429 11.3472 22.3797C11.1154 22.4254 10.7172 22.6495 10.1499 23.422C9.92216 23.732 9.48628 23.7987 9.17629 23.571C8.8663 23.3433 8.79959 22.9075 9.02728 22.5975C9.66053 21.7353 10.3261 21.1616 11.0773 21.0132Z" fill="#042040"/>
<path fill-rule="evenodd" clip-rule="evenodd" d="M9.11981 15.4019C8.73677 15.3671 8.39802 15.6494 8.36319 16.0324C8.18131 18.0332 8.21601 21.2331 8.36161 24.1283C8.43466 25.5809 8.53626 26.9694 8.65472 28.107C8.77058 29.2197 8.90853 30.1586 9.07035 30.6671C9.92397 33.3499 12.0076 35.2452 14.3563 36.1077V38.9659C14.3563 39.3505 14.6681 39.6623 15.0527 39.6623C15.4373 39.6623 15.7491 39.3505 15.7491 38.9659V36.4917C18.4796 37.0019 21.4078 36.159 23.0885 33.486C23.2932 33.1604 23.1952 32.7305 22.8696 32.5258C22.544 32.321 22.114 32.419 21.9093 32.7446C20.4541 35.0591 17.7702 35.6974 15.2535 34.9395C13.0933 34.289 11.1556 32.627 10.3976 30.2448C10.2858 29.8933 10.1579 29.0945 10.0401 27.9628C9.92485 26.856 9.82487 25.4932 9.75271 24.0583C9.60788 21.1784 9.57763 18.0582 9.75033 16.1585C9.78515 15.7755 9.50286 15.4367 9.11981 15.4019ZM29.881 23.7001C29.8524 24.3081 29.6815 24.8599 29.3879 25.2513C28.6871 26.1857 28.0151 26.5091 27.5308 26.6706C27.4026 26.7133 27.2827 26.7462 27.1644 26.7775C27.15 26.7813 27.1352 26.7852 27.1199 26.7892C27.0211 26.8153 26.9065 26.8454 26.8078 26.8783C26.7018 26.9136 26.524 26.9794 26.3693 27.1135C26.1768 27.2803 26.0573 27.5192 26.0573 27.7966C26.0573 28.2493 26.4145 34.4202 26.5904 37.4112C26.613 37.7951 26.9426 38.0881 27.3265 38.0655C27.7105 38.0429 28.0035 37.7134 27.9809 37.3294C27.8225 34.637 27.5278 29.5386 27.463 28.1393C27.466 28.1385 27.469 28.1377 27.4721 28.1369C27.4876 28.1328 27.5039 28.1285 27.5212 28.1239C27.646 28.0908 27.8003 28.0489 27.9713 27.9919C28.6837 27.7545 29.6074 27.2801 30.5022 26.087C31.0064 25.4147 31.2344 24.5703 31.2723 23.7656C31.3102 22.9593 31.1609 22.1296 30.8411 21.4501C30.5283 20.7854 29.9917 20.1499 29.1949 19.9773C28.3722 19.799 27.545 20.1699 26.7931 20.9217C26.5211 21.1937 26.5211 21.6346 26.7931 21.9066C27.065 22.1786 27.506 22.1786 27.778 21.9067C28.3558 21.3289 28.7254 21.3008 28.9 21.3386C29.1006 21.382 29.3618 21.5776 29.5808 22.0431C29.7929 22.4938 29.9095 23.0935 29.881 23.7001ZM27.2125 28.2131C27.2126 28.2131 27.2136 28.2127 27.2154 28.2118C27.2134 28.2126 27.2125 28.2131 27.2125 28.2131Z" fill="#042040"/>
<path fill-rule="evenodd" clip-rule="evenodd" d="M20.2136 27.3327C20.3727 27.5108 20.4294 27.7581 20.3637 27.9878C20.1713 28.6615 19.7706 29.6674 19.1751 30.5217C18.6 31.3465 17.7092 32.216 16.5029 32.216C15.3955 32.216 14.518 31.6383 13.9036 31.0087C13.289 30.379 12.8706 29.6327 12.665 29.1189C12.5867 28.9231 12.6013 28.7024 12.7047 28.5187C12.8081 28.3349 12.9892 28.2079 13.1972 28.1733L19.5796 27.1095C19.8152 27.0703 20.0545 27.1545 20.2136 27.3327ZM14.3807 29.3881C14.5262 29.6067 14.7004 29.8309 14.9004 30.0359C15.3674 30.5144 15.9082 30.8231 16.5029 30.8231C16.9985 30.8231 17.526 30.4516 18.0325 29.7251C18.2613 29.3969 18.4587 29.0334 18.6204 28.6815L14.3807 29.3881Z" fill="#042040"/>
<path fill-rule="evenodd" clip-rule="evenodd" d="M19.8435 17.8934C19.5315 17.8257 19.1635 17.8405 18.5691 18.0056C18.1986 18.1086 17.8147 17.8917 17.7117 17.5211C17.6087 17.1505 17.8257 16.7666 18.1963 16.6636C18.9101 16.4653 19.524 16.3987 20.139 16.5323C20.742 16.6632 21.2708 16.9713 21.8363 17.3697C22.1507 17.5912 22.226 18.0257 22.0045 18.3401C21.7829 18.6545 21.3485 18.7298 21.034 18.5083C20.5108 18.1396 20.1675 17.9638 19.8435 17.8934ZM13.3121 17.595C13.3352 17.979 13.0427 18.3089 12.6587 18.332C12.1776 18.3609 11.8517 18.4241 11.5199 18.5746C11.1747 18.7312 10.7786 19.0027 10.1953 19.5184C9.90715 19.7731 9.46703 19.746 9.21227 19.4579C8.95751 19.1697 8.9846 18.7296 9.27276 18.4748C9.8964 17.9235 10.4139 17.5469 10.9446 17.3062C11.4887 17.0594 12.0007 16.9762 12.5751 16.9416C12.9591 16.9186 13.289 17.2111 13.3121 17.595Z" fill="#042040"/>
<path fill-rule="evenodd" clip-rule="evenodd" d="M43.1874 33.2037C42.8227 33.3259 42.6261 33.7206 42.7483 34.0853C42.9966 34.8266 43.3449 35.8703 43.5077 36.7102C43.5641 37.0017 43.5897 37.2285 43.5929 37.3906C43.2465 37.3504 43.0153 37.3124 42.8543 37.2716C42.7198 37.2376 42.6698 37.2098 42.6571 37.2012C42.3874 36.9285 41.9477 36.9252 41.6739 37.1942C41.3995 37.4638 41.3956 37.9047 41.6652 38.1791C41.8997 38.4178 42.1932 38.541 42.5122 38.6218C42.8242 38.7009 43.2302 38.7558 43.7537 38.809C44.0536 38.8396 44.3714 38.7618 44.6169 38.518C44.8345 38.3019 44.9188 38.0292 44.9548 37.8203C45.0259 37.4077 44.9638 36.9032 44.8751 36.4452C44.6929 35.5054 44.3162 34.3807 44.0749 33.6605C44.0729 33.6546 44.071 33.6487 44.069 33.6429C43.9468 33.2782 43.5522 33.0815 43.1874 33.2037Z" fill="#042040"/>
<path fill-rule="evenodd" clip-rule="evenodd" d="M38.4349 31.4074C38.7469 31.3396 39.1148 31.3545 39.7092 31.5196C40.0798 31.6226 40.4637 31.4056 40.5666 31.0351C40.6696 30.6645 40.4526 30.2806 40.0821 30.1776C39.3682 29.9793 38.7543 29.9127 38.1393 30.0462C37.5364 30.1772 37.0075 30.4852 36.442 30.8837C36.1276 31.1052 36.0523 31.5397 36.2738 31.8541C36.4954 32.1685 36.9299 32.2438 37.2443 32.0223C37.7676 31.6536 38.1108 31.4777 38.4349 31.4074ZM44.9662 31.109C44.9431 31.4929 45.2357 31.8229 45.6196 31.846C46.1007 31.8749 46.4266 31.9381 46.7584 32.0886C47.1036 32.2452 47.4998 32.5167 48.083 33.0324C48.3712 33.2871 48.8113 33.26 49.0661 32.9719C49.3208 32.6837 49.2937 32.2436 49.0056 31.9888C48.3819 31.4375 47.8644 31.0608 47.3338 30.8201C46.7896 30.5733 46.2776 30.4902 45.7032 30.4556C45.3193 30.4325 44.9893 30.7251 44.9662 31.109ZM38.539 33.0229C38.1543 33.0229 37.8425 33.3347 37.8425 33.7193V34.7769C37.8425 35.1615 38.1543 35.4733 38.539 35.4733C38.9236 35.4733 39.2354 35.1615 39.2354 34.7769V33.7193C39.2354 33.3347 38.9236 33.0229 38.539 33.0229ZM46.6789 33.4761C46.2943 33.4761 45.9825 33.7879 45.9825 34.1726V34.928C45.9825 35.3126 46.2943 35.6244 46.6789 35.6244C47.0635 35.6244 47.3753 35.3126 47.3753 34.928V34.1726C47.3753 33.7879 47.0635 33.4761 46.6789 33.4761Z" fill="#042040"/>
<path fill-rule="evenodd" clip-rule="evenodd" d="M43.8305 18.3807C44.4883 18.6603 44.9736 18.8073 45.3531 18.8073L45.3867 18.8073C46.4431 18.8072 48.5572 18.807 50.3539 19.5976C51.2786 20.0044 52.1531 20.6341 52.7523 21.6066C53.3535 22.5823 53.6366 23.8366 53.4929 25.4173C53.3773 26.6887 52.9827 27.6375 52.2999 28.2412C51.6107 28.8505 50.7469 29.0037 49.9215 28.9336C48.5763 28.8194 47.1296 28.1 46.0504 27.3859C45.1335 28.5716 44.1409 29.1784 42.9118 29.1671C42.2485 29.1609 41.5754 28.9728 40.8862 28.6904C40.4114 28.4959 39.9089 28.2479 39.3756 27.9642C38.9529 28.7044 38.0409 29.4417 36.4479 29.7603C35.1827 30.0133 34.1647 29.5653 33.4315 28.9256C33.4774 30.6098 33.3685 31.6931 33.1185 32.4471C32.7842 33.4556 32.177 33.8805 31.6702 34.2352C31.5802 34.2983 31.4933 34.359 31.4117 34.4205C31.122 34.6387 30.7134 34.598 30.4724 34.327C30.3894 34.2338 30.3152 34.1489 30.246 34.0698C30.1329 33.9405 30.0334 33.8267 29.9316 33.7173C29.772 33.5457 29.6559 33.44 29.5623 33.3771C29.477 33.3198 29.4401 33.3182 29.4303 33.3179C29.4188 33.3176 29.3576 33.3177 29.2219 33.3986C29.1765 33.4257 29.1283 33.4475 29.078 33.4636C29.0712 33.4658 28.9718 33.501 28.8346 33.8119C28.7023 34.1117 28.5945 34.5322 28.4835 35.0689C28.4749 35.1104 28.4626 35.151 28.4467 35.1902C28.2111 35.7695 28.2068 36.1224 28.2826 36.4302C28.37 36.7853 28.5716 37.1361 28.9149 37.7333L28.928 37.7561C29.3429 38.3955 29.7124 38.8039 30.1348 39.1395C30.5716 39.4867 31.0887 39.7758 31.8401 40.1576C32.0942 40.2868 32.244 40.5577 32.2182 40.8415C32.1508 41.5822 31.9845 42.611 31.806 43.7151C31.7423 44.1086 31.6772 44.5116 31.6144 44.9146C31.3701 46.4825 31.1573 48.0728 31.1573 49.2884C31.1573 49.4391 31.1084 49.5857 31.018 49.7063C29.2909 52.0091 26.9147 52.9527 24.7537 52.5669C22.5866 52.1799 20.7934 50.4817 20.2073 47.8439C19.5958 45.0924 21.0068 43.1282 22.4678 41.7368C23.0141 41.2166 23.599 40.7472 24.1017 40.3439C24.2639 40.2137 24.4176 40.0905 24.5586 39.9745C24.8579 39.7285 25.098 39.5184 25.2755 39.3312C25.4607 39.1359 25.5269 39.0172 25.5451 38.9627C25.8076 38.1751 26.0412 37.4678 26.0412 36.3906C26.0412 35.2964 25.7981 33.7796 25.0132 31.4251C24.5752 30.1109 24.5634 28.9725 24.8361 27.9789C25.1065 26.994 25.6421 26.2033 26.2171 25.5564C26.6761 25.0401 27.187 24.5883 27.6161 24.2088C27.7159 24.1205 27.8113 24.0361 27.9006 23.9557C28.1467 23.7343 28.3442 23.5461 28.4931 23.3747C28.6449 23.2 28.7114 23.0813 28.7363 23.0066C29.3067 21.2955 31.0307 17.8455 35.6105 16.7006C37.9532 16.1149 39.9839 16.7115 41.6319 17.3982C42.0437 17.5698 42.4361 17.749 42.8021 17.9174C42.8377 17.9338 42.8731 17.9501 42.9082 17.9663C43.237 18.1177 43.5407 18.2576 43.8305 18.3807Z" fill="#B4D5FA"/>
<path fill-rule="evenodd" clip-rule="evenodd" d="M48.444 41.1531C48.7057 41.115 48.9664 41.2284 49.1169 41.4458C49.9471 42.645 51.1527 44.8361 51.8291 47.0215C52.167 48.1133 52.3868 49.2478 52.3364 50.2782C52.2857 51.3144 51.955 52.3169 51.1177 53.0146C49.587 54.2902 47.3583 54.2811 45.5152 53.8924C44.5695 53.6929 43.6683 53.3826 42.9169 53.0378C42.1807 52.7 41.5334 52.3042 41.1376 51.9083C41.007 51.7777 40.9336 51.6006 40.9336 51.4159V48.2247C40.9336 48.0128 41.03 47.8125 41.1956 47.6803C41.3612 47.5482 41.578 47.4986 41.7846 47.5456C42.123 47.6226 42.5832 47.5768 43.1448 47.3477C43.7006 47.121 44.3106 46.7322 44.9168 46.1955C46.1303 45.1212 47.2651 43.5105 47.8825 41.6255C47.9648 41.3741 48.1824 41.1911 48.444 41.1531Z" fill="#B4D5FA"/>
<path fill-rule="evenodd" clip-rule="evenodd" d="M38.541 39.4751C38.2384 39.7125 38.1855 40.1503 38.4229 40.4529C39.0151 41.208 39.5379 41.7363 40.1272 42.1061C40.7233 42.4802 41.3377 42.6607 42.0544 42.7984C42.4321 42.871 42.7972 42.6236 42.8697 42.2459C42.9423 41.8682 42.6949 41.5031 42.3172 41.4306C41.6778 41.3077 41.2548 41.1694 40.8675 40.9263C40.4734 40.679 40.0668 40.2919 39.5188 39.5933C39.2814 39.2906 38.8437 39.2377 38.541 39.4751Z" fill="#042040"/>
<path fill-rule="evenodd" clip-rule="evenodd" d="M49.0129 28.9157C49.3959 28.8808 49.7347 29.1631 49.7695 29.5462C49.9505 31.5375 49.9539 33.8018 49.8437 35.7841C49.7346 37.7448 49.5106 39.5064 49.2079 40.4578C48.7521 41.8904 47.5293 43.8307 46.3116 45.423C45.695 46.2292 45.0602 46.9719 44.494 47.5425C44.2114 47.8274 43.9373 48.0781 43.6844 48.2743C43.446 48.4593 43.1719 48.6397 42.8945 48.7232C39.7412 49.6729 36.4132 47.6643 34.6577 44.8723C34.453 44.5467 34.551 44.1167 34.8766 43.912C35.2022 43.7073 35.6321 43.8053 35.8368 44.1309C37.4032 46.6222 40.1651 48.0906 42.4929 47.3895C42.4927 47.3896 42.5015 47.3869 42.5202 47.3782C42.5386 47.3696 42.5632 47.3568 42.5943 47.3384C42.6571 47.3011 42.7359 47.2473 42.8305 47.1739C43.0201 47.0268 43.2481 46.8207 43.5053 46.5615C44.0187 46.0441 44.6144 45.3495 45.2051 44.5769C46.402 43.0118 47.5009 41.229 47.8806 40.0355C48.1253 39.2666 48.3444 37.6597 48.453 35.7068C48.5604 33.7756 48.5559 31.5813 48.3824 29.6723C48.3476 29.2892 48.6298 28.9505 49.0129 28.9157ZM28.3971 36.1501C28.4257 36.7581 28.5966 37.3099 28.8902 37.7013C29.591 38.6357 30.263 38.9591 30.7473 39.1205C30.8754 39.1633 30.9954 39.1962 31.1137 39.2275C31.128 39.2313 31.1429 39.2352 31.1581 39.2392C31.2569 39.2652 31.3716 39.2954 31.4703 39.3283C31.5763 39.3636 31.754 39.4294 31.9087 39.5635C32.1012 39.7303 32.2207 39.9692 32.2207 40.2466C32.2207 40.6993 31.8636 46.8702 31.6877 49.8612C31.6651 50.2451 31.3355 50.5381 30.9515 50.5155C30.5676 50.4929 30.2746 50.1634 30.2972 49.7794C30.4556 47.087 30.7503 41.9886 30.8151 40.5893C30.8121 40.5885 30.809 40.5877 30.806 40.5869C30.7905 40.5828 30.7742 40.5785 30.7569 40.5739C30.6321 40.5408 30.4778 40.4989 30.3068 40.4419C29.5944 40.2045 28.6707 39.7301 27.7759 38.537C27.2717 37.8647 27.0437 37.0203 27.0058 36.2155C26.9678 35.4093 27.1172 34.5796 27.437 33.9001C27.7498 33.2354 28.2864 32.5999 29.0831 32.4273C29.9059 32.249 30.733 32.6198 31.485 33.3717C31.7569 33.6437 31.757 34.0846 31.485 34.3566C31.213 34.6286 30.7721 34.6286 30.5001 34.3567C29.9222 33.7788 29.5526 33.7507 29.3781 33.7886C29.1775 33.832 28.9163 34.0276 28.6972 34.4931C28.4852 34.9438 28.3686 35.5435 28.3971 36.1501ZM31.0655 40.6631C31.0655 40.6631 31.0645 40.6627 31.0627 40.6618C31.0647 40.6626 31.0656 40.6631 31.0655 40.6631Z" fill="#042040"/>
</svg>
