<svg xmlns="http://www.w3.org/2000/svg" width="55" height="46" viewBox="0 0 55 46" fill="none">
    <path d="M6.37266 12.6433C6.3276 14.6 6.79912 16.5343 7.74049 18.2547C8.09791 18.9079 8.51835 19.5217 8.99434 20.0882L9.70304 21.0001C11.5919 20.3334 16.7697 19.4667 22.3697 21.3334L23.0364 21.0001C23.2954 18.2159 26.9938 15.6215 28.8106 14.6724C28.846 14.3278 29.0364 13.2921 29.0364 12.8967C29.0359 10.9396 28.5194 9.01653 27.5382 7.3181C26.5571 5.61968 25.1452 4.20481 23.4425 3.21368C21.7398 2.22254 19.8054 1.68954 17.8309 1.66746C15.8564 1.64539 13.9103 2.13502 12.1855 3.08784C10.4607 4.04066 9.01694 5.4236 7.99736 7.09966C6.97778 8.77571 6.41772 10.6867 6.37266 12.6433Z" fill="white" stroke="#042040" stroke-width="1.46667" stroke-linejoin="round"/>
    <path d="M17.7473 7.34811C17.1107 8.60548 16.6088 9.96166 16.4374 10.4826C15.5297 10.3052 14.0878 10.4713 13.3396 10.581C14.0416 11.3834 15.1886 12.5842 15.9559 13.0753C15.5315 13.9135 15.1928 15.6769 14.9357 16.4583C16.0426 15.8045 17.4185 14.7471 17.9681 14.3001C18.6636 14.8965 20.5545 15.8503 21.413 16.2526C21.155 15.2298 20.4836 13.6188 20.1802 12.9411C21.2805 12.0814 22.0861 10.8187 22.3514 10.2948C21.6689 10.1102 20.0018 10.2835 19.2536 10.3931C18.7637 9.17156 18.0453 7.85413 17.7473 7.34811Z" fill="#FFC746" stroke="#FFC746" stroke-width="1.32991" stroke-linecap="round" stroke-linejoin="round"/>
    <path d="M10.2327 39.0305C-1.17009 36.1282 -3.06971 22.712 13.1786 20.5003C31.5043 18.0026 38.5745 41.4634 15.1392 40.1633C13.7119 44.3333 8.02831 44.9806 8.02831 44.9806C8.02831 44.9806 10.7254 41.1559 10.2327 39.0305Z" fill="white" stroke="#042040" stroke-width="1.57511" stroke-linecap="round" stroke-linejoin="round"/>
    <path d="M6.69508 28.3612C10.898 34.4429 17.0458 33.4736 18.9463 29.24C20.8467 25.0063 13.8287 24.9441 14.5488 29.3898C15.269 33.8356 20.8514 35.231 22.8989 32.3458" fill="white"/>
    <path d="M6.69508 28.3612C10.898 34.4429 17.0458 33.4736 18.9463 29.24C20.8467 25.0063 13.8287 24.9441 14.5488 29.3898C15.269 33.8356 20.8514 35.231 22.8989 32.3458" stroke="#042040" stroke-width="1.57511" stroke-linecap="round" stroke-linejoin="round"/>
    <path d="M44.8581 35.4035C57.5121 32.358 58.0434 14.1411 40.0122 11.8201C19.6756 9.19915 12.976 37.3046 38.983 35.9403C40.5668 40.3161 47.3043 41.6475 47.3043 41.6475C47.3043 41.6475 44.3113 37.6339 44.8581 35.4035Z" fill="white" stroke="#042040" stroke-width="1.46667" stroke-linecap="round" stroke-linejoin="round"/>
    <path d="M39.3955 14.4534C53.9247 16.2988 53.4966 30.7825 43.3003 33.2039C42.6439 33.3461 40.4217 33.5697 38.5662 33.6306C17.0778 34.3363 23.0088 12.3696 39.3955 14.4534Z" fill="#FFDC89"/>
    <path d="M29.3328 29.3141L33.6661 24.3141L37.9994 28.6475L45.3328 19.6475M45.3328 19.6475C45.3328 19.6475 44.3328 20.3141 42.6661 20.3141M45.3328 19.6475C45.3328 19.6475 44.9994 20.9808 45.3328 22.3141" stroke="#042040" stroke-width="1.57333" stroke-linecap="round" stroke-linejoin="round"/>
</svg>