<svg width="40" height="40" viewBox="0 0 40 40" fill="none" xmlns="http://www.w3.org/2000/svg">
<path d="M16.648 3.32746C17.2052 3.24781 21.9116 2.62728 28.7591 3.33563C26.3258 10.1322 24.8993 13.7402 24.8993 13.7402C24.8993 13.7402 29.1786 13.4046 32.3672 13.7402C32.3672 13.7402 28.5885 21.6697 20.8661 32.3196C20.5933 32.696 20.098 33.2512 19.9995 33.3333C19.9009 33.4155 19.4661 33.8207 19.0258 34.046C17.6522 34.7488 14.2104 36.7479 13.8821 36.8336C14.0331 36.7848 14.1766 36.6861 14.2925 36.5292C15.5015 34.8919 16.6223 33.3079 17.6549 31.7964C23.6983 22.95 21.8132 26.1124 26.72 16.5885C23.5315 16.2529 19.2522 16.5885 19.2522 16.5885C19.2522 16.5885 20.6786 12.9805 23.112 6.18391C15.812 5.42874 10.9453 6.18391 10.9453 6.18391C11.6653 5.68544 14.7424 3.89516 16.5386 3.35175C16.5745 3.34088 16.6108 3.33277 16.648 3.32746Z" fill="#61DCD6"/>
<path d="M28.7591 3.33563C21.9116 2.62728 17.2052 3.24781 16.648 3.32746C16.6108 3.33277 16.5745 3.34088 16.5386 3.35175C14.7424 3.89516 11.6653 5.68544 10.9453 6.18391C10.9453 6.18391 15.812 5.42874 23.112 6.18391M28.7591 3.33563C26.3258 10.1322 24.8993 13.7402 24.8993 13.7402M28.7591 3.33563C27.2823 3.80551 23.979 5.65249 23.112 6.18391M24.8993 13.7402C24.8993 13.7402 29.1787 13.4046 32.3672 13.7402M24.8993 13.7402C23.0198 14.4115 19.9514 16.141 19.2522 16.5885M32.3672 13.7402C31.226 14.5457 26.72 16.5885 26.72 16.5885M32.3672 13.7402C32.3672 13.7402 28.5885 21.6697 20.8661 32.3196C20.5933 32.696 20.098 33.2512 19.9995 33.3333C19.9009 33.4155 19.4661 33.8207 19.0258 34.046C17.6522 34.7488 14.2104 36.7479 13.8821 36.8336C14.0331 36.7848 14.1766 36.6861 14.2925 36.5292C15.5015 34.8919 16.6223 33.3079 17.6549 31.7964C23.6983 22.95 21.8132 26.1125 26.72 16.5885M23.112 6.18391C20.6786 12.9805 19.2522 16.5885 19.2522 16.5885M19.2522 16.5885C19.2522 16.5885 23.5315 16.2529 26.72 16.5885" stroke="#1AB2AA" stroke-width="0.933333" stroke-linejoin="round"/>
<path d="M22.0456 6.03402C16.7274 5.57326 12.8613 5.90744 11.4906 6.06521C11.1579 6.10351 10.8913 6.34621 10.8079 6.6706C8.91585 14.0365 7.50233 20.7419 7.01722 23.106C6.9177 23.5911 7.26079 24.0462 7.75509 24.0748C8.93291 24.143 11.1748 24.2199 14.095 24.0738C14.6573 24.0457 15.097 24.5621 14.9736 25.1114C14.0148 29.3816 13.3051 33.2966 12.8714 35.8787C12.7285 36.7294 13.7823 37.1725 14.2947 36.4787C20.8711 27.5726 24.8371 20.2412 26.1927 17.5971C26.4567 17.0822 26.1174 16.4792 25.5396 16.4467C23.7498 16.3461 21.8336 16.4007 20.5936 16.4599C19.9738 16.4895 19.5162 15.8663 19.7381 15.2868C20.3012 13.8169 21.3365 11.0716 22.7503 7.14466C22.9347 6.63243 22.588 6.08101 22.0456 6.03402Z" fill="url(#paint0_linear_3164_155530)" stroke="#1AB2AA" stroke-width="0.933333" stroke-linejoin="round"/>
<defs>
<linearGradient id="paint0_linear_3164_155530" x1="7.6" y1="12.9515" x2="22.7146" y2="30.4555" gradientUnits="userSpaceOnUse">
<stop stop-color="white"/>
<stop offset="1" stop-color="#5AE6DF"/>
</linearGradient>
</defs>
</svg>
