<svg width="40" height="40" viewBox="0 0 40 40" fill="none" xmlns="http://www.w3.org/2000/svg">
<path d="M29.7395 31.6135C28.4965 29.1444 23.0319 18.4062 18.2721 10.8937C18.1112 10.6396 18.14 10.3097 18.3482 10.0927C20.0621 8.30666 21.5787 7.50494 22.2954 7.19547C22.5542 7.08372 22.8407 7.17844 23.0017 7.40985C24.2686 9.23057 29.7885 17.4079 34.5616 28.3017C34.6662 28.5404 34.6222 28.8214 34.4426 29.0102C32.8778 30.6559 31.329 31.5271 30.5391 31.9022C30.2357 32.0463 29.8905 31.9135 29.7395 31.6135Z" fill="#D3DAE2"/>
<path d="M6.95811 32.2264C6.49439 32.184 6.21774 31.6976 6.42733 31.2817C8.10568 27.952 14.3331 15.7378 18 10.4667C23.4667 19 30 32.1333 30 32.1333C30 32.1333 18.3318 33.2686 6.95811 32.2264Z" fill="url(#paint0_linear_3151_109105)"/>
<path d="M6.95811 32.2264C6.49439 32.184 6.21774 31.6976 6.42733 31.2817C8.10568 27.952 14.3331 15.7378 18 10.4667C23.4667 19 30 32.1333 30 32.1333C30 32.1333 18.3318 33.2686 6.95811 32.2264Z" fill="url(#paint1_linear_3151_109105)"/>
<path d="M30 32.1333C30 32.1333 23.4667 19 18 10.4667M30 32.1333C30 32.1333 18.3318 33.2686 6.95811 32.2264C6.49439 32.184 6.21774 31.6976 6.42733 31.2817C8.10568 27.952 14.3331 15.7378 18 10.4667M30 32.1333C30 32.1333 32.2323 31.3371 34.4723 28.9814C34.6519 28.7925 34.6959 28.5116 34.5914 28.2729C29.8215 17.3866 24.3059 9.21306 23.034 7.38483C22.8719 7.15171 22.5824 7.05698 22.3222 7.17077C21.5498 7.50857 19.8564 8.41481 18 10.4667" stroke="#768699" stroke-width="1.06667" stroke-linecap="round" stroke-linejoin="round"/>
<defs>
<linearGradient id="paint0_linear_3151_109105" x1="-4.83631" y1="8.04762" x2="22.3891" y2="48.3342" gradientUnits="userSpaceOnUse">
<stop offset="0.39821" stop-color="white"/>
<stop offset="0.621155" stop-color="#C8CED6"/>
<stop offset="0.734437" stop-color="#B5BDC8"/>
</linearGradient>
<linearGradient id="paint1_linear_3151_109105" x1="6" y1="15.5333" x2="14.3017" y2="35.8037" gradientUnits="userSpaceOnUse">
<stop offset="0.360342" stop-color="white"/>
<stop offset="0.931989" stop-color="#B5BDC8"/>
</linearGradient>
</defs>
</svg>
