<svg width="40" height="40" viewBox="0 0 40 40" fill="none" xmlns="http://www.w3.org/2000/svg">
<path d="M18.8415 5.27292C14.1638 11.2133 10.4346 17.7365 9.3326 19.7252C9.1218 20.1055 9.1168 20.563 9.32087 20.947C10.3964 22.9711 14.0775 29.6393 18.863 35.4749C19.382 36.1078 20.3458 36.1014 20.8602 35.4647C26.0003 29.1039 29.2819 22.8062 30.2213 20.9091C30.4007 20.5466 30.3952 20.1226 30.208 19.7641C29.2327 17.8961 25.8653 11.7045 20.8817 5.28246C20.3642 4.61569 19.3637 4.60983 18.8415 5.27292Z" fill="url(#paint0_linear_3151_109103)"/>
<path d="M9 20.3333C9 20.3333 13.7667 11.4 19.8667 4M9 20.3333C9 20.3333 13.6333 29.4667 19.8667 36.6667M9 20.3333L15.2719 23.6M30.7333 20.3333C30.7333 20.3333 25.5667 10.8667 19.8667 4M30.7333 20.3333C30.7333 20.3333 26.7 28.4667 19.8667 36.6667M30.7333 20.3333L24.4614 23.6M19.8667 4C16.7667 14.9333 15.2719 23.6 15.2719 23.6M19.8667 4C22.8333 14.7333 24.4614 23.6 24.4614 23.6M19.8667 36.6667C17.1 30 15.2719 23.6 15.2719 23.6M19.8667 36.6667C22.5 30.2 24.4614 23.6 24.4614 23.6M24.4614 23.6H15.2719" stroke="#BA7C06" stroke-width="1.06667" stroke-linecap="round" stroke-linejoin="round"/>
<defs>
<linearGradient id="paint0_linear_3151_109103" x1="0.9" y1="5.33333" x2="40.9" y2="33.7333" gradientUnits="userSpaceOnUse">
<stop offset="0.292111" stop-color="white"/>
<stop offset="0.624072" stop-color="#FFC746"/>
</linearGradient>
</defs>
</svg>
