<svg width="40" height="40" viewBox="0 0 40 40" fill="none" xmlns="http://www.w3.org/2000/svg">
<path d="M28.222 21.2871C28.222 21.2871 22.6673 11.6667 17.6113 5.90754C20.4006 4.46667 23.0955 4 23.0955 4C29.0006 11.1333 33.7062 19.3796 33.7062 19.3796C29.4006 26.6667 23.0955 34.7591 23.0955 34.7591C20.4673 36.0667 17.6113 36.6667 17.6113 36.6667C23.734 29.1333 28.222 21.2871 28.222 21.2871Z" fill="#7FB5F1"/>
<path d="M17.6107 5.90754C12.7658 11.71 8.6236 18.5283 7.38044 20.6346C7.14089 21.0404 7.14081 21.5334 7.38072 21.939C8.6077 24.0138 12.6675 30.679 17.6107 36.6667C23.7333 29.1333 28.2214 21.2871 28.2214 21.2871C28.2214 21.2871 22.6667 11.6667 17.6107 5.90754Z" fill="url(#paint0_linear_3151_109104)"/>
<path d="M17.6107 5.90754C12.7658 11.71 8.6236 18.5283 7.38044 20.6346C7.14089 21.0404 7.14081 21.5334 7.38072 21.939C8.6077 24.0138 12.6675 30.679 17.6107 36.6667M17.6107 5.90754C22.6667 11.6667 28.2214 21.2871 28.2214 21.2871M17.6107 5.90754C19.5 4.93156 21.3461 4.40256 22.3406 4.16279C22.8054 4.05075 23.2836 4.22668 23.585 4.59783C29.2582 11.5858 33.7056 19.3796 33.7056 19.3796M28.2214 21.2871C28.2214 21.2871 23.7333 29.1333 17.6107 36.6667M28.2214 21.2871C31.2667 20.6 33.7056 19.3796 33.7056 19.3796M17.6107 36.6667C17.6107 36.6667 20.273 36.1074 22.8222 34.8919C23.0024 34.806 23.1559 34.6809 23.2777 34.5228C24.3425 33.14 29.8329 25.934 33.7056 19.3796" stroke="#0F6FDE" stroke-width="1.06667" stroke-linecap="round" stroke-linejoin="round"/>
<defs>
<linearGradient id="paint0_linear_3151_109104" x1="7.83093" y1="11.5311" x2="22.5934" y2="34.0146" gradientUnits="userSpaceOnUse">
<stop offset="0.159728" stop-color="white"/>
<stop offset="0.908532" stop-color="#4A94E8"/>
</linearGradient>
</defs>
</svg>
