<svg xmlns="http://www.w3.org/2000/svg" width="41" height="46" viewBox="0 0 41 46" fill="none">
    <path fill-rule="evenodd" clip-rule="evenodd" d="M13.2879 0.839122C13.5775 0.555974 14.0418 0.56119 14.3249 0.850774C14.929 1.46859 15.8513 2.4672 16.6627 3.46422C17.068 3.96229 17.4538 4.46985 17.76 4.93558C18.053 5.38127 18.321 5.8585 18.4241 6.28024C18.5202 6.67366 18.2792 7.07056 17.8858 7.16673C17.4924 7.2629 17.0955 7.02193 16.9993 6.6285C16.9602 6.46842 16.8163 6.1699 16.5345 5.74134C16.2659 5.33283 15.9139 4.86766 15.5251 4.38998C14.7484 3.43548 13.8573 2.47045 13.2762 1.87615C12.9931 1.58656 12.9983 1.12227 13.2879 0.839122ZM10.0673 2.31459C10.3454 2.02009 10.8095 2.00673 11.104 2.28476C11.8844 3.02148 13.0723 4.19944 14.1052 5.34515C14.621 5.91724 15.1074 6.49146 15.4869 7.00473C15.8432 7.48655 16.1806 8.01155 16.2907 8.46206C16.3869 8.85548 16.1459 9.25238 15.7525 9.34855C15.3591 9.44472 14.9622 9.20375 14.866 8.81032C14.8339 8.67901 14.6706 8.36765 14.3076 7.87673C13.9679 7.41728 13.5164 6.88241 13.0159 6.32723C12.0162 5.21839 10.8575 4.06908 10.0972 3.35125C9.80266 3.07322 9.78931 2.6091 10.0673 2.31459ZM20.5579 8.61935C20.298 9.29999 19.8731 9.99093 19.1122 10.38C18.5062 10.6899 18.2682 11.1577 18.1979 11.6567C18.1225 12.1912 18.2488 12.7477 18.388 13.08C18.5446 13.4536 18.3687 13.8833 17.9951 14.0398C17.6216 14.1963 17.1919 14.0204 17.0353 13.6469C16.819 13.1307 16.6253 12.3054 16.7455 11.4521C16.8708 10.5631 17.3438 9.63702 18.4445 9.07418C18.7503 8.91781 18.992 8.60875 19.1877 8.09621C19.3854 7.57845 19.4978 6.95696 19.6108 6.28701C19.6176 6.24681 19.6244 6.20622 19.6312 6.16531C19.7309 5.57073 19.8419 4.90822 20.0471 4.39321C20.1602 4.10932 20.3249 3.80642 20.5855 3.57052C20.865 3.31748 21.218 3.17558 21.6228 3.17558C22.4906 3.17558 23.0028 3.79831 23.2836 4.40955C23.5648 5.0215 23.7193 5.82025 23.8176 6.63978C23.9175 7.47318 23.9665 8.39936 24.0055 9.29763C24.0139 9.49152 24.0218 9.6838 24.0296 9.87384C24.0585 10.5753 24.0861 11.2461 24.1319 11.8539C24.1622 12.2578 23.8595 12.6098 23.4556 12.6402C23.0517 12.6706 22.6997 12.3678 22.6693 11.9639C22.6215 11.3287 22.5926 10.6246 22.5635 9.91965C22.5559 9.7331 22.5482 9.5465 22.5402 9.36111C22.5013 8.46393 22.454 7.58708 22.3614 6.81441C22.267 6.02788 22.1327 5.41755 21.9509 5.02191C21.7749 4.63882 21.6523 4.6416 21.6253 4.64221C21.6243 4.64223 21.6235 4.64225 21.6228 4.64225C21.5865 4.64225 21.5813 4.64713 21.5724 4.65542C21.5716 4.65619 21.5707 4.65699 21.5698 4.65782C21.5401 4.6847 21.4799 4.75965 21.4096 4.93598C21.2644 5.3005 21.1766 5.82131 21.0622 6.50003L21.057 6.53082C20.9478 7.17906 20.8158 7.94392 20.5579 8.61935ZM7.93225 4.8619C8.20926 4.56643 8.67334 4.55146 8.9688 4.82847C9.68778 5.5025 10.8008 6.58566 11.8087 7.65019C12.3123 8.18215 12.7956 8.71562 13.1921 9.19471C13.5767 9.65924 13.9201 10.12 14.1038 10.4959C14.2817 10.8598 14.131 11.2989 13.7671 11.4768C13.4033 11.6547 12.9641 11.5039 12.7862 11.1401C12.6855 10.9342 12.4423 10.5889 12.0623 10.1299C11.6945 9.68555 11.2355 9.1781 10.7436 8.65855C9.76038 7.62004 8.66894 6.55775 7.96569 5.89845C7.67022 5.62145 7.65525 5.15737 7.93225 4.8619ZM6.91952 8.08269C7.22521 7.81701 7.68839 7.84944 7.95408 8.15513C8.90295 9.24687 11.1613 11.8724 12.5913 13.6275C13.4923 14.7333 14.0375 15.3548 14.752 15.7779C15.457 16.1953 16.3946 16.4552 18.1419 16.6339C18.5448 16.6751 18.838 17.0352 18.7968 17.4381C18.7556 17.841 18.3955 18.1342 17.9926 18.093C16.1844 17.9081 14.9886 17.6225 14.0047 17.0399C13.0304 16.463 12.331 15.63 11.4543 14.554C10.0399 12.8181 7.79451 10.2073 6.84709 9.11725C6.5814 8.81156 6.61383 8.34838 6.91952 8.08269Z" fill="#042040"/>
    <path d="M25.6798 12.6968C23.2096 14.2654 20.019 17.7948 18.7324 19.3634C20.8938 22.8144 22.978 25.2458 23.75 26.0301H33.3991V21.7164L25.6798 12.6968Z" fill="#FFC746"/>
    <path fill-rule="evenodd" clip-rule="evenodd" d="M25.2876 12.0779C25.5956 11.8823 26.0006 11.9429 26.2379 12.2202L33.9572 21.2398C34.0709 21.3726 34.1333 21.5417 34.1333 21.7166V26.0303C34.1333 26.4353 33.805 26.7637 33.4 26.7637H23.7509C23.5544 26.7637 23.3661 26.6848 23.2282 26.5447C22.4151 25.7185 20.2985 23.2442 18.1118 19.7529C17.9447 19.486 17.9666 19.1421 18.1663 18.8986C19.4546 17.3279 22.7091 13.7153 25.2876 12.0779ZM19.639 19.423C21.494 22.3182 23.243 24.4143 24.0646 25.297H32.6667V21.9876L25.5493 13.6713C23.4632 15.1659 20.9626 17.8618 19.639 19.423Z" fill="#FFC746"/>
    <path d="M9.50218 30.8519C11.4732 30.5473 29.0164 30.1935 39.0005 31.2463V34.7251C39.0005 35.4569 38.7625 36.1655 38.3095 36.7403C36.5454 38.979 31.9228 44.6753 30.6293 44.5865C24.4328 44.9271 6.93917 44.3853 2.28201 44.2311C1.61587 44.2091 1.08109 43.6979 1.01407 43.0348L0.732422 40.2482C2.4598 37.356 6.63208 33.6915 9.50218 30.8519Z" fill="white"/>
    <path fill-rule="evenodd" clip-rule="evenodd" d="M36.5185 10.0302C36.5185 9.6252 36.8468 9.29688 37.2519 9.29688H39.4C39.6016 9.29688 39.7944 9.37989 39.9329 9.52641C40.0714 9.67292 40.1435 9.87001 40.1322 10.0713C40.0003 12.4192 39.7347 20.5266 39.7347 31.2462V34.725C39.7347 35.6163 39.4445 36.4859 38.8864 37.1941C38.0013 38.3173 36.392 40.3171 34.8366 42.0293C34.0609 42.8832 33.2837 43.6821 32.6079 44.2672C32.2713 44.5585 31.9413 44.8133 31.6356 44.996C31.375 45.1518 31.0163 45.3282 30.6362 45.3205C24.3691 45.6595 6.88873 45.1173 2.25866 44.964C1.21684 44.9295 0.388434 44.1282 0.285368 43.1084L0.00371808 40.3218C-0.0121275 40.1651 0.022946 40.0074 0.103743 39.8721C1.01714 38.3427 2.54852 36.6492 4.16879 35.0141C5.09731 34.077 6.09858 33.1174 7.04739 32.208C7.64265 31.6375 8.21726 31.0867 8.74032 30.5738C8.59928 28.9886 8.37113 25.4036 8.37113 23.0452C8.37113 22.6402 8.69946 22.3119 9.10447 22.3119C9.50948 22.3119 9.8378 22.6402 9.8378 23.0452C9.8378 25.1736 10.03 28.357 10.1678 30.0503C10.9329 29.9951 12.0968 29.9446 13.5187 29.9039C15.6044 29.8441 18.3014 29.8041 21.248 29.8067C26.8241 29.8115 33.322 29.9685 38.2685 30.4361C38.2802 21.0495 38.4924 13.7625 38.6291 10.7635H37.2519C36.8468 10.7635 36.5185 10.4352 36.5185 10.0302ZM37.6697 31.854C32.855 31.4257 26.6394 31.278 21.2467 31.2733C18.3131 31.2708 15.6306 31.3106 13.5607 31.3699C11.744 31.422 10.44 31.4883 9.84048 31.5491C9.2616 32.1184 8.65107 32.7031 8.02582 33.302C7.10138 34.1874 6.14476 35.1037 5.2106 36.0464C3.95982 37.3087 2.82705 38.5437 2.00157 39.6697C2.92482 39.7577 4.19521 39.8363 5.72168 39.905C8.01578 40.0081 10.8391 40.0868 13.8228 40.1459C19.6218 40.2608 26.0119 40.3013 30.2669 40.3035C32.5767 37.2828 34.4161 35.2895 35.7802 33.8604C35.9869 33.6439 36.1806 33.4424 36.3621 33.2536C36.8037 32.7943 37.1735 32.4097 37.4844 32.0639C37.5499 31.991 37.6116 31.9212 37.6697 31.854ZM29.8969 41.7698C25.6405 41.7656 19.4392 41.7242 13.7937 41.6123C10.8046 41.5531 7.9675 41.4741 5.65581 41.3702C3.98762 41.2952 2.56648 41.2063 1.55638 41.0987L1.7446 42.961C1.77558 43.2675 2.01674 43.4885 2.30718 43.4981C6.81791 43.6474 23.2182 44.1549 29.8969 43.8868V41.7698ZM31.3636 43.3952C31.4529 43.324 31.5478 43.245 31.6479 43.1583C32.2577 42.6303 32.989 41.8819 33.7511 41.043C35.2713 39.3696 36.8554 37.4019 37.7344 36.2864C38.0823 35.845 38.268 35.2974 38.268 34.725V33.3792C38.0091 33.6569 37.7183 33.9593 37.4004 34.2899C37.2222 34.4752 37.0355 34.6694 36.8411 34.8731C35.4872 36.2916 33.6631 38.2685 31.3636 41.284V43.3952ZM35.1037 14.603C35.5087 14.603 35.837 14.9313 35.837 15.3363L35.837 27.0098C35.837 27.2075 35.7572 27.3969 35.6156 27.5349C35.474 27.6729 35.2827 27.7479 35.085 27.7429C22.3291 27.4173 16.313 27.6078 14.0231 27.7419C13.6188 27.7656 13.2718 27.457 13.2482 27.0527C13.2245 26.6484 13.5331 26.3014 13.9374 26.2777C16.2382 26.143 22.1072 25.9581 34.3704 26.2579L34.3704 15.3363C34.3704 14.9313 34.6987 14.603 35.1037 14.603Z" fill="#042040"/>
    <path fill-rule="evenodd" clip-rule="evenodd" d="M30.0543 4.68433C30.4294 4.46505 30.9112 4.59135 31.1305 4.96643C31.5562 5.69465 32.492 7.57766 32.8389 9.35772C32.922 9.78416 32.6436 10.1972 32.2172 10.2803C31.7907 10.3634 31.3777 10.0851 31.2946 9.65866C30.9953 8.12294 30.1542 6.41384 29.7722 5.76048C29.5529 5.38541 29.6792 4.9036 30.0543 4.68433ZM27.0754 6.04344C27.3866 5.74024 27.8846 5.74671 28.1878 6.05789C28.7109 6.59476 29.0599 7.34603 29.3202 8.04052C29.4988 8.51714 29.6594 9.03817 29.8031 9.504C29.8682 9.71514 29.9298 9.91494 29.988 10.0941C30.1222 10.5074 29.896 10.9511 29.4828 11.0853C29.0696 11.2195 28.6258 10.9934 28.4916 10.5801C28.4184 10.3546 28.3491 10.1296 28.2801 9.90539C28.1443 9.46449 28.0095 9.0264 27.8469 8.59264C27.6024 7.94009 27.3456 7.44793 27.061 7.15586C26.7578 6.84469 26.7642 6.34664 27.0754 6.04344ZM3.46887 13.464C3.75126 13.1338 4.24784 13.0951 4.57802 13.3775C4.96823 13.7112 5.6172 14.2359 6.28285 14.7148C6.97582 15.2134 7.59571 15.5946 7.95596 15.7178C8.36703 15.8585 8.58627 16.3057 8.44564 16.7168C8.30501 17.1278 7.85777 17.3471 7.44669 17.2065C6.83771 16.9981 6.04414 16.4813 5.36403 15.992C4.65661 15.4831 3.97288 14.9302 3.5554 14.5731C3.22523 14.2907 3.18649 13.7942 3.46887 13.464ZM4.57836 18.1754C4.77671 17.7888 5.25086 17.6363 5.63741 17.8346C5.8729 17.9555 6.30047 18.1469 6.77886 18.3063C7.269 18.4696 7.7465 18.5768 8.10517 18.5768C8.53964 18.5768 8.89184 18.929 8.89184 19.3635C8.89184 19.7979 8.53964 20.1501 8.10517 20.1501C7.49461 20.1501 6.82788 19.981 6.28148 19.7989C5.72334 19.6129 5.22206 19.3899 4.91909 19.2344C4.53255 19.036 4.38 18.5619 4.57836 18.1754Z" fill="#FFC746"/>
    <path d="M31.0669 33.779C27.3137 33.4194 13.9151 33.2332 11.2846 33.4677C11.2846 33.4677 8.35931 36.5204 8.06689 37.2235C8.69316 37.2235 15.2194 37.4712 17.1477 37.4712C18.4002 37.4712 26.6831 37.7189 28.0807 37.7189C28.5618 37.0637 31.0669 33.779 31.0669 33.779Z" fill="#FFDC89"/>
    <path fill-rule="evenodd" clip-rule="evenodd" d="M11.6203 34.1779C11.5485 34.2537 11.4593 34.3483 11.3569 34.4574C11.0801 34.7524 10.7088 35.1523 10.3291 35.5732C10.0389 35.8947 9.7469 36.2253 9.48961 36.5289C9.83221 36.5397 10.2188 36.5523 10.6321 36.5657C11.1086 36.5812 11.6206 36.5978 12.1415 36.6144C14.0977 36.6765 16.1973 36.7379 17.1469 36.7379C17.7658 36.7379 20.0375 36.7964 22.3549 36.8562L22.5779 36.862C24.664 36.9157 26.7466 36.969 27.714 36.9824C28.0568 36.5252 28.6338 35.7644 29.1696 35.0595C29.3408 34.8343 29.5082 34.6142 29.6631 34.4106C27.4987 34.2821 24.0864 34.1839 20.7429 34.1338C16.8436 34.0753 13.1181 34.0836 11.6203 34.1779ZM31.6492 34.2236C31.8107 34.0119 31.8447 33.7293 31.7381 33.4854C31.6315 33.2414 31.4011 33.0743 31.136 33.049C29.2252 32.8659 24.9078 32.7294 20.7649 32.6673C16.6314 32.6053 12.5805 32.6158 11.2187 32.7372C11.042 32.753 10.877 32.8322 10.7543 32.9603L11.2838 33.4677C10.7543 32.9603 10.7543 32.9603 10.7543 32.9603L10.7203 32.9959L10.6257 33.0953C10.5443 33.181 10.4279 33.3041 10.2873 33.4539C10.0065 33.7532 9.62825 34.1605 9.24012 34.5907C8.85309 35.0196 8.45108 35.4771 8.12488 35.8754C7.96208 36.0741 7.81291 36.2646 7.69211 36.4333C7.5813 36.588 7.46018 36.7707 7.38899 36.9419C7.29487 37.1682 7.32004 37.4266 7.45607 37.6305C7.5921 37.8344 7.821 37.9568 8.0661 37.9568C8.28065 37.9568 9.25764 37.9886 10.523 38.0297C11.013 38.0456 11.5461 38.0629 12.095 38.0803C14.0405 38.1421 16.1683 38.2045 17.1469 38.2045C17.7463 38.2045 20.0188 38.2631 22.3701 38.3238L22.5401 38.3281C24.9339 38.3898 27.3687 38.4522 28.0799 38.4522C28.3134 38.4522 28.5328 38.3411 28.671 38.1529C28.907 37.8315 29.6487 36.8529 30.3373 35.947C30.6803 35.4957 31.0083 35.0648 31.2505 34.7468L31.6492 34.2236Z" fill="#FFDC89"/>
</svg>