<svg xmlns="http://www.w3.org/2000/svg" width="51" height="58" viewBox="0 0 51 58" fill="none">
    <path d="M16.4954 14.3333C11.0182 14.9098 4.2438 16.8556 1.00073 18.6573C1.36107 22.9814 3.88346 31.5212 5.32482 34.152C6.40584 34.152 10.0092 33.071 10.6234 32.76C10.4187 31.7826 10.3696 29.8279 12.1713 29.4675C13.8907 29.1237 14.8138 30.7165 15.054 31.5212C16.8557 31.2692 20.0988 30.1882 20.8195 29.8279C20.3748 27.6933 19.8729 25.6183 19.3668 23.7021C18.6499 23.9423 17.0719 23.9904 16.4954 22.2607C15.9188 20.5311 17.356 19.6182 18.1466 19.378C17.4662 17.1134 16.8648 15.336 16.4954 14.3333Z" fill="white"/>
    <path fill-rule="evenodd" clip-rule="evenodd" d="M16.4185 13.6042C16.7523 13.569 17.0674 13.765 17.1834 14.0799C17.5592 15.0998 18.1652 16.8918 18.8489 19.1672C18.9651 19.5542 18.7464 19.9624 18.3597 20.0799C18.0647 20.1695 17.648 20.3908 17.3771 20.7239C17.1384 21.0171 16.9874 21.4182 17.191 22.029C17.4041 22.6684 17.7642 22.9161 18.0975 23.0205C18.4749 23.1387 18.8872 23.0896 19.1337 23.007C19.326 22.9425 19.5364 22.9606 19.7148 23.0569C19.8933 23.1531 20.024 23.319 20.0757 23.515C20.5846 25.4416 21.0896 27.5294 21.5373 29.6785C21.6052 30.0044 21.4451 30.3351 21.1474 30.484C20.7263 30.6945 19.6816 31.0702 18.5579 31.4162C17.4235 31.7656 16.1166 32.1133 15.1555 32.2477C14.7966 32.2979 14.4549 32.0784 14.3513 31.7312C14.2588 31.4214 14.0243 30.9425 13.6599 30.5934C13.3189 30.2666 12.8921 30.0714 12.315 30.1868C11.735 30.3029 11.4776 30.6375 11.35 31.084C11.2082 31.5804 11.2513 32.1811 11.3411 32.6098C11.4092 32.9346 11.2507 33.2646 10.9546 33.4145C10.7437 33.5212 10.3508 33.663 9.9175 33.8055C9.46447 33.9545 8.91166 34.1221 8.34542 34.2794C7.77985 34.4365 7.19354 34.5854 6.67489 34.6957C6.1746 34.8021 5.67968 34.8855 5.32476 34.8855C5.05689 34.8855 4.81034 34.7395 4.68163 34.5045C3.91779 33.1104 2.90851 30.2473 2.05206 27.2408C1.19258 24.2236 0.456073 20.9528 0.269878 18.7184C0.245937 18.4312 0.392536 18.1565 0.64454 18.0165C3.99922 16.1528 10.877 14.1875 16.4185 13.6042ZM1.77831 19.0741C2.01 21.15 2.67309 24.0673 3.46261 26.8389C4.23057 29.5349 5.09323 32.0051 5.75185 33.3764C5.92344 33.3503 6.13081 33.3119 6.36982 33.2611C6.85004 33.159 7.40566 33.0182 7.95284 32.8662C8.49936 32.7144 9.03012 32.5534 9.45926 32.4123C9.59165 32.3687 9.71003 32.3284 9.81362 32.2921C9.76959 31.808 9.7821 31.2332 9.93976 30.6812C10.1869 29.8159 10.8058 28.993 12.0274 28.7487C13.1698 28.5202 14.0642 28.9495 14.6746 29.5344C15.0476 29.8917 15.3237 30.3125 15.5134 30.6988C16.2879 30.5456 17.238 30.2881 18.1262 30.0145C18.8679 29.7861 19.527 29.5588 19.9767 29.3872C19.6185 27.7159 19.2275 26.0865 18.8299 24.5483C18.4691 24.575 18.0641 24.5469 17.6592 24.4201C16.8803 24.1762 16.163 23.5831 15.7996 22.4928C15.4267 21.374 15.7059 20.4539 16.2394 19.7982C16.5367 19.4329 16.9029 19.1593 17.2552 18.9657C16.764 17.3607 16.3252 16.042 16.0018 15.1272C10.934 15.7382 4.93805 17.4574 1.77831 19.0741Z" fill="#042040"/>
    <path fill-rule="evenodd" clip-rule="evenodd" d="M26.9497 46.2406C27.0665 46.6913 27.181 47.1188 27.2936 47.5393C27.6083 48.7147 27.9085 49.8357 28.2041 51.2545C28.2815 51.626 28.0627 51.9952 27.6997 52.1056C26.645 52.4267 24.9822 52.9214 23.0089 53.4906C23.049 53.9901 23.029 54.5948 22.8497 55.1704C22.582 56.0295 21.9437 56.8374 20.7165 57.0525C19.569 57.2537 18.6851 56.8032 18.0888 56.2039C17.7463 55.8597 17.4908 55.4616 17.3115 55.0905C15.5851 55.5609 13.8284 56.0249 12.1694 56.4396C11.8042 56.5309 11.4291 56.3308 11.3016 55.9766C10.2175 52.9652 7.82029 45.6111 6.94411 40.3541C6.8881 40.018 7.07092 39.6876 7.38542 39.5566C8.41698 39.1268 9.9745 38.5314 11.8 37.9148C11.7513 37.4221 11.7598 36.8296 11.9221 36.2613C12.1693 35.396 12.7881 34.5731 14.0098 34.3288C15.1522 34.1003 16.0466 34.5296 16.657 35.1145C17.015 35.4576 17.2838 35.8591 17.4726 36.2324C19.3716 35.7551 21.3069 35.3673 23.0853 35.1801C23.4191 35.145 23.7342 35.341 23.8502 35.6559C24.0529 36.206 24.2242 36.8137 24.4275 37.5547C24.4532 37.6482 24.4795 37.7442 24.5064 37.8428C24.695 38.532 24.9189 39.3504 25.225 40.3753L25.2715 40.5312C25.3867 40.9178 25.1679 41.325 24.7819 41.4423C24.5488 41.5131 24.0067 41.8312 23.6058 42.3581C23.2275 42.8552 23.0267 43.4624 23.2644 44.1754C23.5064 44.9013 24.0129 45.2549 24.5667 45.4199C25.159 45.5964 25.7414 45.5327 25.9506 45.4626C26.1493 45.396 26.3671 45.4177 26.5489 45.5221C26.7306 45.6265 26.859 45.8036 26.9016 46.0089L26.9497 46.2406Z" fill="#FF8777"/>
    <path d="M32.9785 49.4855C38.4149 48.7648 46.6714 46.2424 48.4731 45.1614C48.0418 43.0911 47.5567 41.0767 47.0662 39.209L47.1534 39.165C48.0983 38.8419 49.8041 37.886 49.1938 36.1529C48.6115 34.4989 46.7706 34.5187 45.956 34.7231L45.8153 34.7615C45.1287 32.4731 44.5212 30.6769 44.1491 29.6667C42.3338 29.8578 40.3364 30.2653 38.3721 30.7684L38.4149 30.9246C38.5963 31.9066 38.5988 33.862 36.789 34.1792C35.0618 34.482 34.177 32.8675 33.9561 32.0574L33.8638 32.0874C31.6909 32.7957 29.8232 33.5038 28.6544 33.9908C28.9288 35.6371 29.3555 37.4961 29.8448 39.363L29.7355 39.3959C28.9342 39.6473 27.3542 40.5922 27.7218 42.3068C28.107 44.1033 30.0609 44.0272 31.0354 43.809L31.1042 43.79C31.8196 46.1393 32.5172 48.204 32.9785 49.4855Z" fill="white"/>
    <path fill-rule="evenodd" clip-rule="evenodd" d="M44.0726 28.9374C44.4064 28.9023 44.7214 29.0982 44.8374 29.4132C45.1805 30.3442 45.7154 31.9188 46.3262 33.9173C46.7764 33.8709 47.3204 33.8851 47.8584 34.0345C48.673 34.2606 49.4989 34.8104 49.8858 35.9093C50.2996 37.0844 49.9081 38.0367 49.2903 38.6911C48.886 39.1193 48.3831 39.4285 47.9358 39.6382C48.3741 41.3404 48.8041 43.1531 49.1913 45.0118C49.255 45.3173 49.1183 45.6296 48.8507 45.7902C48.3322 46.1013 47.4168 46.4822 46.3048 46.8818C45.1746 47.288 43.7883 47.7319 42.2922 48.1632C39.3055 49.0241 35.8437 49.8454 33.0751 50.2124C32.7331 50.2577 32.4057 50.0585 32.2888 49.7338C31.8644 48.5549 31.2441 46.7256 30.5933 44.6235C30.1069 44.6759 29.5259 44.6727 28.9663 44.5212C28.0976 44.286 27.2662 43.6786 27.0051 42.4605C26.7608 41.3214 27.1777 40.4211 27.7541 39.8026C28.1263 39.4033 28.5709 39.1111 28.972 38.9154C28.548 37.2494 28.1793 35.5992 27.9313 34.1114C27.8753 33.7753 28.0581 33.4449 28.3726 33.3139C29.5607 32.8189 31.4468 32.104 33.6367 31.3901L33.7295 31.36C33.9202 31.2979 34.1281 31.3167 34.3047 31.412C34.4812 31.5073 34.611 31.6708 34.6638 31.8644C34.7489 32.1763 34.9719 32.6607 35.3278 33.0183C35.6609 33.3532 36.083 33.5585 36.6626 33.4568C37.2453 33.3547 37.5106 33.0263 37.6488 32.583C37.7989 32.1011 37.7748 31.5154 37.6993 31.087L37.6651 30.9623C37.6132 30.7727 37.6395 30.5701 37.7383 30.4001C37.837 30.23 37.9999 30.1068 38.1904 30.058C40.1748 29.5497 42.2095 29.1335 44.0726 28.9374ZM39.2063 31.3158C39.2489 31.8198 39.2312 32.4346 39.049 33.0193C38.7813 33.8785 38.143 34.6864 36.9159 34.9015C35.7684 35.1026 34.8844 34.6521 34.2881 34.0528C33.9554 33.7184 33.7046 33.333 33.5262 32.971C31.9174 33.5083 30.5091 34.0334 29.4787 34.4464C29.7468 35.9164 30.1252 37.5391 30.5544 39.1771C30.6545 39.5589 30.4344 39.9514 30.0565 40.0652L29.9515 40.0968C29.643 40.1943 29.1697 40.4349 28.827 40.8026C28.505 41.1481 28.3158 41.5776 28.4391 42.153C28.5631 42.7314 28.9013 42.9842 29.3495 43.1055C29.8414 43.2387 30.4325 43.1903 30.8588 43.097L30.9096 43.083C31.2927 42.9774 31.6902 43.1962 31.806 43.5763C32.4209 45.5956 33.0222 47.4023 33.4692 48.6753C36.0353 48.2893 39.1473 47.5433 41.886 46.7539C43.3588 46.3293 44.7143 45.8949 45.8088 45.5016C46.586 45.2222 47.207 44.9722 47.641 44.7687C47.2421 42.9031 46.8021 41.0891 46.3571 39.3953C46.2692 39.0607 46.4272 38.7102 46.7361 38.5543L46.8233 38.5102C46.8534 38.4951 46.8846 38.482 46.9165 38.4711C47.3309 38.3294 47.8694 38.0596 48.2238 37.6842C48.5426 37.3466 48.6988 36.9544 48.5024 36.3964C48.3069 35.8413 47.9212 35.574 47.4661 35.4477C46.9833 35.3136 46.4558 35.355 46.1414 35.4327L46.0085 35.4689C45.6247 35.5736 45.2275 35.3532 45.1131 34.9722C44.5403 33.0628 44.024 31.5021 43.6565 30.4624C42.2441 30.6422 40.7275 30.9448 39.2063 31.3158Z" fill="#042040"/>
    <path fill-rule="evenodd" clip-rule="evenodd" d="M30.7503 3.78871C30.9925 3.55629 31.3615 3.51794 31.6463 3.6956C33.736 4.99935 39.238 8.74047 44.6497 13.3488C44.9386 13.5948 44.9921 14.0206 44.7731 14.3304C44.1596 15.1982 43.1989 16.5397 42.047 18.1215C42.4087 18.5032 42.8073 19.0326 43.0342 19.6502C43.3446 20.4949 43.3297 21.5244 42.4868 22.4418C41.6986 23.2997 40.723 23.4801 39.8852 23.3674C39.3662 23.2976 38.8892 23.1164 38.5055 22.9128C37.3958 24.3902 36.2536 25.886 35.1616 27.2762C34.929 27.5723 34.5101 27.6442 34.1921 27.4425C33.125 26.7657 31.4949 25.6884 29.6734 24.4128C29.3462 24.745 28.9271 25.085 28.4387 25.315C27.6246 25.6984 26.5977 25.7741 25.6097 25.0152C24.6859 24.3055 24.4204 23.3495 24.459 22.505C24.4871 21.8889 24.6743 21.3172 24.8832 20.8863C23.5468 19.8441 22.2642 18.782 21.1713 17.7726C20.921 17.5415 20.8628 17.1684 21.0309 16.8721C22.5816 14.1385 26.6986 7.67752 30.7503 3.78871Z" fill="#FF8777"/>
</svg>