<svg width="43" height="43" viewBox="0 0 43 43" fill="none" xmlns="http://www.w3.org/2000/svg">
    <path d="M15.2383 23.5077C15.7177 24.3956 16.5768 25.1532 17.2539 25.7175C18.4617 26.724 19.415 27.1283 20.1654 27.2049C19.8668 27.6049 18.2393 29.1067 17.7018 29.1067C16.582 29.1067 13.8945 27.0911 13.8945 26.4192C13.8945 25.9124 14.7904 24.1697 15.2383 23.5077Z" fill="white"/>
    <path fill-rule="evenodd" clip-rule="evenodd" d="M15.2634 23.0156C15.4354 23.0242 15.5905 23.1221 15.6724 23.2736C16.1011 24.0677 16.8885 24.7712 17.5699 25.339C18.7351 26.31 19.5984 26.6517 20.2159 26.7148C20.3924 26.7328 20.5456 26.8443 20.617 27.0068C20.6883 27.1692 20.6669 27.3575 20.5607 27.4997C20.3748 27.7487 19.8554 28.2548 19.3388 28.6846C19.0747 28.9043 18.7932 29.1194 18.5351 29.2824C18.4064 29.3637 18.2741 29.438 18.1462 29.4934C18.0275 29.5449 17.8697 29.5994 17.7023 29.5994C17.3048 29.5994 16.8422 29.4303 16.4193 29.2242C15.9789 29.0097 15.5135 28.7208 15.0898 28.414C14.6669 28.1077 14.2712 27.7732 13.9754 27.462C13.8281 27.3071 13.6955 27.1475 13.5965 26.9913C13.5071 26.8501 13.4023 26.6467 13.4023 26.4192C13.4023 26.1936 13.4904 25.9135 13.5801 25.672C13.6783 25.4077 13.8112 25.1068 13.955 24.808C14.2409 24.2139 14.5885 23.5895 14.8307 23.2316C14.9273 23.0889 15.0913 23.007 15.2634 23.0156ZM14.3906 26.3953C14.3967 26.4085 14.4081 26.431 14.4289 26.4638C14.4813 26.5465 14.5674 26.6545 14.6896 26.7831C14.9326 27.0388 15.2788 27.3342 15.6678 27.6158C16.0559 27.8969 16.4723 28.1539 16.8508 28.3383C17.2352 28.5256 17.5229 28.6091 17.6879 28.6138C17.6956 28.6117 17.7169 28.6055 17.7543 28.5893C17.8195 28.5611 17.9049 28.5149 18.0089 28.4492C18.2165 28.3181 18.4614 28.1327 18.7086 27.9271C18.8881 27.7777 19.0597 27.6254 19.2115 27.4842C18.5394 27.2447 17.7868 26.8025 16.939 26.096C16.4312 25.6729 15.7766 25.1068 15.258 24.4325C15.1207 24.6806 14.9759 24.9589 14.8429 25.2353C14.7068 25.5183 14.5877 25.7894 14.5039 26.0151C14.462 26.128 14.4311 26.2236 14.4112 26.2999C14.4014 26.3377 14.3951 26.3675 14.3915 26.3898C14.3911 26.3918 14.3909 26.3936 14.3906 26.3953Z" fill="#042040"/>
    <path d="M11.8795 14.1015C15.4629 12.489 18.8379 14.3254 20.0776 15.4452C19.1409 16.4484 18.2878 17.4088 17.5655 18.2492C16.3755 17.8976 14.9732 17.9589 13.8951 19.2525C11.6556 21.94 9.8639 21.716 8.7441 20.8202C7.62431 19.9244 7.40035 16.1171 11.8795 14.1015Z" fill="white"/>
    <path fill-rule="evenodd" clip-rule="evenodd" d="M11.6779 13.6521C15.5128 11.9264 19.0944 13.8927 20.4084 15.0796C20.5064 15.1681 20.5647 15.2923 20.5703 15.4243C20.576 15.5562 20.5284 15.6849 20.4382 15.7815C19.5067 16.7792 18.658 17.7345 17.9397 18.5704C17.8133 18.7174 17.6124 18.7767 17.4264 18.7218C16.3547 18.4051 15.1852 18.4746 14.2742 19.5679C13.1145 20.9596 12.0148 21.6662 10.9939 21.8638C9.95592 22.0647 9.08496 21.7235 8.43684 21.205C8.03908 20.8867 7.77328 20.3615 7.65014 19.7776C7.52468 19.1827 7.53581 18.4799 7.73785 17.7494C8.14574 16.2747 9.32227 14.7122 11.6779 13.6521ZM19.3602 15.4943C17.9751 14.4611 15.0954 13.1948 12.0822 14.5508C9.95865 15.5064 9.00757 16.8553 8.6876 18.0121C8.52571 18.5974 8.52284 19.1404 8.61435 19.5743C8.70816 20.0191 8.89028 20.3058 9.05242 20.4355C9.52408 20.8128 10.1089 21.0314 10.8066 20.8964C11.5213 20.758 12.4373 20.2329 13.5172 18.9371C14.665 17.5597 16.1445 17.4072 17.3936 17.6947C17.9791 17.0182 18.6422 16.2724 19.3602 15.4943Z" fill="#042040"/>
    <path d="M29.4864 29.2488C30.5706 25.4719 28.2709 22.3937 26.9855 21.3268C26.1264 22.3971 25.2977 23.3787 24.569 24.2136C25.087 25.3412 25.2267 26.7379 24.1003 27.9896C21.7602 30.5901 22.2378 32.3314 23.2844 33.3117C24.331 34.2921 28.1312 33.97 29.4864 29.2488Z" fill="white"/>
    <path fill-rule="evenodd" clip-rule="evenodd" d="M29.9593 29.3848C31.1196 25.3426 28.6619 22.0786 27.2995 20.9477C27.1979 20.8633 27.0666 20.8233 26.9352 20.8366C26.8038 20.8499 26.6832 20.9154 26.6006 21.0184C25.7461 22.0829 24.9218 23.0593 24.1971 23.8896C24.0696 24.0357 24.0396 24.243 24.1206 24.4192C24.5871 25.4348 24.6853 26.6022 23.7333 27.66C22.5216 29.0066 21.9793 30.1959 21.9295 31.2346C21.8789 32.2906 22.3411 33.1039 22.9469 33.6713C23.3186 34.0196 23.8764 34.2076 24.4719 34.2461C25.0787 34.2853 25.7727 34.1739 26.4668 33.8696C27.8681 33.2552 29.2466 31.8676 29.9593 29.3848ZM27.0387 22.0443C28.2592 23.2676 29.9238 25.937 29.0121 29.1129C28.3696 31.3512 27.1704 32.4852 26.0712 32.9671C25.515 33.2109 24.978 33.2913 24.5355 33.2627C24.0818 33.2334 23.7721 33.0941 23.6205 32.9522C23.1797 32.5392 22.8798 31.9917 22.9138 31.2818C22.9486 30.5547 23.3375 29.5731 24.4659 28.3192C25.6651 26.9864 25.6047 25.5003 25.1418 24.305C25.7278 23.6289 26.3712 22.8661 27.0387 22.0443Z" fill="#042040"/>
    <path fill-rule="evenodd" clip-rule="evenodd" d="M12.8923 27.5981C12.9833 27.8545 12.8492 28.1362 12.5928 28.2272C11.8297 28.4982 11.2117 29.1476 10.8204 30.3408C10.425 31.5464 10.2788 33.2645 10.4557 35.5637C10.4572 35.5837 10.4586 35.6037 10.4599 35.6236C10.9562 35.2316 11.5704 34.8861 12.2926 34.6798C13.0501 34.4634 14.0519 34.0911 14.9096 33.4673C15.7609 32.8482 16.4481 31.9994 16.6451 30.8174C16.6898 30.5489 16.9437 30.3676 17.2121 30.4124C17.4805 30.4571 17.6618 30.7109 17.6171 30.9794C17.3662 32.4849 16.4856 33.5396 15.4892 34.2643C14.4993 34.9842 13.3735 35.3958 12.5633 35.6273C11.4818 35.9363 10.6925 36.6347 10.2644 37.2322C10.1273 37.4235 9.87418 37.4911 9.65998 37.3938C9.44579 37.2964 9.33031 37.0612 9.38429 36.8322C9.47231 36.4588 9.50566 36.062 9.47314 35.6393C9.29167 33.2801 9.4311 31.4149 9.88404 30.0338C10.341 28.6403 11.1339 27.6996 12.2631 27.2986C12.5195 27.2076 12.8012 27.3416 12.8923 27.5981Z" fill="#042040"/>
    <path fill-rule="evenodd" clip-rule="evenodd" d="M32.1989 5.81834C33.0552 5.70346 33.8714 5.82613 34.5587 6.30721C34.5654 6.31195 34.5721 6.31686 34.5786 6.32193C35.2465 6.84143 35.4797 7.61125 35.4437 8.45098C35.4084 9.27718 35.1143 10.2235 34.6698 11.2164C33.7783 13.2079 32.2106 15.5398 30.5252 17.7589C27.1486 22.2048 23.2133 26.309 22.9787 26.5436C22.9594 26.5629 22.9302 26.5979 22.8914 26.6444C22.6657 26.915 22.1128 27.5777 21.2649 27.8415C20.1997 28.1729 18.7959 27.8965 16.9398 26.3498C16.2719 25.7932 15.3506 24.9897 14.8187 24.0188C14.5482 23.5249 14.3664 22.9673 14.3818 22.3621C14.3973 21.7517 14.6125 21.1339 15.0694 20.5246C16.0922 19.1609 19.6954 14.8264 23.6123 11.2195C25.5682 9.41831 27.6274 7.77511 29.4991 6.77974C30.4348 6.28212 31.3495 5.9323 32.1989 5.81834Z" fill="#A890F5"/>
    <path fill-rule="evenodd" clip-rule="evenodd" d="M27.1116 7.55113C27.1422 7.30566 27.3661 7.13154 27.6116 7.16223C29.4987 7.39812 32.7895 8.57305 34.67 12.099C34.7864 12.3173 34.7038 12.5886 34.4855 12.705C34.2673 12.8214 33.996 12.7389 33.8795 12.5206C32.1767 9.32783 29.1967 8.26317 27.5005 8.05114C27.255 8.02046 27.0809 7.7966 27.1116 7.55113ZM21.2867 12.7205C21.3073 12.474 21.5238 12.2908 21.7703 12.3114C22.5317 12.3748 23.3796 12.7013 24.2102 13.16C25.0474 13.6223 25.899 14.2366 26.6743 14.9114C27.4495 15.5861 28.1578 16.3294 28.7046 17.0548C29.2441 17.7706 29.6553 18.5068 29.7869 19.1647C29.8354 19.4073 29.6781 19.6432 29.4355 19.6917C29.193 19.7403 28.957 19.5829 28.9085 19.3404C28.8161 18.8784 28.4994 18.2709 27.9892 17.594C27.4861 16.9266 26.8227 16.2282 26.0862 15.5871C25.3497 14.9462 24.5496 14.3707 23.7772 13.9442C22.9981 13.514 22.2782 13.2526 21.6959 13.2041C21.4494 13.1836 21.2662 12.9671 21.2867 12.7205Z" fill="#042040"/>
    <path fill-rule="evenodd" clip-rule="evenodd" d="M30.6573 10.9836C30.5532 10.6709 30.336 10.4759 30.0693 10.3721C29.8049 10.2693 29.4949 10.2563 29.1956 10.2914C28.8947 10.3268 28.5929 10.412 28.3375 10.5171C28.0858 10.6207 27.8644 10.7496 27.7351 10.8803C27.6971 10.9187 27.653 10.9607 27.605 11.0063C27.3989 11.2022 27.1225 11.465 26.9649 11.795C26.8645 12.0051 26.8085 12.2465 26.84 12.5218C26.8713 12.7959 26.988 13.0934 27.2168 13.419C27.456 13.7593 27.7574 13.9431 28.0799 14.0149C28.3984 14.0857 28.7277 14.0453 29.0266 13.9559C29.326 13.8662 29.6029 13.7249 29.8218 13.5839C30.037 13.4453 30.2096 13.2982 30.2907 13.1899C30.3037 13.1726 30.3178 13.1539 30.3329 13.1341C30.464 12.9618 30.6649 12.6979 30.7806 12.3634C30.9116 11.9846 30.9335 11.5181 30.6573 10.9836Z" fill="white"/>
    </svg>
    