<svg width="96" height="96" viewBox="0 0 96 96" fill="none" xmlns="http://www.w3.org/2000/svg">
<path d="M81.7196 20.7282C81.7196 18.4397 17.5795 19.2026 13.7311 20.7282C12.265 21.3094 12.6607 52.0035 13.2159 67.2608C13.3893 72.0284 13.5784 75.2887 13.7311 75.652C13.987 76.2605 24.652 76.6264 37.4629 76.7494C44.326 76.8154 51.8049 76.8116 58.6292 76.7382C71.0019 76.6051 81.2226 76.2431 81.7196 75.652C82.0145 75.3013 82.1752 72.0867 82.2444 67.2608C82.4159 55.2923 82.0243 33.4129 81.7196 20.7282Z" fill="white"/>
<path fill-rule="evenodd" clip-rule="evenodd" d="M14.5677 21.7492C14.5306 21.92 14.4909 22.1461 14.451 22.4335C14.33 23.3052 14.2294 24.5696 14.1497 26.1586C13.9907 29.3269 13.9201 33.672 13.9126 38.4928C13.8977 48.1296 14.1351 59.6022 14.4122 67.2173C14.4988 69.597 14.589 71.5932 14.6762 73.0357C14.7199 73.758 14.7622 74.3316 14.802 74.7414C15.07 74.7836 15.4225 74.8272 15.8621 74.8705C17.0643 74.9889 18.7952 75.0945 20.9388 75.1857C25.2193 75.3678 31.0734 75.4898 37.4734 75.5513C44.3284 75.6172 51.7992 75.6134 58.6152 75.5401C64.7962 75.4736 70.4297 75.35 74.5747 75.1698C76.65 75.0796 78.3355 74.9758 79.5246 74.8598C80.0358 74.81 80.4361 74.7596 80.7279 74.7107C80.7795 74.329 80.8273 73.7785 80.8695 73.0639C80.9536 71.6403 81.0108 69.6514 81.0453 67.2437C81.2133 55.5178 80.8395 34.2332 80.5374 21.4566C80.1463 21.3704 79.5762 21.2829 78.8231 21.1995C77.1063 21.0092 74.6209 20.8585 71.5919 20.7455C65.5431 20.52 57.4246 20.4484 49.1744 20.4961C40.926 20.5437 32.561 20.7104 26.0225 20.96C22.7519 21.0849 19.948 21.2303 17.8478 21.391C16.7965 21.4714 15.9339 21.5548 15.2828 21.6398C14.9949 21.6773 14.7571 21.714 14.5677 21.7492ZM82.9166 20.7066C82.9102 20.3038 82.726 20.0031 82.5627 19.8217C82.4053 19.6468 82.2292 19.536 82.1039 19.4683C81.8525 19.3325 81.5596 19.241 81.2927 19.1731C80.7393 19.0323 79.9817 18.9168 79.087 18.8177C77.281 18.6176 74.7254 18.4644 71.6812 18.3509C65.5834 18.1235 57.4264 18.052 49.1605 18.0997C40.8929 18.1475 32.5013 18.3145 25.9311 18.5654C22.6474 18.6908 19.809 18.8375 17.6649 19.0016C16.5941 19.0836 15.6841 19.1708 14.9729 19.2635C14.3102 19.3499 13.6886 19.4558 13.2885 19.6144L13.2885 19.6144C12.8496 19.7883 12.6333 20.1396 12.552 20.2851C12.449 20.4695 12.3789 20.6669 12.3282 20.8372C12.2249 21.1842 12.1445 21.6211 12.0774 22.1039C11.9417 23.0817 11.837 24.4298 11.7563 26.0385C11.5944 29.2656 11.5238 33.6567 11.5163 38.4891C11.5013 48.159 11.7393 59.6621 12.0174 67.3044C12.1043 69.6923 12.1954 71.7101 12.2842 73.1803C12.3286 73.9141 12.373 74.5214 12.417 74.974C12.4389 75.1991 12.4618 75.3985 12.4865 75.5616C12.5038 75.6765 12.5399 75.9125 12.6255 76.1163L13.7301 75.652L12.6255 76.1163C12.7676 76.4541 13.0143 76.6357 13.1239 76.7081C13.2539 76.7939 13.3816 76.8488 13.4732 76.8836C13.6589 76.954 13.8671 77.0044 14.062 77.0435C14.4624 77.1239 14.9972 77.1932 15.6271 77.2553C16.8968 77.3804 18.6808 77.4881 20.8369 77.5798C25.1556 77.7636 31.0395 77.8859 37.4504 77.9475C44.3215 78.0135 51.8085 78.0098 58.641 77.9363C64.8328 77.8697 70.4959 77.7458 74.6788 77.5639C76.7674 77.4731 78.5035 77.3672 79.7572 77.2449C80.3804 77.1841 80.9107 77.1168 81.3148 77.04C81.5141 77.0022 81.7147 76.9561 81.8931 76.8965C81.9822 76.8667 82.0907 76.8254 82.2012 76.7673C82.2977 76.7166 82.477 76.6117 82.6356 76.4231C82.7745 76.2579 82.8491 76.0881 82.8865 75.9935C82.9296 75.8845 82.9612 75.7755 82.9853 75.6795C83.0333 75.4874 83.0711 75.2652 83.1026 75.0321C83.1662 74.5616 83.2182 73.9412 83.2617 73.2052C83.349 71.7275 83.4067 69.6962 83.4414 67.278C83.6133 55.2858 83.2212 33.391 82.9166 20.7066Z" fill="#042040"/>
<path fill-rule="evenodd" clip-rule="evenodd" d="M24.4734 29.885C25.0659 29.885 25.5463 30.3654 25.5463 30.958V31.6476C25.8868 31.6161 26.2788 31.5888 26.7139 31.565C27.9633 31.4968 29.6264 31.4545 31.5714 31.4315C35.4644 31.3854 40.5331 31.4161 45.7784 31.4774C50.7004 31.5349 55.7722 31.6191 60.1873 31.6923C64.4636 31.7633 68.1236 31.8241 70.4346 31.8404V30.958C70.4346 30.3654 70.915 29.885 71.5075 29.885C72.1001 29.885 72.5805 30.3654 72.5805 30.958V34.8775C72.5805 35.4701 72.1001 35.9505 71.5075 35.9505C70.915 35.9505 70.4346 35.4701 70.4346 34.8775V33.9864C68.1095 33.97 64.4179 33.9088 60.1159 33.8374C55.6993 33.7642 50.6392 33.6802 45.7533 33.6232C40.5113 33.562 35.4634 33.5315 31.5968 33.5772C29.662 33.6001 28.0346 33.642 26.8309 33.7078C26.3119 33.7361 25.8823 33.7684 25.5463 33.804V34.8775C25.5463 35.4701 25.0659 35.9505 24.4734 35.9505C23.8808 35.9505 23.4004 35.4701 23.4004 34.8775V30.958C23.4004 30.3654 23.8808 29.885 24.4734 29.885Z" fill="#042040"/>
<path fill-rule="evenodd" clip-rule="evenodd" d="M32.4615 27.4235C33.2185 27.2277 35.0488 26.9696 36.7918 27.4278C37.181 27.5302 37.4822 27.8386 37.5752 28.2301C37.7184 28.8326 37.8105 29.7925 37.8696 30.819C37.9303 31.8718 37.9603 33.0772 37.9603 34.2161C37.9603 35.3518 37.9305 36.4416 37.8683 37.2591C37.8377 37.6612 37.7968 38.0333 37.7391 38.3214C37.7122 38.4562 37.6698 38.6349 37.5958 38.8031C37.5603 38.8837 37.4896 39.0278 37.3614 39.1677C37.2308 39.3102 36.9466 39.5443 36.5145 39.5443H33.1961C32.6215 39.5443 32.2817 39.1693 32.1496 38.9899C32.0024 38.7899 31.9095 38.5663 31.8479 38.3897C31.7201 38.0232 31.6266 37.5584 31.5541 37.0753C31.4065 36.091 31.3151 34.8093 31.2746 33.5501C31.234 32.288 31.2432 31.0092 31.3056 30.0242C31.3363 29.5379 31.3821 29.0883 31.4502 28.7384C31.4829 28.5704 31.5307 28.3711 31.6086 28.1879C31.6471 28.0976 31.7131 27.9622 31.8232 27.8286C31.9244 27.7057 32.1308 27.5036 32.4615 27.4235Z" fill="#4A94E8"/>
<path fill-rule="evenodd" clip-rule="evenodd" d="M24.4734 45.0298C25.0659 45.0298 25.5463 45.5102 25.5463 46.1028V46.7924C25.8868 46.7608 26.2788 46.7336 26.7139 46.7098C27.9633 46.6416 29.6264 46.5993 31.5714 46.5762C35.4644 46.5301 40.5331 46.5609 45.7784 46.6222C50.7004 46.6796 55.7722 46.7638 60.1873 46.8371C64.4636 46.9081 68.1236 46.9689 70.4346 46.9852V46.1028C70.4346 45.5102 70.915 45.0298 71.5075 45.0298C72.1001 45.0298 72.5805 45.5102 72.5805 46.1028V50.0223C72.5805 50.6149 72.1001 51.0952 71.5075 51.0952C70.915 51.0952 70.4346 50.6149 70.4346 50.0223V49.1312C68.1095 49.1148 64.4179 49.0535 60.1159 48.9822C55.6993 48.9089 50.6392 48.825 45.7533 48.7679C40.5113 48.7067 35.4634 48.6762 31.5968 48.722C29.662 48.7449 28.0346 48.7868 26.8309 48.8525C26.3119 48.8809 25.8823 48.9131 25.5463 48.9487V50.0223C25.5463 50.6149 25.0659 51.0952 24.4734 51.0952C23.8808 51.0952 23.4004 50.6149 23.4004 50.0223V46.1028C23.4004 45.5102 23.8808 45.0298 24.4734 45.0298Z" fill="#042040"/>
<path fill-rule="evenodd" clip-rule="evenodd" d="M59.5923 42.5683C60.3494 42.3724 62.1797 42.1143 63.9226 42.5726C64.3118 42.6749 64.613 42.9834 64.7061 43.3749C64.8493 43.9774 64.9413 44.9373 65.0005 45.9638C65.0612 47.0166 65.0912 48.222 65.0912 49.3608C65.0912 50.4965 65.0613 51.5864 64.9992 52.4039C64.9686 52.806 64.9277 53.1781 64.87 53.4662C64.843 53.6009 64.8007 53.7797 64.7266 53.9479C64.6912 54.0285 64.6205 54.1726 64.4922 54.3125C64.3617 54.4549 64.0774 54.6891 63.6454 54.6891H60.327C59.7523 54.6891 59.4126 54.3141 59.2805 54.1347C59.1332 53.9347 59.0404 53.7111 58.9788 53.5345C58.851 53.168 58.7575 52.7032 58.685 52.22C58.5374 51.2358 58.446 49.954 58.4055 48.6949C58.3648 47.4328 58.3741 46.1539 58.4364 45.169C58.4672 44.6827 58.5129 44.2331 58.581 43.8832C58.6137 43.7152 58.6615 43.5159 58.7395 43.3327C58.778 43.2423 58.8439 43.107 58.954 42.9734C59.0552 42.8505 59.2616 42.6484 59.5923 42.5683Z" fill="#4A94E8"/>
<path fill-rule="evenodd" clip-rule="evenodd" d="M24.4734 60.1746C25.0659 60.1746 25.5463 60.6549 25.5463 61.2475V61.9371C25.8868 61.9056 26.2788 61.8783 26.7139 61.8546C27.9633 61.7863 29.6264 61.744 31.5714 61.721C35.4644 61.6749 40.5331 61.7057 45.7784 61.7669C50.7004 61.8244 55.7722 61.9086 60.1873 61.9819C64.4636 62.0529 68.1236 62.1136 70.4346 62.13V61.2475C70.4346 60.6549 70.915 60.1746 71.5075 60.1746C72.1001 60.1746 72.5805 60.6549 72.5805 61.2475V65.167C72.5805 65.7596 72.1001 66.24 71.5075 66.24C70.915 66.24 70.4346 65.7596 70.4346 65.167V64.2759C68.1095 64.2595 64.4179 64.1983 60.1159 64.127C55.6993 64.0537 50.6392 63.9698 45.7533 63.9127C40.5113 63.8515 35.4634 63.821 31.5968 63.8668C29.662 63.8897 28.0346 63.9316 26.8309 63.9973C26.3119 64.0257 25.8823 64.0579 25.5463 64.0935V65.167C25.5463 65.7596 25.0659 66.24 24.4734 66.24C23.8808 66.24 23.4004 65.7596 23.4004 65.167V61.2475C23.4004 60.6549 23.8808 60.1746 24.4734 60.1746Z" fill="#042040"/>
<path fill-rule="evenodd" clip-rule="evenodd" d="M45.524 57.713C46.281 57.5172 48.1113 57.2591 49.8543 57.7174C50.2435 57.8197 50.5447 58.1281 50.6377 58.5197C50.7809 59.1222 50.873 60.0821 50.9321 61.1086C50.9928 62.1613 51.0228 63.3667 51.0228 64.5056C51.0228 65.6413 50.993 66.7312 50.9308 67.5487C50.9002 67.9508 50.8593 68.3228 50.8016 68.6109C50.7747 68.7457 50.7323 68.9245 50.6583 69.0927C50.6228 69.1733 50.5521 69.3173 50.4239 69.4573C50.2933 69.5997 50.0091 69.8339 49.577 69.8339H46.2586C45.684 69.8339 45.3442 69.4589 45.2121 69.2795C45.0649 69.0795 44.972 68.8559 44.9104 68.6793C44.7826 68.3128 44.6891 67.8479 44.6166 67.3648C44.469 66.3806 44.3776 65.0988 44.3371 63.8397C44.2965 62.5775 44.3057 61.2987 44.3681 60.3138C44.3988 59.8274 44.4446 59.3779 44.5127 59.0279C44.5454 58.86 44.5932 58.6606 44.6711 58.4775C44.7096 58.3871 44.7756 58.2517 44.8857 58.1181C44.9869 57.9953 45.1933 57.7931 45.524 57.713Z" fill="#4A94E8"/>
</svg>
