<svg width="60" height="60" viewBox="0 0 60 60" fill="none" xmlns="http://www.w3.org/2000/svg">
<path d="M53.7092 11.3533C47.2763 9.9238 19.4002 9.20903 6.53426 11.3533C6.14482 17.0392 6.26462 29.4979 6.39424 37.4425C6.46288 41.6492 6.53426 48.5707 6.53426 49.6428C13.3486 50.2623 19.5075 50.5382 25.3357 50.6045C28.7068 50.6428 31.9204 50.611 34.9851 50.535C41.9056 50.3634 48.0672 49.9665 53.5692 49.6428C53.8 49.1813 54.1335 41.1339 54.2537 37.0852C54.5058 28.5939 54.4352 15.4673 53.7092 11.3533Z" fill="white"/>
<path fill-rule="evenodd" clip-rule="evenodd" d="M7.26586 12.0182C6.92589 17.9089 7.0407 29.7491 7.16602 37.4299C7.22566 41.0855 7.28744 46.7942 7.30262 48.9361C13.8183 49.5097 19.7346 49.7683 25.3439 49.8321C28.7046 49.8703 31.9088 49.8386 34.9654 49.7628C41.0985 49.6107 46.6335 49.2813 51.6535 48.9826C52.0751 48.9575 52.4931 48.9326 52.9075 48.9081C52.9325 48.6676 52.9588 48.3609 52.9858 47.998C53.0507 47.125 53.1174 45.9567 53.1809 44.671C53.3079 42.1011 53.4211 39.0822 53.4811 37.0622C53.6068 32.8282 53.6521 27.4354 53.5754 22.59C53.5044 18.1073 53.3295 14.1529 53.0288 12.0037C49.5584 11.3599 41.4465 10.8704 32.5262 10.7855C23.4441 10.699 13.6533 11.0329 7.26586 12.0182ZM32.5409 9.24072C41.9104 9.32996 50.5681 9.86413 53.8763 10.5993C54.181 10.667 54.4151 10.9116 54.4693 11.2191C54.845 13.3475 55.0433 17.7211 55.12 22.5655C55.1971 27.4346 55.1516 32.8508 55.0252 37.108C54.965 39.1368 54.8514 42.1659 54.7239 44.7473C54.6601 46.0372 54.5927 47.2204 54.5264 48.1125C54.4933 48.5576 54.46 48.9378 54.4267 49.2254C54.4102 49.3683 54.3927 49.4979 54.3736 49.6053L54.3732 49.6072C54.3604 49.6794 54.3309 49.8455 54.2595 49.9882C54.136 50.2354 53.8898 50.3977 53.614 50.4139C52.9997 50.45 52.3768 50.4871 51.7454 50.5247C46.7269 50.8234 41.1651 51.1544 35.0037 51.3072C31.9309 51.3833 28.7079 51.4152 25.3264 51.3768C19.4793 51.3103 13.3 51.0335 6.4638 50.412C6.06594 50.3759 5.76132 50.0423 5.76132 49.6428C5.76132 48.5773 5.69002 41.6611 5.6214 37.4551C5.49198 29.5228 5.37094 17.0264 5.76312 11.3005C5.78757 10.9436 6.05388 10.6502 6.40674 10.5914C12.91 9.50751 23.1522 9.15131 32.5409 9.24072Z" fill="#042040"/>
<path fill-rule="evenodd" clip-rule="evenodd" d="M32.6262 9.24085C42.0929 9.33007 50.8493 9.86419 54.1577 10.5994C54.4625 10.6671 54.6966 10.9117 54.7508 11.2192C54.8953 12.0377 55.0117 14.061 55.1031 15.6502C55.1209 15.9593 55.1377 16.252 55.1536 16.5161C55.1671 16.7401 55.0826 16.9588 54.922 17.1154C54.7615 17.2721 54.5408 17.3512 54.3172 17.3322C36.7136 15.8371 14.8423 16.7093 6.30721 17.3329C6.08954 17.3488 5.87531 17.2719 5.71747 17.1212C5.55963 16.9705 5.47293 16.76 5.4788 16.5418C5.48584 16.28 5.49337 15.9839 5.50142 15.6677C5.53951 14.1714 5.58913 12.2223 5.65226 11.3006C5.6767 10.9437 5.94302 10.6503 6.29588 10.5915C12.7994 9.50759 23.1399 9.15143 32.6262 9.24085Z" fill="#7FB5F1"/>
<path fill-rule="evenodd" clip-rule="evenodd" d="M9.4956 14.2474C9.47763 14.2515 9.47009 14.2539 9.47008 14.2538C9.47008 14.2538 9.47018 14.2538 9.47039 14.2537C9.19204 14.3465 8.89118 14.1961 8.7984 13.9178C8.70562 13.6394 8.85605 13.3385 9.13439 13.2458C9.27028 13.2005 9.4814 13.1665 9.73287 13.1358C10.0011 13.103 10.3634 13.0689 10.8317 13.0344C11.7692 12.9653 13.148 12.8934 15.0814 12.8282C18.9489 12.6977 25.0491 12.5935 34.3024 12.5935C34.5958 12.5935 34.8336 12.8314 34.8336 13.1248C34.8336 13.4182 34.5958 13.656 34.3024 13.656C25.0556 13.656 18.9684 13.7601 15.1172 13.8901C13.1912 13.9551 11.8278 14.0264 10.9098 14.094C10.4504 14.1279 10.1066 14.1605 9.86165 14.1904C9.73907 14.2054 9.64494 14.2192 9.57551 14.2315C9.54093 14.2376 9.5147 14.243 9.4956 14.2474Z" fill="white"/>
<path fill-rule="evenodd" clip-rule="evenodd" d="M41.6264 12.9875C41.9467 12.4449 42.5691 12.4487 42.9262 12.574C43.2457 12.6861 43.4652 12.9245 43.5512 13.2163C43.6303 13.4842 43.5854 13.7515 43.4911 13.9601C43.3968 14.1688 43.2259 14.379 42.9736 14.501C42.6993 14.6336 42.3737 14.6376 42.0732 14.4821C41.7798 14.3304 41.618 14.0566 41.5477 13.829C41.478 13.6035 41.4542 13.2791 41.6264 12.9875Z" fill="white"/>
<path fill-rule="evenodd" clip-rule="evenodd" d="M45.6079 13.0945C45.9282 12.552 46.5505 12.5557 46.9077 12.681C47.2272 12.7932 47.4466 13.0315 47.5327 13.3234C47.6117 13.5913 47.5668 13.8585 47.4726 14.0671C47.3782 14.2758 47.2073 14.4861 46.955 14.6081C46.6807 14.7407 46.3552 14.7446 46.0547 14.5892C45.7613 14.4374 45.5995 14.1636 45.5292 13.936C45.4595 13.7105 45.4357 13.3862 45.6079 13.0945Z" fill="white"/>
<path fill-rule="evenodd" clip-rule="evenodd" d="M49.5888 13.2017C49.9091 12.6592 50.5315 12.6629 50.8886 12.7882C51.2081 12.9003 51.4276 13.1387 51.5136 13.4305C51.5927 13.6985 51.5478 13.9657 51.4535 14.1743C51.3592 14.383 51.1883 14.5933 50.936 14.7153C50.6617 14.8478 50.3361 14.8518 50.0356 14.6964C49.7422 14.5446 49.5804 14.2708 49.5101 14.0432C49.4404 13.8177 49.4167 13.4933 49.5888 13.2017Z" fill="white"/>
<path d="M25.3044 42.4075C23.898 41.6983 22.7014 40.634 21.833 39.32C20.9646 38.006 20.4546 36.4879 20.3535 34.9161C20.2525 33.3443 20.5638 31.7734 21.2567 30.359C21.9496 28.9445 23 27.7357 24.3039 26.8522C25.6078 25.9687 27.12 25.4412 28.6905 25.322C29.3285 25.2736 29.8849 25.7515 29.9333 26.3895C29.9818 27.0275 29.5038 27.5839 28.8659 27.6324C27.6979 27.721 26.5733 28.1133 25.6036 28.7704C24.6339 29.4274 23.8527 30.3264 23.3374 31.3783C22.8221 32.4302 22.5906 33.5985 22.6658 34.7674C22.7409 35.9363 23.1202 37.0653 23.766 38.0425C24.4118 39.0197 25.3018 39.8113 26.3476 40.3387C27.3935 40.8661 28.559 41.1111 29.7288 41.0494C30.8985 40.9877 32.0318 40.6215 33.0164 39.987C34.0009 39.3526 34.8026 38.4719 35.342 37.4323C36.087 35.9954 35.9581 35.1288 35.7724 34.6236C35.5516 34.0231 35.8594 33.3573 36.4599 33.1365C37.0604 32.9157 37.7262 33.2235 37.947 33.824C38.3794 34.9999 38.413 36.5431 37.3988 38.4991C36.6734 39.8972 35.5954 41.0815 34.2714 41.9346C32.9475 42.7878 31.4236 43.2803 29.8508 43.3632C28.2779 43.4461 26.7107 43.1167 25.3044 42.4075Z" fill="#7FB5F1"/>
<path fill-rule="evenodd" clip-rule="evenodd" d="M38.4446 23.4337C38.8622 23.9185 38.8078 24.65 38.323 25.0676C37.3986 25.864 36.4664 27.093 35.5678 28.5417C34.6774 29.9772 33.8611 31.5602 33.1488 33.0149C32.8772 33.5696 32.6157 34.1166 32.3706 34.629C31.9887 35.4279 31.6468 36.1429 31.3693 36.6726C31.1531 37.0855 30.9086 37.5217 30.6595 37.805C30.5902 37.8837 30.4885 37.9884 30.355 38.0821C30.2316 38.1686 29.9862 38.3129 29.6481 38.3252C29.2508 38.3396 28.9159 38.1666 28.6947 37.9311C28.5075 37.7318 28.4237 37.5152 28.3844 37.3908C28.3383 37.2449 28.2105 36.9754 27.9781 36.5869C27.7563 36.2161 27.4748 35.7951 27.1673 35.3621C26.5526 34.4964 25.8666 33.6283 25.4262 33.0981C25.0174 32.6059 25.085 31.8755 25.5772 31.4667C26.0693 31.0578 26.7997 31.1254 27.2086 31.6176C27.6781 32.1829 28.4012 33.0978 29.0565 34.0206C29.2663 34.3161 29.4725 34.6171 29.663 34.9113C29.8403 34.55 30.0348 34.1428 30.2483 33.6961C30.4952 33.1792 30.7675 32.6094 31.0678 31.996C31.7913 30.5185 32.6474 28.8542 33.5989 27.3203C34.5422 25.7995 35.6213 24.3369 36.8107 23.3122C37.2954 22.8946 38.0269 22.949 38.4446 23.4337Z" fill="#7FB5F1"/>
</svg>
