<svg
  width="85"
  height="85"
  viewBox="0 0 85 85"
  fill="none"
  xmlns="http://www.w3.org/2000/svg"
>
  <path
    d="M23.9073 33.5746L20.3369 37.0996C18.1256 34.7121 14.8858 28.6233 19.2448 24.2225C22.732 20.7018 27.881 21.8227 30.0197 22.8233L30.1505 25.3199L48.7658 22.2581L46.9924 20.2649C48.8469 18.4987 53.5808 15.4134 57.68 17.2013C61.7792 18.9892 62.0142 25.5971 61.6194 28.6775L58.6631 27.998L59.2972 32.1371C60.6897 40.1308 59.7473 56.6472 44.8376 58.7637C29.928 60.8803 24.6717 42.8529 23.9073 33.5746Z"
    fill="white"
  />
  <path
    fill-rule="evenodd"
    clip-rule="evenodd"
    d="M37.8154 21.9446C21.187 24.7492 21.6149 38.9942 23.306 46.6382C24.997 54.2822 30.707 64.7465 45.4488 62.8761C62.7543 60.6804 65.9414 47.6257 64.183 38.6964C62.4246 29.7672 52.4461 17.9559 37.8154 21.9446ZM40.7652 28.3283C29.5315 30.2247 28.7287 39.8564 29.8714 45.0271C31.0142 50.1979 34.8723 57.2766 44.8314 56.012C56.5226 54.5276 58.6751 45.697 57.4868 39.6569C56.2985 33.6167 50.6493 25.6309 40.7652 28.3283Z"
    fill="#A890F5"
  />
  <path
    fill-rule="evenodd"
    clip-rule="evenodd"
    d="M41.723 31.2995C42.2318 31.2692 42.6688 31.6571 42.6991 32.1659C42.8974 35.5007 43.198 38.1936 43.9592 43.5391C45.8792 41.5845 46.8131 40.4148 48.0731 38.6765C48.3722 38.2638 48.9492 38.1717 49.3619 38.4708C49.7746 38.7699 49.8667 39.347 49.5676 39.7597C47.9857 41.9423 46.8727 43.288 43.9541 46.151C43.706 46.3944 43.3421 46.4778 43.0127 46.3667C42.6834 46.2555 42.4444 45.9688 42.3945 45.6248C41.4353 39.0175 41.081 36.0491 40.8565 32.2755C40.8263 31.7667 41.2142 31.3297 41.723 31.2995Z"
    fill="#042040"
  />
  <path
    fill-rule="evenodd"
    clip-rule="evenodd"
    d="M35.6372 18.6172C35.3215 19.8728 35.4087 21.4041 35.8334 22.4853C36.0197 22.9597 35.7862 23.4954 35.3118 23.6817C34.8373 23.8681 34.3017 23.6345 34.1153 23.1601C33.5391 21.6932 33.4451 19.7664 33.8471 18.1672C34.2369 16.6168 35.2343 14.95 37.1585 14.8491C38.9195 14.7568 40.3343 15.33 41.3025 16.5318C42.2301 17.6834 42.6524 19.2961 42.7478 21.115C42.7745 21.624 42.3834 22.0583 41.8744 22.0849C41.3654 22.1116 40.9312 21.7206 40.9045 21.2116C40.8186 19.5726 40.445 18.4096 39.8651 17.6897C39.3257 17.0202 38.5215 16.626 37.2551 16.6924C36.5844 16.7275 35.9652 17.3127 35.6372 18.6172ZM51.4807 16.2041C53.6917 15.4416 56.2643 15.1785 58.5558 16.4727C60.8419 17.7638 62.0259 20.1665 62.5609 22.508C63.0979 24.8584 63.0253 27.3221 62.6404 28.9952C62.5817 29.2503 62.4174 29.4686 62.1884 29.5955C61.9594 29.7224 61.6872 29.7461 61.4398 29.6606C58.8225 28.7568 55.2134 26.9834 52.1478 25.2255C50.6107 24.3441 49.1901 23.4551 48.0828 22.6669C47.5299 22.2733 47.043 21.8962 46.6546 21.5508C46.2854 21.2224 45.9363 20.863 45.7332 20.5009C45.5128 20.1078 45.6085 19.613 45.9596 19.3305C47.261 18.2832 49.2619 16.9693 51.4807 16.2041ZM47.8911 20.1803C48.2109 20.4638 48.6364 20.7953 49.1532 21.1631C50.1958 21.9053 51.5614 22.7615 53.066 23.6242C55.6854 25.1263 58.6653 26.6137 61.0168 27.5362C61.1688 26.213 61.1309 24.5362 60.7615 22.9192C60.2836 20.8277 59.2948 19.0099 57.6481 18.0799C56.007 17.153 54.0461 17.2719 52.0825 17.9491C50.5118 18.4907 49.0321 19.3605 47.8911 20.1803ZM29.1171 21.0678C29.8892 21.3556 30.5086 21.6935 30.7951 21.9392C31.1563 22.2489 31.2201 22.6703 31.2229 22.9258C31.2259 23.1941 31.167 23.4666 31.0951 23.7087C30.9489 24.2011 30.6789 24.7932 30.3446 25.4262C29.6692 26.7055 28.641 28.3193 27.4961 29.9631C25.2241 33.2252 22.3685 36.7823 20.7267 38.1745C20.3416 38.501 19.7656 38.4575 19.434 38.0768C17.9926 36.4223 16.5231 34.1507 15.945 31.6645C15.3568 29.1346 15.6975 26.375 17.8996 23.9308C20.5708 20.9658 23.5957 20.2649 26.0438 20.4145C27.253 20.4883 28.3126 20.7679 29.1171 21.0678ZM25.9313 22.2568C23.9687 22.1369 21.5177 22.6723 19.2709 25.1662C17.5386 27.0891 17.2674 29.2016 17.7428 31.2465C18.1535 33.0124 19.1248 34.7191 20.2173 36.1251C21.739 34.5917 24.0325 31.7065 25.9814 28.9082C27.1075 27.2914 28.0876 25.7477 28.7124 24.5644C29.0283 23.9662 29.2314 23.5007 29.3257 23.1832C29.3262 23.1817 29.3266 23.1801 29.3271 23.1785C29.3116 23.1702 29.2955 23.1616 29.2788 23.1528C29.0773 23.0468 28.8045 22.9211 28.4724 22.7973C27.8069 22.5493 26.9274 22.3177 25.9313 22.2568ZM63.2797 50.0003C63.7145 49.7343 64.2826 49.8711 64.5486 50.3059C65.5802 51.9922 67.0867 54.528 68.2513 56.6525C68.8312 57.7104 69.3386 58.6883 69.6592 59.4146C69.8149 59.7671 69.9499 60.1116 70.0161 60.3939C70.0447 60.516 70.0898 60.7404 70.0498 60.9809C70.0281 61.1108 69.9691 61.3228 69.7931 61.5142C69.5967 61.7277 69.3418 61.8217 69.1106 61.8338C68.8789 61.8459 68.6625 61.7829 68.5456 61.7459C68.399 61.6995 68.2397 61.6361 68.0785 61.5656C67.7543 61.4238 67.3595 61.2255 66.9293 60.9959C66.0655 60.5349 65.0017 59.9168 63.9608 59.2906C62.9178 58.6632 61.8879 58.0215 61.0885 57.5099C60.6892 57.2543 60.3445 57.0294 60.0831 56.8538C59.852 56.6986 59.6177 56.5375 59.5008 56.4323C59.1219 56.0913 59.0912 55.5078 59.4321 55.1289C59.7731 54.75 60.3566 54.7193 60.7355 55.0602C60.7323 55.0574 60.8359 55.1359 61.1122 55.3215C61.3583 55.4868 61.6906 55.7038 62.0835 55.9552C62.8687 56.4578 63.8842 57.0905 64.9123 57.709C65.8295 58.2607 66.7489 58.7965 67.5205 59.2174C67.2702 58.7207 66.9684 58.152 66.6328 57.5398C65.4877 55.451 63.9977 52.9426 62.974 51.2691C62.708 50.8343 62.8449 50.2663 63.2797 50.0003ZM68.2243 60.8432C68.2241 60.8425 68.2233 60.8384 68.2225 60.8313C68.2242 60.8401 68.2246 60.8439 68.2243 60.8432ZM69.1387 59.9967C69.1444 59.9977 69.1474 59.9985 69.1474 59.9986C69.1474 59.9987 69.1446 59.9982 69.1387 59.9967ZM30.3225 58.9852C30.8297 58.9354 31.2813 59.3063 31.3311 59.8135C31.4857 61.3894 31.7414 63.7941 32.0056 65.8856C32.0967 66.6072 32.1884 67.2873 32.2767 67.881C32.3469 67.7249 32.419 67.5613 32.4927 67.3911C33.1847 65.7934 33.9587 63.757 34.4604 62.3667C34.6334 61.8873 35.1624 61.6389 35.6418 61.812C36.1212 61.985 36.3696 62.5139 36.1966 62.9934C35.6885 64.4011 34.8999 66.4775 34.1864 68.1248C33.8329 68.9409 33.4828 69.6869 33.1851 70.1958C33.0479 70.4304 32.8724 70.7027 32.668 70.8924C32.5834 70.9709 32.3503 71.1751 31.9986 71.208C31.7925 71.2273 31.5735 71.184 31.3778 71.0634C31.1948 70.9506 31.0835 70.8022 31.0186 70.6878C30.8934 70.4672 30.8162 70.1588 30.764 69.9306C30.7014 69.6568 30.6374 69.3153 30.5732 68.931C30.4445 68.1603 30.3077 67.1726 30.1743 66.1169C29.9073 64.003 29.6498 61.5802 29.4941 59.9938C29.4443 59.4865 29.8152 59.0349 30.3225 58.9852Z"
    fill="#042040"
  />
</svg>