<svg width="163" height="164" viewBox="0 0 163 164" fill="none" xmlns="http://www.w3.org/2000/svg">
<path fill-rule="evenodd" clip-rule="evenodd" d="M71.1759 27.1329C27.5685 32.1581 26.7403 69.2463 30.0948 89.3473C33.4492 109.448 46.8667 137.428 85.4427 134.575C130.727 131.224 140.791 97.7227 137.436 74.2715C134.082 50.8203 109.752 18.7574 71.1759 27.1329ZM77.9747 44.1286C48.5145 47.5279 45.1153 72.456 47.3815 86.0531C49.6476 99.6502 58.7122 118.577 84.7733 116.647C115.367 114.38 122.165 91.7185 119.899 75.8552C117.633 59.9919 104.036 38.4631 77.9747 44.1286Z" fill="#17C7EE"/>
<path d="M80.0767 54.3838C80.1453 64.1191 80.6543 71.8021 82.2459 89.0915C90.1333 82.1256 93.1142 78.8754 97.4304 73.5329" stroke="#08386F" stroke-width="4.77508" stroke-linecap="round" stroke-linejoin="round"/>
<path d="M46.7615 124.798C47.1373 133.061 48.1143 150.037 49.0162 151.839C49.918 153.642 56.1559 139.821 59.1621 132.685M124.547 118.038C125.674 119.165 144.839 132.685 147.094 132.685C148.897 132.685 139.578 114.658 134.693 105.644M63.6714 29.0275C61.4167 22.2672 63.6714 11 70.4354 11C78.3267 11 81.7086 16.6336 81.7086 25.6473M23.0877 65.0823C31.457 58.7077 54.0558 30.554 51.2708 27.9007C49.6389 26.3459 34.3609 17.7603 20.833 31.2809C10.0107 42.0974 16.3237 56.4442 23.0877 65.0823ZM94.1092 23.3939C96.4482 28.1304 119.473 42.9296 132.438 48.1816C134.693 40.2946 134.468 24.0699 124.547 17.7603C114.627 11.4507 100.873 18.5114 94.1092 23.3939Z" stroke="#08386F" stroke-width="4.77508" stroke-linecap="round" stroke-linejoin="round"/>
</svg>
