<svg width="117" height="72" viewBox="0 0 117 72" fill="none"
  xmlns="http://www.w3.org/2000/svg">
  <g clip-path="url(#clip0_2420_7967)">
    <path d="M12.9189 62.8617C12.3783 62.4261 11.6838 61.9274 10.8308 61.431C10.7137 61.3604 9.96828 60.9307 9.09114 60.5481C7.12239 59.6892 5.15275 59.3526 4.02046 59.2081C4.68634 59.0375 5.69773 58.7782 6.91749 58.4359C15.3102 56.1204 41.7632 48.8206 41.7802 41.5373C41.792 35.0332 20.7247 31.9536 21.2234 27.7685C21.5621 24.9173 31.6435 23.6774 41.9487 23.0971" stroke="#FF866B" stroke-width="1.774" stroke-linecap="round" stroke-linejoin="round"/>
    <path d="M5.33992 58.8561C5.67738 58.0616 6.10724 57.1926 6.65244 56.2754C7.37609 55.0605 8.1336 54.0506 8.82852 53.2343C7.22494 55.2233 5.62136 57.2123 4.01581 59.2062" stroke="#FF866B" stroke-width="1.774" stroke-linecap="round" stroke-linejoin="round"/>
  </g>
  <path d="M55.296 16.832C55.12 16.8 54.936 16.712 54.744 16.568C54.568 16.408 54.408 16.232 54.264 16.04C54.136 15.832 54.048 15.648 54 15.488C54 15.456 53.976 15.416 53.928 15.368C53.896 15.32 53.88 15.296 53.88 15.296C53.816 15.248 53.776 15.04 53.76 14.672C53.76 14.288 53.784 13.864 53.832 13.4C53.88 12.936 53.936 12.568 54 12.296C54.08 12.04 54.2 11.696 54.36 11.264C54.52 10.816 54.656 10.416 54.768 10.064L55.416 8.672L54.456 8.408C54.344 8.376 54.248 8.312 54.168 8.216C54.104 8.12 54.072 8.04 54.072 7.976C54.072 7.848 54.144 7.696 54.288 7.52C54.432 7.328 54.536 7.232 54.6 7.232C54.68 7.248 54.824 7.256 55.032 7.256C55.256 7.256 55.472 7.248 55.68 7.232C55.888 7.216 56.016 7.2 56.064 7.184C56.128 7.152 56.192 7.112 56.256 7.064C56.32 7 56.368 6.912 56.4 6.8C56.48 6.624 56.552 6.464 56.616 6.32C56.68 6.16 56.768 5.984 56.88 5.792C56.992 5.584 57.08 5.408 57.144 5.264C57.224 5.12 57.344 4.92 57.504 4.664C57.584 4.552 57.672 4.416 57.768 4.256C57.864 4.096 57.984 3.96 58.128 3.848C58.272 3.72 58.416 3.664 58.56 3.68C58.72 3.68 58.92 3.784 59.16 3.992C59.288 4.152 59.36 4.272 59.376 4.352C59.392 4.432 59.328 4.584 59.184 4.808C59.056 5.08 58.904 5.352 58.728 5.624C58.568 5.896 58.416 6.168 58.272 6.44C58.016 6.792 57.968 6.992 58.128 7.04C58.288 7.088 58.736 7.056 59.472 6.944C59.936 6.864 60.272 6.888 60.48 7.016C60.688 7.128 60.808 7.32 60.84 7.592C60.888 7.976 60.848 8.208 60.72 8.288C60.592 8.368 60.224 8.408 59.616 8.408C59.232 8.472 58.904 8.512 58.632 8.528C58.36 8.528 58.16 8.528 58.032 8.528C57.824 8.544 57.688 8.552 57.624 8.552C57.56 8.552 57.464 8.568 57.336 8.6C57.208 8.632 57.112 8.688 57.048 8.768C57 8.832 56.944 8.928 56.88 9.056C56.816 9.12 56.72 9.288 56.592 9.56C56.464 9.832 56.304 10.128 56.112 10.448C55.888 11.12 55.696 11.792 55.536 12.464C55.376 13.12 55.248 13.76 55.152 14.384C55.088 14.784 55.096 15.064 55.176 15.224C55.256 15.368 55.464 15.456 55.8 15.488C55.976 15.504 56.256 15.504 56.64 15.488C57.04 15.456 57.352 15.408 57.576 15.344C57.752 15.264 57.936 15.184 58.128 15.104C58.32 15.008 58.496 14.912 58.656 14.816C58.8 14.736 58.944 14.656 59.088 14.576C59.232 14.48 59.304 14.432 59.304 14.432C59.384 14.304 59.472 14.264 59.568 14.312C59.664 14.36 59.744 14.48 59.808 14.672C59.808 14.864 59.768 15.064 59.688 15.272C59.608 15.48 59.312 15.728 58.8 16.016C58.08 16.464 57.416 16.736 56.808 16.832C56.216 16.912 55.712 16.912 55.296 16.832ZM62.8093 16.256C62.7613 16.272 62.6813 16.264 62.5693 16.232C62.4573 16.2 62.3453 16.16 62.2333 16.112C62.1213 16.064 62.0493 16.024 62.0173 15.992C61.9533 15.928 61.8893 15.832 61.8253 15.704C61.7773 15.576 61.7773 15.392 61.8253 15.152C61.8733 14.896 62.0333 14.568 62.3053 14.168C62.3853 14.008 62.4813 13.768 62.5933 13.448C62.7053 13.128 62.8173 12.792 62.9293 12.44C63.0573 12.072 63.1693 11.744 63.2653 11.456C63.3773 11.168 63.4573 10.968 63.5053 10.856C63.5373 10.584 63.5213 10.392 63.4573 10.28C63.4093 10.152 63.2733 10.08 63.0493 10.064C62.8893 10.064 62.7613 10.048 62.6653 10.016C62.5853 9.984 62.5453 9.824 62.5453 9.536C62.5773 9.312 62.6333 9.16 62.7133 9.08C62.8093 8.984 62.9373 8.88 63.0973 8.768C63.2573 8.688 63.4173 8.632 63.5773 8.6C63.7533 8.568 63.9213 8.56 64.0813 8.576C64.2413 8.592 64.3693 8.648 64.4653 8.744C64.5773 8.808 64.6493 8.952 64.6813 9.176C64.7133 9.384 64.7293 9.6 64.7293 9.824C64.7453 10.048 64.7613 10.216 64.7773 10.328C64.9373 10.2 65.1533 10.024 65.4253 9.8C65.7133 9.56 65.9613 9.336 66.1693 9.128C66.4253 8.952 66.7293 8.776 67.0813 8.6C67.4333 8.408 67.6893 8.312 67.8493 8.312C68.0253 8.312 68.2013 8.36 68.3773 8.456C68.5533 8.536 68.6733 8.64 68.7373 8.768C68.8973 9.04 68.9693 9.28 68.9533 9.488C68.9533 9.696 68.8653 9.912 68.6893 10.136C68.5293 10.344 68.3293 10.488 68.0893 10.568C67.8653 10.648 67.7213 10.688 67.6573 10.688C67.5613 10.688 67.4413 10.616 67.2973 10.472C67.1533 10.328 67.0733 10.208 67.0573 10.112C67.0573 10.064 66.9533 10.112 66.7453 10.256C66.5533 10.384 66.3373 10.552 66.0973 10.76C65.8573 10.952 65.6573 11.128 65.4973 11.288C65.2253 11.624 64.9373 12.08 64.6333 12.656C64.3293 13.232 63.9693 13.928 63.5533 14.744C63.3613 15.144 63.2253 15.488 63.1453 15.776C63.0653 16.048 62.9533 16.208 62.8093 16.256ZM71.6738 22.52C71.6578 22.552 71.5858 22.52 71.4578 22.424C71.3458 22.328 71.2338 22.208 71.1217 22.064C71.0098 21.936 70.9618 21.824 70.9778 21.728C70.9138 21.504 70.9218 21.224 71.0018 20.888C71.0978 20.568 71.2978 20.088 71.6018 19.448C71.7618 19.192 71.9058 18.888 72.0338 18.536C72.1778 18.184 72.3378 17.832 72.5138 17.48C72.5938 17.336 72.7698 17.024 73.0418 16.544C73.3138 16.064 73.6018 15.52 73.9058 14.912C74.2258 14.304 74.4898 13.728 74.6978 13.184C74.2818 13.616 73.8978 14.056 73.5458 14.504C73.1938 14.936 72.8658 15.288 72.5618 15.56C72.2738 15.832 72.0018 15.96 71.7458 15.944C71.5378 15.896 71.3138 15.824 71.0738 15.728C70.8498 15.616 70.6978 15.424 70.6178 15.152C70.5538 14.8 70.5298 14.352 70.5458 13.808C70.5778 13.264 70.6818 12.44 70.8578 11.336C70.9858 10.792 71.0578 10.376 71.0738 10.088C71.1058 9.784 71.0978 9.56 71.0498 9.416C71.0018 9.272 70.9138 9.144 70.7858 9.032C70.5778 8.84 70.4658 8.672 70.4498 8.528C70.4498 8.368 70.5618 8.232 70.7858 8.12C71.1218 8.04 71.3618 8.016 71.5058 8.048C71.6498 8.064 71.8258 8.192 72.0338 8.432C72.1618 8.64 72.2738 8.84 72.3698 9.032C72.4818 9.208 72.5378 9.52 72.5378 9.968C72.5378 10.16 72.5058 10.416 72.4418 10.736C72.3938 11.056 72.3458 11.36 72.2978 11.648C72.2658 11.92 72.2418 12.112 72.2258 12.224C72.0658 12.816 71.9618 13.328 71.9138 13.76C71.8818 14.192 71.9058 14.408 71.9858 14.408C72.3058 14.152 72.6098 13.864 72.8978 13.544C73.2018 13.208 73.5138 12.832 73.8338 12.416C74.1698 11.984 74.5378 11.496 74.9378 10.952C75.0818 10.68 75.2258 10.416 75.3698 10.16C75.5138 9.904 75.6338 9.64 75.7298 9.368C75.8258 9.16 75.9218 8.992 76.0178 8.864C76.1138 8.736 76.1938 8.664 76.2578 8.648C76.3378 8.616 76.4338 8.624 76.5458 8.672C76.6738 8.72 76.7858 8.776 76.8818 8.84C76.9938 8.888 77.0498 8.928 77.0498 8.96C77.0658 8.976 77.1058 8.992 77.1698 9.008C77.2338 9.024 77.2978 9.04 77.3618 9.056C77.4418 9.056 77.4818 9.08 77.4818 9.128C77.4818 9.16 77.4418 9.264 77.3618 9.44C77.2978 9.616 77.2178 9.816 77.1218 10.04C77.0418 10.248 76.9698 10.44 76.9058 10.616C76.8418 10.776 76.8178 10.872 76.8338 10.904C76.8658 10.936 76.8418 11.056 76.7618 11.264C76.6818 11.456 76.5858 11.672 76.4738 11.912C76.3778 12.152 76.2898 12.368 76.2098 12.56C76.0498 13.088 75.8658 13.616 75.6578 14.144C75.4498 14.656 75.2018 15.168 74.9138 15.68C74.8178 15.872 74.6738 16.168 74.4818 16.568C74.3058 16.968 74.1298 17.36 73.9538 17.744C73.7938 18.144 73.6658 18.448 73.5698 18.656C73.5058 18.784 73.4098 18.984 73.2818 19.256C73.1698 19.544 73.0418 19.856 72.8978 20.192C72.7698 20.528 72.6418 20.84 72.5138 21.128C72.3858 21.432 72.2898 21.664 72.2258 21.824C72.1938 22.128 72.1218 22.352 72.0098 22.496C71.9458 22.496 71.8738 22.496 71.7938 22.496C71.7138 22.512 71.6738 22.52 71.6738 22.52ZM84.2499 16.232C84.1219 16.104 84.0259 15.944 83.9619 15.752C83.9139 15.56 83.8979 15.368 83.9139 15.176C83.9299 14.984 83.9699 14.824 84.0339 14.696C84.0339 14.568 84.0499 14.472 84.0819 14.408C84.1299 14.328 84.1459 14.256 84.1299 14.192C84.1139 14.128 84.1299 14.016 84.1779 13.856C84.2259 13.696 84.2739 13.544 84.3219 13.4C84.4339 13.144 84.5539 12.84 84.6819 12.488C84.8099 12.12 84.9299 11.76 85.0419 11.408C85.1539 11.056 85.2499 10.752 85.3299 10.496C85.4099 10.24 85.4579 10.08 85.4739 10.016C85.4739 9.824 85.6019 9.72 85.8579 9.704C86.0499 9.64 86.1939 9.64 86.2899 9.704C86.3859 9.752 86.5139 9.904 86.6739 10.16C86.8019 10.288 86.8499 10.48 86.8179 10.736C86.7859 10.992 86.6819 11.312 86.5059 11.696C86.4419 11.824 86.3619 12.008 86.2659 12.248C86.1859 12.488 86.1299 12.704 86.0979 12.896C86.0339 13.024 85.9539 13.208 85.8579 13.448C85.7779 13.672 85.7059 13.888 85.6419 14.096C85.6099 14.176 85.5779 14.296 85.5459 14.456C85.5139 14.6 85.4739 14.76 85.4259 14.936C85.3779 15.096 85.3139 15.24 85.2339 15.368C85.0899 16.024 84.9539 16.408 84.8259 16.52C84.7139 16.632 84.5219 16.536 84.2499 16.232ZM86.5779 6.488C86.4979 6.408 86.4259 6.296 86.3619 6.152C86.2979 5.992 86.2579 5.848 86.2419 5.72C86.2259 5.576 86.2419 5.504 86.2899 5.504C86.4179 5.488 86.5699 5.352 86.7459 5.096C86.9219 4.84 86.9939 4.616 86.9619 4.424C86.9619 4.36 86.9859 4.304 87.0339 4.256C87.0819 4.192 87.1379 4.152 87.2019 4.136C87.3939 4.008 87.5779 3.992 87.7539 4.088C87.9459 4.168 88.1219 4.336 88.2819 4.592C88.4259 4.896 88.4659 5.152 88.4019 5.36C88.3379 5.552 88.1619 5.824 87.8739 6.176C87.6339 6.496 87.4099 6.672 87.2019 6.704C87.0099 6.736 86.8019 6.664 86.5779 6.488ZM90.3585 16.832C90.1825 16.8 89.9985 16.712 89.8065 16.568C89.6305 16.408 89.4705 16.232 89.3265 16.04C89.1985 15.832 89.1105 15.648 89.0625 15.488C89.0625 15.456 89.0385 15.416 88.9905 15.368C88.9585 15.32 88.9425 15.296 88.9425 15.296C88.8785 15.248 88.8385 15.04 88.8225 14.672C88.8225 14.288 88.8465 13.864 88.8945 13.4C88.9425 12.936 88.9985 12.568 89.0625 12.296C89.1425 12.04 89.2625 11.696 89.4225 11.264C89.5825 10.816 89.7185 10.416 89.8305 10.064L90.4785 8.672L89.5185 8.408C89.4065 8.376 89.3105 8.312 89.2305 8.216C89.1665 8.12 89.1345 8.04 89.1345 7.976C89.1345 7.848 89.2065 7.696 89.3505 7.52C89.4945 7.328 89.5985 7.232 89.6625 7.232C89.7425 7.248 89.8865 7.256 90.0945 7.256C90.3185 7.256 90.5345 7.248 90.7425 7.232C90.9505 7.216 91.0785 7.2 91.1265 7.184C91.1905 7.152 91.2545 7.112 91.3185 7.064C91.3825 7 91.4305 6.912 91.4625 6.8C91.5425 6.624 91.6145 6.464 91.6785 6.32C91.7425 6.16 91.8305 5.984 91.9425 5.792C92.0545 5.584 92.1425 5.408 92.2065 5.264C92.2865 5.12 92.4065 4.92 92.5665 4.664C92.6465 4.552 92.7345 4.416 92.8305 4.256C92.9265 4.096 93.0465 3.96 93.1905 3.848C93.3345 3.72 93.4785 3.664 93.6225 3.68C93.7825 3.68 93.9825 3.784 94.2225 3.992C94.3505 4.152 94.4225 4.272 94.4385 4.352C94.4545 4.432 94.3905 4.584 94.2465 4.808C94.1185 5.08 93.9665 5.352 93.7905 5.624C93.6305 5.896 93.4785 6.168 93.3345 6.44C93.0785 6.792 93.0305 6.992 93.1905 7.04C93.3505 7.088 93.7985 7.056 94.5345 6.944C94.9985 6.864 95.3345 6.888 95.5425 7.016C95.7505 7.128 95.8705 7.32 95.9025 7.592C95.9505 7.976 95.9105 8.208 95.7825 8.288C95.6545 8.368 95.2865 8.408 94.6785 8.408C94.2945 8.472 93.9665 8.512 93.6945 8.528C93.4225 8.528 93.2225 8.528 93.0945 8.528C92.8865 8.544 92.7505 8.552 92.6865 8.552C92.6225 8.552 92.5265 8.568 92.3985 8.6C92.2705 8.632 92.1745 8.688 92.1105 8.768C92.0625 8.832 92.0065 8.928 91.9425 9.056C91.8785 9.12 91.7825 9.288 91.6545 9.56C91.5265 9.832 91.3665 10.128 91.1745 10.448C90.9505 11.12 90.7585 11.792 90.5985 12.464C90.4385 13.12 90.3105 13.76 90.2145 14.384C90.1505 14.784 90.1585 15.064 90.2385 15.224C90.3185 15.368 90.5265 15.456 90.8625 15.488C91.0385 15.504 91.3185 15.504 91.7025 15.488C92.1025 15.456 92.4145 15.408 92.6385 15.344C92.8145 15.264 92.9985 15.184 93.1905 15.104C93.3825 15.008 93.5585 14.912 93.7185 14.816C93.8625 14.736 94.0065 14.656 94.1505 14.576C94.2945 14.48 94.3665 14.432 94.3665 14.432C94.4465 14.304 94.5345 14.264 94.6305 14.312C94.7265 14.36 94.8065 14.48 94.8705 14.672C94.8705 14.864 94.8305 15.064 94.7505 15.272C94.6705 15.48 94.3745 15.728 93.8625 16.016C93.1425 16.464 92.4785 16.736 91.8705 16.832C91.2785 16.912 90.7745 16.912 90.3585 16.832ZM52.896 39.776C52.512 39.888 52.088 39.904 51.624 39.824C51.176 39.76 50.784 39.624 50.448 39.416C50.096 39.208 49.896 38.976 49.848 38.72C49.832 38.624 49.864 38.52 49.944 38.408C50.008 38.296 50.096 38.216 50.208 38.168C50.304 38.136 50.392 38.168 50.472 38.264C50.6 38.344 50.832 38.44 51.168 38.552C51.504 38.68 51.88 38.704 52.296 38.624C52.664 38.544 53.024 38.328 53.376 37.976C53.744 37.624 54.04 37.296 54.264 36.992C54.392 36.8 54.608 36.456 54.912 35.96C55.216 35.464 55.528 34.92 55.848 34.328C56.184 33.72 56.464 33.16 56.688 32.648C56.736 32.52 56.792 32.368 56.856 32.192C56.92 32.016 57 31.872 57.096 31.76C57.192 31.568 57.272 31.392 57.336 31.232C57.416 31.056 57.464 30.936 57.48 30.872C57.496 30.792 57.568 30.632 57.696 30.392C57.824 30.152 57.944 29.912 58.056 29.672C58.136 29.432 58.256 29.08 58.416 28.616C58.576 28.152 58.736 27.776 58.896 27.488C59.088 27.12 59.24 26.824 59.352 26.6C59.48 26.36 59.616 26.216 59.76 26.168C59.904 26.056 60 26 60.048 26C60.112 26 60.232 26.048 60.408 26.144C60.6 26.336 60.72 26.528 60.768 26.72C60.816 26.896 60.792 27.12 60.696 27.392C60.616 27.648 60.456 28 60.216 28.448C60.088 28.832 59.944 29.184 59.784 29.504C59.64 29.808 59.528 30.008 59.448 30.104C59.368 30.296 59.272 30.512 59.16 30.752C59.064 30.976 58.976 31.184 58.896 31.376C58.608 32.016 58.36 32.536 58.152 32.936C57.944 33.336 57.76 33.704 57.6 34.04C57.44 34.376 57.272 34.768 57.096 35.216C56.728 35.808 56.368 36.368 56.016 36.896C55.68 37.44 55.32 37.944 54.936 38.408C54.776 38.552 54.576 38.72 54.336 38.912C54.096 39.104 53.848 39.28 53.592 39.44C53.352 39.6 53.12 39.712 52.896 39.776ZM56.136 34.016C55.896 33.984 55.656 33.84 55.416 33.584C55.192 33.328 55.016 33.056 54.888 32.768C54.76 32.48 54.712 32.272 54.744 32.144C54.744 32.064 54.744 32 54.744 31.952C54.744 31.904 54.744 31.88 54.744 31.88C54.648 31.88 54.56 31.76 54.48 31.52C54.416 31.28 54.368 30.968 54.336 30.584C54.304 30.2 54.28 29.792 54.264 29.36C54.264 28.928 54.28 28.52 54.312 28.136C54.376 27.864 54.408 27.568 54.408 27.248C54.408 26.912 54.416 26.648 54.432 26.456C54.416 26.2 54.44 26.032 54.504 25.952C54.568 25.856 54.632 25.784 54.696 25.736C55.144 25.544 55.44 25.664 55.584 26.096C55.744 26.512 55.784 27.296 55.704 28.448C55.672 29.088 55.672 29.728 55.704 30.368C55.736 31.008 55.824 31.568 55.968 32.048C56.128 32.528 56.344 32.856 56.616 33.032C56.728 33.096 56.784 33.184 56.784 33.296C56.784 33.408 56.752 33.528 56.688 33.656C56.624 33.768 56.536 33.864 56.424 33.944C56.328 34.008 56.232 34.032 56.136 34.016ZM63.2357 34.64C63.0277 34.64 62.8597 34.6 62.7317 34.52C62.6197 34.44 62.4757 34.328 62.2997 34.184C61.9957 33.864 61.7797 33.56 61.6517 33.272C61.5237 32.968 61.4837 32.68 61.5317 32.408C61.5797 32.28 61.5957 32.16 61.5797 32.048C61.5797 31.92 61.5797 31.856 61.5797 31.856C61.4997 31.776 61.4757 31.728 61.5077 31.712C61.5397 31.68 61.5717 31.632 61.6037 31.568C61.6997 31.568 61.7317 31.48 61.6997 31.304C61.6677 31.176 61.7317 30.896 61.8917 30.464C62.0517 30.032 62.2517 29.624 62.4917 29.24C62.5877 29.08 62.7317 28.872 62.9237 28.616C63.1157 28.344 63.3237 28.08 63.5477 27.824C63.7877 27.552 64.0037 27.336 64.1957 27.176C64.5957 26.84 64.9477 26.592 65.2517 26.432C65.5557 26.272 65.8837 26.152 66.2357 26.072C66.5877 25.992 66.8277 25.952 66.9557 25.952C67.0997 25.952 67.2917 26.08 67.5317 26.336C67.8997 26.496 68.1637 26.688 68.3237 26.912C68.4997 27.136 68.6117 27.464 68.6597 27.896C68.7077 28.376 68.6677 28.928 68.5397 29.552C68.4277 30.16 68.0517 30.92 67.4117 31.832C67.0117 32.408 66.6437 32.84 66.3077 33.128C65.9717 33.4 65.5717 33.672 65.1077 33.944C64.7717 34.168 64.4677 34.336 64.1957 34.448C63.9237 34.544 63.6037 34.608 63.2357 34.64ZM65.5397 32.096C65.9237 31.664 66.2277 31.256 66.4517 30.872C66.6917 30.488 66.9157 30 67.1237 29.408C67.1877 29.232 67.2277 29.016 67.2437 28.76C67.2597 28.488 67.2517 28.24 67.2197 28.016C67.2037 27.776 67.1477 27.64 67.0517 27.608C66.8597 27.496 66.6277 27.464 66.3557 27.512C66.0837 27.544 65.7877 27.696 65.4677 27.968C64.9717 28.384 64.5397 28.904 64.1717 29.528C63.8037 30.136 63.4437 30.832 63.0917 31.616C62.8517 32.192 62.7957 32.656 62.9237 33.008C63.0677 33.344 63.3637 33.464 63.8117 33.368C64.2757 33.256 64.8517 32.832 65.5397 32.096ZM75.6806 34.952C75.5686 35.016 75.4166 34.992 75.2246 34.88C75.0486 34.768 74.8726 34.6 74.6966 34.376C74.5846 34.184 74.5046 33.976 74.4566 33.752C74.4246 33.528 74.4086 33.216 74.4086 32.816C74.4246 32.496 74.4086 32.288 74.3606 32.192C74.3286 32.096 74.2406 32.112 74.0966 32.24C73.9526 32.352 73.7046 32.584 73.3526 32.936C72.9526 33.336 72.5686 33.648 72.2006 33.872C71.8486 34.096 71.5606 34.2 71.3366 34.184C71.2246 34.184 71.0966 34.128 70.9526 34.016C70.8246 33.888 70.7046 33.736 70.5926 33.56C70.4806 33.368 70.3846 33.176 70.3046 32.984C70.2086 32.632 70.1926 32.184 70.2566 31.64C70.3366 31.08 70.4646 30.496 70.6406 29.888C70.8166 29.28 71.0166 28.704 71.2406 28.16C71.4806 27.616 71.7206 27.176 71.9606 26.84C72.2166 26.504 72.4406 26.336 72.6326 26.336C72.7606 26.336 72.8726 26.4 72.9686 26.528C73.0806 26.656 73.1926 26.856 73.3046 27.128C73.3686 27.24 73.3926 27.336 73.3766 27.416C73.3766 27.496 73.3126 27.592 73.1846 27.704C73.0406 27.896 72.8726 28.184 72.6806 28.568C72.5046 28.952 72.3286 29.368 72.1526 29.816C71.9926 30.264 71.8486 30.696 71.7206 31.112C71.5926 31.528 71.5046 31.872 71.4566 32.144C71.4086 32.4 71.4166 32.528 71.4806 32.528C71.7046 32.528 71.9686 32.44 72.2726 32.264C72.5926 32.072 72.8966 31.84 73.1846 31.568C73.5206 31.232 73.8166 30.864 74.0726 30.464C74.3446 30.064 74.6166 29.64 74.8886 29.192C75.0966 28.872 75.3126 28.52 75.5366 28.136C75.7766 27.752 75.9286 27.48 75.9926 27.32C76.2166 26.904 76.3846 26.624 76.4966 26.48C76.6086 26.32 76.7446 26.216 76.9046 26.168C76.9846 26.168 77.0566 26.168 77.1206 26.168C77.2006 26.168 77.2406 26.168 77.2406 26.168C77.3366 26.184 77.4486 26.256 77.5766 26.384C77.7046 26.448 77.7766 26.512 77.7926 26.576C77.8086 26.624 77.8166 26.688 77.8166 26.768C77.7526 26.928 77.6486 27.168 77.5046 27.488C77.3766 27.792 77.2806 28.016 77.2166 28.16C76.9126 28.848 76.6086 29.528 76.3046 30.2C76.0166 30.856 75.8086 31.528 75.6806 32.216C75.6486 32.44 75.6406 32.704 75.6566 33.008C75.6886 33.296 75.7366 33.504 75.8006 33.632C75.8486 33.728 75.9046 33.84 75.9686 33.968C76.0486 34.08 76.1366 34.176 76.2326 34.256C76.3766 34.352 76.4006 34.456 76.3046 34.568C76.2246 34.68 76.1126 34.776 75.9686 34.856C75.8246 34.92 75.7286 34.952 75.6806 34.952ZM80.3874 34.256C80.3394 34.272 80.2594 34.264 80.1474 34.232C80.0354 34.2 79.9234 34.16 79.8114 34.112C79.6994 34.064 79.6274 34.024 79.5954 33.992C79.5314 33.928 79.4674 33.832 79.4034 33.704C79.3554 33.576 79.3554 33.392 79.4034 33.152C79.4514 32.896 79.6114 32.568 79.8834 32.168C79.9634 32.008 80.0594 31.768 80.1714 31.448C80.2834 31.128 80.3954 30.792 80.5074 30.44C80.6354 30.072 80.7474 29.744 80.8434 29.456C80.9554 29.168 81.0354 28.968 81.0834 28.856C81.1154 28.584 81.0994 28.392 81.0354 28.28C80.9874 28.152 80.8514 28.08 80.6274 28.064C80.4674 28.064 80.3394 28.048 80.2434 28.016C80.1634 27.984 80.1234 27.824 80.1234 27.536C80.1554 27.312 80.2114 27.16 80.2914 27.08C80.3874 26.984 80.5154 26.88 80.6754 26.768C80.8354 26.688 80.9954 26.632 81.1554 26.6C81.3314 26.568 81.4994 26.56 81.6594 26.576C81.8194 26.592 81.9474 26.648 82.0434 26.744C82.1554 26.808 82.2274 26.952 82.2594 27.176C82.2914 27.384 82.3074 27.6 82.3074 27.824C82.3234 28.048 82.3394 28.216 82.3554 28.328C82.5154 28.2 82.7314 28.024 83.0034 27.8C83.2914 27.56 83.5394 27.336 83.7474 27.128C84.0034 26.952 84.3074 26.776 84.6594 26.6C85.0114 26.408 85.2674 26.312 85.4274 26.312C85.6034 26.312 85.7794 26.36 85.9554 26.456C86.1314 26.536 86.2514 26.64 86.3154 26.768C86.4754 27.04 86.5474 27.28 86.5314 27.488C86.5314 27.696 86.4434 27.912 86.2674 28.136C86.1074 28.344 85.9074 28.488 85.6674 28.568C85.4434 28.648 85.2994 28.688 85.2354 28.688C85.1394 28.688 85.0194 28.616 84.8754 28.472C84.7314 28.328 84.6514 28.208 84.6354 28.112C84.6354 28.064 84.5314 28.112 84.3234 28.256C84.1314 28.384 83.9154 28.552 83.6754 28.76C83.4354 28.952 83.2354 29.128 83.0754 29.288C82.8034 29.624 82.5154 30.08 82.2114 30.656C81.9074 31.232 81.5474 31.928 81.1314 32.744C80.9394 33.144 80.8034 33.488 80.7234 33.776C80.6434 34.048 80.5314 34.208 80.3874 34.256ZM89.7799 34.664C88.9799 34.664 88.3959 34.376 88.0279 33.8C87.9159 33.64 87.8599 33.48 87.8599 33.32C87.8759 33.144 87.9239 33.024 88.0039 32.96C88.0999 32.896 88.2119 32.952 88.3399 33.128C88.5639 33.256 88.8839 33.32 89.2999 33.32C89.5079 33.32 89.7239 33.304 89.9479 33.272C90.1719 33.224 90.3959 33.16 90.6199 33.08C90.8599 32.968 91.0199 32.872 91.0999 32.792C91.1799 32.696 91.1639 32.616 91.0519 32.552H91.0759C90.6599 32.44 90.2359 32.264 89.8039 32.024C89.3879 31.768 89.0279 31.496 88.7239 31.208C88.4199 30.904 88.2439 30.632 88.1959 30.392C88.0679 29.896 88.0999 29.392 88.2919 28.88C88.4839 28.352 88.7559 27.888 89.1079 27.488C89.2359 27.408 89.3959 27.312 89.5879 27.2C89.7799 27.072 89.9319 27 90.0439 26.984V27.008C90.3479 26.688 90.7159 26.432 91.1479 26.24C91.5959 26.048 92.0679 25.872 92.5639 25.712L92.9239 25.664C93.1159 25.632 93.2759 25.616 93.4039 25.616C93.3879 25.616 93.4199 25.632 93.4999 25.664C93.5799 25.68 93.6519 25.696 93.7159 25.712C93.8119 25.76 93.8919 25.784 93.9559 25.784C94.1639 25.816 94.3559 25.912 94.5319 26.072C94.7079 26.232 94.8439 26.424 94.9399 26.648C95.0519 26.856 95.0919 27.056 95.0599 27.248C95.0279 27.552 94.9319 27.824 94.7719 28.064C94.6279 28.304 94.4519 28.44 94.2439 28.472C94.2759 28.456 94.2519 28.432 94.1719 28.4C94.1079 28.352 94.0359 28.304 93.9559 28.256L93.8839 28.304C93.8839 28.304 93.8759 28.288 93.8599 28.256C93.8599 28.208 93.8439 28.152 93.8119 28.088C93.7639 27.992 93.7399 27.888 93.7399 27.776C93.7399 27.648 93.7479 27.512 93.7639 27.368C93.7959 27.192 93.7959 27.088 93.7639 27.056C93.7479 27.024 93.6439 27 93.4519 26.984C93.2279 26.936 92.8999 26.976 92.4679 27.104C92.0519 27.232 91.6999 27.408 91.4119 27.632C91.0599 27.856 90.7639 28.072 90.5239 28.28C90.2839 28.472 90.0919 28.664 89.9479 28.856C89.8039 29.032 89.6759 29.24 89.5639 29.48C89.4839 29.592 89.4119 29.704 89.3479 29.816C89.2999 29.912 89.2759 30 89.2759 30.08C89.2759 30.256 89.4039 30.44 89.6599 30.632C89.9319 30.808 90.3319 31.016 90.8599 31.256C91.2759 31.432 91.6279 31.624 91.9159 31.832C92.2039 32.04 92.4039 32.28 92.5159 32.552C92.5479 32.616 92.5559 32.696 92.5399 32.792C92.5399 32.872 92.5239 32.928 92.4919 32.96C92.5239 32.992 92.5399 33.016 92.5399 33.032V33.008C92.6679 33.2 92.6679 33.4 92.5399 33.608C92.4279 33.816 92.2279 34 91.9399 34.16C91.6679 34.304 91.3319 34.416 90.9319 34.496H90.9559C90.7479 34.56 90.5399 34.608 90.3319 34.64C90.1399 34.656 89.9559 34.664 89.7799 34.664ZM97.4316 34.424C96.8076 34.168 96.3996 33.816 96.2076 33.368C96.0316 32.904 95.9996 32.192 96.1116 31.232C96.1436 30.736 96.1596 30.408 96.1596 30.248C96.1596 30.088 96.0716 29.928 95.8956 29.768C95.8476 29.704 95.7596 29.616 95.6316 29.504C95.5196 29.392 95.4716 29.296 95.4876 29.216C95.4716 29.104 95.4796 28.984 95.5116 28.856C95.5436 28.712 95.5916 28.64 95.6556 28.64C95.7196 28.64 95.7836 28.624 95.8476 28.592C95.9276 28.56 95.9996 28.56 96.0636 28.592C96.1276 28.592 96.1996 28.6 96.2796 28.616C96.3596 28.632 96.3996 28.672 96.3996 28.736C96.4636 28.848 96.5676 28.864 96.7116 28.784C96.8556 28.688 97.0076 28.48 97.1676 28.16C97.3276 27.904 97.5356 27.648 97.7916 27.392C98.0636 27.136 98.3276 26.904 98.5836 26.696C98.8556 26.472 99.0796 26.312 99.2556 26.216C99.3356 26.184 99.4556 26.144 99.6156 26.096C99.7756 26.048 99.9436 26.008 100.12 25.976C100.312 25.944 100.472 25.936 100.6 25.952C100.888 25.968 101.128 26.048 101.32 26.192C101.528 26.336 101.72 26.504 101.896 26.696C102.104 26.84 102.232 27.032 102.28 27.272C102.344 27.512 102.36 27.768 102.328 28.04C102.296 28.312 102.224 28.56 102.112 28.784C102.064 28.944 101.928 29.136 101.704 29.36C101.48 29.584 101.224 29.8 100.936 30.008C100.648 30.216 100.384 30.368 100.144 30.464C99.9356 30.512 99.6636 30.552 99.3276 30.584C99.0076 30.616 98.7036 30.632 98.4156 30.632C98.1436 30.616 97.9596 30.584 97.8636 30.536C97.7516 30.472 97.6636 30.56 97.5996 30.8C97.5356 31.04 97.4876 31.384 97.4556 31.832C97.4236 32.184 97.4236 32.44 97.4556 32.6C97.4876 32.76 97.5196 32.872 97.5516 32.936C97.6636 33.048 97.8156 33.192 98.0076 33.368C98.2156 33.528 98.5036 33.552 98.8716 33.44C99.1756 33.36 99.4716 33.152 99.7596 32.816C100.064 32.48 100.344 32.208 100.6 32C100.664 31.888 100.768 31.824 100.912 31.808C101.072 31.776 101.24 31.784 101.416 31.832C101.592 31.944 101.664 32.08 101.632 32.24C101.616 32.384 101.536 32.608 101.392 32.912C101.344 33.024 101.232 33.168 101.056 33.344C100.896 33.504 100.712 33.672 100.504 33.848C100.312 34.008 100.136 34.136 99.9756 34.232C99.4956 34.488 99.0476 34.624 98.6316 34.64C98.2156 34.64 97.8156 34.568 97.4316 34.424ZM98.8476 29.552C99.1996 29.472 99.4796 29.416 99.6876 29.384C99.8956 29.352 100.096 29.264 100.288 29.12C100.48 28.96 100.72 28.664 101.008 28.232C101.072 28.056 101.088 27.88 101.056 27.704C101.04 27.528 101 27.408 100.936 27.344C100.792 27.184 100.616 27.136 100.408 27.2C100.216 27.248 100.032 27.336 99.8556 27.464C99.7436 27.512 99.5756 27.632 99.3516 27.824C99.1436 28 98.9356 28.208 98.7276 28.448C98.5196 28.672 98.3516 28.88 98.2236 29.072C98.0956 29.264 98.0636 29.376 98.1276 29.408C98.0956 29.472 98.1836 29.512 98.3916 29.528C98.6156 29.544 98.7676 29.552 98.8476 29.552ZM104.276 35C103.972 35.08 103.724 35.016 103.532 34.808C103.356 34.6 103.252 34.28 103.22 33.848C103.188 33.416 103.236 32.904 103.364 32.312C103.444 32.12 103.508 31.936 103.556 31.76C103.604 31.568 103.628 31.416 103.628 31.304C103.66 31.144 103.724 30.912 103.82 30.608C103.916 30.288 104.02 29.96 104.132 29.624C104.244 29.288 104.348 28.992 104.444 28.736C104.556 28.464 104.628 28.296 104.66 28.232C104.724 28.232 104.78 28.176 104.828 28.064C104.876 27.952 104.9 27.84 104.9 27.728C104.9 27.6 104.924 27.456 104.972 27.296C105.036 27.136 105.1 27.024 105.164 26.96C105.164 26.88 105.18 26.792 105.212 26.696C105.26 26.584 105.284 26.496 105.284 26.432C105.284 26.368 105.3 26.304 105.332 26.24C105.38 26.176 105.404 26.112 105.404 26.048C105.516 25.84 105.66 25.512 105.836 25.064C106.028 24.6 106.228 24.088 106.436 23.528C106.66 22.968 106.868 22.416 107.06 21.872C107.252 21.328 107.404 20.872 107.516 20.504C107.644 20.12 107.708 19.888 107.708 19.808C107.708 19.68 107.74 19.584 107.804 19.52C107.868 19.456 107.964 19.424 108.092 19.424C108.14 19.376 108.196 19.344 108.26 19.328C108.34 19.312 108.412 19.304 108.476 19.304C108.476 19.304 108.508 19.336 108.572 19.4C108.636 19.464 108.732 19.56 108.86 19.688C108.988 19.8 109.06 19.928 109.076 20.072C109.108 20.216 109.124 20.384 109.124 20.576C109.124 20.784 109.1 20.968 109.052 21.128C109.004 21.288 108.908 21.52 108.764 21.824C108.62 22.128 108.396 22.6 108.092 23.24C107.964 23.56 107.828 23.864 107.684 24.152C107.54 24.424 107.468 24.592 107.468 24.656C107.468 24.72 107.436 24.816 107.372 24.944C107.324 25.072 107.268 25.232 107.204 25.424C107.14 25.552 107.052 25.744 106.94 26C106.828 26.24 106.708 26.504 106.58 26.792C106.468 27.064 106.372 27.304 106.292 27.512C106.212 27.704 106.172 27.816 106.172 27.848C106.172 27.912 106.164 27.976 106.148 28.04C106.148 28.104 106.116 28.168 106.052 28.232C105.988 28.232 105.948 28.28 105.932 28.376C105.932 28.456 105.932 28.496 105.932 28.496C105.932 28.656 105.804 29.08 105.548 29.768C105.292 30.648 105.052 31.456 104.828 32.192C104.62 32.928 104.516 33.52 104.516 33.968C104.516 34.352 104.508 34.608 104.492 34.736C104.476 34.848 104.404 34.936 104.276 35ZM108.859 36.8C108.651 36.816 108.459 36.72 108.283 36.512C108.107 36.304 107.963 36 107.851 35.6C107.755 35.216 107.707 34.76 107.707 34.232C107.643 33.576 107.699 32.744 107.875 31.736C108.051 30.712 108.315 29.568 108.667 28.304C108.795 27.872 108.979 27.344 109.219 26.72C109.459 26.096 109.707 25.48 109.963 24.872C110.235 24.264 110.475 23.752 110.683 23.336C110.891 22.904 111.019 22.664 111.067 22.616C111.163 22.648 111.211 22.576 111.211 22.4C111.211 22.368 111.275 22.248 111.403 22.04C111.531 21.832 111.651 21.608 111.763 21.368C111.971 21.064 112.219 20.768 112.507 20.48C112.795 20.176 113.091 19.912 113.395 19.688C113.715 19.448 114.003 19.28 114.259 19.184C114.499 19.088 114.739 19.04 114.979 19.04C115.283 19.04 115.555 19.112 115.795 19.256C116.051 19.4 116.251 19.6 116.395 19.856C116.539 20.096 116.611 20.368 116.611 20.672C116.611 20.928 116.555 21.176 116.443 21.416C116.395 21.656 116.299 21.912 116.155 22.184C116.027 22.44 115.891 22.68 115.747 22.904C115.619 23.112 115.515 23.272 115.435 23.384C115.227 23.496 115.051 23.544 114.907 23.528C114.763 23.512 114.731 23.448 114.811 23.336C114.811 23.272 114.827 23.192 114.859 23.096C114.907 23 114.939 22.896 114.955 22.784C114.955 22.752 114.987 22.656 115.051 22.496C115.131 22.336 115.171 22.176 115.171 22.016C115.315 21.44 115.379 21.032 115.363 20.792C115.363 20.552 115.291 20.432 115.147 20.432C115.067 20.416 114.939 20.448 114.763 20.528C114.587 20.608 114.427 20.704 114.283 20.816C114.139 20.912 114.067 21 114.067 21.08C114.067 21.128 114.067 21.16 114.067 21.176C114.019 21.16 113.867 21.296 113.611 21.584C113.371 21.856 113.099 22.192 112.795 22.592C112.507 22.976 112.267 23.328 112.075 23.648C111.947 23.92 111.779 24.28 111.571 24.728C111.363 25.176 111.123 25.752 110.851 26.456L110.659 27.032L111.043 27.08C111.171 27.096 111.371 27.088 111.643 27.056C111.915 27.008 112.179 26.96 112.435 26.912C112.979 26.832 113.363 26.832 113.587 26.912C113.811 26.992 113.979 27.16 114.091 27.416C114.267 27.8 114.139 28.064 113.707 28.208C113.275 28.336 112.451 28.432 111.235 28.496C110.979 28.464 110.755 28.456 110.563 28.472C110.387 28.472 110.267 28.504 110.203 28.568C110.139 28.6 110.051 28.776 109.939 29.096C109.827 29.4 109.707 29.768 109.579 30.2C109.467 30.616 109.379 31.016 109.315 31.4C109.187 31.896 109.099 32.408 109.051 32.936C109.003 33.448 108.987 33.928 109.003 34.376C109.019 34.808 109.059 35.144 109.123 35.384C109.219 35.768 109.243 36.08 109.195 36.32C109.163 36.56 109.051 36.72 108.859 36.8Z" fill="#FF866B"/>
  <defs>
    <clipPath id="clip0_2420_7967">
      <rect width="49.3706" height="30.0227" fill="white" transform="matrix(0.379815 -0.925063 -0.925063 -0.379815 30.7709 71.0345)"/>
    </clipPath>
  </defs>
</svg>
